<?xml version="1.0" encoding="UTF-8" standalone="no"?>
<!DOCTYPE svg PUBLIC "-//W3C//DTD SVG 1.1//EN"
 "http://www.w3.org/Graphics/SVG/1.1/DTD/svg11.dtd">
<!-- Generated by graphviz version 2.40.1 (20161225.0304)
 -->
<!-- Title: TELEMETRIA::TELEMETRIA Pages: 1 -->
<svg width="450pt" height="45pt"
 viewBox="0.00 0.00 450.00 45.00" xmlns="http://www.w3.org/2000/svg" xmlns:xlink="http://www.w3.org/1999/xlink">
<g id="graph0" class="graph" transform="scale(1 1) rotate(0) translate(4 41)">
<title>TELEMETRIA::TELEMETRIA</title>
<polygon fill="#ffffff" stroke="transparent" points="-4,4 -4,-41 446,-41 446,4 -4,4"/>
<!-- Node3 -->
<g id="node1" class="node">
<title>Node3</title>
<polygon fill="#bfbfbf" stroke="#000000" points="0,-.5 0,-17.5 132,-17.5 132,-.5 0,-.5"/>
<text text-anchor="middle" x="66" y="-7.1" font-family="DejaVuSansMono" font-size="8.00" fill="#000000">TELEMETRIA::TELEMETRIA</text>
</g>
<!-- Node4 -->
<g id="node2" class="node">
<title>Node4</title>
<g id="a_node2"><a xlink:href="classTELEMETRIA.html#ace27ccd5888ebc3802a4eb22cc3fd9da" target="_top" xlink:title="TELEMETRIA::OnDataRecv">
<polygon fill="#ffffff" stroke="#000000" points="168,-19.5 168,-36.5 300,-36.5 300,-19.5 168,-19.5"/>
<text text-anchor="middle" x="234" y="-26.1" font-family="DejaVuSansMono" font-size="8.00" fill="#000000">TELEMETRIA::OnDataRecv</text>
</a>
</g>
</g>
<!-- Node3&#45;&gt;Node4 -->
<g id="edge1" class="edge">
<title>Node3&#45;&gt;Node4</title>
<path fill="none" stroke="#191970" d="M142.5946,-17.6625C151.0134,-18.6146 159.5322,-19.578 167.8092,-20.5141"/>
<polygon fill="#191970" stroke="#191970" points="142.7281,-14.1553 132.398,-16.5093 141.9413,-21.111 142.7281,-14.1553"/>
</g>
<!-- Node5 -->
<g id="node3" class="node">
<title>Node5</title>
<g id="a_node3"><a xlink:href="classTELEMETRIA.html#a780be82ef9be2da12601a0ea7d10e647" target="_top" xlink:title="TELEMETRIA::begin">
<polygon fill="#ffffff" stroke="#000000" points="336,-.5 336,-17.5 442,-17.5 442,-.5 336,-.5"/>
<text text-anchor="middle" x="389" y="-7.1" font-family="DejaVuSansMono" font-size="8.00" fill="#000000">TELEMETRIA::begin</text>
</a>
</g>
</g>
<!-- Node4&#45;&gt;Node5 -->
<g id="edge2" class="edge">
<title>Node4&#45;&gt;Node5</title>
<path fill="none" stroke="#191970" d="M310.2411,-18.6543C318.8383,-17.6005 327.4562,-16.5441 335.6714,-15.5371"/>
<polygon fill="#191970" stroke="#191970" points="309.6834,-15.1964 300.1835,-19.8872 310.5351,-22.1444 309.6834,-15.1964"/>
</g>
<!-- Node5&#45;&gt;Node3 -->
<g id="edge3" class="edge">
<title>Node5&#45;&gt;Node3</title>
<path fill="none" stroke="#191970" d="M325.6373,-9C269.8114,-9 188.7864,-9 132.1433,-9"/>
<polygon fill="#191970" stroke="#191970" points="325.7565,-12.5001 335.7565,-9 325.7564,-5.5001 325.7565,-12.5001"/>
</g>
</g>
</svg>
