<?xml version="1.0" encoding="UTF-8" standalone="no"?>
<!DOCTYPE svg PUBLIC "-//W3C//DTD SVG 1.1//EN"
 "http://www.w3.org/Graphics/SVG/1.1/DTD/svg11.dtd">
<!-- Generated by graphviz version 2.40.1 (20161225.0304)
 -->
<!-- Title: IMU::calibraGyro Pages: 1 -->
<svg width="388pt" height="26pt"
 viewBox="0.00 0.00 388.00 26.00" xmlns="http://www.w3.org/2000/svg" xmlns:xlink="http://www.w3.org/1999/xlink">
<g id="graph0" class="graph" transform="scale(1 1) rotate(0) translate(4 22)">
<title>IMU::calibraGyro</title>
<polygon fill="#ffffff" stroke="transparent" points="-4,4 -4,-22 384,-22 384,4 -4,4"/>
<!-- Node24 -->
<g id="node1" class="node">
<title>Node24</title>
<polygon fill="#bfbfbf" stroke="#000000" points="0,-.5 0,-17.5 101,-17.5 101,-.5 0,-.5"/>
<text text-anchor="middle" x="50.5" y="-7.1" font-family="DejaVuSansMono" font-size="8.00" fill="#000000">IMU::calibraGyro</text>
</g>
<!-- Node25 -->
<g id="node2" class="node">
<title>Node25</title>
<g id="a_node2"><a xlink:href="classekf_1_1EKF.html#aecdea0922a84bc38cdd78e86657d6ae9" target="_top" xlink:title="ekf::EKF::calibrationMethods">
<polygon fill="#ffffff" stroke="#000000" points="137,-.5 137,-17.5 301,-17.5 301,-.5 137,-.5"/>
<text text-anchor="middle" x="219" y="-7.1" font-family="DejaVuSansMono" font-size="8.00" fill="#000000">ekf::EKF::calibrationMethods</text>
</a>
</g>
</g>
<!-- Node24&#45;&gt;Node25 -->
<g id="edge1" class="edge">
<title>Node24&#45;&gt;Node25</title>
<path fill="none" stroke="#191970" d="M111.1105,-9C119.5131,-9 128.257,-9 136.9693,-9"/>
<polygon fill="#191970" stroke="#191970" points="111.0556,-5.5001 101.0556,-9 111.0555,-12.5001 111.0556,-5.5001"/>
</g>
<!-- Node26 -->
<g id="node3" class="node">
<title>Node26</title>
<g id="a_node3"><a xlink:href="main_8cpp.html#a4fc01d736fe50cf5b977f755b675f11d" target="_top" xlink:title="setup">
<polygon fill="#ffffff" stroke="#000000" points="337,-.5 337,-17.5 380,-17.5 380,-.5 337,-.5"/>
<text text-anchor="middle" x="358.5" y="-7.1" font-family="DejaVuSansMono" font-size="8.00" fill="#000000">setup</text>
</a>
</g>
</g>
<!-- Node25&#45;&gt;Node26 -->
<g id="edge2" class="edge">
<title>Node25&#45;&gt;Node26</title>
<path fill="none" stroke="#191970" d="M311.627,-9C320.9048,-9 329.5753,-9 336.8741,-9"/>
<polygon fill="#191970" stroke="#191970" points="311.3575,-5.5001 301.3575,-9 311.3575,-12.5001 311.3575,-5.5001"/>
</g>
</g>
</svg>
