<?xml version="1.0" encoding="UTF-8" standalone="no"?>
<!DOCTYPE svg PUBLIC "-//W3C//DTD SVG 1.1//EN"
 "http://www.w3.org/Graphics/SVG/1.1/DTD/svg11.dtd">
<!-- Generated by graphviz version 2.40.1 (20161225.0304)
 -->
<!-- Title: ekf::EKF::integrationOfStates Pages: 1 -->
<svg width="703pt" height="62pt"
 viewBox="0.00 0.00 703.00 62.00" xmlns="http://www.w3.org/2000/svg" xmlns:xlink="http://www.w3.org/1999/xlink">
<g id="graph0" class="graph" transform="scale(1 1) rotate(0) translate(4 58)">
<title>ekf::EKF::integrationOfStates</title>
<polygon fill="#ffffff" stroke="transparent" points="-4,4 -4,-58 699,-58 699,4 -4,4"/>
<!-- Node30 -->
<g id="node1" class="node">
<title>Node30</title>
<polygon fill="#bfbfbf" stroke="#000000" points="0,-18.5 0,-35.5 169,-35.5 169,-18.5 0,-18.5"/>
<text text-anchor="middle" x="84.5" y="-25.1" font-family="DejaVuSansMono" font-size="8.00" fill="#000000">ekf::EKF::integrationOfStates</text>
</g>
<!-- Node31 -->
<g id="node2" class="node">
<title>Node31</title>
<g id="a_node2"><a xlink:href="classekf_1_1EKF.html#a548f56f22a519f1f66b1bf59b9ed56d6" target="_top" xlink:title="ekf::EKF::temporalPrediction">
<polygon fill="#ffffff" stroke="#000000" points="205,-18.5 205,-35.5 369,-35.5 369,-18.5 205,-18.5"/>
<text text-anchor="middle" x="287" y="-25.1" font-family="DejaVuSansMono" font-size="8.00" fill="#000000">ekf::EKF::temporalPrediction</text>
</a>
</g>
</g>
<!-- Node30&#45;&gt;Node31 -->
<g id="edge1" class="edge">
<title>Node30&#45;&gt;Node31</title>
<path fill="none" stroke="#191970" d="M179.2309,-27C187.8087,-27 196.4491,-27 204.9046,-27"/>
<polygon fill="#191970" stroke="#191970" points="179.2049,-23.5001 169.2049,-27 179.2049,-30.5001 179.2049,-23.5001"/>
</g>
<!-- Node32 -->
<g id="node3" class="node">
<title>Node32</title>
<g id="a_node3"><a xlink:href="classekf_1_1EKF.html#a651814ff64d234394572e2e7c5703a43" target="_top" xlink:title="ekf::EKF::loopEKF">
<polygon fill="#ffffff" stroke="#000000" points="405,-18.5 405,-35.5 511,-35.5 511,-18.5 405,-18.5"/>
<text text-anchor="middle" x="458" y="-25.1" font-family="DejaVuSansMono" font-size="8.00" fill="#000000">ekf::EKF::loopEKF</text>
</a>
</g>
</g>
<!-- Node31&#45;&gt;Node32 -->
<g id="edge2" class="edge">
<title>Node31&#45;&gt;Node32</title>
<path fill="none" stroke="#191970" d="M379.4946,-27C388.2067,-27 396.8214,-27 404.9734,-27"/>
<polygon fill="#191970" stroke="#191970" points="379.2444,-23.5001 369.2444,-27 379.2443,-30.5001 379.2444,-23.5001"/>
</g>
<!-- Node33 -->
<g id="node4" class="node">
<title>Node33</title>
<g id="a_node4"><a xlink:href="main_8cpp.html#aa561fc46a0358a47fa9151f211523ba0" target="_top" xlink:title="core_1">
<polygon fill="#ffffff" stroke="#000000" points="557.5,-36.5 557.5,-53.5 605.5,-53.5 605.5,-36.5 557.5,-36.5"/>
<text text-anchor="middle" x="581.5" y="-43.1" font-family="DejaVuSansMono" font-size="8.00" fill="#000000">core_1</text>
</a>
</g>
</g>
<!-- Node32&#45;&gt;Node33 -->
<g id="edge3" class="edge">
<title>Node32&#45;&gt;Node33</title>
<path fill="none" stroke="#191970" d="M521.3338,-36.2308C534.1327,-38.0963 546.8409,-39.9485 557.2569,-41.4666"/>
<polygon fill="#191970" stroke="#191970" points="521.4921,-32.717 511.0918,-34.7381 520.4825,-39.6438 521.4921,-32.717"/>
</g>
<!-- Node35 -->
<g id="node6" class="node">
<title>Node35</title>
<g id="a_node6"><a xlink:href="main_8cpp.html#a50d45340b3399db75c34c3b9f67c1b11" target="_top" xlink:title="telemetria">
<polygon fill="#ffffff" stroke="#000000" points="547,-.5 547,-17.5 616,-17.5 616,-.5 547,-.5"/>
<text text-anchor="middle" x="581.5" y="-7.1" font-family="DejaVuSansMono" font-size="8.00" fill="#000000">telemetria</text>
</a>
</g>
</g>
<!-- Node32&#45;&gt;Node35 -->
<g id="edge5" class="edge">
<title>Node32&#45;&gt;Node35</title>
<path fill="none" stroke="#191970" d="M521.0216,-17.8147C529.8374,-16.5298 538.6187,-15.2499 546.6462,-14.0799"/>
<polygon fill="#191970" stroke="#191970" points="520.4825,-14.3562 511.0918,-19.2619 521.4921,-21.283 520.4825,-14.3562"/>
</g>
<!-- Node34 -->
<g id="node5" class="node">
<title>Node34</title>
<g id="a_node5"><a xlink:href="main_8cpp.html#a4fc01d736fe50cf5b977f755b675f11d" target="_top" xlink:title="setup">
<polygon fill="#ffffff" stroke="#000000" points="652,-36.5 652,-53.5 695,-53.5 695,-36.5 652,-36.5"/>
<text text-anchor="middle" x="673.5" y="-43.1" font-family="DejaVuSansMono" font-size="8.00" fill="#000000">setup</text>
</a>
</g>
</g>
<!-- Node33&#45;&gt;Node34 -->
<g id="edge4" class="edge">
<title>Node33&#45;&gt;Node34</title>
<path fill="none" stroke="#191970" d="M615.9202,-45C628.0215,-45 641.2665,-45 651.9991,-45"/>
<polygon fill="#191970" stroke="#191970" points="615.672,-41.5001 605.6719,-45 615.6719,-48.5001 615.672,-41.5001"/>
</g>
</g>
</svg>
