<?xml version="1.0" encoding="UTF-8" standalone="no"?>
<!DOCTYPE svg PUBLIC "-//W3C//DTD SVG 1.1//EN"
 "http://www.w3.org/Graphics/SVG/1.1/DTD/svg11.dtd">
<!-- Generated by graphviz version 2.40.1 (20161225.0304)
 -->
<!-- Title: ekf::EKF::updateOfMeasurements Pages: 1 -->
<svg width="508pt" height="134pt"
 viewBox="0.00 0.00 508.00 134.00" xmlns="http://www.w3.org/2000/svg" xmlns:xlink="http://www.w3.org/1999/xlink">
<g id="graph0" class="graph" transform="scale(1 1) rotate(0) translate(4 130)">
<title>ekf::EKF::updateOfMeasurements</title>
<polygon fill="#ffffff" stroke="transparent" points="-4,4 -4,-130 504,-130 504,4 -4,4"/>
<!-- Node116 -->
<g id="node1" class="node">
<title>Node116</title>
<polygon fill="#bfbfbf" stroke="#000000" points="0,-72.5 0,-89.5 174,-89.5 174,-72.5 0,-72.5"/>
<text text-anchor="middle" x="87" y="-79.1" font-family="DejaVuSansMono" font-size="8.00" fill="#000000">ekf::EKF::updateOfMeasurements</text>
</g>
<!-- Node117 -->
<g id="node2" class="node">
<title>Node117</title>
<g id="a_node2"><a xlink:href="classIMU.html#ac574728dbbc752155239a35c8bbd6e79" target="_top" xlink:title="IMU::readSensor">
<polygon fill="#ffffff" stroke="#000000" points="234,-108.5 234,-125.5 329,-125.5 329,-108.5 234,-108.5"/>
<text text-anchor="middle" x="281.5" y="-115.1" font-family="DejaVuSansMono" font-size="8.00" fill="#000000">IMU::readSensor</text>
</a>
</g>
</g>
<!-- Node116&#45;&gt;Node117 -->
<g id="edge1" class="edge">
<title>Node116&#45;&gt;Node117</title>
<path fill="none" stroke="#191970" d="M133.0938,-89.5315C160.7281,-94.6463 196.0665,-101.1871 225.3268,-106.6029"/>
<polygon fill="#191970" stroke="#191970" points="224.9304,-110.0889 235.4004,-108.4674 226.2045,-103.2058 224.9304,-110.0889"/>
</g>
<!-- Node119 -->
<g id="node4" class="node">
<title>Node119</title>
<g id="a_node4"><a xlink:href="classTIME.html#a51b6020daf09773ef3948cf6b9ccd736" target="_top" xlink:title="Retorna o valor do tempo decorrido desde a última requisição. ">
<polygon fill="#ffffff" stroke="#000000" points="210,-72.5 210,-89.5 353,-89.5 353,-72.5 210,-72.5"/>
<text text-anchor="middle" x="281.5" y="-79.1" font-family="DejaVuSansMono" font-size="8.00" fill="#000000">TIME::computeElapsedTime</text>
</a>
</g>
</g>
<!-- Node116&#45;&gt;Node119 -->
<g id="edge3" class="edge">
<title>Node116&#45;&gt;Node119</title>
<path fill="none" stroke="#191970" d="M174.0101,-81C182.4953,-81 191.0856,-81 199.5188,-81"/>
<polygon fill="#191970" stroke="#191970" points="199.71,-84.5001 209.7099,-81 199.7099,-77.5001 199.71,-84.5001"/>
</g>
<!-- Node120 -->
<g id="node5" class="node">
<title>Node120</title>
<g id="a_node5"><a xlink:href="GPS_8h.html#ad604e63cc857e5663dfba96c37c66bc7" target="_top" xlink:title="processGPS">
<polygon fill="#ffffff" stroke="#000000" points="247,-36.5 247,-53.5 316,-53.5 316,-36.5 247,-36.5"/>
<text text-anchor="middle" x="281.5" y="-43.1" font-family="DejaVuSansMono" font-size="8.00" fill="#000000">processGPS</text>
</a>
</g>
</g>
<!-- Node116&#45;&gt;Node120 -->
<g id="edge4" class="edge">
<title>Node116&#45;&gt;Node120</title>
<path fill="none" stroke="#191970" d="M133.0938,-72.4685C164.4822,-66.6588 205.81,-59.0095 236.8806,-53.2586"/>
<polygon fill="#191970" stroke="#191970" points="237.7992,-56.6481 246.9951,-51.3865 236.5251,-49.765 237.7992,-56.6481"/>
</g>
<!-- Node118 -->
<g id="node3" class="node">
<title>Node118</title>
<g id="a_node3"><a xlink:href="classIMU.html#a87c200faa130ff4d2d3416b2d83f4f49" target="_top" xlink:title="IMU::readRegisters">
<polygon fill="#ffffff" stroke="#000000" points="389,-108.5 389,-125.5 500,-125.5 500,-108.5 389,-108.5"/>
<text text-anchor="middle" x="444.5" y="-115.1" font-family="DejaVuSansMono" font-size="8.00" fill="#000000">IMU::readRegisters</text>
</a>
</g>
</g>
<!-- Node117&#45;&gt;Node118 -->
<g id="edge2" class="edge">
<title>Node117&#45;&gt;Node118</title>
<path fill="none" stroke="#191970" d="M329.0845,-117C344.5702,-117 362.0441,-117 378.6221,-117"/>
<polygon fill="#191970" stroke="#191970" points="378.8027,-120.5001 388.8027,-117 378.8027,-113.5001 378.8027,-120.5001"/>
</g>
<!-- Node121 -->
<g id="node6" class="node">
<title>Node121</title>
<g id="a_node6"><a xlink:href="GPS_8h.html#a5d2ecd8f29f7e3e702c8b8bea333f6c6" target="_top" xlink:title="GPSSERIAL">
<polygon fill="#ffffff" stroke="#000000" points="412.5,-72.5 412.5,-89.5 476.5,-89.5 476.5,-72.5 412.5,-72.5"/>
<text text-anchor="middle" x="444.5" y="-79.1" font-family="DejaVuSansMono" font-size="8.00" fill="#000000">GPSSERIAL</text>
</a>
</g>
</g>
<!-- Node120&#45;&gt;Node121 -->
<g id="edge5" class="edge">
<title>Node120&#45;&gt;Node121</title>
<path fill="none" stroke="#191970" d="M316.0681,-52.6347C341.342,-58.2166 375.7502,-65.816 402.5911,-71.744"/>
<polygon fill="#191970" stroke="#191970" points="401.9532,-75.1874 412.4727,-73.9265 403.4629,-68.3522 401.9532,-75.1874"/>
</g>
<!-- Node122 -->
<g id="node7" class="node">
<title>Node122</title>
<g id="a_node7"><a xlink:href="GPS_8h.html#aecde093c7427cc661daceaa118cf4455" target="_top" xlink:title="compareMsgHeader">
<polygon fill="#ffffff" stroke="#000000" points="394,-36.5 394,-53.5 495,-53.5 495,-36.5 394,-36.5"/>
<text text-anchor="middle" x="444.5" y="-43.1" font-family="DejaVuSansMono" font-size="8.00" fill="#000000">compareMsgHeader</text>
</a>
</g>
</g>
<!-- Node120&#45;&gt;Node122 -->
<g id="edge6" class="edge">
<title>Node120&#45;&gt;Node122</title>
<path fill="none" stroke="#191970" d="M316.0681,-45C335.6798,-45 360.7915,-45 383.5996,-45"/>
<polygon fill="#191970" stroke="#191970" points="383.889,-48.5001 393.8889,-45 383.8889,-41.5001 383.889,-48.5001"/>
</g>
<!-- Node123 -->
<g id="node8" class="node">
<title>Node123</title>
<g id="a_node8"><a xlink:href="GPS_8h.html#aa2fac937d6e192633f020459321241e7" target="_top" xlink:title="calcChecksum">
<polygon fill="#ffffff" stroke="#000000" points="404.5,-.5 404.5,-17.5 484.5,-17.5 484.5,-.5 404.5,-.5"/>
<text text-anchor="middle" x="444.5" y="-7.1" font-family="DejaVuSansMono" font-size="8.00" fill="#000000">calcChecksum</text>
</a>
</g>
</g>
<!-- Node120&#45;&gt;Node123 -->
<g id="edge7" class="edge">
<title>Node120&#45;&gt;Node123</title>
<path fill="none" stroke="#191970" d="M316.0681,-37.3653C339.3332,-32.227 370.3382,-25.3793 396.0559,-19.6993"/>
<polygon fill="#191970" stroke="#191970" points="396.9776,-23.0802 405.9874,-17.5058 395.4679,-16.2449 396.9776,-23.0802"/>
</g>
</g>
</svg>
