<?xml version="1.0" encoding="UTF-8" standalone="no"?>
<!DOCTYPE svg PUBLIC "-//W3C//DTD SVG 1.1//EN"
 "http://www.w3.org/Graphics/SVG/1.1/DTD/svg11.dtd">
<!-- Generated by graphviz version 2.40.1 (20161225.0304)
 -->
<!-- Title: IMU::writeRegister Pages: 1 -->
<!--zoomable 257 -->
<svg id="main" version="1.1" xmlns="http://www.w3.org/2000/svg" xmlns:xlink="http://www.w3.org/1999/xlink" xml:space="preserve" onload="init(evt)">
<style type="text/css"><![CDATA[
.edge:hover path { stroke: red; }
.edge:hover polygon { stroke: red; fill: red; }
]]></style>
<script type="text/javascript"><![CDATA[
var edges = document.getElementsByTagName('g');
if (edges && edges.length) {
  for (var i=0;i<edges.length;i++) {
    if (edges[i].id.substr(0,4)=='edge') {
      edges[i].setAttribute('class','edge');
    }
  }
}
]]></script>
        <defs>
                <circle id="rim" cx="0" cy="0" r="7"/>
                <circle id="rim2" cx="0" cy="0" r="3.5"/>
                <g id="zoomPlus">
                        <use xlink:href="#rim" fill="#404040">
                                <set attributeName="fill" to="#808080" begin="zoomplus.mouseover" end="zoomplus.mouseout"/>
                        </use>
                        <path d="M-4,0h8M0,-4v8" fill="none" stroke="white" stroke-width="1.5" pointer-events="none"/>
                </g>
                <g id="zoomMin">
                        <use xlink:href="#rim" fill="#404040">
                                <set attributeName="fill" to="#808080" begin="zoomminus.mouseover" end="zoomminus.mouseout"/>
                        </use>
                        <path d="M-4,0h8" fill="none" stroke="white" stroke-width="1.5" pointer-events="none"/>
                </g>
                <g id="dirArrow">
                        <path fill="none" stroke="white" stroke-width="1.5" d="M0,-3.0v7 M-2.5,-0.5L0,-3.0L2.5,-0.5"/>
                </g>
               <g id="resetDef">
                       <use xlink:href="#rim2" fill="#404040">
                               <set attributeName="fill" to="#808080" begin="reset.mouseover" end="reset.mouseout"/>
                       </use>
               </g>
        </defs>

<script type="text/javascript">
var viewWidth = 792;
var viewHeight = 257;
var sectionId = 'dynsection-24';
</script>
<script xlink:href="svgpan.js"/>
<svg id="graph" class="graph">
<g id="viewport">
<title>IMU::writeRegister</title>
<polygon fill="#ffffff" stroke="transparent" points="-4,4 -4,-252.9913 788,-252.9913 788,4 -4,4"/>
<!-- Node112 -->
<g id="node1" class="node">
<title>Node112</title>
<polygon fill="#bfbfbf" stroke="#000000" points="0,-129.5 0,-146.5 111,-146.5 111,-129.5 0,-129.5"/>
<text text-anchor="middle" x="55.5" y="-136.1" font-family="DejaVuSansMono" font-size="8.00" fill="#000000">IMU::writeRegister</text>
</g>
<!-- Node113 -->
<g id="node2" class="node">
<title>Node113</title>
<g id="a_node2"><a xlink:href="classIMU.html#ae0d964d2f8ec122be068c41b84bc18a8" target="_top" xlink:title="IMU::begin">
<polygon fill="#ffffff" stroke="#000000" points="505,-111.5 505,-128.5 574,-128.5 574,-111.5 505,-111.5"/>
<text text-anchor="middle" x="539.5" y="-118.1" font-family="DejaVuSansMono" font-size="8.00" fill="#000000">IMU::begin</text>
</a>
</g>
</g>
<!-- Node112&#45;&gt;Node113 -->
<g id="edge1" class="edge">
<title>Node112&#45;&gt;Node113</title>
<path fill="none" stroke="#191970" d="M73.4226,-153.7034C90.8898,-167.9959 118.8608,-188.2987 147,-198 282.4428,-244.6955 340.6944,-276.741 469,-213 505.4713,-194.8814 528.1324,-147.8829 536.1862,-128.5246"/>
<polygon fill="#191970" stroke="#191970" points="75.2046,-150.6283 65.3006,-146.8651 70.6961,-155.9832 75.2046,-150.6283"/>
</g>
<!-- Node116 -->
<g id="node5" class="node">
<title>Node116</title>
<g id="a_node5"><a xlink:href="classIMU.html#a5567bbe0d211f1e6d386eb69ffd960a7" target="_top" xlink:title="IMU::setAccelRange">
<polygon fill="#ffffff" stroke="#000000" points="342,-186.5 342,-203.5 453,-203.5 453,-186.5 342,-186.5"/>
<text text-anchor="middle" x="397.5" y="-193.1" font-family="DejaVuSansMono" font-size="8.00" fill="#000000">IMU::setAccelRange</text>
</a>
</g>
</g>
<!-- Node112&#45;&gt;Node116 -->
<g id="edge4" class="edge">
<title>Node112&#45;&gt;Node116</title>
<path fill="none" stroke="#191970" d="M81.4146,-150.9568C99.3645,-159.3068 124.0652,-169.5823 147,-175 212.5998,-190.4962 290.2585,-194.5726 341.5271,-195.3691"/>
<polygon fill="#191970" stroke="#191970" points="82.724,-147.7036 72.1911,-146.559 79.7112,-154.0222 82.724,-147.7036"/>
</g>
<!-- Node117 -->
<g id="node6" class="node">
<title>Node117</title>
<g id="a_node6"><a xlink:href="classIMU.html#a834f21762003f831e5e632cc7974ba75" target="_top" xlink:title="IMU::setGyroRange">
<polygon fill="#ffffff" stroke="#000000" points="165.5,-148.5 165.5,-165.5 271.5,-165.5 271.5,-148.5 165.5,-148.5"/>
<text text-anchor="middle" x="218.5" y="-155.1" font-family="DejaVuSansMono" font-size="8.00" fill="#000000">IMU::setGyroRange</text>
</a>
</g>
</g>
<!-- Node112&#45;&gt;Node117 -->
<g id="edge6" class="edge">
<title>Node112&#45;&gt;Node117</title>
<path fill="none" stroke="#191970" d="M121.1592,-145.6535C135.8321,-147.3639 151.2175,-149.1573 165.3127,-150.8003"/>
<polygon fill="#191970" stroke="#191970" points="121.4775,-142.167 111.1395,-144.4856 120.6669,-149.1199 121.4775,-142.167"/>
</g>
<!-- Node118 -->
<g id="node7" class="node">
<title>Node118</title>
<g id="a_node7"><a xlink:href="classIMU.html#a928fa5e2db05bd402a3fa93bd3584527" target="_top" xlink:title="IMU::setDlpfBandwidth">
<polygon fill="#ffffff" stroke="#000000" points="155,-111.5 155,-128.5 282,-128.5 282,-111.5 155,-111.5"/>
<text text-anchor="middle" x="218.5" y="-118.1" font-family="DejaVuSansMono" font-size="8.00" fill="#000000">IMU::setDlpfBandwidth</text>
</a>
</g>
</g>
<!-- Node112&#45;&gt;Node118 -->
<g id="edge8" class="edge">
<title>Node112&#45;&gt;Node118</title>
<path fill="none" stroke="#191970" d="M121.226,-130.7419C132.3616,-129.5122 143.9056,-128.2374 154.9831,-127.0141"/>
<polygon fill="#191970" stroke="#191970" points="120.6948,-127.2792 111.1395,-131.8558 121.4632,-134.2369 120.6948,-127.2792"/>
</g>
<!-- Node119 -->
<g id="node8" class="node">
<title>Node119</title>
<g id="a_node8"><a xlink:href="classIMU.html#a914f8b4262fba70e6d8fd0e584fa7996" target="_top" xlink:title="IMU::readAK8963Registers">
<polygon fill="#ffffff" stroke="#000000" points="147,-55.5 147,-72.5 290,-72.5 290,-55.5 147,-55.5"/>
<text text-anchor="middle" x="218.5" y="-62.1" font-family="DejaVuSansMono" font-size="8.00" fill="#000000">IMU::readAK8963Registers</text>
</a>
</g>
</g>
<!-- Node112&#45;&gt;Node119 -->
<g id="edge10" class="edge">
<title>Node112&#45;&gt;Node119</title>
<path fill="none" stroke="#191970" d="M83.6871,-125.2034C116.8787,-110.1348 171.09,-85.5236 199.6039,-72.5786"/>
<polygon fill="#191970" stroke="#191970" points="82.1759,-122.0456 74.5172,-129.3664 85.0696,-128.4195 82.1759,-122.0456"/>
</g>
<!-- Node120 -->
<g id="node9" class="node">
<title>Node120</title>
<g id="a_node9"><a xlink:href="classIMU.html#af3b90e0b20d4bd55091be99f7aa67737" target="_top" xlink:title="IMU::writeAK8963Register">
<polygon fill="#ffffff" stroke="#000000" points="326,-.5 326,-17.5 469,-17.5 469,-.5 326,-.5"/>
<text text-anchor="middle" x="397.5" y="-7.1" font-family="DejaVuSansMono" font-size="8.00" fill="#000000">IMU::writeAK8963Register</text>
</a>
</g>
</g>
<!-- Node112&#45;&gt;Node120 -->
<g id="edge16" class="edge">
<title>Node112&#45;&gt;Node120</title>
<path fill="none" stroke="#191970" d="M67.053,-120.9244C82.5347,-99.5444 112.1383,-63.5939 147,-46 202.7301,-17.8742 273.708,-9.5664 325.8713,-7.7446"/>
<polygon fill="#191970" stroke="#191970" points="64.0177,-119.1565 61.1364,-129.3521 69.7468,-123.1787 64.0177,-119.1565"/>
</g>
<!-- Node114 -->
<g id="node3" class="node">
<title>Node114</title>
<g id="a_node3"><a xlink:href="classekf_1_1EKF.html#af52f661717f56b3deee7b4f42ba80dc5" target="_top" xlink:title="Inicializacao do filtro de Kalman. ">
<polygon fill="#ffffff" stroke="#000000" points="610,-111.5 610,-128.5 705,-128.5 705,-111.5 610,-111.5"/>
<text text-anchor="middle" x="657.5" y="-118.1" font-family="DejaVuSansMono" font-size="8.00" fill="#000000">ekf::EKF::begin</text>
</a>
</g>
</g>
<!-- Node113&#45;&gt;Node114 -->
<g id="edge2" class="edge">
<title>Node113&#45;&gt;Node114</title>
<path fill="none" stroke="#191970" d="M584.5115,-120C592.8078,-120 601.4956,-120 609.8663,-120"/>
<polygon fill="#191970" stroke="#191970" points="584.2657,-116.5001 574.2657,-120 584.2656,-123.5001 584.2657,-116.5001"/>
</g>
<!-- Node115 -->
<g id="node4" class="node">
<title>Node115</title>
<g id="a_node4"><a xlink:href="main_8cpp.html#a4fc01d736fe50cf5b977f755b675f11d" target="_top" xlink:title="setup">
<polygon fill="#ffffff" stroke="#000000" points="741,-111.5 741,-128.5 784,-128.5 784,-111.5 741,-111.5"/>
<text text-anchor="middle" x="762.5" y="-118.1" font-family="DejaVuSansMono" font-size="8.00" fill="#000000">setup</text>
</a>
</g>
</g>
<!-- Node114&#45;&gt;Node115 -->
<g id="edge3" class="edge">
<title>Node114&#45;&gt;Node115</title>
<path fill="none" stroke="#191970" d="M715.3476,-120C724.4085,-120 733.2548,-120 740.7917,-120"/>
<polygon fill="#191970" stroke="#191970" points="715.0846,-116.5001 705.0845,-120 715.0845,-123.5001 715.0846,-116.5001"/>
</g>
<!-- Node116&#45;&gt;Node113 -->
<g id="edge5" class="edge">
<title>Node116&#45;&gt;Node113</title>
<path fill="none" stroke="#191970" d="M441.426,-183.3525C450.7575,-180.199 460.3863,-176.412 469,-172 492.5534,-159.9357 516.6581,-140.2486 529.6837,-128.8744"/>
<polygon fill="#191970" stroke="#191970" points="440.3238,-180.0303 431.8644,-186.4091 442.4553,-186.6979 440.3238,-180.0303"/>
</g>
<!-- Node117&#45;&gt;Node113 -->
<g id="edge7" class="edge">
<title>Node117&#45;&gt;Node113</title>
<path fill="none" stroke="#191970" d="M282.1212,-153.0016C332.8825,-149.3681 405.7177,-143.163 469,-134 480.7323,-132.3012 493.4656,-129.9353 504.8414,-127.6313"/>
<polygon fill="#191970" stroke="#191970" points="281.6845,-149.5236 271.9545,-153.7161 282.1753,-156.5063 281.6845,-149.5236"/>
</g>
<!-- Node118&#45;&gt;Node113 -->
<g id="edge9" class="edge">
<title>Node118&#45;&gt;Node113</title>
<path fill="none" stroke="#191970" d="M292.3233,-120C358.912,-120 453.9345,-120 504.574,-120"/>
<polygon fill="#191970" stroke="#191970" points="292.3031,-116.5001 282.3031,-120 292.303,-123.5001 292.3031,-116.5001"/>
</g>
<!-- Node119&#45;&gt;Node113 -->
<g id="edge11" class="edge">
<title>Node119&#45;&gt;Node113</title>
<path fill="none" stroke="#191970" d="M277.1753,-74.2362C343.7271,-85.8465 450.0676,-104.3981 504.6632,-113.9225"/>
<polygon fill="#191970" stroke="#191970" points="277.7057,-70.7759 267.253,-72.5052 276.5027,-77.6718 277.7057,-70.7759"/>
</g>
<!-- Node119&#45;&gt;Node120 -->
<g id="edge12" class="edge">
<title>Node119&#45;&gt;Node120</title>
<path fill="none" stroke="#191970" d="M250.8826,-52.0508C272.0999,-44.4213 300.5216,-34.5769 326,-27 337.2879,-23.6432 349.6969,-20.3743 360.9633,-17.5638"/>
<polygon fill="#191970" stroke="#191970" points="249.5947,-48.7947 241.3844,-55.4912 251.9786,-55.3763 249.5947,-48.7947"/>
</g>
<!-- Node121 -->
<g id="node10" class="node">
<title>Node121</title>
<g id="a_node10"><a xlink:href="classIMU.html#acd2af48f4eb0a0321080332016e3c1f7" target="_top" xlink:title="IMU::whoAmIAK8963">
<polygon fill="#ffffff" stroke="#000000" points="344.5,-36.5 344.5,-53.5 450.5,-53.5 450.5,-36.5 344.5,-36.5"/>
<text text-anchor="middle" x="397.5" y="-43.1" font-family="DejaVuSansMono" font-size="8.00" fill="#000000">IMU::whoAmIAK8963</text>
</a>
</g>
</g>
<!-- Node119&#45;&gt;Node121 -->
<g id="edge14" class="edge">
<title>Node119&#45;&gt;Node121</title>
<path fill="none" stroke="#191970" d="M300.293,-55.3181C315.2323,-53.7323 330.4601,-52.116 344.2948,-50.6475"/>
<polygon fill="#191970" stroke="#191970" points="299.5919,-51.8727 290.0172,-56.4088 300.3308,-58.8336 299.5919,-51.8727"/>
</g>
<!-- Node120&#45;&gt;Node113 -->
<g id="edge13" class="edge">
<title>Node120&#45;&gt;Node113</title>
<path fill="none" stroke="#191970" d="M458.5727,-21.2602C462.2198,-22.9344 465.7304,-24.8373 469,-27 502.4589,-49.1317 526.3345,-92.6615 535.4357,-111.25"/>
<polygon fill="#191970" stroke="#191970" points="459.8703,-18.0096 449.2854,-17.5516 457.2744,-24.5105 459.8703,-18.0096"/>
</g>
<!-- Node121&#45;&gt;Node113 -->
<g id="edge15" class="edge">
<title>Node121&#45;&gt;Node113</title>
<path fill="none" stroke="#191970" d="M441.426,-56.6475C450.7575,-59.801 460.3863,-63.588 469,-68 492.5534,-80.0643 516.6581,-99.7514 529.6837,-111.1256"/>
<polygon fill="#191970" stroke="#191970" points="442.4553,-53.3021 431.8644,-53.5909 440.3238,-59.9697 442.4553,-53.3021"/>
</g>
</g>
</svg>
        <g id="navigator" transform="translate(0 0)" fill="#404254">
                <rect fill="#f2f5e9" fill-opacity="0.5" stroke="#606060" stroke-width=".5" x="0" y="0" width="60" height="60"/>
                <use id="zoomplus" xlink:href="#zoomPlus" x="17" y="9" onmousedown="handleZoom(evt,'in')"/>
                <use id="zoomminus" xlink:href="#zoomMin" x="42" y="9" onmousedown="handleZoom(evt,'out')"/>
                <use id="reset" xlink:href="#resetDef" x="30" y="36" onmousedown="handleReset()"/>
                <g id="arrowUp" xlink:href="#dirArrow" transform="translate(30 24)" onmousedown="handlePan(0,-1)">
                  <use xlink:href="#rim" fill="#404040">
                        <set attributeName="fill" to="#808080" begin="arrowUp.mouseover" end="arrowUp.mouseout"/>
                  </use>
                  <path fill="none" stroke="white" stroke-width="1.5" d="M0,-3.0v7 M-2.5,-0.5L0,-3.0L2.5,-0.5"/>
                </g>
                <g id="arrowRight" xlink:href="#dirArrow" transform="rotate(90) translate(36 -43)" onmousedown="handlePan(1,0)">
                  <use xlink:href="#rim" fill="#404040">
                        <set attributeName="fill" to="#808080" begin="arrowRight.mouseover" end="arrowRight.mouseout"/>
                  </use>
                  <path fill="none" stroke="white" stroke-width="1.5" d="M0,-3.0v7 M-2.5,-0.5L0,-3.0L2.5,-0.5"/>
                </g>
                <g id="arrowDown" xlink:href="#dirArrow" transform="rotate(180) translate(-30 -48)" onmousedown="handlePan(0,1)">
                  <use xlink:href="#rim" fill="#404040">
                        <set attributeName="fill" to="#808080" begin="arrowDown.mouseover" end="arrowDown.mouseout"/>
                  </use>
                  <path fill="none" stroke="white" stroke-width="1.5" d="M0,-3.0v7 M-2.5,-0.5L0,-3.0L2.5,-0.5"/>
                </g>
                <g id="arrowLeft" xlink:href="#dirArrow" transform="rotate(270) translate(-36 17)" onmousedown="handlePan(-1,0)">
                  <use xlink:href="#rim" fill="#404040">
                        <set attributeName="fill" to="#808080" begin="arrowLeft.mouseover" end="arrowLeft.mouseout"/>
                  </use>
                  <path fill="none" stroke="white" stroke-width="1.5" d="M0,-3.0v7 M-2.5,-0.5L0,-3.0L2.5,-0.5"/>
                </g>
        </g>
        <svg viewBox="0 0 15 15" width="100%" height="30px" preserveAspectRatio="xMaxYMin meet">
         <g id="arrow_out" transform="scale(0.3 0.3)">
          <a xlink:href="classIMU_a37694424e4502ffc69bbb6c540c1a400_icgraph_org.svg" target="_base">
           <rect id="button" ry="5" rx="5" y="6" x="6" height="38" width="38"
                fill="#f2f5e9" fill-opacity="0.5" stroke="#606060" stroke-width="1.0"/>
           <path id="arrow"
             d="M 11.500037,31.436501 C 11.940474,20.09759 22.043105,11.32322 32.158766,21.979434 L 37.068811,17.246167 C 37.068811,17.246167 37.088388,32 37.088388,32 L 22.160133,31.978069 C 22.160133,31.978069 26.997745,27.140456 26.997745,27.140456 C 18.528582,18.264221 13.291696,25.230495 11.500037,31.436501 z"
             style="fill:#404040;"/>
          </a>
         </g>
        </svg>
</svg>
