<?xml version="1.0" encoding="UTF-8" standalone="no"?>
<!DOCTYPE svg PUBLIC "-//W3C//DTD SVG 1.1//EN"
 "http://www.w3.org/Graphics/SVG/1.1/DTD/svg11.dtd">
<!-- Generated by graphviz version 2.40.1 (20161225.0304)
 -->
<!-- Title: IMU::readAK8963Registers Pages: 1 -->
<svg width="645pt" height="76pt"
 viewBox="0.00 0.00 645.00 76.28" xmlns="http://www.w3.org/2000/svg" xmlns:xlink="http://www.w3.org/1999/xlink">
<g id="graph0" class="graph" transform="scale(1 1) rotate(0) translate(4 72.278)">
<title>IMU::readAK8963Registers</title>
<polygon fill="#ffffff" stroke="transparent" points="-4,4 -4,-72.278 641,-72.278 641,4 -4,4"/>
<!-- Node30 -->
<g id="node1" class="node">
<title>Node30</title>
<polygon fill="#bfbfbf" stroke="#000000" points="0,-36.5 0,-53.5 143,-53.5 143,-36.5 0,-36.5"/>
<text text-anchor="middle" x="71.5" y="-43.1" font-family="DejaVuSansMono" font-size="8.00" fill="#000000">IMU::readAK8963Registers</text>
</g>
<!-- Node31 -->
<g id="node2" class="node">
<title>Node31</title>
<g id="a_node2"><a xlink:href="classIMU.html#ae0d964d2f8ec122be068c41b84bc18a8" target="_top" xlink:title="IMU::begin">
<polygon fill="#ffffff" stroke="#000000" points="358,-36.5 358,-53.5 427,-53.5 427,-36.5 358,-36.5"/>
<text text-anchor="middle" x="392.5" y="-43.1" font-family="DejaVuSansMono" font-size="8.00" fill="#000000">IMU::begin</text>
</a>
</g>
</g>
<!-- Node30&#45;&gt;Node31 -->
<g id="edge1" class="edge">
<title>Node30&#45;&gt;Node31</title>
<path fill="none" stroke="#191970" d="M122.7875,-55.3689C140.5142,-58.4775 160.556,-61.4665 179,-63 242.337,-68.266 258.9402,-70.9231 322,-63 336.6644,-61.1575 352.6505,-57.2394 365.6871,-53.5277"/>
<polygon fill="#191970" stroke="#191970" points="123.1107,-51.8706 112.6474,-53.5348 121.8648,-58.7588 123.1107,-51.8706"/>
</g>
<!-- Node34 -->
<g id="node5" class="node">
<title>Node34</title>
<g id="a_node5"><a xlink:href="classIMU.html#af3b90e0b20d4bd55091be99f7aa67737" target="_top" xlink:title="IMU::writeAK8963Register">
<polygon fill="#ffffff" stroke="#000000" points="179,-36.5 179,-53.5 322,-53.5 322,-36.5 179,-36.5"/>
<text text-anchor="middle" x="250.5" y="-43.1" font-family="DejaVuSansMono" font-size="8.00" fill="#000000">IMU::writeAK8963Register</text>
</a>
</g>
</g>
<!-- Node30&#45;&gt;Node34 -->
<g id="edge4" class="edge">
<title>Node30&#45;&gt;Node34</title>
<path fill="none" stroke="#191970" d="M153.0428,-45C161.6381,-45 170.3321,-45 178.8042,-45"/>
<polygon fill="#191970" stroke="#191970" points="153.0173,-41.5001 143.0172,-45 153.0172,-48.5001 153.0173,-41.5001"/>
</g>
<!-- Node35 -->
<g id="node6" class="node">
<title>Node35</title>
<g id="a_node6"><a xlink:href="classIMU.html#acd2af48f4eb0a0321080332016e3c1f7" target="_top" xlink:title="IMU::whoAmIAK8963">
<polygon fill="#ffffff" stroke="#000000" points="197.5,-.5 197.5,-17.5 303.5,-17.5 303.5,-.5 197.5,-.5"/>
<text text-anchor="middle" x="250.5" y="-7.1" font-family="DejaVuSansMono" font-size="8.00" fill="#000000">IMU::whoAmIAK8963</text>
</a>
</g>
</g>
<!-- Node30&#45;&gt;Node35 -->
<g id="edge6" class="edge">
<title>Node30&#45;&gt;Node35</title>
<path fill="none" stroke="#191970" d="M123.8978,-34.4619C150.6863,-29.0743 182.8632,-22.6029 208.0742,-17.5326"/>
<polygon fill="#191970" stroke="#191970" points="123.0341,-31.0654 113.9205,-36.4685 124.4143,-37.928 123.0341,-31.0654"/>
</g>
<!-- Node32 -->
<g id="node3" class="node">
<title>Node32</title>
<g id="a_node3"><a xlink:href="classekf_1_1EKF.html#af52f661717f56b3deee7b4f42ba80dc5" target="_top" xlink:title="Inicializacao do filtro de Kalman. ">
<polygon fill="#ffffff" stroke="#000000" points="463,-36.5 463,-53.5 558,-53.5 558,-36.5 463,-36.5"/>
<text text-anchor="middle" x="510.5" y="-43.1" font-family="DejaVuSansMono" font-size="8.00" fill="#000000">ekf::EKF::begin</text>
</a>
</g>
</g>
<!-- Node31&#45;&gt;Node32 -->
<g id="edge2" class="edge">
<title>Node31&#45;&gt;Node32</title>
<path fill="none" stroke="#191970" d="M437.5115,-45C445.8078,-45 454.4956,-45 462.8663,-45"/>
<polygon fill="#191970" stroke="#191970" points="437.2657,-41.5001 427.2657,-45 437.2656,-48.5001 437.2657,-41.5001"/>
</g>
<!-- Node33 -->
<g id="node4" class="node">
<title>Node33</title>
<g id="a_node4"><a xlink:href="main_8cpp.html#a4fc01d736fe50cf5b977f755b675f11d" target="_top" xlink:title="setup">
<polygon fill="#ffffff" stroke="#000000" points="594,-36.5 594,-53.5 637,-53.5 637,-36.5 594,-36.5"/>
<text text-anchor="middle" x="615.5" y="-43.1" font-family="DejaVuSansMono" font-size="8.00" fill="#000000">setup</text>
</a>
</g>
</g>
<!-- Node32&#45;&gt;Node33 -->
<g id="edge3" class="edge">
<title>Node32&#45;&gt;Node33</title>
<path fill="none" stroke="#191970" d="M568.3476,-45C577.4085,-45 586.2548,-45 593.7917,-45"/>
<polygon fill="#191970" stroke="#191970" points="568.0846,-41.5001 558.0845,-45 568.0845,-48.5001 568.0846,-41.5001"/>
</g>
<!-- Node34&#45;&gt;Node31 -->
<g id="edge5" class="edge">
<title>Node34&#45;&gt;Node31</title>
<path fill="none" stroke="#191970" d="M332.4509,-45C341.3521,-45 350.018,-45 357.8707,-45"/>
<polygon fill="#191970" stroke="#191970" points="332.332,-41.5001 322.332,-45 332.332,-48.5001 332.332,-41.5001"/>
</g>
<!-- Node35&#45;&gt;Node31 -->
<g id="edge7" class="edge">
<title>Node35&#45;&gt;Node31</title>
<path fill="none" stroke="#191970" d="M294.672,-20.0956C303.7137,-22.3737 313.1652,-24.7601 322,-27 334.1224,-30.0734 347.4122,-33.4617 359.1536,-36.4616"/>
<polygon fill="#191970" stroke="#191970" points="295.2444,-16.6305 284.6925,-17.5831 293.5354,-23.4187 295.2444,-16.6305"/>
</g>
</g>
</svg>
