<?xml version="1.0" encoding="UTF-8" standalone="no"?>
<!DOCTYPE svg PUBLIC "-//W3C//DTD SVG 1.1//EN"
 "http://www.w3.org/Graphics/SVG/1.1/DTD/svg11.dtd">
<!-- Generated by graphviz version 2.40.1 (20161225.0304)
 -->
<!-- Title: IMU::writeAK8963Register Pages: 1 -->
<svg width="466pt" height="26pt"
 viewBox="0.00 0.00 466.00 26.00" xmlns="http://www.w3.org/2000/svg" xmlns:xlink="http://www.w3.org/1999/xlink">
<g id="graph0" class="graph" transform="scale(1 1) rotate(0) translate(4 22)">
<title>IMU::writeAK8963Register</title>
<polygon fill="#ffffff" stroke="transparent" points="-4,4 -4,-22 462,-22 462,4 -4,4"/>
<!-- Node106 -->
<g id="node1" class="node">
<title>Node106</title>
<polygon fill="#bfbfbf" stroke="#000000" points="0,-.5 0,-17.5 143,-17.5 143,-.5 0,-.5"/>
<text text-anchor="middle" x="71.5" y="-7.1" font-family="DejaVuSansMono" font-size="8.00" fill="#000000">IMU::writeAK8963Register</text>
</g>
<!-- Node107 -->
<g id="node2" class="node">
<title>Node107</title>
<g id="a_node2"><a xlink:href="classIMU.html#ae0d964d2f8ec122be068c41b84bc18a8" target="_top" xlink:title="IMU::begin">
<polygon fill="#ffffff" stroke="#000000" points="179,-.5 179,-17.5 248,-17.5 248,-.5 179,-.5"/>
<text text-anchor="middle" x="213.5" y="-7.1" font-family="DejaVuSansMono" font-size="8.00" fill="#000000">IMU::begin</text>
</a>
</g>
</g>
<!-- Node106&#45;&gt;Node107 -->
<g id="edge1" class="edge">
<title>Node106&#45;&gt;Node107</title>
<path fill="none" stroke="#191970" d="M153.4509,-9C162.3521,-9 171.018,-9 178.8707,-9"/>
<polygon fill="#191970" stroke="#191970" points="153.332,-5.5001 143.332,-9 153.332,-12.5001 153.332,-5.5001"/>
</g>
<!-- Node108 -->
<g id="node3" class="node">
<title>Node108</title>
<g id="a_node3"><a xlink:href="classekf_1_1EKF.html#af52f661717f56b3deee7b4f42ba80dc5" target="_top" xlink:title="Inicializacao do filtro de Kalman. ">
<polygon fill="#ffffff" stroke="#000000" points="284,-.5 284,-17.5 379,-17.5 379,-.5 284,-.5"/>
<text text-anchor="middle" x="331.5" y="-7.1" font-family="DejaVuSansMono" font-size="8.00" fill="#000000">ekf::EKF::begin</text>
</a>
</g>
</g>
<!-- Node107&#45;&gt;Node108 -->
<g id="edge2" class="edge">
<title>Node107&#45;&gt;Node108</title>
<path fill="none" stroke="#191970" d="M258.5115,-9C266.8078,-9 275.4956,-9 283.8663,-9"/>
<polygon fill="#191970" stroke="#191970" points="258.2657,-5.5001 248.2657,-9 258.2656,-12.5001 258.2657,-5.5001"/>
</g>
<!-- Node109 -->
<g id="node4" class="node">
<title>Node109</title>
<g id="a_node4"><a xlink:href="main_8cpp.html#a4fc01d736fe50cf5b977f755b675f11d" target="_top" xlink:title="setup">
<polygon fill="#ffffff" stroke="#000000" points="415,-.5 415,-17.5 458,-17.5 458,-.5 415,-.5"/>
<text text-anchor="middle" x="436.5" y="-7.1" font-family="DejaVuSansMono" font-size="8.00" fill="#000000">setup</text>
</a>
</g>
</g>
<!-- Node108&#45;&gt;Node109 -->
<g id="edge3" class="edge">
<title>Node108&#45;&gt;Node109</title>
<path fill="none" stroke="#191970" d="M389.3476,-9C398.4085,-9 407.2548,-9 414.7917,-9"/>
<polygon fill="#191970" stroke="#191970" points="389.0846,-5.5001 379.0845,-9 389.0845,-12.5001 389.0846,-5.5001"/>
</g>
</g>
</svg>
