<?xml version="1.0" encoding="UTF-8" standalone="no"?>
<!DOCTYPE svg PUBLIC "-//W3C//DTD SVG 1.1//EN"
 "http://www.w3.org/Graphics/SVG/1.1/DTD/svg11.dtd">
<!-- Generated by graphviz version 2.40.1 (20161225.0304)
 -->
<!-- Title: ekf::EKF::updateH Pages: 1 -->
<svg width="440pt" height="62pt"
 viewBox="0.00 0.00 440.00 62.00" xmlns="http://www.w3.org/2000/svg" xmlns:xlink="http://www.w3.org/1999/xlink">
<g id="graph0" class="graph" transform="scale(1 1) rotate(0) translate(4 58)">
<title>ekf::EKF::updateH</title>
<polygon fill="#ffffff" stroke="transparent" points="-4,4 -4,-58 436,-58 436,4 -4,4"/>
<!-- Node109 -->
<g id="node1" class="node">
<title>Node109</title>
<polygon fill="#bfbfbf" stroke="#000000" points="0,-18.5 0,-35.5 106,-35.5 106,-18.5 0,-18.5"/>
<text text-anchor="middle" x="53" y="-25.1" font-family="DejaVuSansMono" font-size="8.00" fill="#000000">ekf::EKF::updateH</text>
</g>
<!-- Node110 -->
<g id="node2" class="node">
<title>Node110</title>
<g id="a_node2"><a xlink:href="classekf_1_1EKF.html#a651814ff64d234394572e2e7c5703a43" target="_top" xlink:title="ekf::EKF::loopEKF">
<polygon fill="#ffffff" stroke="#000000" points="142,-18.5 142,-35.5 248,-35.5 248,-18.5 142,-18.5"/>
<text text-anchor="middle" x="195" y="-25.1" font-family="DejaVuSansMono" font-size="8.00" fill="#000000">ekf::EKF::loopEKF</text>
</a>
</g>
</g>
<!-- Node109&#45;&gt;Node110 -->
<g id="edge1" class="edge">
<title>Node109&#45;&gt;Node110</title>
<path fill="none" stroke="#191970" d="M116.5173,-27C124.9959,-27 133.6185,-27 141.8941,-27"/>
<polygon fill="#191970" stroke="#191970" points="116.2796,-23.5001 106.2796,-27 116.2795,-30.5001 116.2796,-23.5001"/>
</g>
<!-- Node111 -->
<g id="node3" class="node">
<title>Node111</title>
<g id="a_node3"><a xlink:href="main_8cpp.html#aa561fc46a0358a47fa9151f211523ba0" target="_top" xlink:title="core_1">
<polygon fill="#ffffff" stroke="#000000" points="294.5,-36.5 294.5,-53.5 342.5,-53.5 342.5,-36.5 294.5,-36.5"/>
<text text-anchor="middle" x="318.5" y="-43.1" font-family="DejaVuSansMono" font-size="8.00" fill="#000000">core_1</text>
</a>
</g>
</g>
<!-- Node110&#45;&gt;Node111 -->
<g id="edge2" class="edge">
<title>Node110&#45;&gt;Node111</title>
<path fill="none" stroke="#191970" d="M258.3338,-36.2308C271.1327,-38.0963 283.8409,-39.9485 294.2569,-41.4666"/>
<polygon fill="#191970" stroke="#191970" points="258.4921,-32.717 248.0918,-34.7381 257.4825,-39.6438 258.4921,-32.717"/>
</g>
<!-- Node113 -->
<g id="node5" class="node">
<title>Node113</title>
<g id="a_node5"><a xlink:href="main_8cpp.html#a50d45340b3399db75c34c3b9f67c1b11" target="_top" xlink:title="telemetria">
<polygon fill="#ffffff" stroke="#000000" points="284,-.5 284,-17.5 353,-17.5 353,-.5 284,-.5"/>
<text text-anchor="middle" x="318.5" y="-7.1" font-family="DejaVuSansMono" font-size="8.00" fill="#000000">telemetria</text>
</a>
</g>
</g>
<!-- Node110&#45;&gt;Node113 -->
<g id="edge4" class="edge">
<title>Node110&#45;&gt;Node113</title>
<path fill="none" stroke="#191970" d="M258.0216,-17.8147C266.8374,-16.5298 275.6187,-15.2499 283.6462,-14.0799"/>
<polygon fill="#191970" stroke="#191970" points="257.4825,-14.3562 248.0918,-19.2619 258.4921,-21.283 257.4825,-14.3562"/>
</g>
<!-- Node112 -->
<g id="node4" class="node">
<title>Node112</title>
<g id="a_node4"><a xlink:href="main_8cpp.html#a4fc01d736fe50cf5b977f755b675f11d" target="_top" xlink:title="setup">
<polygon fill="#ffffff" stroke="#000000" points="389,-36.5 389,-53.5 432,-53.5 432,-36.5 389,-36.5"/>
<text text-anchor="middle" x="410.5" y="-43.1" font-family="DejaVuSansMono" font-size="8.00" fill="#000000">setup</text>
</a>
</g>
</g>
<!-- Node111&#45;&gt;Node112 -->
<g id="edge3" class="edge">
<title>Node111&#45;&gt;Node112</title>
<path fill="none" stroke="#191970" d="M352.9202,-45C365.0215,-45 378.2665,-45 388.9991,-45"/>
<polygon fill="#191970" stroke="#191970" points="352.672,-41.5001 342.6719,-45 352.6719,-48.5001 352.672,-41.5001"/>
</g>
</g>
</svg>
