<?xml version="1.0" encoding="UTF-8" standalone="no"?>
<!DOCTYPE svg PUBLIC "-//W3C//DTD SVG 1.1//EN"
 "http://www.w3.org/Graphics/SVG/1.1/DTD/svg11.dtd">
<!-- Generated by graphviz version 2.40.1 (20161225.0304)
 -->
<!-- Title: TIME::computeElapsedTime Pages: 1 -->
<svg width="887pt" height="99pt"
 viewBox="0.00 0.00 887.00 99.00" xmlns="http://www.w3.org/2000/svg" xmlns:xlink="http://www.w3.org/1999/xlink">
<g id="graph0" class="graph" transform="scale(1 1) rotate(0) translate(4 95)">
<title>TIME::computeElapsedTime</title>
<polygon fill="#ffffff" stroke="transparent" points="-4,4 -4,-95 883,-95 883,4 -4,4"/>
<!-- Node9 -->
<g id="node1" class="node">
<title>Node9</title>
<polygon fill="#bfbfbf" stroke="#000000" points="0,-54.5 0,-71.5 143,-71.5 143,-54.5 0,-54.5"/>
<text text-anchor="middle" x="71.5" y="-61.1" font-family="DejaVuSansMono" font-size="8.00" fill="#000000">TIME::computeElapsedTime</text>
</g>
<!-- Node10 -->
<g id="node2" class="node">
<title>Node10</title>
<g id="a_node2"><a xlink:href="classekf_1_1EKF.html#af52f661717f56b3deee7b4f42ba80dc5" target="_top" xlink:title="Inicializacao do filtro de Kalman. ">
<polygon fill="#ffffff" stroke="#000000" points="423.5,-73.5 423.5,-90.5 518.5,-90.5 518.5,-73.5 423.5,-73.5"/>
<text text-anchor="middle" x="471" y="-80.1" font-family="DejaVuSansMono" font-size="8.00" fill="#000000">ekf::EKF::begin</text>
</a>
</g>
</g>
<!-- Node9&#45;&gt;Node10 -->
<g id="edge1" class="edge">
<title>Node9&#45;&gt;Node10</title>
<path fill="none" stroke="#191970" d="M153.6001,-66.9046C235.0116,-70.7765 356.9343,-76.5751 423.4822,-79.7401"/>
<polygon fill="#191970" stroke="#191970" points="153.539,-63.3979 143.384,-66.4188 153.2064,-70.39 153.539,-63.3979"/>
</g>
<!-- Node12 -->
<g id="node4" class="node">
<title>Node12</title>
<g id="a_node4"><a xlink:href="classekf_1_1EKF.html#a84048d25ebfb6431d7b1372b7315a7a3" target="_top" xlink:title="Atualiza a medicao a partir dos sensores da unidade Margin e GPS. ">
<polygon fill="#ffffff" stroke="#000000" points="179,-36.5 179,-53.5 353,-53.5 353,-36.5 179,-36.5"/>
<text text-anchor="middle" x="266" y="-43.1" font-family="DejaVuSansMono" font-size="8.00" fill="#000000">ekf::EKF::updateOfMeasurements</text>
</a>
</g>
</g>
<!-- Node9&#45;&gt;Node12 -->
<g id="edge3" class="edge">
<title>Node9&#45;&gt;Node12</title>
<path fill="none" stroke="#191970" d="M153.2604,-55.4335C161.6722,-54.655 170.2427,-53.8619 178.7114,-53.0781"/>
<polygon fill="#191970" stroke="#191970" points="152.7309,-51.9674 143.096,-56.3741 153.376,-58.9377 152.7309,-51.9674"/>
</g>
<!-- Node11 -->
<g id="node3" class="node">
<title>Node11</title>
<g id="a_node3"><a xlink:href="main_8cpp.html#a4fc01d736fe50cf5b977f755b675f11d" target="_top" xlink:title="setup">
<polygon fill="#ffffff" stroke="#000000" points="836,-54.5 836,-71.5 879,-71.5 879,-54.5 836,-54.5"/>
<text text-anchor="middle" x="857.5" y="-61.1" font-family="DejaVuSansMono" font-size="8.00" fill="#000000">setup</text>
</a>
</g>
</g>
<!-- Node10&#45;&gt;Node11 -->
<g id="edge2" class="edge">
<title>Node10&#45;&gt;Node11</title>
<path fill="none" stroke="#191970" d="M528.7977,-79.1587C616.1685,-74.8636 777.8443,-66.9158 835.9777,-64.058"/>
<polygon fill="#191970" stroke="#191970" points="528.5962,-75.6643 518.7801,-79.6512 528.94,-82.6559 528.5962,-75.6643"/>
</g>
<!-- Node13 -->
<g id="node5" class="node">
<title>Node13</title>
<g id="a_node5"><a xlink:href="classekf_1_1EKF.html#a548f56f22a519f1f66b1bf59b9ed56d6" target="_top" xlink:title="ekf::EKF::temporalPrediction">
<polygon fill="#ffffff" stroke="#000000" points="389,-36.5 389,-53.5 553,-53.5 553,-36.5 389,-36.5"/>
<text text-anchor="middle" x="471" y="-43.1" font-family="DejaVuSansMono" font-size="8.00" fill="#000000">ekf::EKF::temporalPrediction</text>
</a>
</g>
</g>
<!-- Node12&#45;&gt;Node13 -->
<g id="edge4" class="edge">
<title>Node12&#45;&gt;Node13</title>
<path fill="none" stroke="#191970" d="M363.4954,-45C371.9376,-45 380.4252,-45 388.7284,-45"/>
<polygon fill="#191970" stroke="#191970" points="363.2357,-41.5001 353.2357,-45 363.2357,-48.5001 363.2357,-41.5001"/>
</g>
<!-- Node14 -->
<g id="node6" class="node">
<title>Node14</title>
<g id="a_node6"><a xlink:href="classekf_1_1EKF.html#a651814ff64d234394572e2e7c5703a43" target="_top" xlink:title="ekf::EKF::loopEKF">
<polygon fill="#ffffff" stroke="#000000" points="589,-36.5 589,-53.5 695,-53.5 695,-36.5 589,-36.5"/>
<text text-anchor="middle" x="642" y="-43.1" font-family="DejaVuSansMono" font-size="8.00" fill="#000000">ekf::EKF::loopEKF</text>
</a>
</g>
</g>
<!-- Node13&#45;&gt;Node14 -->
<g id="edge5" class="edge">
<title>Node13&#45;&gt;Node14</title>
<path fill="none" stroke="#191970" d="M563.4946,-45C572.2067,-45 580.8214,-45 588.9734,-45"/>
<polygon fill="#191970" stroke="#191970" points="563.2444,-41.5001 553.2444,-45 563.2443,-48.5001 563.2444,-41.5001"/>
</g>
<!-- Node15 -->
<g id="node7" class="node">
<title>Node15</title>
<g id="a_node7"><a xlink:href="main_8cpp.html#aa561fc46a0358a47fa9151f211523ba0" target="_top" xlink:title="core_1">
<polygon fill="#ffffff" stroke="#000000" points="741.5,-36.5 741.5,-53.5 789.5,-53.5 789.5,-36.5 741.5,-36.5"/>
<text text-anchor="middle" x="765.5" y="-43.1" font-family="DejaVuSansMono" font-size="8.00" fill="#000000">core_1</text>
</a>
</g>
</g>
<!-- Node14&#45;&gt;Node15 -->
<g id="edge6" class="edge">
<title>Node14&#45;&gt;Node15</title>
<path fill="none" stroke="#191970" d="M705.3338,-45C718.1327,-45 730.8409,-45 741.2569,-45"/>
<polygon fill="#191970" stroke="#191970" points="705.0919,-41.5001 695.0918,-45 705.0918,-48.5001 705.0919,-41.5001"/>
</g>
<!-- Node16 -->
<g id="node8" class="node">
<title>Node16</title>
<g id="a_node8"><a xlink:href="main_8cpp.html#a50d45340b3399db75c34c3b9f67c1b11" target="_top" xlink:title="telemetria">
<polygon fill="#ffffff" stroke="#000000" points="731,-.5 731,-17.5 800,-17.5 800,-.5 731,-.5"/>
<text text-anchor="middle" x="765.5" y="-7.1" font-family="DejaVuSansMono" font-size="8.00" fill="#000000">telemetria</text>
</a>
</g>
</g>
<!-- Node14&#45;&gt;Node16 -->
<g id="edge8" class="edge">
<title>Node14&#45;&gt;Node16</title>
<path fill="none" stroke="#191970" d="M681.3239,-33.5372C699.0542,-28.3688 719.639,-22.3684 736.0143,-17.595"/>
<polygon fill="#191970" stroke="#191970" points="679.8887,-30.3098 671.2678,-36.4685 681.8477,-37.0301 679.8887,-30.3098"/>
</g>
<!-- Node15&#45;&gt;Node11 -->
<g id="edge7" class="edge">
<title>Node15&#45;&gt;Node11</title>
<path fill="none" stroke="#191970" d="M799.5538,-51.6627C811.7537,-54.0496 825.1581,-56.6722 835.9991,-58.7933"/>
<polygon fill="#191970" stroke="#191970" points="800.1579,-48.2146 789.6719,-49.7293 798.8138,-55.0844 800.1579,-48.2146"/>
</g>
</g>
</svg>
