<?xml version="1.0" encoding="UTF-8" standalone="no"?>
<!DOCTYPE svg PUBLIC "-//W3C//DTD SVG 1.1//EN"
 "http://www.w3.org/Graphics/SVG/1.1/DTD/svg11.dtd">
<!-- Generated by graphviz version 2.40.1 (20161225.0304)
 -->
<!-- Title: TELEMETRIA::OnDataRecv Pages: 1 -->
<svg width="450pt" height="45pt"
 viewBox="0.00 0.00 450.00 45.00" xmlns="http://www.w3.org/2000/svg" xmlns:xlink="http://www.w3.org/1999/xlink">
<g id="graph0" class="graph" transform="scale(1 1) rotate(0) translate(4 41)">
<title>TELEMETRIA::OnDataRecv</title>
<polygon fill="#ffffff" stroke="transparent" points="-4,4 -4,-41 446,-41 446,4 -4,4"/>
<!-- Node20 -->
<g id="node1" class="node">
<title>Node20</title>
<polygon fill="#bfbfbf" stroke="#000000" points="0,-.5 0,-17.5 132,-17.5 132,-.5 0,-.5"/>
<text text-anchor="middle" x="66" y="-7.1" font-family="DejaVuSansMono" font-size="8.00" fill="#000000">TELEMETRIA::OnDataRecv</text>
</g>
<!-- Node21 -->
<g id="node2" class="node">
<title>Node21</title>
<g id="a_node2"><a xlink:href="classTELEMETRIA.html#ae47c01609eec8284a663dd66e0d7c632" target="_top" xlink:title="TELEMETRIA::TELEMETRIA">
<polygon fill="#ffffff" stroke="#000000" points="168,-19.5 168,-36.5 300,-36.5 300,-19.5 168,-19.5"/>
<text text-anchor="middle" x="234" y="-26.1" font-family="DejaVuSansMono" font-size="8.00" fill="#000000">TELEMETRIA::TELEMETRIA</text>
</a>
</g>
</g>
<!-- Node20&#45;&gt;Node21 -->
<g id="edge1" class="edge">
<title>Node20&#45;&gt;Node21</title>
<path fill="none" stroke="#191970" d="M132.398,-16.5093C140.6791,-17.4458 149.199,-18.4094 157.6161,-19.3613"/>
<polygon fill="#191970" stroke="#191970" points="157.4792,-22.8681 167.8092,-20.5141 158.2659,-15.9124 157.4792,-22.8681"/>
</g>
<!-- Node22 -->
<g id="node3" class="node">
<title>Node22</title>
<g id="a_node3"><a xlink:href="classTELEMETRIA.html#a780be82ef9be2da12601a0ea7d10e647" target="_top" xlink:title="TELEMETRIA::begin">
<polygon fill="#ffffff" stroke="#000000" points="336,-.5 336,-17.5 442,-17.5 442,-.5 336,-.5"/>
<text text-anchor="middle" x="389" y="-7.1" font-family="DejaVuSansMono" font-size="8.00" fill="#000000">TELEMETRIA::begin</text>
</a>
</g>
</g>
<!-- Node21&#45;&gt;Node22 -->
<g id="edge2" class="edge">
<title>Node21&#45;&gt;Node22</title>
<path fill="none" stroke="#191970" d="M300.1835,-19.8872C308.6072,-18.8546 317.2131,-17.7997 325.5917,-16.7726"/>
<polygon fill="#191970" stroke="#191970" points="326.1715,-20.2278 335.6714,-15.5371 325.3198,-13.2798 326.1715,-20.2278"/>
</g>
<!-- Node22&#45;&gt;Node20 -->
<g id="edge3" class="edge">
<title>Node22&#45;&gt;Node20</title>
<path fill="none" stroke="#191970" d="M335.7565,-9C283.0416,-9 201.8064,-9 142.2518,-9"/>
<polygon fill="#191970" stroke="#191970" points="142.1433,-5.5001 132.1433,-9 142.1433,-12.5001 142.1433,-5.5001"/>
</g>
</g>
</svg>
