<?xml version="1.0" encoding="UTF-8" standalone="no"?>
<!DOCTYPE svg PUBLIC "-//W3C//DTD SVG 1.1//EN"
 "http://www.w3.org/Graphics/SVG/1.1/DTD/svg11.dtd">
<!-- Generated by graphviz version 2.40.1 (20161225.0304)
 -->
<!-- Title: ekf::EKF::integrationOfStates Pages: 1 -->
<svg width="482pt" height="62pt"
 viewBox="0.00 0.00 482.00 62.00" xmlns="http://www.w3.org/2000/svg" xmlns:xlink="http://www.w3.org/1999/xlink">
<g id="graph0" class="graph" transform="scale(1 1) rotate(0) translate(4 58)">
<title>ekf::EKF::integrationOfStates</title>
<polygon fill="#ffffff" stroke="transparent" points="-4,4 -4,-58 478,-58 478,4 -4,4"/>
<!-- Node26 -->
<g id="node1" class="node">
<title>Node26</title>
<polygon fill="#bfbfbf" stroke="#000000" points="0,-18.5 0,-35.5 169,-35.5 169,-18.5 0,-18.5"/>
<text text-anchor="middle" x="84.5" y="-25.1" font-family="DejaVuSansMono" font-size="8.00" fill="#000000">ekf::EKF::integrationOfStates</text>
</g>
<!-- Node27 -->
<g id="node2" class="node">
<title>Node27</title>
<g id="a_node2"><a xlink:href="namespaceekf.html#aebcb4259d74954e6d5b117101bbec4ca" target="_top" xlink:title="Produto de quaternions. ">
<polygon fill="#ffffff" stroke="#000000" points="218,-36.5 218,-53.5 361,-53.5 361,-36.5 218,-36.5"/>
<text text-anchor="middle" x="289.5" y="-43.1" font-family="DejaVuSansMono" font-size="8.00" fill="#000000">ekf::multiplyQuaternions</text>
</a>
</g>
</g>
<!-- Node26&#45;&gt;Node27 -->
<g id="edge1" class="edge">
<title>Node26&#45;&gt;Node27</title>
<path fill="none" stroke="#191970" d="M169.0649,-34.4252C181.8579,-35.5485 195.0357,-36.7056 207.7672,-37.8235"/>
<polygon fill="#191970" stroke="#191970" points="207.5983,-41.322 217.8662,-38.7102 208.2107,-34.3488 207.5983,-41.322"/>
</g>
<!-- Node28 -->
<g id="node3" class="node">
<title>Node28</title>
<g id="a_node3"><a xlink:href="namespaceekf.html#ac031eda654b199bd45807eed2acdb3ec" target="_top" xlink:title="ekf::computeMcdFromQuaternion">
<polygon fill="#ffffff" stroke="#000000" points="205,-.5 205,-17.5 374,-17.5 374,-.5 205,-.5"/>
<text text-anchor="middle" x="289.5" y="-7.1" font-family="DejaVuSansMono" font-size="8.00" fill="#000000">ekf::computeMcdFromQuaternion</text>
</a>
</g>
</g>
<!-- Node26&#45;&gt;Node28 -->
<g id="edge2" class="edge">
<title>Node26&#45;&gt;Node28</title>
<path fill="none" stroke="#191970" d="M169.0649,-19.5748C177.5471,-18.83 186.1983,-18.0704 194.7766,-17.3172"/>
<polygon fill="#191970" stroke="#191970" points="195.1431,-20.7986 204.7986,-16.4372 194.5307,-13.8254 195.1431,-20.7986"/>
</g>
<!-- Node29 -->
<g id="node4" class="node">
<title>Node29</title>
<g id="a_node4"><a xlink:href="namespaceekf.html#af3f0a631343e55ec8b42f3fbea182461" target="_top" xlink:title="Matrix antissimetrica. ">
<polygon fill="#ffffff" stroke="#000000" points="410,-.5 410,-17.5 474,-17.5 474,-.5 410,-.5"/>
<text text-anchor="middle" x="442" y="-7.1" font-family="DejaVuSansMono" font-size="8.00" fill="#000000">ekf::skew</text>
</a>
</g>
</g>
<!-- Node28&#45;&gt;Node29 -->
<g id="edge3" class="edge">
<title>Node28&#45;&gt;Node29</title>
<path fill="none" stroke="#191970" d="M374.2232,-9C382.9941,-9 391.6137,-9 399.6098,-9"/>
<polygon fill="#191970" stroke="#191970" points="399.7228,-12.5001 409.7228,-9 399.7227,-5.5001 399.7228,-12.5001"/>
</g>
</g>
</svg>
