<?xml version="1.0" encoding="UTF-8" standalone="no"?>
<!DOCTYPE svg PUBLIC "-//W3C//DTD SVG 1.1//EN"
 "http://www.w3.org/Graphics/SVG/1.1/DTD/svg11.dtd">
<!-- Generated by graphviz version 2.40.1 (20161225.0304)
 -->
<!-- Title: IMU::setGyroRange Pages: 1 -->
<svg width="408pt" height="26pt"
 viewBox="0.00 0.00 408.00 26.00" xmlns="http://www.w3.org/2000/svg" xmlns:xlink="http://www.w3.org/1999/xlink">
<g id="graph0" class="graph" transform="scale(1 1) rotate(0) translate(4 22)">
<title>IMU::setGyroRange</title>
<polygon fill="#ffffff" stroke="transparent" points="-4,4 -4,-22 404,-22 404,4 -4,4"/>
<!-- Node84 -->
<g id="node1" class="node">
<title>Node84</title>
<polygon fill="#bfbfbf" stroke="#000000" points="0,-.5 0,-17.5 106,-17.5 106,-.5 0,-.5"/>
<text text-anchor="middle" x="53" y="-7.1" font-family="DejaVuSansMono" font-size="8.00" fill="#000000">IMU::setGyroRange</text>
</g>
<!-- Node85 -->
<g id="node2" class="node">
<title>Node85</title>
<g id="a_node2"><a xlink:href="classIMU.html#a37694424e4502ffc69bbb6c540c1a400" target="_top" xlink:title="IMU::writeRegister">
<polygon fill="#ffffff" stroke="#000000" points="142,-.5 142,-17.5 253,-17.5 253,-.5 142,-.5"/>
<text text-anchor="middle" x="197.5" y="-7.1" font-family="DejaVuSansMono" font-size="8.00" fill="#000000">IMU::writeRegister</text>
</a>
</g>
</g>
<!-- Node84&#45;&gt;Node85 -->
<g id="edge1" class="edge">
<title>Node84&#45;&gt;Node85</title>
<path fill="none" stroke="#191970" d="M106.3959,-9C114.6264,-9 123.2079,-9 131.671,-9"/>
<polygon fill="#191970" stroke="#191970" points="131.9038,-12.5001 141.9038,-9 131.9038,-5.5001 131.9038,-12.5001"/>
</g>
<!-- Node86 -->
<g id="node3" class="node">
<title>Node86</title>
<g id="a_node3"><a xlink:href="classIMU.html#a87c200faa130ff4d2d3416b2d83f4f49" target="_top" xlink:title="IMU::readRegisters">
<polygon fill="#ffffff" stroke="#000000" points="289,-.5 289,-17.5 400,-17.5 400,-.5 289,-.5"/>
<text text-anchor="middle" x="344.5" y="-7.1" font-family="DejaVuSansMono" font-size="8.00" fill="#000000">IMU::readRegisters</text>
</a>
</g>
</g>
<!-- Node85&#45;&gt;Node86 -->
<g id="edge2" class="edge">
<title>Node85&#45;&gt;Node86</title>
<path fill="none" stroke="#191970" d="M253.0744,-9C261.4894,-9 270.2383,-9 278.8421,-9"/>
<polygon fill="#191970" stroke="#191970" points="278.8471,-12.5001 288.847,-9 278.847,-5.5001 278.8471,-12.5001"/>
</g>
</g>
</svg>
