<?xml version="1.0" encoding="UTF-8" standalone="no"?>
<!DOCTYPE svg PUBLIC "-//W3C//DTD SVG 1.1//EN"
 "http://www.w3.org/Graphics/SVG/1.1/DTD/svg11.dtd">
<!-- Generated by graphviz version 2.40.1 (20161225.0304)
 -->
<!-- Title: IMU::setDlpfBandwidth Pages: 1 -->
<svg width="429pt" height="26pt"
 viewBox="0.00 0.00 429.00 26.00" xmlns="http://www.w3.org/2000/svg" xmlns:xlink="http://www.w3.org/1999/xlink">
<g id="graph0" class="graph" transform="scale(1 1) rotate(0) translate(4 22)">
<title>IMU::setDlpfBandwidth</title>
<polygon fill="#ffffff" stroke="transparent" points="-4,4 -4,-22 425,-22 425,4 -4,4"/>
<!-- Node77 -->
<g id="node1" class="node">
<title>Node77</title>
<polygon fill="#bfbfbf" stroke="#000000" points="0,-.5 0,-17.5 127,-17.5 127,-.5 0,-.5"/>
<text text-anchor="middle" x="63.5" y="-7.1" font-family="DejaVuSansMono" font-size="8.00" fill="#000000">IMU::setDlpfBandwidth</text>
</g>
<!-- Node78 -->
<g id="node2" class="node">
<title>Node78</title>
<g id="a_node2"><a xlink:href="classIMU.html#a37694424e4502ffc69bbb6c540c1a400" target="_top" xlink:title="IMU::writeRegister">
<polygon fill="#ffffff" stroke="#000000" points="163,-.5 163,-17.5 274,-17.5 274,-.5 163,-.5"/>
<text text-anchor="middle" x="218.5" y="-7.1" font-family="DejaVuSansMono" font-size="8.00" fill="#000000">IMU::writeRegister</text>
</a>
</g>
</g>
<!-- Node77&#45;&gt;Node78 -->
<g id="edge1" class="edge">
<title>Node77&#45;&gt;Node78</title>
<path fill="none" stroke="#191970" d="M127.4393,-9C135.7394,-9 144.2536,-9 152.5851,-9"/>
<polygon fill="#191970" stroke="#191970" points="152.6305,-12.5001 162.6304,-9 152.6304,-5.5001 152.6305,-12.5001"/>
</g>
<!-- Node79 -->
<g id="node3" class="node">
<title>Node79</title>
<g id="a_node3"><a xlink:href="classIMU.html#a87c200faa130ff4d2d3416b2d83f4f49" target="_top" xlink:title="IMU::readRegisters">
<polygon fill="#ffffff" stroke="#000000" points="310,-.5 310,-17.5 421,-17.5 421,-.5 310,-.5"/>
<text text-anchor="middle" x="365.5" y="-7.1" font-family="DejaVuSansMono" font-size="8.00" fill="#000000">IMU::readRegisters</text>
</a>
</g>
</g>
<!-- Node78&#45;&gt;Node79 -->
<g id="edge2" class="edge">
<title>Node78&#45;&gt;Node79</title>
<path fill="none" stroke="#191970" d="M274.0744,-9C282.4894,-9 291.2383,-9 299.8421,-9"/>
<polygon fill="#191970" stroke="#191970" points="299.8471,-12.5001 309.847,-9 299.847,-5.5001 299.8471,-12.5001"/>
</g>
</g>
</svg>
