<?xml version="1.0" encoding="UTF-8" standalone="no"?>
<!DOCTYPE svg PUBLIC "-//W3C//DTD SVG 1.1//EN"
 "http://www.w3.org/Graphics/SVG/1.1/DTD/svg11.dtd">
<!-- Generated by graphviz version 2.40.1 (20161225.0304)
 -->
<!-- Title: IMU::calibracaoMagnetometro Pages: 1 -->
<svg width="445pt" height="26pt"
 viewBox="0.00 0.00 445.00 26.00" xmlns="http://www.w3.org/2000/svg" xmlns:xlink="http://www.w3.org/1999/xlink">
<g id="graph0" class="graph" transform="scale(1 1) rotate(0) translate(4 22)">
<title>IMU::calibracaoMagnetometro</title>
<polygon fill="#ffffff" stroke="transparent" points="-4,4 -4,-22 441,-22 441,4 -4,4"/>
<!-- Node18 -->
<g id="node1" class="node">
<title>Node18</title>
<polygon fill="#bfbfbf" stroke="#000000" points="0,-.5 0,-17.5 158,-17.5 158,-.5 0,-.5"/>
<text text-anchor="middle" x="79" y="-7.1" font-family="DejaVuSansMono" font-size="8.00" fill="#000000">IMU::calibracaoMagnetometro</text>
</g>
<!-- Node19 -->
<g id="node2" class="node">
<title>Node19</title>
<g id="a_node2"><a xlink:href="classekf_1_1EKF.html#aecdea0922a84bc38cdd78e86657d6ae9" target="_top" xlink:title="ekf::EKF::calibrationMethods">
<polygon fill="#ffffff" stroke="#000000" points="194,-.5 194,-17.5 358,-17.5 358,-.5 194,-.5"/>
<text text-anchor="middle" x="276" y="-7.1" font-family="DejaVuSansMono" font-size="8.00" fill="#000000">ekf::EKF::calibrationMethods</text>
</a>
</g>
</g>
<!-- Node18&#45;&gt;Node19 -->
<g id="edge1" class="edge">
<title>Node18&#45;&gt;Node19</title>
<path fill="none" stroke="#191970" d="M168.553,-9C177.0286,-9 185.5933,-9 193.9932,-9"/>
<polygon fill="#191970" stroke="#191970" points="168.2759,-5.5001 158.2759,-9 168.2759,-12.5001 168.2759,-5.5001"/>
</g>
<!-- Node20 -->
<g id="node3" class="node">
<title>Node20</title>
<g id="a_node3"><a xlink:href="main_8cpp.html#a4fc01d736fe50cf5b977f755b675f11d" target="_top" xlink:title="setup">
<polygon fill="#ffffff" stroke="#000000" points="394,-.5 394,-17.5 437,-17.5 437,-.5 394,-.5"/>
<text text-anchor="middle" x="415.5" y="-7.1" font-family="DejaVuSansMono" font-size="8.00" fill="#000000">setup</text>
</a>
</g>
</g>
<!-- Node19&#45;&gt;Node20 -->
<g id="edge2" class="edge">
<title>Node19&#45;&gt;Node20</title>
<path fill="none" stroke="#191970" d="M368.627,-9C377.9048,-9 386.5753,-9 393.8741,-9"/>
<polygon fill="#191970" stroke="#191970" points="368.3575,-5.5001 358.3575,-9 368.3575,-12.5001 368.3575,-5.5001"/>
</g>
</g>
</svg>
