<?xml version="1.0" encoding="UTF-8" standalone="no"?>
<!DOCTYPE svg PUBLIC "-//W3C//DTD SVG 1.1//EN"
 "http://www.w3.org/Graphics/SVG/1.1/DTD/svg11.dtd">
<!-- Generated by graphviz version 2.40.1 (20161225.0304)
 -->
<!-- Title: IMU::readAK8963Registers Pages: 1 -->
<svg width="445pt" height="45pt"
 viewBox="0.00 0.00 445.00 45.00" xmlns="http://www.w3.org/2000/svg" xmlns:xlink="http://www.w3.org/1999/xlink">
<g id="graph0" class="graph" transform="scale(1 1) rotate(0) translate(4 41)">
<title>IMU::readAK8963Registers</title>
<polygon fill="#ffffff" stroke="transparent" points="-4,4 -4,-41 441,-41 441,4 -4,4"/>
<!-- Node27 -->
<g id="node1" class="node">
<title>Node27</title>
<polygon fill="#bfbfbf" stroke="#000000" points="0,-.5 0,-17.5 143,-17.5 143,-.5 0,-.5"/>
<text text-anchor="middle" x="71.5" y="-7.1" font-family="DejaVuSansMono" font-size="8.00" fill="#000000">IMU::readAK8963Registers</text>
</g>
<!-- Node28 -->
<g id="node2" class="node">
<title>Node28</title>
<g id="a_node2"><a xlink:href="classIMU.html#a37694424e4502ffc69bbb6c540c1a400" target="_top" xlink:title="IMU::writeRegister">
<polygon fill="#ffffff" stroke="#000000" points="179,-19.5 179,-36.5 290,-36.5 290,-19.5 179,-19.5"/>
<text text-anchor="middle" x="234.5" y="-26.1" font-family="DejaVuSansMono" font-size="8.00" fill="#000000">IMU::writeRegister</text>
</a>
</g>
</g>
<!-- Node27&#45;&gt;Node28 -->
<g id="edge1" class="edge">
<title>Node27&#45;&gt;Node28</title>
<path fill="none" stroke="#191970" d="M143.4686,-17.389C151.8358,-18.3643 160.3389,-19.3554 168.6185,-20.3206"/>
<polygon fill="#191970" stroke="#191970" points="168.2448,-23.8006 178.5828,-21.482 169.0553,-16.8477 168.2448,-23.8006"/>
</g>
<!-- Node29 -->
<g id="node3" class="node">
<title>Node29</title>
<g id="a_node3"><a xlink:href="classIMU.html#a87c200faa130ff4d2d3416b2d83f4f49" target="_top" xlink:title="IMU::readRegisters">
<polygon fill="#ffffff" stroke="#000000" points="326,-.5 326,-17.5 437,-17.5 437,-.5 326,-.5"/>
<text text-anchor="middle" x="381.5" y="-7.1" font-family="DejaVuSansMono" font-size="8.00" fill="#000000">IMU::readRegisters</text>
</a>
</g>
</g>
<!-- Node27&#45;&gt;Node29 -->
<g id="edge3" class="edge">
<title>Node27&#45;&gt;Node29</title>
<path fill="none" stroke="#191970" d="M143.0095,-9C195.0351,-9 264.9477,-9 315.6172,-9"/>
<polygon fill="#191970" stroke="#191970" points="315.8035,-12.5001 325.8035,-9 315.8034,-5.5001 315.8035,-12.5001"/>
</g>
<!-- Node28&#45;&gt;Node29 -->
<g id="edge2" class="edge">
<title>Node28&#45;&gt;Node29</title>
<path fill="none" stroke="#191970" d="M290.0744,-20.8169C298.4894,-19.7293 307.2383,-18.5985 315.8421,-17.4864"/>
<polygon fill="#191970" stroke="#191970" points="316.3782,-20.9463 325.847,-16.1932 315.4808,-14.0041 316.3782,-20.9463"/>
</g>
</g>
</svg>
