<?xml version="1.0" encoding="UTF-8" standalone="no"?>
<!DOCTYPE svg PUBLIC "-//W3C//DTD SVG 1.1//EN"
 "http://www.w3.org/Graphics/SVG/1.1/DTD/svg11.dtd">
<!-- Generated by graphviz version 2.40.1 (20161225.0304)
 -->
<!-- Title: IMU::writeAK8963Register Pages: 1 -->
<svg width="624pt" height="63pt"
 viewBox="0.00 0.00 624.00 63.00" xmlns="http://www.w3.org/2000/svg" xmlns:xlink="http://www.w3.org/1999/xlink">
<g id="graph0" class="graph" transform="scale(1 1) rotate(0) translate(4 59)">
<title>IMU::writeAK8963Register</title>
<polygon fill="#ffffff" stroke="transparent" points="-4,4 -4,-59 620,-59 620,4 -4,4"/>
<!-- Node102 -->
<g id="node1" class="node">
<title>Node102</title>
<polygon fill="#bfbfbf" stroke="#000000" points="0,-18.5 0,-35.5 143,-35.5 143,-18.5 0,-18.5"/>
<text text-anchor="middle" x="71.5" y="-25.1" font-family="DejaVuSansMono" font-size="8.00" fill="#000000">IMU::writeAK8963Register</text>
</g>
<!-- Node103 -->
<g id="node2" class="node">
<title>Node103</title>
<g id="a_node2"><a xlink:href="classIMU.html#a37694424e4502ffc69bbb6c540c1a400" target="_top" xlink:title="IMU::writeRegister">
<polygon fill="#ffffff" stroke="#000000" points="358,-37.5 358,-54.5 469,-54.5 469,-37.5 358,-37.5"/>
<text text-anchor="middle" x="413.5" y="-44.1" font-family="DejaVuSansMono" font-size="8.00" fill="#000000">IMU::writeRegister</text>
</a>
</g>
</g>
<!-- Node102&#45;&gt;Node103 -->
<g id="edge1" class="edge">
<title>Node102&#45;&gt;Node103</title>
<path fill="none" stroke="#191970" d="M143.1944,-30.983C203.5237,-34.3346 289.0895,-39.0883 347.6957,-42.3442"/>
<polygon fill="#191970" stroke="#191970" points="347.7705,-45.8537 357.9493,-42.9138 348.1588,-38.8644 347.7705,-45.8537"/>
</g>
<!-- Node105 -->
<g id="node4" class="node">
<title>Node105</title>
<g id="a_node4"><a xlink:href="classIMU.html#a914f8b4262fba70e6d8fd0e584fa7996" target="_top" xlink:title="IMU::readAK8963Registers">
<polygon fill="#ffffff" stroke="#000000" points="179,-.5 179,-17.5 322,-17.5 322,-.5 179,-.5"/>
<text text-anchor="middle" x="250.5" y="-7.1" font-family="DejaVuSansMono" font-size="8.00" fill="#000000">IMU::readAK8963Registers</text>
</a>
</g>
</g>
<!-- Node102&#45;&gt;Node105 -->
<g id="edge3" class="edge">
<title>Node102&#45;&gt;Node105</title>
<path fill="none" stroke="#191970" d="M143.0172,-19.8083C151.4862,-18.9567 160.1793,-18.0825 168.776,-17.2181"/>
<polygon fill="#191970" stroke="#191970" points="169.2046,-20.6927 178.8042,-16.2096 168.5042,-13.7278 169.2046,-20.6927"/>
</g>
<!-- Node104 -->
<g id="node3" class="node">
<title>Node104</title>
<g id="a_node3"><a xlink:href="classIMU.html#a87c200faa130ff4d2d3416b2d83f4f49" target="_top" xlink:title="IMU::readRegisters">
<polygon fill="#ffffff" stroke="#000000" points="505,-18.5 505,-35.5 616,-35.5 616,-18.5 505,-18.5"/>
<text text-anchor="middle" x="560.5" y="-25.1" font-family="DejaVuSansMono" font-size="8.00" fill="#000000">IMU::readRegisters</text>
</a>
</g>
</g>
<!-- Node103&#45;&gt;Node104 -->
<g id="edge2" class="edge">
<title>Node103&#45;&gt;Node104</title>
<path fill="none" stroke="#191970" d="M469.0744,-38.8169C477.4894,-37.7293 486.2383,-36.5985 494.8421,-35.4864"/>
<polygon fill="#191970" stroke="#191970" points="495.3782,-38.9463 504.847,-34.1932 494.4808,-32.0041 495.3782,-38.9463"/>
</g>
<!-- Node105&#45;&gt;Node103 -->
<g id="edge4" class="edge">
<title>Node105&#45;&gt;Node103</title>
<path fill="none" stroke="#191970" d="M288.3052,-17.5815C311.4495,-22.8352 341.2683,-29.6039 365.9986,-35.2175"/>
<polygon fill="#191970" stroke="#191970" points="365.3731,-38.6645 375.8998,-37.465 366.9227,-31.8381 365.3731,-38.6645"/>
</g>
<!-- Node105&#45;&gt;Node104 -->
<g id="edge5" class="edge">
<title>Node105&#45;&gt;Node104</title>
<path fill="none" stroke="#191970" d="M322.0095,-13.1522C374.0351,-16.173 443.9477,-20.2324 494.6172,-23.1745"/>
<polygon fill="#191970" stroke="#191970" points="494.6174,-26.6804 504.8035,-23.766 495.0232,-19.6921 494.6174,-26.6804"/>
</g>
</g>
</svg>
