<?xml version="1.0" encoding="UTF-8" standalone="no"?>
<!DOCTYPE svg PUBLIC "-//W3C//DTD SVG 1.1//EN"
 "http://www.w3.org/Graphics/SVG/1.1/DTD/svg11.dtd">
<!-- Generated by graphviz version 2.40.1 (20161225.0304)
 -->
<!-- Title: ekf::EKF::updatefi Pages: 1 -->
<svg width="645pt" height="62pt"
 viewBox="0.00 0.00 645.00 62.00" xmlns="http://www.w3.org/2000/svg" xmlns:xlink="http://www.w3.org/1999/xlink">
<g id="graph0" class="graph" transform="scale(1 1) rotate(0) translate(4 58)">
<title>ekf::EKF::updatefi</title>
<polygon fill="#ffffff" stroke="transparent" points="-4,4 -4,-58 641,-58 641,4 -4,4"/>
<!-- Node101 -->
<g id="node1" class="node">
<title>Node101</title>
<polygon fill="#bfbfbf" stroke="#000000" points="0,-18.5 0,-35.5 111,-35.5 111,-18.5 0,-18.5"/>
<text text-anchor="middle" x="55.5" y="-25.1" font-family="DejaVuSansMono" font-size="8.00" fill="#000000">ekf::EKF::updatefi</text>
</g>
<!-- Node102 -->
<g id="node2" class="node">
<title>Node102</title>
<g id="a_node2"><a xlink:href="classekf_1_1EKF.html#a548f56f22a519f1f66b1bf59b9ed56d6" target="_top" xlink:title="ekf::EKF::temporalPrediction">
<polygon fill="#ffffff" stroke="#000000" points="147,-18.5 147,-35.5 311,-35.5 311,-18.5 147,-18.5"/>
<text text-anchor="middle" x="229" y="-25.1" font-family="DejaVuSansMono" font-size="8.00" fill="#000000">ekf::EKF::temporalPrediction</text>
</a>
</g>
</g>
<!-- Node101&#45;&gt;Node102 -->
<g id="edge1" class="edge">
<title>Node101&#45;&gt;Node102</title>
<path fill="none" stroke="#191970" d="M121.5978,-27C129.8169,-27 138.2985,-27 146.7237,-27"/>
<polygon fill="#191970" stroke="#191970" points="121.3515,-23.5001 111.3515,-27 121.3515,-30.5001 121.3515,-23.5001"/>
</g>
<!-- Node103 -->
<g id="node3" class="node">
<title>Node103</title>
<g id="a_node3"><a xlink:href="classekf_1_1EKF.html#a651814ff64d234394572e2e7c5703a43" target="_top" xlink:title="ekf::EKF::loopEKF">
<polygon fill="#ffffff" stroke="#000000" points="347,-18.5 347,-35.5 453,-35.5 453,-18.5 347,-18.5"/>
<text text-anchor="middle" x="400" y="-25.1" font-family="DejaVuSansMono" font-size="8.00" fill="#000000">ekf::EKF::loopEKF</text>
</a>
</g>
</g>
<!-- Node102&#45;&gt;Node103 -->
<g id="edge2" class="edge">
<title>Node102&#45;&gt;Node103</title>
<path fill="none" stroke="#191970" d="M321.4946,-27C330.2067,-27 338.8214,-27 346.9734,-27"/>
<polygon fill="#191970" stroke="#191970" points="321.2444,-23.5001 311.2444,-27 321.2443,-30.5001 321.2444,-23.5001"/>
</g>
<!-- Node104 -->
<g id="node4" class="node">
<title>Node104</title>
<g id="a_node4"><a xlink:href="main_8cpp.html#aa561fc46a0358a47fa9151f211523ba0" target="_top" xlink:title="core_1">
<polygon fill="#ffffff" stroke="#000000" points="499.5,-36.5 499.5,-53.5 547.5,-53.5 547.5,-36.5 499.5,-36.5"/>
<text text-anchor="middle" x="523.5" y="-43.1" font-family="DejaVuSansMono" font-size="8.00" fill="#000000">core_1</text>
</a>
</g>
</g>
<!-- Node103&#45;&gt;Node104 -->
<g id="edge3" class="edge">
<title>Node103&#45;&gt;Node104</title>
<path fill="none" stroke="#191970" d="M463.3338,-36.2308C476.1327,-38.0963 488.8409,-39.9485 499.2569,-41.4666"/>
<polygon fill="#191970" stroke="#191970" points="463.4921,-32.717 453.0918,-34.7381 462.4825,-39.6438 463.4921,-32.717"/>
</g>
<!-- Node106 -->
<g id="node6" class="node">
<title>Node106</title>
<g id="a_node6"><a xlink:href="main_8cpp.html#a50d45340b3399db75c34c3b9f67c1b11" target="_top" xlink:title="telemetria">
<polygon fill="#ffffff" stroke="#000000" points="489,-.5 489,-17.5 558,-17.5 558,-.5 489,-.5"/>
<text text-anchor="middle" x="523.5" y="-7.1" font-family="DejaVuSansMono" font-size="8.00" fill="#000000">telemetria</text>
</a>
</g>
</g>
<!-- Node103&#45;&gt;Node106 -->
<g id="edge5" class="edge">
<title>Node103&#45;&gt;Node106</title>
<path fill="none" stroke="#191970" d="M463.0216,-17.8147C471.8374,-16.5298 480.6187,-15.2499 488.6462,-14.0799"/>
<polygon fill="#191970" stroke="#191970" points="462.4825,-14.3562 453.0918,-19.2619 463.4921,-21.283 462.4825,-14.3562"/>
</g>
<!-- Node105 -->
<g id="node5" class="node">
<title>Node105</title>
<g id="a_node5"><a xlink:href="main_8cpp.html#a4fc01d736fe50cf5b977f755b675f11d" target="_top" xlink:title="setup">
<polygon fill="#ffffff" stroke="#000000" points="594,-36.5 594,-53.5 637,-53.5 637,-36.5 594,-36.5"/>
<text text-anchor="middle" x="615.5" y="-43.1" font-family="DejaVuSansMono" font-size="8.00" fill="#000000">setup</text>
</a>
</g>
</g>
<!-- Node104&#45;&gt;Node105 -->
<g id="edge4" class="edge">
<title>Node104&#45;&gt;Node105</title>
<path fill="none" stroke="#191970" d="M557.9202,-45C570.0215,-45 583.2665,-45 593.9991,-45"/>
<polygon fill="#191970" stroke="#191970" points="557.672,-41.5001 547.6719,-45 557.6719,-48.5001 557.672,-41.5001"/>
</g>
</g>
</svg>
