<?xml version="1.0" encoding="UTF-8" standalone="no"?>
<!DOCTYPE svg PUBLIC "-//W3C//DTD SVG 1.1//EN"
 "http://www.w3.org/Graphics/SVG/1.1/DTD/svg11.dtd">
<!-- Generated by graphviz version 2.40.1 (20161225.0304)
 -->
<!-- Title: IMU::readRegisters Pages: 1 -->
<svg width="1028pt" height="343pt"
 viewBox="0.00 0.00 1028.00 343.32" xmlns="http://www.w3.org/2000/svg" xmlns:xlink="http://www.w3.org/1999/xlink">
<g id="graph0" class="graph" transform="scale(1 1) rotate(0) translate(4 339.3163)">
<title>IMU::readRegisters</title>
<polygon fill="#ffffff" stroke="transparent" points="-4,4 -4,-339.3163 1024,-339.3163 1024,4 -4,4"/>
<!-- Node37 -->
<g id="node1" class="node">
<title>Node37</title>
<polygon fill="#bfbfbf" stroke="#000000" points="0,-171.8163 0,-188.8163 111,-188.8163 111,-171.8163 0,-171.8163"/>
<text text-anchor="middle" x="55.5" y="-178.4163" font-family="DejaVuSansMono" font-size="8.00" fill="#000000">IMU::readRegisters</text>
</g>
<!-- Node38 -->
<g id="node2" class="node">
<title>Node38</title>
<g id="a_node2"><a xlink:href="classIMU.html#ac574728dbbc752155239a35c8bbd6e79" target="_top" xlink:title="IMU::readSensor">
<polygon fill="#ffffff" stroke="#000000" points="155,-232.8163 155,-249.8163 250,-249.8163 250,-232.8163 155,-232.8163"/>
<text text-anchor="middle" x="202.5" y="-239.4163" font-family="DejaVuSansMono" font-size="8.00" fill="#000000">IMU::readSensor</text>
</a>
</g>
</g>
<!-- Node37&#45;&gt;Node38 -->
<g id="edge1" class="edge">
<title>Node37&#45;&gt;Node38</title>
<path fill="none" stroke="#191970" d="M85.7847,-192.8834C114.4934,-204.7965 156.8431,-222.3702 181.8558,-232.7497"/>
<polygon fill="#191970" stroke="#191970" points="86.8276,-189.5268 76.2497,-188.9267 84.1446,-195.9923 86.8276,-189.5268"/>
</g>
<!-- Node48 -->
<g id="node12" class="node">
<title>Node48</title>
<g id="a_node12"><a xlink:href="classIMU.html#a914f8b4262fba70e6d8fd0e584fa7996" target="_top" xlink:title="IMU::readAK8963Registers">
<polygon fill="#ffffff" stroke="#000000" points="309.5,-191.8163 309.5,-208.8163 452.5,-208.8163 452.5,-191.8163 309.5,-191.8163"/>
<text text-anchor="middle" x="381" y="-198.4163" font-family="DejaVuSansMono" font-size="8.00" fill="#000000">IMU::readAK8963Registers</text>
</a>
</g>
</g>
<!-- Node37&#45;&gt;Node48 -->
<g id="edge13" class="edge">
<title>Node37&#45;&gt;Node48</title>
<path fill="none" stroke="#191970" d="M121.338,-184.3616C175.8978,-187.714 253.3124,-192.4707 309.4044,-195.9172"/>
<polygon fill="#191970" stroke="#191970" points="121.2815,-180.8517 111.0856,-183.7317 120.8521,-187.8385 121.2815,-180.8517"/>
</g>
<!-- Node53 -->
<g id="node17" class="node">
<title>Node53</title>
<g id="a_node17"><a xlink:href="classIMU.html#a37694424e4502ffc69bbb6c540c1a400" target="_top" xlink:title="IMU::writeRegister">
<polygon fill="#ffffff" stroke="#000000" points="147,-134.8163 147,-151.8163 258,-151.8163 258,-134.8163 147,-134.8163"/>
<text text-anchor="middle" x="202.5" y="-141.4163" font-family="DejaVuSansMono" font-size="8.00" fill="#000000">IMU::writeRegister</text>
</a>
</g>
</g>
<!-- Node37&#45;&gt;Node53 -->
<g id="edge21" class="edge">
<title>Node37&#45;&gt;Node53</title>
<path fill="none" stroke="#191970" d="M99.4322,-169.2585C121.5822,-163.6833 148.0317,-157.026 168.5907,-151.8513"/>
<polygon fill="#191970" stroke="#191970" points="98.4374,-165.8997 89.5942,-171.7348 100.1461,-172.6879 98.4374,-165.8997"/>
</g>
<!-- Node57 -->
<g id="node21" class="node">
<title>Node57</title>
<g id="a_node21"><a xlink:href="classIMU.html#a0481a2f76feaf06534e9473118d55ee3" target="_top" xlink:title="IMU::whoAmI">
<polygon fill="#ffffff" stroke="#000000" points="165.5,-98.8163 165.5,-115.8163 239.5,-115.8163 239.5,-98.8163 165.5,-98.8163"/>
<text text-anchor="middle" x="202.5" y="-105.4163" font-family="DejaVuSansMono" font-size="8.00" fill="#000000">IMU::whoAmI</text>
</a>
</g>
</g>
<!-- Node37&#45;&gt;Node57 -->
<g id="edge31" class="edge">
<title>Node37&#45;&gt;Node57</title>
<path fill="none" stroke="#191970" d="M76.2961,-165.9382C94.3718,-153.9066 121.577,-136.8966 147,-125.3163 154.8355,-121.7472 163.5863,-118.5638 171.7808,-115.9034"/>
<polygon fill="#191970" stroke="#191970" points="74.0618,-163.2237 67.7336,-171.721 77.9796,-169.0246 74.0618,-163.2237"/>
</g>
<!-- Node39 -->
<g id="node3" class="node">
<title>Node39</title>
<g id="a_node3"><a xlink:href="classekf_1_1EKF.html#a84048d25ebfb6431d7b1372b7315a7a3" target="_top" xlink:title="Atualiza a medicao a partir dos sensores da unidade Margin e GPS. ">
<polygon fill="#ffffff" stroke="#000000" points="294,-299.8163 294,-316.8163 468,-316.8163 468,-299.8163 294,-299.8163"/>
<text text-anchor="middle" x="381" y="-306.4163" font-family="DejaVuSansMono" font-size="8.00" fill="#000000">ekf::EKF::updateOfMeasurements</text>
</a>
</g>
</g>
<!-- Node38&#45;&gt;Node39 -->
<g id="edge2" class="edge">
<title>Node38&#45;&gt;Node39</title>
<path fill="none" stroke="#191970" d="M224.1649,-255.2287C242.2015,-266.2341 268.8987,-281.2151 294,-290.3163 304.5852,-294.1543 316.2079,-297.2671 327.4156,-299.7562"/>
<polygon fill="#191970" stroke="#191970" points="225.9169,-252.1967 215.5766,-249.8882 222.2204,-258.1411 225.9169,-252.1967"/>
</g>
<!-- Node45 -->
<g id="node9" class="node">
<title>Node45</title>
<g id="a_node9"><a xlink:href="classIMU.html#a5f096cb37d4b16851381bf09d6809403" target="_top" xlink:title="IMU::calibraGyro">
<polygon fill="#ffffff" stroke="#000000" points="330.5,-263.8163 330.5,-280.8163 431.5,-280.8163 431.5,-263.8163 330.5,-263.8163"/>
<text text-anchor="middle" x="381" y="-270.4163" font-family="DejaVuSansMono" font-size="8.00" fill="#000000">IMU::calibraGyro</text>
</a>
</g>
</g>
<!-- Node38&#45;&gt;Node45 -->
<g id="edge8" class="edge">
<title>Node38&#45;&gt;Node45</title>
<path fill="none" stroke="#191970" d="M260.3374,-251.3609C283.397,-255.3656 309.6633,-259.9273 331.7885,-263.7698"/>
<polygon fill="#191970" stroke="#191970" points="260.7862,-247.8865 250.3347,-249.6237 259.5883,-254.7833 260.7862,-247.8865"/>
</g>
<!-- Node47 -->
<g id="node11" class="node">
<title>Node47</title>
<g id="a_node11"><a xlink:href="classIMU.html#a3546779010d9128859f465195eff77f5" target="_top" xlink:title="IMU::calibracaoMagnetometro">
<polygon fill="#ffffff" stroke="#000000" points="302,-227.8163 302,-244.8163 460,-244.8163 460,-227.8163 302,-227.8163"/>
<text text-anchor="middle" x="381" y="-234.4163" font-family="DejaVuSansMono" font-size="8.00" fill="#000000">IMU::calibracaoMagnetometro</text>
</a>
</g>
</g>
<!-- Node38&#45;&gt;Node47 -->
<g id="edge11" class="edge">
<title>Node38&#45;&gt;Node47</title>
<path fill="none" stroke="#191970" d="M260.6046,-239.6887C273.7164,-239.3214 287.8536,-238.9254 301.6698,-238.5384"/>
<polygon fill="#191970" stroke="#191970" points="260.2328,-236.1977 250.3347,-239.9764 260.4288,-243.1949 260.2328,-236.1977"/>
</g>
<!-- Node40 -->
<g id="node4" class="node">
<title>Node40</title>
<g id="a_node4"><a xlink:href="classekf_1_1EKF.html#a548f56f22a519f1f66b1bf59b9ed56d6" target="_top" xlink:title="ekf::EKF::temporalPrediction">
<polygon fill="#ffffff" stroke="#000000" points="504,-299.8163 504,-316.8163 668,-316.8163 668,-299.8163 504,-299.8163"/>
<text text-anchor="middle" x="586" y="-306.4163" font-family="DejaVuSansMono" font-size="8.00" fill="#000000">ekf::EKF::temporalPrediction</text>
</a>
</g>
</g>
<!-- Node39&#45;&gt;Node40 -->
<g id="edge3" class="edge">
<title>Node39&#45;&gt;Node40</title>
<path fill="none" stroke="#191970" d="M478.4954,-308.3163C486.9376,-308.3163 495.4252,-308.3163 503.7284,-308.3163"/>
<polygon fill="#191970" stroke="#191970" points="478.2357,-304.8164 468.2357,-308.3163 478.2357,-311.8164 478.2357,-304.8164"/>
</g>
<!-- Node41 -->
<g id="node5" class="node">
<title>Node41</title>
<g id="a_node5"><a xlink:href="classekf_1_1EKF.html#a651814ff64d234394572e2e7c5703a43" target="_top" xlink:title="ekf::EKF::loopEKF">
<polygon fill="#ffffff" stroke="#000000" points="704,-299.8163 704,-316.8163 810,-316.8163 810,-299.8163 704,-299.8163"/>
<text text-anchor="middle" x="757" y="-306.4163" font-family="DejaVuSansMono" font-size="8.00" fill="#000000">ekf::EKF::loopEKF</text>
</a>
</g>
</g>
<!-- Node40&#45;&gt;Node41 -->
<g id="edge4" class="edge">
<title>Node40&#45;&gt;Node41</title>
<path fill="none" stroke="#191970" d="M678.4946,-308.3163C687.2067,-308.3163 695.8214,-308.3163 703.9734,-308.3163"/>
<polygon fill="#191970" stroke="#191970" points="678.2444,-304.8164 668.2444,-308.3163 678.2443,-311.8164 678.2444,-304.8164"/>
</g>
<!-- Node42 -->
<g id="node6" class="node">
<title>Node42</title>
<g id="a_node6"><a xlink:href="main_8cpp.html#aa561fc46a0358a47fa9151f211523ba0" target="_top" xlink:title="core_1">
<polygon fill="#ffffff" stroke="#000000" points="869.5,-317.8163 869.5,-334.8163 917.5,-334.8163 917.5,-317.8163 869.5,-317.8163"/>
<text text-anchor="middle" x="893.5" y="-324.4163" font-family="DejaVuSansMono" font-size="8.00" fill="#000000">core_1</text>
</a>
</g>
</g>
<!-- Node41&#45;&gt;Node42 -->
<g id="edge5" class="edge">
<title>Node41&#45;&gt;Node42</title>
<path fill="none" stroke="#191970" d="M820.3049,-316.6642C837.6683,-318.9539 855.4609,-321.3002 869.1556,-323.106"/>
<polygon fill="#191970" stroke="#191970" points="820.5371,-313.1646 810.1653,-315.3271 819.6219,-320.1045 820.5371,-313.1646"/>
</g>
<!-- Node44 -->
<g id="node8" class="node">
<title>Node44</title>
<g id="a_node8"><a xlink:href="main_8cpp.html#a50d45340b3399db75c34c3b9f67c1b11" target="_top" xlink:title="telemetria">
<polygon fill="#ffffff" stroke="#000000" points="859,-281.8163 859,-298.8163 928,-298.8163 928,-281.8163 859,-281.8163"/>
<text text-anchor="middle" x="893.5" y="-288.4163" font-family="DejaVuSansMono" font-size="8.00" fill="#000000">telemetria</text>
</a>
</g>
</g>
<!-- Node41&#45;&gt;Node44 -->
<g id="edge7" class="edge">
<title>Node41&#45;&gt;Node44</title>
<path fill="none" stroke="#191970" d="M820.2261,-299.9788C833.4911,-298.2295 847.0106,-296.4468 858.7656,-294.8966"/>
<polygon fill="#191970" stroke="#191970" points="819.6219,-296.5281 810.1653,-301.3055 820.5371,-303.468 819.6219,-296.5281"/>
</g>
<!-- Node43 -->
<g id="node7" class="node">
<title>Node43</title>
<g id="a_node7"><a xlink:href="main_8cpp.html#a4fc01d736fe50cf5b977f755b675f11d" target="_top" xlink:title="setup">
<polygon fill="#ffffff" stroke="#000000" points="977,-244.8163 977,-261.8163 1020,-261.8163 1020,-244.8163 977,-244.8163"/>
<text text-anchor="middle" x="998.5" y="-251.4163" font-family="DejaVuSansMono" font-size="8.00" fill="#000000">setup</text>
</a>
</g>
</g>
<!-- Node42&#45;&gt;Node43 -->
<g id="edge6" class="edge">
<title>Node42&#45;&gt;Node43</title>
<path fill="none" stroke="#191970" d="M926.901,-315.6208C931.7868,-313.5028 936.6364,-311.0685 941,-308.3163 961.7978,-295.1986 981.4726,-273.7325 991.5312,-261.8693"/>
<polygon fill="#191970" stroke="#191970" points="925.5932,-312.3741 917.5793,-319.3043 928.1658,-318.8843 925.5932,-312.3741"/>
</g>
<!-- Node46 -->
<g id="node10" class="node">
<title>Node46</title>
<g id="a_node10"><a xlink:href="classekf_1_1EKF.html#aecdea0922a84bc38cdd78e86657d6ae9" target="_top" xlink:title="ekf::EKF::calibrationMethods">
<polygon fill="#ffffff" stroke="#000000" points="504,-263.8163 504,-280.8163 668,-280.8163 668,-263.8163 504,-263.8163"/>
<text text-anchor="middle" x="586" y="-270.4163" font-family="DejaVuSansMono" font-size="8.00" fill="#000000">ekf::EKF::calibrationMethods</text>
</a>
</g>
</g>
<!-- Node45&#45;&gt;Node46 -->
<g id="edge9" class="edge">
<title>Node45&#45;&gt;Node46</title>
<path fill="none" stroke="#191970" d="M441.8631,-272.3163C461.2276,-272.3163 482.9809,-272.3163 503.6039,-272.3163"/>
<polygon fill="#191970" stroke="#191970" points="441.6742,-268.8164 431.6742,-272.3163 441.6741,-275.8164 441.6742,-268.8164"/>
</g>
<!-- Node46&#45;&gt;Node43 -->
<g id="edge10" class="edge">
<title>Node46&#45;&gt;Node43</title>
<path fill="none" stroke="#191970" d="M678.6131,-268.0505C775.8091,-263.5736 921.9539,-256.8421 976.7358,-254.3188"/>
<polygon fill="#191970" stroke="#191970" points="678.3125,-264.5605 668.4841,-268.517 678.6346,-271.5531 678.3125,-264.5605"/>
</g>
<!-- Node47&#45;&gt;Node46 -->
<g id="edge12" class="edge">
<title>Node47&#45;&gt;Node46</title>
<path fill="none" stroke="#191970" d="M439.7956,-246.6414C470.7128,-252.0707 508.1573,-258.6464 537.4118,-263.7837"/>
<polygon fill="#191970" stroke="#191970" points="440.0368,-243.1303 429.5821,-244.8478 438.826,-250.0248 440.0368,-243.1303"/>
</g>
<!-- Node49 -->
<g id="node13" class="node">
<title>Node49</title>
<g id="a_node13"><a xlink:href="classIMU.html#ae0d964d2f8ec122be068c41b84bc18a8" target="_top" xlink:title="IMU::begin">
<polygon fill="#ffffff" stroke="#000000" points="722.5,-134.8163 722.5,-151.8163 791.5,-151.8163 791.5,-134.8163 722.5,-134.8163"/>
<text text-anchor="middle" x="757" y="-141.4163" font-family="DejaVuSansMono" font-size="8.00" fill="#000000">IMU::begin</text>
</a>
</g>
</g>
<!-- Node48&#45;&gt;Node49 -->
<g id="edge14" class="edge">
<title>Node48&#45;&gt;Node49</title>
<path fill="none" stroke="#191970" d="M449.4602,-210.2185C521.3574,-219.5406 629.2599,-230.1718 668,-216.3163 704.1284,-203.3949 736.1267,-168.7931 749.8678,-152.2998"/>
<polygon fill="#191970" stroke="#191970" points="449.498,-206.6932 439.1262,-208.8556 448.5827,-213.6331 449.498,-206.6932"/>
</g>
<!-- Node51 -->
<g id="node15" class="node">
<title>Node51</title>
<g id="a_node15"><a xlink:href="classIMU.html#af3b90e0b20d4bd55091be99f7aa67737" target="_top" xlink:title="IMU::writeAK8963Register">
<polygon fill="#ffffff" stroke="#000000" points="514.5,-153.8163 514.5,-170.8163 657.5,-170.8163 657.5,-153.8163 514.5,-153.8163"/>
<text text-anchor="middle" x="586" y="-160.4163" font-family="DejaVuSansMono" font-size="8.00" fill="#000000">IMU::writeAK8963Register</text>
</a>
</g>
</g>
<!-- Node48&#45;&gt;Node51 -->
<g id="edge17" class="edge">
<title>Node48&#45;&gt;Node51</title>
<path fill="none" stroke="#191970" d="M437.1785,-189.9027C469.4152,-183.9271 509.3928,-176.5167 539.7933,-170.8814"/>
<polygon fill="#191970" stroke="#191970" points="436.2006,-186.5243 427.006,-191.7884 437.4764,-193.407 436.2006,-186.5243"/>
</g>
<!-- Node52 -->
<g id="node16" class="node">
<title>Node52</title>
<g id="a_node16"><a xlink:href="classIMU.html#acd2af48f4eb0a0321080332016e3c1f7" target="_top" xlink:title="IMU::whoAmIAK8963">
<polygon fill="#ffffff" stroke="#000000" points="533,-189.8163 533,-206.8163 639,-206.8163 639,-189.8163 533,-189.8163"/>
<text text-anchor="middle" x="586" y="-196.4163" font-family="DejaVuSansMono" font-size="8.00" fill="#000000">IMU::whoAmIAK8963</text>
</a>
</g>
</g>
<!-- Node48&#45;&gt;Node52 -->
<g id="edge19" class="edge">
<title>Node48&#45;&gt;Node52</title>
<path fill="none" stroke="#191970" d="M463.0116,-199.5162C486.5002,-199.287 511.4854,-199.0433 532.7573,-198.8357"/>
<polygon fill="#191970" stroke="#191970" points="462.6644,-196.0193 452.6991,-199.6168 462.7328,-203.019 462.6644,-196.0193"/>
</g>
<!-- Node50 -->
<g id="node14" class="node">
<title>Node50</title>
<g id="a_node14"><a xlink:href="classekf_1_1EKF.html#af52f661717f56b3deee7b4f42ba80dc5" target="_top" xlink:title="Inicializacao do filtro de Kalman. ">
<polygon fill="#ffffff" stroke="#000000" points="846,-153.8163 846,-170.8163 941,-170.8163 941,-153.8163 846,-153.8163"/>
<text text-anchor="middle" x="893.5" y="-160.4163" font-family="DejaVuSansMono" font-size="8.00" fill="#000000">ekf::EKF::begin</text>
</a>
</g>
</g>
<!-- Node49&#45;&gt;Node50 -->
<g id="edge15" class="edge">
<title>Node49&#45;&gt;Node50</title>
<path fill="none" stroke="#191970" d="M801.7767,-149.5489C815.9083,-151.516 831.5688,-153.6958 845.8907,-155.6894"/>
<polygon fill="#191970" stroke="#191970" points="802.185,-146.0721 791.7979,-148.16 801.2199,-153.0053 802.185,-146.0721"/>
</g>
<!-- Node50&#45;&gt;Node43 -->
<g id="edge16" class="edge">
<title>Node50&#45;&gt;Node43</title>
<path fill="none" stroke="#191970" d="M911.2896,-177.734C933.5541,-197.0299 970.9092,-229.4043 988.6159,-244.7501"/>
<polygon fill="#191970" stroke="#191970" points="913.417,-174.9462 903.5678,-171.0418 908.8325,-180.236 913.417,-174.9462"/>
</g>
<!-- Node51&#45;&gt;Node49 -->
<g id="edge18" class="edge">
<title>Node51&#45;&gt;Node49</title>
<path fill="none" stroke="#191970" d="M667.5386,-153.2565C686.7667,-151.12 706.2625,-148.9538 722.125,-147.1913"/>
<polygon fill="#191970" stroke="#191970" points="667.0809,-149.7857 657.5286,-154.3687 667.854,-156.7429 667.0809,-149.7857"/>
</g>
<!-- Node52&#45;&gt;Node49 -->
<g id="edge20" class="edge">
<title>Node52&#45;&gt;Node49</title>
<path fill="none" stroke="#191970" d="M641.7957,-187.4699C650.6322,-185.3509 659.6163,-182.956 668,-180.3163 693.2183,-172.3759 721.2097,-160.1429 738.945,-151.9406"/>
<polygon fill="#191970" stroke="#191970" points="640.8814,-184.0888 631.9217,-189.7433 642.452,-190.9103 640.8814,-184.0888"/>
</g>
<!-- Node53&#45;&gt;Node48 -->
<g id="edge29" class="edge">
<title>Node53&#45;&gt;Node48</title>
<path fill="none" stroke="#191970" d="M233.4813,-155.6842C251.0817,-162.4939 273.6097,-170.8495 294,-177.3163 310.828,-182.6533 329.7511,-187.76 345.6409,-191.7999"/>
<polygon fill="#191970" stroke="#191970" points="234.3294,-152.258 223.7413,-151.8794 231.7823,-158.7781 234.3294,-152.258"/>
</g>
<!-- Node53&#45;&gt;Node49 -->
<g id="edge22" class="edge">
<title>Node53&#45;&gt;Node49</title>
<path fill="none" stroke="#191970" d="M268.2267,-143.3163C386.6007,-143.3163 631.7334,-143.3163 722.3471,-143.3163"/>
<polygon fill="#191970" stroke="#191970" points="268.2064,-139.8164 258.2064,-143.3163 268.2064,-146.8164 268.2064,-139.8164"/>
</g>
<!-- Node53&#45;&gt;Node51 -->
<g id="edge30" class="edge">
<title>Node53&#45;&gt;Node51</title>
<path fill="none" stroke="#191970" d="M268.508,-146.5866C337.0585,-149.9828 443.9573,-155.279 514.4814,-158.773"/>
<polygon fill="#191970" stroke="#191970" points="268.4252,-143.0783 258.2642,-146.0791 268.0787,-150.0697 268.4252,-143.0783"/>
</g>
<!-- Node54 -->
<g id="node18" class="node">
<title>Node54</title>
<g id="a_node18"><a xlink:href="classIMU.html#a5567bbe0d211f1e6d386eb69ffd960a7" target="_top" xlink:title="IMU::setAccelRange">
<polygon fill="#ffffff" stroke="#000000" points="530.5,-79.8163 530.5,-96.8163 641.5,-96.8163 641.5,-79.8163 530.5,-79.8163"/>
<text text-anchor="middle" x="586" y="-86.4163" font-family="DejaVuSansMono" font-size="8.00" fill="#000000">IMU::setAccelRange</text>
</a>
</g>
</g>
<!-- Node53&#45;&gt;Node54 -->
<g id="edge23" class="edge">
<title>Node53&#45;&gt;Node54</title>
<path fill="none" stroke="#191970" d="M239.516,-131.6374C245.7082,-129.5904 252.0512,-127.4357 258,-125.3163 274.1716,-119.5547 277.2645,-115.1422 294,-111.3163 374.8033,-92.8438 471.0886,-88.5705 530.382,-87.9034"/>
<polygon fill="#191970" stroke="#191970" points="238.4094,-128.3168 229.9876,-134.7451 240.58,-134.9718 238.4094,-128.3168"/>
</g>
<!-- Node55 -->
<g id="node19" class="node">
<title>Node55</title>
<g id="a_node19"><a xlink:href="classIMU.html#a834f21762003f831e5e632cc7974ba75" target="_top" xlink:title="IMU::setGyroRange">
<polygon fill="#ffffff" stroke="#000000" points="533,-42.8163 533,-59.8163 639,-59.8163 639,-42.8163 533,-42.8163"/>
<text text-anchor="middle" x="586" y="-49.4163" font-family="DejaVuSansMono" font-size="8.00" fill="#000000">IMU::setGyroRange</text>
</a>
</g>
</g>
<!-- Node53&#45;&gt;Node55 -->
<g id="edge25" class="edge">
<title>Node53&#45;&gt;Node55</title>
<path fill="none" stroke="#191970" d="M247.4058,-131.0116C251.1033,-129.3286 254.6877,-127.4371 258,-125.3163 277.866,-112.5968 272.9937,-97.0485 294,-86.3163 370.1572,-47.407 471.662,-44.4305 532.7415,-47.0226"/>
<polygon fill="#191970" stroke="#191970" points="246.0357,-127.7902 238.0716,-134.7776 248.6549,-134.2817 246.0357,-127.7902"/>
</g>
<!-- Node56 -->
<g id="node20" class="node">
<title>Node56</title>
<g id="a_node20"><a xlink:href="classIMU.html#a928fa5e2db05bd402a3fa93bd3584527" target="_top" xlink:title="IMU::setDlpfBandwidth">
<polygon fill="#ffffff" stroke="#000000" points="317.5,-3.8163 317.5,-20.8163 444.5,-20.8163 444.5,-3.8163 317.5,-3.8163"/>
<text text-anchor="middle" x="381" y="-10.4163" font-family="DejaVuSansMono" font-size="8.00" fill="#000000">IMU::setDlpfBandwidth</text>
</a>
</g>
</g>
<!-- Node53&#45;&gt;Node56 -->
<g id="edge27" class="edge">
<title>Node53&#45;&gt;Node56</title>
<path fill="none" stroke="#191970" d="M252.4682,-129.7079C254.4296,-128.3781 256.2869,-126.9185 258,-125.3163 289.4646,-95.8888 261.7357,-63.8648 294,-35.3163 301.2542,-28.8975 310.0976,-24.2388 319.335,-20.864"/>
<polygon fill="#191970" stroke="#191970" points="250.3955,-126.8538 243.3265,-134.7455 253.7739,-132.9845 250.3955,-126.8538"/>
</g>
<!-- Node54&#45;&gt;Node49 -->
<g id="edge24" class="edge">
<title>Node54&#45;&gt;Node49</title>
<path fill="none" stroke="#191970" d="M628.4186,-99.5898C641.1973,-103.1537 655.22,-107.2322 668,-111.3163 690.8352,-118.6137 716.5719,-127.9957 734.4731,-134.711"/>
<polygon fill="#191970" stroke="#191970" points="629.0551,-96.1348 618.4846,-96.8518 627.1951,-102.8832 629.0551,-96.1348"/>
</g>
<!-- Node55&#45;&gt;Node49 -->
<g id="edge26" class="edge">
<title>Node55&#45;&gt;Node49</title>
<path fill="none" stroke="#191970" d="M648.968,-62.748C655.5457,-64.8675 662.0096,-67.3683 668,-70.3163 702.068,-87.0817 734.5913,-119.1725 749.0967,-134.6049"/>
<polygon fill="#191970" stroke="#191970" points="649.8725,-59.3658 639.2915,-59.9079 647.9011,-66.0825 649.8725,-59.3658"/>
</g>
<!-- Node56&#45;&gt;Node49 -->
<g id="edge28" class="edge">
<title>Node56&#45;&gt;Node49</title>
<path fill="none" stroke="#191970" d="M447.688,-2.7911C508.604,2.6952 599.3637,2.5727 668,-33.3163 712.6262,-56.6507 742.8521,-113.1512 753.124,-134.737"/>
<polygon fill="#191970" stroke="#191970" points="447.0378,.6621 437.4255,-3.7937 447.7185,-6.3047 447.0378,.6621"/>
</g>
</g>
</svg>
