<?xml version="1.0" encoding="UTF-8" standalone="no"?>
<!DOCTYPE svg PUBLIC "-//W3C//DTD SVG 1.1//EN"
 "http://www.w3.org/Graphics/SVG/1.1/DTD/svg11.dtd">
<!-- Generated by graphviz version 2.40.1 (20161225.0304)
 -->
<!-- Title: IMU::begin Pages: 1 -->
<svg width="287pt" height="26pt"
 viewBox="0.00 0.00 287.00 26.00" xmlns="http://www.w3.org/2000/svg" xmlns:xlink="http://www.w3.org/1999/xlink">
<g id="graph0" class="graph" transform="scale(1 1) rotate(0) translate(4 22)">
<title>IMU::begin</title>
<polygon fill="#ffffff" stroke="transparent" points="-4,4 -4,-22 283,-22 283,4 -4,4"/>
<!-- Node11 -->
<g id="node1" class="node">
<title>Node11</title>
<polygon fill="#bfbfbf" stroke="#000000" points="0,-.5 0,-17.5 69,-17.5 69,-.5 0,-.5"/>
<text text-anchor="middle" x="34.5" y="-7.1" font-family="DejaVuSansMono" font-size="8.00" fill="#000000">IMU::begin</text>
</g>
<!-- Node12 -->
<g id="node2" class="node">
<title>Node12</title>
<g id="a_node2"><a xlink:href="classekf_1_1EKF.html#af52f661717f56b3deee7b4f42ba80dc5" target="_top" xlink:title="Inicializacao do filtro de Kalman. ">
<polygon fill="#ffffff" stroke="#000000" points="105,-.5 105,-17.5 200,-17.5 200,-.5 105,-.5"/>
<text text-anchor="middle" x="152.5" y="-7.1" font-family="DejaVuSansMono" font-size="8.00" fill="#000000">ekf::EKF::begin</text>
</a>
</g>
</g>
<!-- Node11&#45;&gt;Node12 -->
<g id="edge1" class="edge">
<title>Node11&#45;&gt;Node12</title>
<path fill="none" stroke="#191970" d="M79.5115,-9C87.8078,-9 96.4956,-9 104.8663,-9"/>
<polygon fill="#191970" stroke="#191970" points="79.2657,-5.5001 69.2657,-9 79.2656,-12.5001 79.2657,-5.5001"/>
</g>
<!-- Node13 -->
<g id="node3" class="node">
<title>Node13</title>
<g id="a_node3"><a xlink:href="main_8cpp.html#a4fc01d736fe50cf5b977f755b675f11d" target="_top" xlink:title="setup">
<polygon fill="#ffffff" stroke="#000000" points="236,-.5 236,-17.5 279,-17.5 279,-.5 236,-.5"/>
<text text-anchor="middle" x="257.5" y="-7.1" font-family="DejaVuSansMono" font-size="8.00" fill="#000000">setup</text>
</a>
</g>
</g>
<!-- Node12&#45;&gt;Node13 -->
<g id="edge2" class="edge">
<title>Node12&#45;&gt;Node13</title>
<path fill="none" stroke="#191970" d="M210.3476,-9C219.4085,-9 228.2548,-9 235.7917,-9"/>
<polygon fill="#191970" stroke="#191970" points="210.0846,-5.5001 200.0845,-9 210.0845,-12.5001 210.0846,-5.5001"/>
</g>
</g>
</svg>
