<?xml version="1.0" encoding="UTF-8" standalone="no"?>
<!DOCTYPE svg PUBLIC "-//W3C//DTD SVG 1.1//EN"
 "http://www.w3.org/Graphics/SVG/1.1/DTD/svg11.dtd">
<!-- Generated by graphviz version 2.40.1 (20161225.0304)
 -->
<!-- Title: ekf::EKF::loopEKF Pages: 1 -->
<svg width="298pt" height="62pt"
 viewBox="0.00 0.00 298.00 62.00" xmlns="http://www.w3.org/2000/svg" xmlns:xlink="http://www.w3.org/1999/xlink">
<g id="graph0" class="graph" transform="scale(1 1) rotate(0) translate(4 58)">
<title>ekf::EKF::loopEKF</title>
<polygon fill="#ffffff" stroke="transparent" points="-4,4 -4,-58 294,-58 294,4 -4,4"/>
<!-- Node57 -->
<g id="node1" class="node">
<title>Node57</title>
<polygon fill="#bfbfbf" stroke="#000000" points="0,-18.5 0,-35.5 106,-35.5 106,-18.5 0,-18.5"/>
<text text-anchor="middle" x="53" y="-25.1" font-family="DejaVuSansMono" font-size="8.00" fill="#000000">ekf::EKF::loopEKF</text>
</g>
<!-- Node58 -->
<g id="node2" class="node">
<title>Node58</title>
<g id="a_node2"><a xlink:href="main_8cpp.html#aa561fc46a0358a47fa9151f211523ba0" target="_top" xlink:title="core_1">
<polygon fill="#ffffff" stroke="#000000" points="152.5,-36.5 152.5,-53.5 200.5,-53.5 200.5,-36.5 152.5,-36.5"/>
<text text-anchor="middle" x="176.5" y="-43.1" font-family="DejaVuSansMono" font-size="8.00" fill="#000000">core_1</text>
</a>
</g>
</g>
<!-- Node57&#45;&gt;Node58 -->
<g id="edge1" class="edge">
<title>Node57&#45;&gt;Node58</title>
<path fill="none" stroke="#191970" d="M116.3338,-36.2308C129.1327,-38.0963 141.8409,-39.9485 152.2569,-41.4666"/>
<polygon fill="#191970" stroke="#191970" points="116.4921,-32.717 106.0918,-34.7381 115.4825,-39.6438 116.4921,-32.717"/>
</g>
<!-- Node60 -->
<g id="node4" class="node">
<title>Node60</title>
<g id="a_node4"><a xlink:href="main_8cpp.html#a50d45340b3399db75c34c3b9f67c1b11" target="_top" xlink:title="telemetria">
<polygon fill="#ffffff" stroke="#000000" points="142,-.5 142,-17.5 211,-17.5 211,-.5 142,-.5"/>
<text text-anchor="middle" x="176.5" y="-7.1" font-family="DejaVuSansMono" font-size="8.00" fill="#000000">telemetria</text>
</a>
</g>
</g>
<!-- Node57&#45;&gt;Node60 -->
<g id="edge3" class="edge">
<title>Node57&#45;&gt;Node60</title>
<path fill="none" stroke="#191970" d="M116.0216,-17.8147C124.8374,-16.5298 133.6187,-15.2499 141.6462,-14.0799"/>
<polygon fill="#191970" stroke="#191970" points="115.4825,-14.3562 106.0918,-19.2619 116.4921,-21.283 115.4825,-14.3562"/>
</g>
<!-- Node59 -->
<g id="node3" class="node">
<title>Node59</title>
<g id="a_node3"><a xlink:href="main_8cpp.html#a4fc01d736fe50cf5b977f755b675f11d" target="_top" xlink:title="setup">
<polygon fill="#ffffff" stroke="#000000" points="247,-36.5 247,-53.5 290,-53.5 290,-36.5 247,-36.5"/>
<text text-anchor="middle" x="268.5" y="-43.1" font-family="DejaVuSansMono" font-size="8.00" fill="#000000">setup</text>
</a>
</g>
</g>
<!-- Node58&#45;&gt;Node59 -->
<g id="edge2" class="edge">
<title>Node58&#45;&gt;Node59</title>
<path fill="none" stroke="#191970" d="M210.9202,-45C223.0215,-45 236.2665,-45 246.9991,-45"/>
<polygon fill="#191970" stroke="#191970" points="210.672,-41.5001 200.6719,-45 210.6719,-48.5001 210.672,-41.5001"/>
</g>
</g>
</svg>
