<?xml version="1.0" encoding="UTF-8" standalone="no"?>
<!DOCTYPE svg PUBLIC "-//W3C//DTD SVG 1.1//EN"
 "http://www.w3.org/Graphics/SVG/1.1/DTD/svg11.dtd">
<!-- Generated by graphviz version 2.40.1 (20161225.0304)
 -->
<!-- Title: ekf::EKF::updateF_G Pages: 1 -->
<svg width="797pt" height="62pt"
 viewBox="0.00 0.00 797.00 62.00" xmlns="http://www.w3.org/2000/svg" xmlns:xlink="http://www.w3.org/1999/xlink">
<g id="graph0" class="graph" transform="scale(1 1) rotate(0) translate(4 58)">
<title>ekf::EKF::updateF_G</title>
<polygon fill="#ffffff" stroke="transparent" points="-4,4 -4,-58 793,-58 793,4 -4,4"/>
<!-- Node91 -->
<g id="node1" class="node">
<title>Node91</title>
<polygon fill="#bfbfbf" stroke="#000000" points="0,-18.5 0,-35.5 116,-35.5 116,-18.5 0,-18.5"/>
<text text-anchor="middle" x="58" y="-25.1" font-family="DejaVuSansMono" font-size="8.00" fill="#000000">ekf::EKF::updateF_G</text>
</g>
<!-- Node92 -->
<g id="node2" class="node">
<title>Node92</title>
<g id="a_node2"><a xlink:href="classekf_1_1EKF.html#ad5949e9e8eae2938a332af03a8ec353b" target="_top" xlink:title="ekf::EKF::updatefi">
<polygon fill="#ffffff" stroke="#000000" points="152,-18.5 152,-35.5 263,-35.5 263,-18.5 152,-18.5"/>
<text text-anchor="middle" x="207.5" y="-25.1" font-family="DejaVuSansMono" font-size="8.00" fill="#000000">ekf::EKF::updatefi</text>
</a>
</g>
</g>
<!-- Node91&#45;&gt;Node92 -->
<g id="edge1" class="edge">
<title>Node91&#45;&gt;Node92</title>
<path fill="none" stroke="#191970" d="M126.4365,-27C134.8729,-27 143.4173,-27 151.6357,-27"/>
<polygon fill="#191970" stroke="#191970" points="126.2287,-23.5001 116.2287,-27 126.2287,-30.5001 126.2287,-23.5001"/>
</g>
<!-- Node93 -->
<g id="node3" class="node">
<title>Node93</title>
<g id="a_node3"><a xlink:href="classekf_1_1EKF.html#a548f56f22a519f1f66b1bf59b9ed56d6" target="_top" xlink:title="ekf::EKF::temporalPrediction">
<polygon fill="#ffffff" stroke="#000000" points="299,-18.5 299,-35.5 463,-35.5 463,-18.5 299,-18.5"/>
<text text-anchor="middle" x="381" y="-25.1" font-family="DejaVuSansMono" font-size="8.00" fill="#000000">ekf::EKF::temporalPrediction</text>
</a>
</g>
</g>
<!-- Node92&#45;&gt;Node93 -->
<g id="edge2" class="edge">
<title>Node92&#45;&gt;Node93</title>
<path fill="none" stroke="#191970" d="M273.5978,-27C281.8169,-27 290.2985,-27 298.7237,-27"/>
<polygon fill="#191970" stroke="#191970" points="273.3515,-23.5001 263.3515,-27 273.3515,-30.5001 273.3515,-23.5001"/>
</g>
<!-- Node94 -->
<g id="node4" class="node">
<title>Node94</title>
<g id="a_node4"><a xlink:href="classekf_1_1EKF.html#a651814ff64d234394572e2e7c5703a43" target="_top" xlink:title="ekf::EKF::loopEKF">
<polygon fill="#ffffff" stroke="#000000" points="499,-18.5 499,-35.5 605,-35.5 605,-18.5 499,-18.5"/>
<text text-anchor="middle" x="552" y="-25.1" font-family="DejaVuSansMono" font-size="8.00" fill="#000000">ekf::EKF::loopEKF</text>
</a>
</g>
</g>
<!-- Node93&#45;&gt;Node94 -->
<g id="edge3" class="edge">
<title>Node93&#45;&gt;Node94</title>
<path fill="none" stroke="#191970" d="M473.4946,-27C482.2067,-27 490.8214,-27 498.9734,-27"/>
<polygon fill="#191970" stroke="#191970" points="473.2444,-23.5001 463.2444,-27 473.2443,-30.5001 473.2444,-23.5001"/>
</g>
<!-- Node95 -->
<g id="node5" class="node">
<title>Node95</title>
<g id="a_node5"><a xlink:href="main_8cpp.html#aa561fc46a0358a47fa9151f211523ba0" target="_top" xlink:title="core_1">
<polygon fill="#ffffff" stroke="#000000" points="651.5,-36.5 651.5,-53.5 699.5,-53.5 699.5,-36.5 651.5,-36.5"/>
<text text-anchor="middle" x="675.5" y="-43.1" font-family="DejaVuSansMono" font-size="8.00" fill="#000000">core_1</text>
</a>
</g>
</g>
<!-- Node94&#45;&gt;Node95 -->
<g id="edge4" class="edge">
<title>Node94&#45;&gt;Node95</title>
<path fill="none" stroke="#191970" d="M615.3338,-36.2308C628.1327,-38.0963 640.8409,-39.9485 651.2569,-41.4666"/>
<polygon fill="#191970" stroke="#191970" points="615.4921,-32.717 605.0918,-34.7381 614.4825,-39.6438 615.4921,-32.717"/>
</g>
<!-- Node97 -->
<g id="node7" class="node">
<title>Node97</title>
<g id="a_node7"><a xlink:href="main_8cpp.html#a50d45340b3399db75c34c3b9f67c1b11" target="_top" xlink:title="telemetria">
<polygon fill="#ffffff" stroke="#000000" points="641,-.5 641,-17.5 710,-17.5 710,-.5 641,-.5"/>
<text text-anchor="middle" x="675.5" y="-7.1" font-family="DejaVuSansMono" font-size="8.00" fill="#000000">telemetria</text>
</a>
</g>
</g>
<!-- Node94&#45;&gt;Node97 -->
<g id="edge6" class="edge">
<title>Node94&#45;&gt;Node97</title>
<path fill="none" stroke="#191970" d="M615.0216,-17.8147C623.8374,-16.5298 632.6187,-15.2499 640.6462,-14.0799"/>
<polygon fill="#191970" stroke="#191970" points="614.4825,-14.3562 605.0918,-19.2619 615.4921,-21.283 614.4825,-14.3562"/>
</g>
<!-- Node96 -->
<g id="node6" class="node">
<title>Node96</title>
<g id="a_node6"><a xlink:href="main_8cpp.html#a4fc01d736fe50cf5b977f755b675f11d" target="_top" xlink:title="setup">
<polygon fill="#ffffff" stroke="#000000" points="746,-36.5 746,-53.5 789,-53.5 789,-36.5 746,-36.5"/>
<text text-anchor="middle" x="767.5" y="-43.1" font-family="DejaVuSansMono" font-size="8.00" fill="#000000">setup</text>
</a>
</g>
</g>
<!-- Node95&#45;&gt;Node96 -->
<g id="edge5" class="edge">
<title>Node95&#45;&gt;Node96</title>
<path fill="none" stroke="#191970" d="M709.9202,-45C722.0215,-45 735.2665,-45 745.9991,-45"/>
<polygon fill="#191970" stroke="#191970" points="709.672,-41.5001 699.6719,-45 709.6719,-48.5001 709.672,-41.5001"/>
</g>
</g>
</svg>
