<?xml version="1.0" encoding="UTF-8" standalone="no"?>
<!DOCTYPE svg PUBLIC "-//W3C//DTD SVG 1.1//EN"
 "http://www.w3.org/Graphics/SVG/1.1/DTD/svg11.dtd">
<!-- Generated by graphviz version 2.40.1 (20161225.0304)
 -->
<!-- Title: TELEMETRIA::OnDataRecv Pages: 1 -->
<svg width="450pt" height="45pt"
 viewBox="0.00 0.00 450.00 45.00" xmlns="http://www.w3.org/2000/svg" xmlns:xlink="http://www.w3.org/1999/xlink">
<g id="graph0" class="graph" transform="scale(1 1) rotate(0) translate(4 41)">
<title>TELEMETRIA::OnDataRecv</title>
<polygon fill="#ffffff" stroke="transparent" points="-4,4 -4,-41 446,-41 446,4 -4,4"/>
<!-- Node23 -->
<g id="node1" class="node">
<title>Node23</title>
<polygon fill="#bfbfbf" stroke="#000000" points="0,-.5 0,-17.5 132,-17.5 132,-.5 0,-.5"/>
<text text-anchor="middle" x="66" y="-7.1" font-family="DejaVuSansMono" font-size="8.00" fill="#000000">TELEMETRIA::OnDataRecv</text>
</g>
<!-- Node24 -->
<g id="node2" class="node">
<title>Node24</title>
<g id="a_node2"><a xlink:href="classTELEMETRIA.html#a780be82ef9be2da12601a0ea7d10e647" target="_top" xlink:title="TELEMETRIA::begin">
<polygon fill="#ffffff" stroke="#000000" points="168,-19.5 168,-36.5 274,-36.5 274,-19.5 168,-19.5"/>
<text text-anchor="middle" x="221" y="-26.1" font-family="DejaVuSansMono" font-size="8.00" fill="#000000">TELEMETRIA::begin</text>
</a>
</g>
</g>
<!-- Node23&#45;&gt;Node24 -->
<g id="edge1" class="edge">
<title>Node23&#45;&gt;Node24</title>
<path fill="none" stroke="#191970" d="M142.2411,-18.3457C150.8383,-19.3995 159.4562,-20.4559 167.6714,-21.4629"/>
<polygon fill="#191970" stroke="#191970" points="142.5351,-14.8556 132.1835,-17.1128 141.6834,-21.8036 142.5351,-14.8556"/>
</g>
<!-- Node25 -->
<g id="node3" class="node">
<title>Node25</title>
<g id="a_node3"><a xlink:href="classTELEMETRIA.html#ae47c01609eec8284a663dd66e0d7c632" target="_top" xlink:title="TELEMETRIA::TELEMETRIA">
<polygon fill="#ffffff" stroke="#000000" points="310,-.5 310,-17.5 442,-17.5 442,-.5 310,-.5"/>
<text text-anchor="middle" x="376" y="-7.1" font-family="DejaVuSansMono" font-size="8.00" fill="#000000">TELEMETRIA::TELEMETRIA</text>
</a>
</g>
</g>
<!-- Node24&#45;&gt;Node25 -->
<g id="edge2" class="edge">
<title>Node24&#45;&gt;Node25</title>
<path fill="none" stroke="#191970" d="M284.4592,-20.2211C292.8689,-19.1903 301.5068,-18.1314 309.9587,-17.0954"/>
<polygon fill="#191970" stroke="#191970" points="283.842,-16.7705 274.3422,-21.4613 284.6938,-23.7185 283.842,-16.7705"/>
</g>
<!-- Node25&#45;&gt;Node23 -->
<g id="edge3" class="edge">
<title>Node25&#45;&gt;Node23</title>
<path fill="none" stroke="#191970" d="M299.9177,-9C248.5078,-9 181.3008,-9 132.1225,-9"/>
<polygon fill="#191970" stroke="#191970" points="299.9791,-12.5001 309.9791,-9 299.979,-5.5001 299.9791,-12.5001"/>
</g>
</g>
</svg>
