<?xml version="1.0" encoding="UTF-8" standalone="no"?>
<!DOCTYPE svg PUBLIC "-//W3C//DTD SVG 1.1//EN"
 "http://www.w3.org/Graphics/SVG/1.1/DTD/svg11.dtd">
<!-- Generated by graphviz version 2.40.1 (20161225.0304)
 -->
<!-- Title: ekf::EKF::updateOfMeasurements Pages: 1 -->
<svg width="708pt" height="62pt"
 viewBox="0.00 0.00 708.00 62.00" xmlns="http://www.w3.org/2000/svg" xmlns:xlink="http://www.w3.org/1999/xlink">
<g id="graph0" class="graph" transform="scale(1 1) rotate(0) translate(4 58)">
<title>ekf::EKF::updateOfMeasurements</title>
<polygon fill="#ffffff" stroke="transparent" points="-4,4 -4,-58 704,-58 704,4 -4,4"/>
<!-- Node124 -->
<g id="node1" class="node">
<title>Node124</title>
<polygon fill="#bfbfbf" stroke="#000000" points="0,-18.5 0,-35.5 174,-35.5 174,-18.5 0,-18.5"/>
<text text-anchor="middle" x="87" y="-25.1" font-family="DejaVuSansMono" font-size="8.00" fill="#000000">ekf::EKF::updateOfMeasurements</text>
</g>
<!-- Node125 -->
<g id="node2" class="node">
<title>Node125</title>
<g id="a_node2"><a xlink:href="classekf_1_1EKF.html#a548f56f22a519f1f66b1bf59b9ed56d6" target="_top" xlink:title="ekf::EKF::temporalPrediction">
<polygon fill="#ffffff" stroke="#000000" points="210,-18.5 210,-35.5 374,-35.5 374,-18.5 210,-18.5"/>
<text text-anchor="middle" x="292" y="-25.1" font-family="DejaVuSansMono" font-size="8.00" fill="#000000">ekf::EKF::temporalPrediction</text>
</a>
</g>
</g>
<!-- Node124&#45;&gt;Node125 -->
<g id="edge1" class="edge">
<title>Node124&#45;&gt;Node125</title>
<path fill="none" stroke="#191970" d="M184.4954,-27C192.9376,-27 201.4252,-27 209.7284,-27"/>
<polygon fill="#191970" stroke="#191970" points="184.2357,-23.5001 174.2357,-27 184.2357,-30.5001 184.2357,-23.5001"/>
</g>
<!-- Node126 -->
<g id="node3" class="node">
<title>Node126</title>
<g id="a_node3"><a xlink:href="classekf_1_1EKF.html#a651814ff64d234394572e2e7c5703a43" target="_top" xlink:title="ekf::EKF::loopEKF">
<polygon fill="#ffffff" stroke="#000000" points="410,-18.5 410,-35.5 516,-35.5 516,-18.5 410,-18.5"/>
<text text-anchor="middle" x="463" y="-25.1" font-family="DejaVuSansMono" font-size="8.00" fill="#000000">ekf::EKF::loopEKF</text>
</a>
</g>
</g>
<!-- Node125&#45;&gt;Node126 -->
<g id="edge2" class="edge">
<title>Node125&#45;&gt;Node126</title>
<path fill="none" stroke="#191970" d="M384.4946,-27C393.2067,-27 401.8214,-27 409.9734,-27"/>
<polygon fill="#191970" stroke="#191970" points="384.2444,-23.5001 374.2444,-27 384.2443,-30.5001 384.2444,-23.5001"/>
</g>
<!-- Node127 -->
<g id="node4" class="node">
<title>Node127</title>
<g id="a_node4"><a xlink:href="main_8cpp.html#aa561fc46a0358a47fa9151f211523ba0" target="_top" xlink:title="core_1">
<polygon fill="#ffffff" stroke="#000000" points="562.5,-36.5 562.5,-53.5 610.5,-53.5 610.5,-36.5 562.5,-36.5"/>
<text text-anchor="middle" x="586.5" y="-43.1" font-family="DejaVuSansMono" font-size="8.00" fill="#000000">core_1</text>
</a>
</g>
</g>
<!-- Node126&#45;&gt;Node127 -->
<g id="edge3" class="edge">
<title>Node126&#45;&gt;Node127</title>
<path fill="none" stroke="#191970" d="M526.3338,-36.2308C539.1327,-38.0963 551.8409,-39.9485 562.2569,-41.4666"/>
<polygon fill="#191970" stroke="#191970" points="526.4921,-32.717 516.0918,-34.7381 525.4825,-39.6438 526.4921,-32.717"/>
</g>
<!-- Node129 -->
<g id="node6" class="node">
<title>Node129</title>
<g id="a_node6"><a xlink:href="main_8cpp.html#a50d45340b3399db75c34c3b9f67c1b11" target="_top" xlink:title="telemetria">
<polygon fill="#ffffff" stroke="#000000" points="552,-.5 552,-17.5 621,-17.5 621,-.5 552,-.5"/>
<text text-anchor="middle" x="586.5" y="-7.1" font-family="DejaVuSansMono" font-size="8.00" fill="#000000">telemetria</text>
</a>
</g>
</g>
<!-- Node126&#45;&gt;Node129 -->
<g id="edge5" class="edge">
<title>Node126&#45;&gt;Node129</title>
<path fill="none" stroke="#191970" d="M526.0216,-17.8147C534.8374,-16.5298 543.6187,-15.2499 551.6462,-14.0799"/>
<polygon fill="#191970" stroke="#191970" points="525.4825,-14.3562 516.0918,-19.2619 526.4921,-21.283 525.4825,-14.3562"/>
</g>
<!-- Node128 -->
<g id="node5" class="node">
<title>Node128</title>
<g id="a_node5"><a xlink:href="main_8cpp.html#a4fc01d736fe50cf5b977f755b675f11d" target="_top" xlink:title="setup">
<polygon fill="#ffffff" stroke="#000000" points="657,-36.5 657,-53.5 700,-53.5 700,-36.5 657,-36.5"/>
<text text-anchor="middle" x="678.5" y="-43.1" font-family="DejaVuSansMono" font-size="8.00" fill="#000000">setup</text>
</a>
</g>
</g>
<!-- Node127&#45;&gt;Node128 -->
<g id="edge4" class="edge">
<title>Node127&#45;&gt;Node128</title>
<path fill="none" stroke="#191970" d="M620.9202,-45C633.0215,-45 646.2665,-45 656.9991,-45"/>
<polygon fill="#191970" stroke="#191970" points="620.672,-41.5001 610.6719,-45 620.6719,-48.5001 620.672,-41.5001"/>
</g>
</g>
</svg>
