<?xml version="1.0" encoding="UTF-8" standalone="no"?>
<!DOCTYPE svg PUBLIC "-//W3C//DTD SVG 1.1//EN"
 "http://www.w3.org/Graphics/SVG/1.1/DTD/svg11.dtd">
<!-- Generated by graphviz version 2.40.1 (20161225.0304)
 -->
<!-- Title: IMU::setAccelRange Pages: 1 -->
<svg width="434pt" height="26pt"
 viewBox="0.00 0.00 434.00 26.00" xmlns="http://www.w3.org/2000/svg" xmlns:xlink="http://www.w3.org/1999/xlink">
<g id="graph0" class="graph" transform="scale(1 1) rotate(0) translate(4 22)">
<title>IMU::setAccelRange</title>
<polygon fill="#ffffff" stroke="transparent" points="-4,4 -4,-22 430,-22 430,4 -4,4"/>
<!-- Node73 -->
<g id="node1" class="node">
<title>Node73</title>
<polygon fill="#bfbfbf" stroke="#000000" points="0,-.5 0,-17.5 111,-17.5 111,-.5 0,-.5"/>
<text text-anchor="middle" x="55.5" y="-7.1" font-family="DejaVuSansMono" font-size="8.00" fill="#000000">IMU::setAccelRange</text>
</g>
<!-- Node74 -->
<g id="node2" class="node">
<title>Node74</title>
<g id="a_node2"><a xlink:href="classIMU.html#ae0d964d2f8ec122be068c41b84bc18a8" target="_top" xlink:title="IMU::begin">
<polygon fill="#ffffff" stroke="#000000" points="147,-.5 147,-17.5 216,-17.5 216,-.5 147,-.5"/>
<text text-anchor="middle" x="181.5" y="-7.1" font-family="DejaVuSansMono" font-size="8.00" fill="#000000">IMU::begin</text>
</a>
</g>
</g>
<!-- Node73&#45;&gt;Node74 -->
<g id="edge1" class="edge">
<title>Node73&#45;&gt;Node74</title>
<path fill="none" stroke="#191970" d="M121.414,-9C130.1778,-9 138.8662,-9 146.799,-9"/>
<polygon fill="#191970" stroke="#191970" points="121.1322,-5.5001 111.1322,-9 121.1322,-12.5001 121.1322,-5.5001"/>
</g>
<!-- Node75 -->
<g id="node3" class="node">
<title>Node75</title>
<g id="a_node3"><a xlink:href="classekf_1_1EKF.html#af52f661717f56b3deee7b4f42ba80dc5" target="_top" xlink:title="Inicializacao do filtro de Kalman. ">
<polygon fill="#ffffff" stroke="#000000" points="252,-.5 252,-17.5 347,-17.5 347,-.5 252,-.5"/>
<text text-anchor="middle" x="299.5" y="-7.1" font-family="DejaVuSansMono" font-size="8.00" fill="#000000">ekf::EKF::begin</text>
</a>
</g>
</g>
<!-- Node74&#45;&gt;Node75 -->
<g id="edge2" class="edge">
<title>Node74&#45;&gt;Node75</title>
<path fill="none" stroke="#191970" d="M226.5115,-9C234.8078,-9 243.4956,-9 251.8663,-9"/>
<polygon fill="#191970" stroke="#191970" points="226.2657,-5.5001 216.2657,-9 226.2656,-12.5001 226.2657,-5.5001"/>
</g>
<!-- Node76 -->
<g id="node4" class="node">
<title>Node76</title>
<g id="a_node4"><a xlink:href="main_8cpp.html#a4fc01d736fe50cf5b977f755b675f11d" target="_top" xlink:title="setup">
<polygon fill="#ffffff" stroke="#000000" points="383,-.5 383,-17.5 426,-17.5 426,-.5 383,-.5"/>
<text text-anchor="middle" x="404.5" y="-7.1" font-family="DejaVuSansMono" font-size="8.00" fill="#000000">setup</text>
</a>
</g>
</g>
<!-- Node75&#45;&gt;Node76 -->
<g id="edge3" class="edge">
<title>Node75&#45;&gt;Node76</title>
<path fill="none" stroke="#191970" d="M357.3476,-9C366.4085,-9 375.2548,-9 382.7917,-9"/>
<polygon fill="#191970" stroke="#191970" points="357.0846,-5.5001 347.0845,-9 357.0845,-12.5001 357.0846,-5.5001"/>
</g>
</g>
</svg>
