<?xml version="1.0" encoding="UTF-8" standalone="no"?>
<!DOCTYPE svg PUBLIC "-//W3C//DTD SVG 1.1//EN"
 "http://www.w3.org/Graphics/SVG/1.1/DTD/svg11.dtd">
<!-- Generated by graphviz version 2.40.1 (20161225.0304)
 -->
<!-- Title: IMU::readSensor Pages: 1 -->
<svg width="839pt" height="117pt"
 viewBox="0.00 0.00 839.00 117.00" xmlns="http://www.w3.org/2000/svg" xmlns:xlink="http://www.w3.org/1999/xlink">
<g id="graph0" class="graph" transform="scale(1 1) rotate(0) translate(4 113)">
<title>IMU::readSensor</title>
<polygon fill="#ffffff" stroke="transparent" points="-4,4 -4,-113 835,-113 835,4 -4,4"/>
<!-- Node60 -->
<g id="node1" class="node">
<title>Node60</title>
<polygon fill="#bfbfbf" stroke="#000000" points="0,-36.5 0,-53.5 95,-53.5 95,-36.5 0,-36.5"/>
<text text-anchor="middle" x="47.5" y="-43.1" font-family="DejaVuSansMono" font-size="8.00" fill="#000000">IMU::readSensor</text>
</g>
<!-- Node61 -->
<g id="node2" class="node">
<title>Node61</title>
<g id="a_node2"><a xlink:href="classekf_1_1EKF.html#a84048d25ebfb6431d7b1372b7315a7a3" target="_top" xlink:title="Atualiza a medicao a partir dos sensores da unidade Margin e GPS. ">
<polygon fill="#ffffff" stroke="#000000" points="131,-72.5 131,-89.5 305,-89.5 305,-72.5 131,-72.5"/>
<text text-anchor="middle" x="218" y="-79.1" font-family="DejaVuSansMono" font-size="8.00" fill="#000000">ekf::EKF::updateOfMeasurements</text>
</a>
</g>
</g>
<!-- Node60&#45;&gt;Node61 -->
<g id="edge1" class="edge">
<title>Node60&#45;&gt;Node61</title>
<path fill="none" stroke="#191970" d="M97.0267,-55.7474C108.1971,-58.1516 120.0023,-60.677 131,-63 145.7892,-66.1239 162.0049,-69.4939 176.3876,-72.4638"/>
<polygon fill="#191970" stroke="#191970" points="97.501,-52.2693 86.9879,-53.5827 96.0254,-59.112 97.501,-52.2693"/>
</g>
<!-- Node67 -->
<g id="node8" class="node">
<title>Node67</title>
<g id="a_node8"><a xlink:href="classIMU.html#a5f096cb37d4b16851381bf09d6809403" target="_top" xlink:title="IMU::calibraGyro">
<polygon fill="#ffffff" stroke="#000000" points="167.5,-36.5 167.5,-53.5 268.5,-53.5 268.5,-36.5 167.5,-36.5"/>
<text text-anchor="middle" x="218" y="-43.1" font-family="DejaVuSansMono" font-size="8.00" fill="#000000">IMU::calibraGyro</text>
</a>
</g>
</g>
<!-- Node60&#45;&gt;Node67 -->
<g id="edge7" class="edge">
<title>Node60&#45;&gt;Node67</title>
<path fill="none" stroke="#191970" d="M105.7051,-45C125.7607,-45 148.044,-45 167.4392,-45"/>
<polygon fill="#191970" stroke="#191970" points="105.4475,-41.5001 95.4475,-45 105.4475,-48.5001 105.4475,-41.5001"/>
</g>
<!-- Node69 -->
<g id="node10" class="node">
<title>Node69</title>
<g id="a_node10"><a xlink:href="classIMU.html#a3546779010d9128859f465195eff77f5" target="_top" xlink:title="IMU::calibracaoMagnetometro">
<polygon fill="#ffffff" stroke="#000000" points="139,-.5 139,-17.5 297,-17.5 297,-.5 139,-.5"/>
<text text-anchor="middle" x="218" y="-7.1" font-family="DejaVuSansMono" font-size="8.00" fill="#000000">IMU::calibracaoMagnetometro</text>
</a>
</g>
</g>
<!-- Node60&#45;&gt;Node69 -->
<g id="edge10" class="edge">
<title>Node60&#45;&gt;Node69</title>
<path fill="none" stroke="#191970" d="M97.0267,-34.2526C108.1971,-31.8484 120.0023,-29.323 131,-27 145.7892,-23.8761 162.0049,-20.5061 176.3876,-17.5362"/>
<polygon fill="#191970" stroke="#191970" points="96.0254,-30.888 86.9879,-36.4173 97.501,-37.7307 96.0254,-30.888"/>
</g>
<!-- Node62 -->
<g id="node3" class="node">
<title>Node62</title>
<g id="a_node3"><a xlink:href="classekf_1_1EKF.html#a548f56f22a519f1f66b1bf59b9ed56d6" target="_top" xlink:title="ekf::EKF::temporalPrediction">
<polygon fill="#ffffff" stroke="#000000" points="341,-72.5 341,-89.5 505,-89.5 505,-72.5 341,-72.5"/>
<text text-anchor="middle" x="423" y="-79.1" font-family="DejaVuSansMono" font-size="8.00" fill="#000000">ekf::EKF::temporalPrediction</text>
</a>
</g>
</g>
<!-- Node61&#45;&gt;Node62 -->
<g id="edge2" class="edge">
<title>Node61&#45;&gt;Node62</title>
<path fill="none" stroke="#191970" d="M315.4954,-81C323.9376,-81 332.4252,-81 340.7284,-81"/>
<polygon fill="#191970" stroke="#191970" points="315.2357,-77.5001 305.2357,-81 315.2357,-84.5001 315.2357,-77.5001"/>
</g>
<!-- Node63 -->
<g id="node4" class="node">
<title>Node63</title>
<g id="a_node4"><a xlink:href="classekf_1_1EKF.html#a651814ff64d234394572e2e7c5703a43" target="_top" xlink:title="ekf::EKF::loopEKF">
<polygon fill="#ffffff" stroke="#000000" points="541,-72.5 541,-89.5 647,-89.5 647,-72.5 541,-72.5"/>
<text text-anchor="middle" x="594" y="-79.1" font-family="DejaVuSansMono" font-size="8.00" fill="#000000">ekf::EKF::loopEKF</text>
</a>
</g>
</g>
<!-- Node62&#45;&gt;Node63 -->
<g id="edge3" class="edge">
<title>Node62&#45;&gt;Node63</title>
<path fill="none" stroke="#191970" d="M515.4946,-81C524.2067,-81 532.8214,-81 540.9734,-81"/>
<polygon fill="#191970" stroke="#191970" points="515.2444,-77.5001 505.2444,-81 515.2443,-84.5001 515.2444,-77.5001"/>
</g>
<!-- Node64 -->
<g id="node5" class="node">
<title>Node64</title>
<g id="a_node5"><a xlink:href="main_8cpp.html#aa561fc46a0358a47fa9151f211523ba0" target="_top" xlink:title="core_1">
<polygon fill="#ffffff" stroke="#000000" points="693.5,-91.5 693.5,-108.5 741.5,-108.5 741.5,-91.5 693.5,-91.5"/>
<text text-anchor="middle" x="717.5" y="-98.1" font-family="DejaVuSansMono" font-size="8.00" fill="#000000">core_1</text>
</a>
</g>
</g>
<!-- Node63&#45;&gt;Node64 -->
<g id="edge4" class="edge">
<title>Node63&#45;&gt;Node64</title>
<path fill="none" stroke="#191970" d="M657.3338,-90.7437C670.1327,-92.7127 682.8409,-94.6678 693.2569,-96.2703"/>
<polygon fill="#191970" stroke="#191970" points="657.5078,-87.2293 647.0918,-89.168 656.4433,-94.1479 657.5078,-87.2293"/>
</g>
<!-- Node66 -->
<g id="node7" class="node">
<title>Node66</title>
<g id="a_node7"><a xlink:href="main_8cpp.html#a50d45340b3399db75c34c3b9f67c1b11" target="_top" xlink:title="telemetria">
<polygon fill="#ffffff" stroke="#000000" points="683,-55.5 683,-72.5 752,-72.5 752,-55.5 683,-55.5"/>
<text text-anchor="middle" x="717.5" y="-62.1" font-family="DejaVuSansMono" font-size="8.00" fill="#000000">telemetria</text>
</a>
</g>
</g>
<!-- Node63&#45;&gt;Node66 -->
<g id="edge6" class="edge">
<title>Node63&#45;&gt;Node66</title>
<path fill="none" stroke="#191970" d="M657.0216,-72.325C665.8374,-71.1114 674.6187,-69.9027 682.6462,-68.7977"/>
<polygon fill="#191970" stroke="#191970" points="656.5211,-68.8608 647.0918,-73.6918 657.4757,-75.7954 656.5211,-68.8608"/>
</g>
<!-- Node65 -->
<g id="node6" class="node">
<title>Node65</title>
<g id="a_node6"><a xlink:href="main_8cpp.html#a4fc01d736fe50cf5b977f755b675f11d" target="_top" xlink:title="setup">
<polygon fill="#ffffff" stroke="#000000" points="788,-54.5 788,-71.5 831,-71.5 831,-54.5 788,-54.5"/>
<text text-anchor="middle" x="809.5" y="-61.1" font-family="DejaVuSansMono" font-size="8.00" fill="#000000">setup</text>
</a>
</g>
</g>
<!-- Node64&#45;&gt;Node65 -->
<g id="edge5" class="edge">
<title>Node64&#45;&gt;Node65</title>
<path fill="none" stroke="#191970" d="M748.4166,-87.5661C761.5177,-82.2972 776.4543,-76.2901 788.2778,-71.535"/>
<polygon fill="#191970" stroke="#191970" points="746.8097,-84.4399 738.8379,-91.4185 749.4217,-90.9343 746.8097,-84.4399"/>
</g>
<!-- Node68 -->
<g id="node9" class="node">
<title>Node68</title>
<g id="a_node9"><a xlink:href="classekf_1_1EKF.html#aecdea0922a84bc38cdd78e86657d6ae9" target="_top" xlink:title="ekf::EKF::calibrationMethods">
<polygon fill="#ffffff" stroke="#000000" points="341,-18.5 341,-35.5 505,-35.5 505,-18.5 341,-18.5"/>
<text text-anchor="middle" x="423" y="-25.1" font-family="DejaVuSansMono" font-size="8.00" fill="#000000">ekf::EKF::calibrationMethods</text>
</a>
</g>
</g>
<!-- Node67&#45;&gt;Node68 -->
<g id="edge8" class="edge">
<title>Node67&#45;&gt;Node68</title>
<path fill="none" stroke="#191970" d="M278.8631,-39.6559C298.2276,-37.9556 319.9809,-36.0456 340.6039,-34.2348"/>
<polygon fill="#191970" stroke="#191970" points="278.3297,-36.1892 268.6742,-40.5506 278.942,-43.1624 278.3297,-36.1892"/>
</g>
<!-- Node68&#45;&gt;Node65 -->
<g id="edge9" class="edge">
<title>Node68&#45;&gt;Node65</title>
<path fill="none" stroke="#191970" d="M515.0703,-26.6825C581.3977,-27.8191 672.7894,-32.1929 752,-46 764.1011,-48.1093 777.2631,-51.886 787.937,-55.3448"/>
<polygon fill="#191970" stroke="#191970" points="515.1102,-23.1828 505.0588,-26.5322 515.0051,-30.182 515.1102,-23.1828"/>
</g>
<!-- Node69&#45;&gt;Node68 -->
<g id="edge11" class="edge">
<title>Node69&#45;&gt;Node68</title>
<path fill="none" stroke="#191970" d="M307.4091,-16.8506C318.5431,-17.8282 329.8866,-18.8242 340.9024,-19.7914"/>
<polygon fill="#191970" stroke="#191970" points="307.5262,-13.3475 297.2584,-15.9593 306.9139,-20.3206 307.5262,-13.3475"/>
</g>
</g>
</svg>
