<?xml version="1.0" encoding="UTF-8" standalone="no"?>
<!DOCTYPE svg PUBLIC "-//W3C//DTD SVG 1.1//EN"
 "http://www.w3.org/Graphics/SVG/1.1/DTD/svg11.dtd">
<!-- Generated by graphviz version 2.40.1 (20161225.0304)
 -->
<!-- Title: IMU::whoAmIAK8963 Pages: 1 -->
<svg width="587pt" height="45pt"
 viewBox="0.00 0.00 587.00 45.00" xmlns="http://www.w3.org/2000/svg" xmlns:xlink="http://www.w3.org/1999/xlink">
<g id="graph0" class="graph" transform="scale(1 1) rotate(0) translate(4 41)">
<title>IMU::whoAmIAK8963</title>
<polygon fill="#ffffff" stroke="transparent" points="-4,4 -4,-41 583,-41 583,4 -4,4"/>
<!-- Node94 -->
<g id="node1" class="node">
<title>Node94</title>
<polygon fill="#bfbfbf" stroke="#000000" points="0,-.5 0,-17.5 106,-17.5 106,-.5 0,-.5"/>
<text text-anchor="middle" x="53" y="-7.1" font-family="DejaVuSansMono" font-size="8.00" fill="#000000">IMU::whoAmIAK8963</text>
</g>
<!-- Node95 -->
<g id="node2" class="node">
<title>Node95</title>
<g id="a_node2"><a xlink:href="classIMU.html#a914f8b4262fba70e6d8fd0e584fa7996" target="_top" xlink:title="IMU::readAK8963Registers">
<polygon fill="#ffffff" stroke="#000000" points="142,-.5 142,-17.5 285,-17.5 285,-.5 142,-.5"/>
<text text-anchor="middle" x="213.5" y="-7.1" font-family="DejaVuSansMono" font-size="8.00" fill="#000000">IMU::readAK8963Registers</text>
</a>
</g>
</g>
<!-- Node94&#45;&gt;Node95 -->
<g id="edge1" class="edge">
<title>Node94&#45;&gt;Node95</title>
<path fill="none" stroke="#191970" d="M106.4442,-9C114.5715,-9 123.1133,-9 131.679,-9"/>
<polygon fill="#191970" stroke="#191970" points="131.7219,-12.5001 141.7219,-9 131.7218,-5.5001 131.7219,-12.5001"/>
</g>
<!-- Node96 -->
<g id="node3" class="node">
<title>Node96</title>
<g id="a_node3"><a xlink:href="classIMU.html#a37694424e4502ffc69bbb6c540c1a400" target="_top" xlink:title="IMU::writeRegister">
<polygon fill="#ffffff" stroke="#000000" points="321,-19.5 321,-36.5 432,-36.5 432,-19.5 321,-19.5"/>
<text text-anchor="middle" x="376.5" y="-26.1" font-family="DejaVuSansMono" font-size="8.00" fill="#000000">IMU::writeRegister</text>
</a>
</g>
</g>
<!-- Node95&#45;&gt;Node96 -->
<g id="edge2" class="edge">
<title>Node95&#45;&gt;Node96</title>
<path fill="none" stroke="#191970" d="M285.4686,-17.389C293.8358,-18.3643 302.3389,-19.3554 310.6185,-20.3206"/>
<polygon fill="#191970" stroke="#191970" points="310.2448,-23.8006 320.5828,-21.482 311.0553,-16.8477 310.2448,-23.8006"/>
</g>
<!-- Node97 -->
<g id="node4" class="node">
<title>Node97</title>
<g id="a_node4"><a xlink:href="classIMU.html#a87c200faa130ff4d2d3416b2d83f4f49" target="_top" xlink:title="IMU::readRegisters">
<polygon fill="#ffffff" stroke="#000000" points="468,-.5 468,-17.5 579,-17.5 579,-.5 468,-.5"/>
<text text-anchor="middle" x="523.5" y="-7.1" font-family="DejaVuSansMono" font-size="8.00" fill="#000000">IMU::readRegisters</text>
</a>
</g>
</g>
<!-- Node95&#45;&gt;Node97 -->
<g id="edge4" class="edge">
<title>Node95&#45;&gt;Node97</title>
<path fill="none" stroke="#191970" d="M285.0095,-9C337.0351,-9 406.9477,-9 457.6172,-9"/>
<polygon fill="#191970" stroke="#191970" points="457.8035,-12.5001 467.8035,-9 457.8034,-5.5001 457.8035,-12.5001"/>
</g>
<!-- Node96&#45;&gt;Node97 -->
<g id="edge3" class="edge">
<title>Node96&#45;&gt;Node97</title>
<path fill="none" stroke="#191970" d="M432.0744,-20.8169C440.4894,-19.7293 449.2383,-18.5985 457.8421,-17.4864"/>
<polygon fill="#191970" stroke="#191970" points="458.3782,-20.9463 467.847,-16.1932 457.4808,-14.0041 458.3782,-20.9463"/>
</g>
</g>
</svg>
