<?xml version="1.0" encoding="UTF-8" standalone="no"?>
<!DOCTYPE svg PUBLIC "-//W3C//DTD SVG 1.1//EN"
 "http://www.w3.org/Graphics/SVG/1.1/DTD/svg11.dtd">
<!-- Generated by graphviz version 2.40.1 (20161225.0304)
 -->
<!-- Title: ekf::EKF::calibrationMethods Pages: 1 -->
<!--zoomable 72 -->
<svg id="main" version="1.1" xmlns="http://www.w3.org/2000/svg" xmlns:xlink="http://www.w3.org/1999/xlink" xml:space="preserve" onload="init(evt)">
<style type="text/css"><![CDATA[
.edge:hover path { stroke: red; }
.edge:hover polygon { stroke: red; fill: red; }
]]></style>
<script type="text/javascript"><![CDATA[
var edges = document.getElementsByTagName('g');
if (edges && edges.length) {
  for (var i=0;i<edges.length;i++) {
    if (edges[i].id.substr(0,4)=='edge') {
      edges[i].setAttribute('class','edge');
    }
  }
}
]]></script>
        <defs>
                <circle id="rim" cx="0" cy="0" r="7"/>
                <circle id="rim2" cx="0" cy="0" r="3.5"/>
                <g id="zoomPlus">
                        <use xlink:href="#rim" fill="#404040">
                                <set attributeName="fill" to="#808080" begin="zoomplus.mouseover" end="zoomplus.mouseout"/>
                        </use>
                        <path d="M-4,0h8M0,-4v8" fill="none" stroke="white" stroke-width="1.5" pointer-events="none"/>
                </g>
                <g id="zoomMin">
                        <use xlink:href="#rim" fill="#404040">
                                <set attributeName="fill" to="#808080" begin="zoomminus.mouseover" end="zoomminus.mouseout"/>
                        </use>
                        <path d="M-4,0h8" fill="none" stroke="white" stroke-width="1.5" pointer-events="none"/>
                </g>
                <g id="dirArrow">
                        <path fill="none" stroke="white" stroke-width="1.5" d="M0,-3.0v7 M-2.5,-0.5L0,-3.0L2.5,-0.5"/>
                </g>
               <g id="resetDef">
                       <use xlink:href="#rim2" fill="#404040">
                               <set attributeName="fill" to="#808080" begin="reset.mouseover" end="reset.mouseout"/>
                       </use>
               </g>
        </defs>

<script type="text/javascript">
var viewWidth = 671;
var viewHeight = 72;
var sectionId = 'dynsection-3';
</script>
<script xlink:href="svgpan.js"/>
<svg id="graph" class="graph">
<g id="viewport">
<title>ekf::EKF::calibrationMethods</title>
<polygon fill="#ffffff" stroke="transparent" points="-4,4 -4,-67.5 667,-67.5 667,4 -4,4"/>
<!-- Node18 -->
<g id="node1" class="node">
<title>Node18</title>
<polygon fill="#bfbfbf" stroke="#000000" points="0,-28 0,-45 164,-45 164,-28 0,-28"/>
<text text-anchor="middle" x="82" y="-34.6" font-family="DejaVuSansMono" font-size="8.00" fill="#000000">ekf::EKF::calibrationMethods</text>
</g>
<!-- Node19 -->
<g id="node2" class="node">
<title>Node19</title>
<g id="a_node2"><a xlink:href="classIMU.html#a5f096cb37d4b16851381bf09d6809403" target="_top" xlink:title="IMU::calibraGyro">
<polygon fill="#ffffff" stroke="#000000" points="228.5,-46 228.5,-63 329.5,-63 329.5,-46 228.5,-46"/>
<text text-anchor="middle" x="279" y="-52.6" font-family="DejaVuSansMono" font-size="8.00" fill="#000000">IMU::calibraGyro</text>
</a>
</g>
</g>
<!-- Node18&#45;&gt;Node19 -->
<g id="edge1" class="edge">
<title>Node18&#45;&gt;Node19</title>
<path fill="none" stroke="#191970" d="M164.1192,-44.0033C182.1297,-45.6489 200.892,-47.3632 217.9056,-48.9178"/>
<polygon fill="#191970" stroke="#191970" points="217.9736,-52.4385 228.2506,-49.863 218.6106,-45.4675 217.9736,-52.4385"/>
</g>
<!-- Node22 -->
<g id="node5" class="node">
<title>Node22</title>
<g id="a_node5"><a xlink:href="classIMU.html#a3546779010d9128859f465195eff77f5" target="_top" xlink:title="IMU::calibracaoMagnetometro">
<polygon fill="#ffffff" stroke="#000000" points="200,-10 200,-27 358,-27 358,-10 200,-10"/>
<text text-anchor="middle" x="279" y="-16.6" font-family="DejaVuSansMono" font-size="8.00" fill="#000000">IMU::calibracaoMagnetometro</text>
</a>
</g>
</g>
<!-- Node18&#45;&gt;Node22 -->
<g id="edge4" class="edge">
<title>Node18&#45;&gt;Node22</title>
<path fill="none" stroke="#191970" d="M164.1192,-28.9967C172.618,-28.2202 181.2842,-27.4283 189.8551,-26.6452"/>
<polygon fill="#191970" stroke="#191970" points="190.217,-30.1268 199.857,-25.7313 189.58,-23.1559 190.217,-30.1268"/>
</g>
<!-- Node20 -->
<g id="node3" class="node">
<title>Node20</title>
<g id="a_node3"><a xlink:href="classIMU.html#ac574728dbbc752155239a35c8bbd6e79" target="_top" xlink:title="IMU::readSensor">
<polygon fill="#ffffff" stroke="#000000" points="407.5,-46 407.5,-63 502.5,-63 502.5,-46 407.5,-46"/>
<text text-anchor="middle" x="455" y="-52.6" font-family="DejaVuSansMono" font-size="8.00" fill="#000000">IMU::readSensor</text>
</a>
</g>
</g>
<!-- Node19&#45;&gt;Node20 -->
<g id="edge2" class="edge">
<title>Node19&#45;&gt;Node20</title>
<path fill="none" stroke="#191970" d="M329.9065,-54.5C350.9407,-54.5 375.4357,-54.5 397.1462,-54.5"/>
<polygon fill="#191970" stroke="#191970" points="397.2268,-58.0001 407.2268,-54.5 397.2268,-51.0001 397.2268,-58.0001"/>
</g>
<!-- Node21 -->
<g id="node4" class="node">
<title>Node21</title>
<g id="a_node4"><a xlink:href="classIMU.html#a87c200faa130ff4d2d3416b2d83f4f49" target="_top" xlink:title="IMU::readRegisters">
<polygon fill="#ffffff" stroke="#000000" points="552,-46 552,-63 663,-63 663,-46 552,-46"/>
<text text-anchor="middle" x="607.5" y="-52.6" font-family="DejaVuSansMono" font-size="8.00" fill="#000000">IMU::readRegisters</text>
</a>
</g>
</g>
<!-- Node20&#45;&gt;Node21 -->
<g id="edge3" class="edge">
<title>Node20&#45;&gt;Node21</title>
<path fill="none" stroke="#191970" d="M502.8335,-54.5C515.1021,-54.5 528.5161,-54.5 541.5237,-54.5"/>
<polygon fill="#191970" stroke="#191970" points="541.8389,-58.0001 551.8389,-54.5 541.8388,-51.0001 541.8389,-58.0001"/>
</g>
<!-- Node22&#45;&gt;Node20 -->
<g id="edge5" class="edge">
<title>Node22&#45;&gt;Node20</title>
<path fill="none" stroke="#191970" d="M320.7095,-27.0315C345.497,-32.1017 377.1346,-38.573 403.4748,-43.9608"/>
<polygon fill="#191970" stroke="#191970" points="402.7867,-47.3924 413.2852,-45.9674 404.1895,-40.5344 402.7867,-47.3924"/>
</g>
<!-- Node23 -->
<g id="node6" class="node">
<title>Node23</title>
<g id="a_node6"><a xlink:href="classMETODOSCALIBRACAO.html#af0478ed112a1139bafefe7833568e641" target="_top" xlink:title="METODOSCALIBRACAO::\lcalibracaoGeometrica">
<polygon fill="#ffffff" stroke="#000000" points="394,-.5 394,-26.5 516,-26.5 516,-.5 394,-.5"/>
<text text-anchor="start" x="402" y="-16.1" font-family="DejaVuSansMono" font-size="8.00" fill="#000000">METODOSCALIBRACAO::</text>
<text text-anchor="middle" x="455" y="-7.1" font-family="DejaVuSansMono" font-size="8.00" fill="#000000">calibracaoGeometrica</text>
</a>
</g>
</g>
<!-- Node22&#45;&gt;Node23 -->
<g id="edge6" class="edge">
<title>Node22&#45;&gt;Node23</title>
<path fill="none" stroke="#191970" d="M358.2473,-16.2487C366.7447,-16.0073 375.3521,-15.7627 383.7483,-15.5242"/>
<polygon fill="#191970" stroke="#191970" points="383.9669,-19.0195 393.8634,-15.2368 383.7681,-12.0223 383.9669,-19.0195"/>
</g>
</g>
</svg>
        <g id="navigator" transform="translate(0 0)" fill="#404254">
                <rect fill="#f2f5e9" fill-opacity="0.5" stroke="#606060" stroke-width=".5" x="0" y="0" width="60" height="60"/>
                <use id="zoomplus" xlink:href="#zoomPlus" x="17" y="9" onmousedown="handleZoom(evt,'in')"/>
                <use id="zoomminus" xlink:href="#zoomMin" x="42" y="9" onmousedown="handleZoom(evt,'out')"/>
                <use id="reset" xlink:href="#resetDef" x="30" y="36" onmousedown="handleReset()"/>
                <g id="arrowUp" xlink:href="#dirArrow" transform="translate(30 24)" onmousedown="handlePan(0,-1)">
                  <use xlink:href="#rim" fill="#404040">
                        <set attributeName="fill" to="#808080" begin="arrowUp.mouseover" end="arrowUp.mouseout"/>
                  </use>
                  <path fill="none" stroke="white" stroke-width="1.5" d="M0,-3.0v7 M-2.5,-0.5L0,-3.0L2.5,-0.5"/>
                </g>
                <g id="arrowRight" xlink:href="#dirArrow" transform="rotate(90) translate(36 -43)" onmousedown="handlePan(1,0)">
                  <use xlink:href="#rim" fill="#404040">
                        <set attributeName="fill" to="#808080" begin="arrowRight.mouseover" end="arrowRight.mouseout"/>
                  </use>
                  <path fill="none" stroke="white" stroke-width="1.5" d="M0,-3.0v7 M-2.5,-0.5L0,-3.0L2.5,-0.5"/>
                </g>
                <g id="arrowDown" xlink:href="#dirArrow" transform="rotate(180) translate(-30 -48)" onmousedown="handlePan(0,1)">
                  <use xlink:href="#rim" fill="#404040">
                        <set attributeName="fill" to="#808080" begin="arrowDown.mouseover" end="arrowDown.mouseout"/>
                  </use>
                  <path fill="none" stroke="white" stroke-width="1.5" d="M0,-3.0v7 M-2.5,-0.5L0,-3.0L2.5,-0.5"/>
                </g>
                <g id="arrowLeft" xlink:href="#dirArrow" transform="rotate(270) translate(-36 17)" onmousedown="handlePan(-1,0)">
                  <use xlink:href="#rim" fill="#404040">
                        <set attributeName="fill" to="#808080" begin="arrowLeft.mouseover" end="arrowLeft.mouseout"/>
                  </use>
                  <path fill="none" stroke="white" stroke-width="1.5" d="M0,-3.0v7 M-2.5,-0.5L0,-3.0L2.5,-0.5"/>
                </g>
        </g>
        <svg viewBox="0 0 15 15" width="100%" height="30px" preserveAspectRatio="xMaxYMin meet">
         <g id="arrow_out" transform="scale(0.3 0.3)">
          <a xlink:href="classekf_1_1EKF_aecdea0922a84bc38cdd78e86657d6ae9_cgraph_org.svg" target="_base">
           <rect id="button" ry="5" rx="5" y="6" x="6" height="38" width="38"
                fill="#f2f5e9" fill-opacity="0.5" stroke="#606060" stroke-width="1.0"/>
           <path id="arrow"
             d="M 11.500037,31.436501 C 11.940474,20.09759 22.043105,11.32322 32.158766,21.979434 L 37.068811,17.246167 C 37.068811,17.246167 37.088388,32 37.088388,32 L 22.160133,31.978069 C 22.160133,31.978069 26.997745,27.140456 26.997745,27.140456 C 18.528582,18.264221 13.291696,25.230495 11.500037,31.436501 z"
             style="fill:#404040;"/>
          </a>
         </g>
        </svg>
</svg>
