<?xml version="1.0" encoding="UTF-8" standalone="no"?>
<!DOCTYPE svg PUBLIC "-//W3C//DTD SVG 1.1//EN"
 "http://www.w3.org/Graphics/SVG/1.1/DTD/svg11.dtd">
<!-- Generated by graphviz version 2.40.1 (20161225.0304)
 -->
<!-- Title: TIME::begin Pages: 1 -->
<svg width="292pt" height="62pt"
 viewBox="0.00 0.00 292.00 62.00" xmlns="http://www.w3.org/2000/svg" xmlns:xlink="http://www.w3.org/1999/xlink">
<g id="graph0" class="graph" transform="scale(1 1) rotate(0) translate(4 58)">
<title>TIME::begin</title>
<polygon fill="#ffffff" stroke="transparent" points="-4,4 -4,-58 288,-58 288,4 -4,4"/>
<!-- Node4 -->
<g id="node1" class="node">
<title>Node4</title>
<polygon fill="#bfbfbf" stroke="#000000" points="0,-18.5 0,-35.5 74,-35.5 74,-18.5 0,-18.5"/>
<text text-anchor="middle" x="37" y="-25.1" font-family="DejaVuSansMono" font-size="8.00" fill="#000000">TIME::begin</text>
</g>
<!-- Node5 -->
<g id="node2" class="node">
<title>Node5</title>
<g id="a_node2"><a xlink:href="classekf_1_1EKF.html#af52f661717f56b3deee7b4f42ba80dc5" target="_top" xlink:title="Inicializacao do filtro de Kalman. ">
<polygon fill="#ffffff" stroke="#000000" points="110,-36.5 110,-53.5 205,-53.5 205,-36.5 110,-36.5"/>
<text text-anchor="middle" x="157.5" y="-43.1" font-family="DejaVuSansMono" font-size="8.00" fill="#000000">ekf::EKF::begin</text>
</a>
</g>
</g>
<!-- Node4&#45;&gt;Node5 -->
<g id="edge1" class="edge">
<title>Node4&#45;&gt;Node5</title>
<path fill="none" stroke="#191970" d="M84.1207,-34.0388C92.4876,-35.2886 101.2096,-36.5915 109.598,-37.8445"/>
<polygon fill="#191970" stroke="#191970" points="84.5446,-30.5633 74.1372,-32.5475 83.5104,-37.4865 84.5446,-30.5633"/>
</g>
<!-- Node7 -->
<g id="node4" class="node">
<title>Node7</title>
<g id="a_node4"><a xlink:href="classTIME.html#a4c5fe33dea0e598fd2e1b0dd8073dff3" target="_top" xlink:title="Instância da classe Time. ">
<polygon fill="#ffffff" stroke="#000000" points="123,-.5 123,-17.5 192,-17.5 192,-.5 123,-.5"/>
<text text-anchor="middle" x="157.5" y="-7.1" font-family="DejaVuSansMono" font-size="8.00" fill="#000000">TIME::TIME</text>
</a>
</g>
</g>
<!-- Node4&#45;&gt;Node7 -->
<g id="edge3" class="edge">
<title>Node4&#45;&gt;Node7</title>
<path fill="none" stroke="#191970" d="M84.2126,-19.9475C97.057,-18.0288 110.7318,-15.9861 122.7475,-14.1912"/>
<polygon fill="#191970" stroke="#191970" points="83.5104,-16.5135 74.1372,-21.4525 84.5446,-23.4367 83.5104,-16.5135"/>
</g>
<!-- Node6 -->
<g id="node3" class="node">
<title>Node6</title>
<g id="a_node3"><a xlink:href="main_8cpp.html#a4fc01d736fe50cf5b977f755b675f11d" target="_top" xlink:title="setup">
<polygon fill="#ffffff" stroke="#000000" points="241,-36.5 241,-53.5 284,-53.5 284,-36.5 241,-36.5"/>
<text text-anchor="middle" x="262.5" y="-43.1" font-family="DejaVuSansMono" font-size="8.00" fill="#000000">setup</text>
</a>
</g>
</g>
<!-- Node5&#45;&gt;Node6 -->
<g id="edge2" class="edge">
<title>Node5&#45;&gt;Node6</title>
<path fill="none" stroke="#191970" d="M215.3476,-45C224.4085,-45 233.2548,-45 240.7917,-45"/>
<polygon fill="#191970" stroke="#191970" points="215.0846,-41.5001 205.0845,-45 215.0845,-48.5001 215.0846,-41.5001"/>
</g>
</g>
</svg>
