<?xml version="1.0" encoding="UTF-8" standalone="no"?>
<!DOCTYPE svg PUBLIC "-//W3C//DTD SVG 1.1//EN"
 "http://www.w3.org/Graphics/SVG/1.1/DTD/svg11.dtd">
<!-- Generated by graphviz version 2.40.1 (20161225.0304)
 -->
<!-- Title: TELEMETRIA::begin Pages: 1 -->
<svg width="450pt" height="45pt"
 viewBox="0.00 0.00 450.00 45.00" xmlns="http://www.w3.org/2000/svg" xmlns:xlink="http://www.w3.org/1999/xlink">
<g id="graph0" class="graph" transform="scale(1 1) rotate(0) translate(4 41)">
<title>TELEMETRIA::begin</title>
<polygon fill="#ffffff" stroke="transparent" points="-4,4 -4,-41 446,-41 446,4 -4,4"/>
<!-- Node10 -->
<g id="node1" class="node">
<title>Node10</title>
<polygon fill="#bfbfbf" stroke="#000000" points="0,-.5 0,-17.5 106,-17.5 106,-.5 0,-.5"/>
<text text-anchor="middle" x="53" y="-7.1" font-family="DejaVuSansMono" font-size="8.00" fill="#000000">TELEMETRIA::begin</text>
</g>
<!-- Node11 -->
<g id="node2" class="node">
<title>Node11</title>
<g id="a_node2"><a xlink:href="classTELEMETRIA.html#ace27ccd5888ebc3802a4eb22cc3fd9da" target="_top" xlink:title="TELEMETRIA::OnDataRecv">
<polygon fill="#ffffff" stroke="#000000" points="142,-19.5 142,-36.5 274,-36.5 274,-19.5 142,-19.5"/>
<text text-anchor="middle" x="208" y="-26.1" font-family="DejaVuSansMono" font-size="8.00" fill="#000000">TELEMETRIA::OnDataRecv</text>
</a>
</g>
</g>
<!-- Node10&#45;&gt;Node11 -->
<g id="edge1" class="edge">
<title>Node10&#45;&gt;Node11</title>
<path fill="none" stroke="#191970" d="M106.3422,-15.5387C114.5875,-16.5494 123.2381,-17.6098 131.8662,-18.6675"/>
<polygon fill="#191970" stroke="#191970" points="131.6072,-22.1618 141.9587,-19.9046 132.4589,-15.2138 131.6072,-22.1618"/>
</g>
<!-- Node12 -->
<g id="node3" class="node">
<title>Node12</title>
<g id="a_node3"><a xlink:href="classTELEMETRIA.html#ae47c01609eec8284a663dd66e0d7c632" target="_top" xlink:title="TELEMETRIA::TELEMETRIA">
<polygon fill="#ffffff" stroke="#000000" points="310,-.5 310,-17.5 442,-17.5 442,-.5 310,-.5"/>
<text text-anchor="middle" x="376" y="-7.1" font-family="DejaVuSansMono" font-size="8.00" fill="#000000">TELEMETRIA::TELEMETRIA</text>
</a>
</g>
</g>
<!-- Node11&#45;&gt;Node12 -->
<g id="edge2" class="edge">
<title>Node11&#45;&gt;Node12</title>
<path fill="none" stroke="#191970" d="M274.398,-20.4907C282.6791,-19.5542 291.199,-18.5906 299.6161,-17.6387"/>
<polygon fill="#191970" stroke="#191970" points="300.2659,-21.0876 309.8092,-16.4859 299.4792,-14.1319 300.2659,-21.0876"/>
</g>
<!-- Node12&#45;&gt;Node10 -->
<g id="edge3" class="edge">
<title>Node12&#45;&gt;Node10</title>
<path fill="none" stroke="#191970" d="M309.7163,-9C253.1087,-9 172.225,-9 116.448,-9"/>
<polygon fill="#191970" stroke="#191970" points="116.3369,-5.5001 106.3369,-9 116.3368,-12.5001 116.3369,-5.5001"/>
</g>
</g>
</svg>
