<?xml version="1.0" encoding="UTF-8" standalone="no"?>
<!DOCTYPE svg PUBLIC "-//W3C//DTD SVG 1.1//EN"
 "http://www.w3.org/Graphics/SVG/1.1/DTD/svg11.dtd">
<!-- Generated by graphviz version 2.40.1 (20161225.0304)
 -->
<!-- Title: IMU::calibraGyro Pages: 1 -->
<svg width="387pt" height="26pt"
 viewBox="0.00 0.00 387.00 26.00" xmlns="http://www.w3.org/2000/svg" xmlns:xlink="http://www.w3.org/1999/xlink">
<g id="graph0" class="graph" transform="scale(1 1) rotate(0) translate(4 22)">
<title>IMU::calibraGyro</title>
<polygon fill="#ffffff" stroke="transparent" points="-4,4 -4,-22 383,-22 383,4 -4,4"/>
<!-- Node21 -->
<g id="node1" class="node">
<title>Node21</title>
<polygon fill="#bfbfbf" stroke="#000000" points="0,-.5 0,-17.5 101,-17.5 101,-.5 0,-.5"/>
<text text-anchor="middle" x="50.5" y="-7.1" font-family="DejaVuSansMono" font-size="8.00" fill="#000000">IMU::calibraGyro</text>
</g>
<!-- Node22 -->
<g id="node2" class="node">
<title>Node22</title>
<g id="a_node2"><a xlink:href="classIMU.html#ac574728dbbc752155239a35c8bbd6e79" target="_top" xlink:title="IMU::readSensor">
<polygon fill="#ffffff" stroke="#000000" points="137,-.5 137,-17.5 232,-17.5 232,-.5 137,-.5"/>
<text text-anchor="middle" x="184.5" y="-7.1" font-family="DejaVuSansMono" font-size="8.00" fill="#000000">IMU::readSensor</text>
</a>
</g>
</g>
<!-- Node21&#45;&gt;Node22 -->
<g id="edge1" class="edge">
<title>Node21&#45;&gt;Node22</title>
<path fill="none" stroke="#191970" d="M101.1597,-9C109.4848,-9 118.1683,-9 126.6524,-9"/>
<polygon fill="#191970" stroke="#191970" points="126.8646,-12.5001 136.8646,-9 126.8645,-5.5001 126.8646,-12.5001"/>
</g>
<!-- Node23 -->
<g id="node3" class="node">
<title>Node23</title>
<g id="a_node3"><a xlink:href="classIMU.html#a87c200faa130ff4d2d3416b2d83f4f49" target="_top" xlink:title="IMU::readRegisters">
<polygon fill="#ffffff" stroke="#000000" points="268,-.5 268,-17.5 379,-17.5 379,-.5 268,-.5"/>
<text text-anchor="middle" x="323.5" y="-7.1" font-family="DejaVuSansMono" font-size="8.00" fill="#000000">IMU::readRegisters</text>
</a>
</g>
</g>
<!-- Node22&#45;&gt;Node23 -->
<g id="edge2" class="edge">
<title>Node22&#45;&gt;Node23</title>
<path fill="none" stroke="#191970" d="M232.3359,-9C240.5767,-9 249.2691,-9 257.8817,-9"/>
<polygon fill="#191970" stroke="#191970" points="257.9237,-12.5001 267.9237,-9 257.9236,-5.5001 257.9237,-12.5001"/>
</g>
</g>
</svg>
