<?xml version="1.0" encoding="UTF-8" standalone="no"?>
<!DOCTYPE svg PUBLIC "-//W3C//DTD SVG 1.1//EN"
 "http://www.w3.org/Graphics/SVG/1.1/DTD/svg11.dtd">
<!-- Generated by graphviz version 2.40.1 (20161225.0304)
 -->
<!-- Title: ekf::EKF::loopEKF Pages: 1 -->
<!--zoomable 309 -->
<svg id="main" version="1.1" xmlns="http://www.w3.org/2000/svg" xmlns:xlink="http://www.w3.org/1999/xlink" xml:space="preserve" onload="init(evt)">
<style type="text/css"><![CDATA[
.edge:hover path { stroke: red; }
.edge:hover polygon { stroke: red; fill: red; }
]]></style>
<script type="text/javascript"><![CDATA[
var edges = document.getElementsByTagName('g');
if (edges && edges.length) {
  for (var i=0;i<edges.length;i++) {
    if (edges[i].id.substr(0,4)=='edge') {
      edges[i].setAttribute('class','edge');
    }
  }
}
]]></script>
        <defs>
                <circle id="rim" cx="0" cy="0" r="7"/>
                <circle id="rim2" cx="0" cy="0" r="3.5"/>
                <g id="zoomPlus">
                        <use xlink:href="#rim" fill="#404040">
                                <set attributeName="fill" to="#808080" begin="zoomplus.mouseover" end="zoomplus.mouseout"/>
                        </use>
                        <path d="M-4,0h8M0,-4v8" fill="none" stroke="white" stroke-width="1.5" pointer-events="none"/>
                </g>
                <g id="zoomMin">
                        <use xlink:href="#rim" fill="#404040">
                                <set attributeName="fill" to="#808080" begin="zoomminus.mouseover" end="zoomminus.mouseout"/>
                        </use>
                        <path d="M-4,0h8" fill="none" stroke="white" stroke-width="1.5" pointer-events="none"/>
                </g>
                <g id="dirArrow">
                        <path fill="none" stroke="white" stroke-width="1.5" d="M0,-3.0v7 M-2.5,-0.5L0,-3.0L2.5,-0.5"/>
                </g>
               <g id="resetDef">
                       <use xlink:href="#rim2" fill="#404040">
                               <set attributeName="fill" to="#808080" begin="reset.mouseover" end="reset.mouseout"/>
                       </use>
               </g>
        </defs>

<script type="text/javascript">
var viewWidth = 876;
var viewHeight = 309;
var sectionId = 'dynsection-7';
</script>
<script xlink:href="svgpan.js"/>
<svg id="graph" class="graph">
<g id="viewport">
<title>ekf::EKF::loopEKF</title>
<polygon fill="#ffffff" stroke="transparent" points="-4,4 -4,-305 872,-305 872,4 -4,4"/>
<!-- Node36 -->
<g id="node1" class="node">
<title>Node36</title>
<polygon fill="#bfbfbf" stroke="#000000" points="0,-111.5 0,-128.5 106,-128.5 106,-111.5 0,-111.5"/>
<text text-anchor="middle" x="53" y="-118.1" font-family="DejaVuSansMono" font-size="8.00" fill="#000000">ekf::EKF::loopEKF</text>
</g>
<!-- Node37 -->
<g id="node2" class="node">
<title>Node37</title>
<g id="a_node2"><a xlink:href="namespaceekf.html#a7a798898cf7aa6db9b57d53dcf93d185" target="_top" xlink:title="ekf::quaternion2Euler">
<polygon fill="#ffffff" stroke="#000000" points="160.5,-183.5 160.5,-200.5 287.5,-200.5 287.5,-183.5 160.5,-183.5"/>
<text text-anchor="middle" x="224" y="-190.1" font-family="DejaVuSansMono" font-size="8.00" fill="#000000">ekf::quaternion2Euler</text>
</a>
</g>
</g>
<!-- Node36&#45;&gt;Node37 -->
<g id="edge1" class="edge">
<title>Node36&#45;&gt;Node37</title>
<path fill="none" stroke="#191970" d="M64.434,-128.6551C80.7722,-140.6086 112.1334,-162.0459 142,-174 148.605,-176.6437 155.6725,-178.9336 162.7859,-180.9086"/>
<polygon fill="#191970" stroke="#191970" points="161.9179,-184.2992 172.4753,-183.4102 163.6677,-177.5214 161.9179,-184.2992"/>
</g>
<!-- Node38 -->
<g id="node3" class="node">
<title>Node38</title>
<g id="a_node3"><a xlink:href="namespaceekf.html#ae9e1aaaa7793db099f4ef88b44aab8d5" target="_top" xlink:title="ekf::printEigen">
<polygon fill="#ffffff" stroke="#000000" points="176.5,-147.5 176.5,-164.5 271.5,-164.5 271.5,-147.5 176.5,-147.5"/>
<text text-anchor="middle" x="224" y="-154.1" font-family="DejaVuSansMono" font-size="8.00" fill="#000000">ekf::printEigen</text>
</a>
</g>
</g>
<!-- Node36&#45;&gt;Node38 -->
<g id="edge2" class="edge">
<title>Node36&#45;&gt;Node38</title>
<path fill="none" stroke="#191970" d="M93.5246,-128.5315C117.5018,-133.5793 148.076,-140.016 173.6,-145.3895"/>
<polygon fill="#191970" stroke="#191970" points="172.9637,-148.8322 183.4703,-147.4674 174.4059,-141.9823 172.9637,-148.8322"/>
</g>
<!-- Node39 -->
<g id="node4" class="node">
<title>Node39</title>
<g id="a_node4"><a xlink:href="classekf_1_1EKF.html#a548f56f22a519f1f66b1bf59b9ed56d6" target="_top" xlink:title="ekf::EKF::temporalPrediction">
<polygon fill="#ffffff" stroke="#000000" points="142,-111.5 142,-128.5 306,-128.5 306,-111.5 142,-111.5"/>
<text text-anchor="middle" x="224" y="-118.1" font-family="DejaVuSansMono" font-size="8.00" fill="#000000">ekf::EKF::temporalPrediction</text>
</a>
</g>
</g>
<!-- Node36&#45;&gt;Node39 -->
<g id="edge3" class="edge">
<title>Node36&#45;&gt;Node39</title>
<path fill="none" stroke="#191970" d="M106.1681,-120C114.3424,-120 122.979,-120 131.7106,-120"/>
<polygon fill="#191970" stroke="#191970" points="131.9825,-123.5001 141.9825,-120 131.9825,-116.5001 131.9825,-123.5001"/>
</g>
<!-- Node55 -->
<g id="node20" class="node">
<title>Node55</title>
<g id="a_node20"><a xlink:href="classekf_1_1EKF.html#a94bc601335d20c0a058e8e8600d912e7" target="_top" xlink:title="ekf::EKF::updateH">
<polygon fill="#ffffff" stroke="#000000" points="376,-.5 376,-17.5 482,-17.5 482,-.5 376,-.5"/>
<text text-anchor="middle" x="429" y="-7.1" font-family="DejaVuSansMono" font-size="8.00" fill="#000000">ekf::EKF::updateH</text>
</a>
</g>
</g>
<!-- Node36&#45;&gt;Node55 -->
<g id="edge21" class="edge">
<title>Node36&#45;&gt;Node55</title>
<path fill="none" stroke="#191970" d="M62.0216,-111.4538C77.2136,-97.5934 109.4442,-70.4146 142,-57 215.0753,-26.8895 306.0223,-15.6548 365.7049,-11.4705"/>
<polygon fill="#191970" stroke="#191970" points="365.99,-14.9594 375.7397,-10.8127 365.5321,-7.9744 365.99,-14.9594"/>
</g>
<!-- Node56 -->
<g id="node21" class="node">
<title>Node56</title>
<g id="a_node21"><a xlink:href="classekf_1_1EKF.html#a03bd00a47fa41884a6fef987dcb06c41" target="_top" xlink:title="ekf::EKF::statesUpdate">
<polygon fill="#ffffff" stroke="#000000" points="158,-66.5 158,-83.5 290,-83.5 290,-66.5 158,-66.5"/>
<text text-anchor="middle" x="224" y="-73.1" font-family="DejaVuSansMono" font-size="8.00" fill="#000000">ekf::EKF::statesUpdate</text>
</a>
</g>
</g>
<!-- Node36&#45;&gt;Node56 -->
<g id="edge23" class="edge">
<title>Node36&#45;&gt;Node56</title>
<path fill="none" stroke="#191970" d="M85.5663,-111.4299C112.9034,-104.2359 152.1431,-93.9097 181.8695,-86.087"/>
<polygon fill="#191970" stroke="#191970" points="182.775,-89.4679 191.555,-83.5382 180.9935,-82.6984 182.775,-89.4679"/>
</g>
<!-- Node40 -->
<g id="node5" class="node">
<title>Node40</title>
<g id="a_node5"><a xlink:href="namespaceekf.html#ac031eda654b199bd45807eed2acdb3ec" target="_top" xlink:title="ekf::computeMcdFromQuaternion">
<polygon fill="#ffffff" stroke="#000000" points="552,-111.5 552,-128.5 721,-128.5 721,-111.5 552,-111.5"/>
<text text-anchor="middle" x="636.5" y="-118.1" font-family="DejaVuSansMono" font-size="8.00" fill="#000000">ekf::computeMcdFromQuaternion</text>
</a>
</g>
</g>
<!-- Node39&#45;&gt;Node40 -->
<g id="edge4" class="edge">
<title>Node39&#45;&gt;Node40</title>
<path fill="none" stroke="#191970" d="M306.4841,-120C374.2721,-120 470.3652,-120 541.3886,-120"/>
<polygon fill="#191970" stroke="#191970" points="541.6792,-123.5001 551.6792,-120 541.6791,-116.5001 541.6792,-123.5001"/>
</g>
<!-- Node42 -->
<g id="node7" class="node">
<title>Node42</title>
<g id="a_node7"><a xlink:href="classekf_1_1EKF.html#a84048d25ebfb6431d7b1372b7315a7a3" target="_top" xlink:title="Atualiza a medicao a partir dos sensores da unidade Margin e GPS. ">
<polygon fill="#ffffff" stroke="#000000" points="342,-220.5 342,-237.5 516,-237.5 516,-220.5 342,-220.5"/>
<text text-anchor="middle" x="429" y="-227.1" font-family="DejaVuSansMono" font-size="8.00" fill="#000000">ekf::EKF::updateOfMeasurements</text>
</a>
</g>
</g>
<!-- Node39&#45;&gt;Node42 -->
<g id="edge6" class="edge">
<title>Node39&#45;&gt;Node42</title>
<path fill="none" stroke="#191970" d="M289.589,-128.6219C295.4755,-131.062 301.0657,-134.1359 306,-138 334.481,-160.3041 313.3849,-188.8681 342,-211 344.3448,-212.8136 346.8279,-214.4563 349.4153,-215.9435"/>
<polygon fill="#191970" stroke="#191970" points="348.0444,-219.1693 358.5647,-220.4239 351.123,-212.8826 348.0444,-219.1693"/>
</g>
<!-- Node50 -->
<g id="node15" class="node">
<title>Node50</title>
<g id="a_node15"><a xlink:href="namespaceekf.html#a13baef64e88517a1c0af97c5bfb32787" target="_top" xlink:title="ekf::computeVectorProjection">
<polygon fill="#ffffff" stroke="#000000" points="347,-184.5 347,-201.5 511,-201.5 511,-184.5 347,-184.5"/>
<text text-anchor="middle" x="429" y="-191.1" font-family="DejaVuSansMono" font-size="8.00" fill="#000000">ekf::computeVectorProjection</text>
</a>
</g>
</g>
<!-- Node39&#45;&gt;Node50 -->
<g id="edge14" class="edge">
<title>Node39&#45;&gt;Node50</title>
<path fill="none" stroke="#191970" d="M282.8844,-128.5284C290.9309,-130.9397 298.867,-134.0327 306,-138 326.051,-149.1524 321.882,-163.9688 342,-175 346.2559,-177.3336 350.7802,-179.3656 355.4424,-181.1346"/>
<polygon fill="#191970" stroke="#191970" points="354.5704,-184.5341 365.1645,-184.4093 356.8049,-177.9003 354.5704,-184.5341"/>
</g>
<!-- Node51 -->
<g id="node16" class="node">
<title>Node51</title>
<g id="a_node16"><a xlink:href="classekf_1_1EKF.html#ad5949e9e8eae2938a332af03a8ec353b" target="_top" xlink:title="ekf::EKF::updatefi">
<polygon fill="#ffffff" stroke="#000000" points="373.5,-148.5 373.5,-165.5 484.5,-165.5 484.5,-148.5 373.5,-148.5"/>
<text text-anchor="middle" x="429" y="-155.1" font-family="DejaVuSansMono" font-size="8.00" fill="#000000">ekf::EKF::updatefi</text>
</a>
</g>
</g>
<!-- Node39&#45;&gt;Node51 -->
<g id="edge15" class="edge">
<title>Node39&#45;&gt;Node51</title>
<path fill="none" stroke="#191970" d="M271.2885,-128.535C301.1639,-133.9271 339.9587,-140.9291 371.5951,-146.6391"/>
<polygon fill="#191970" stroke="#191970" points="371.132,-150.112 381.5947,-148.4439 372.3754,-143.2233 371.132,-150.112"/>
</g>
<!-- Node53 -->
<g id="node18" class="node">
<title>Node53</title>
<g id="a_node18"><a xlink:href="classekf_1_1EKF.html#a4bd0d4a6ec2787cf1c690fcf154a43c5" target="_top" xlink:title="ekf::EKF::integrationOfStates">
<polygon fill="#ffffff" stroke="#000000" points="344.5,-74.5 344.5,-91.5 513.5,-91.5 513.5,-74.5 344.5,-74.5"/>
<text text-anchor="middle" x="429" y="-81.1" font-family="DejaVuSansMono" font-size="8.00" fill="#000000">ekf::EKF::integrationOfStates</text>
</a>
</g>
</g>
<!-- Node39&#45;&gt;Node53 -->
<g id="edge18" class="edge">
<title>Node39&#45;&gt;Node53</title>
<path fill="none" stroke="#191970" d="M271.2885,-111.465C301.1639,-106.0729 339.9587,-99.0709 371.5951,-93.3609"/>
<polygon fill="#191970" stroke="#191970" points="372.3754,-96.7767 381.5947,-91.5561 371.132,-89.888 372.3754,-96.7767"/>
</g>
<!-- Node41 -->
<g id="node6" class="node">
<title>Node41</title>
<g id="a_node6"><a xlink:href="namespaceekf.html#af3f0a631343e55ec8b42f3fbea182461" target="_top" xlink:title="Matrix antissimetrica. ">
<polygon fill="#ffffff" stroke="#000000" points="780.5,-111.5 780.5,-128.5 844.5,-128.5 844.5,-111.5 780.5,-111.5"/>
<text text-anchor="middle" x="812.5" y="-118.1" font-family="DejaVuSansMono" font-size="8.00" fill="#000000">ekf::skew</text>
</a>
</g>
</g>
<!-- Node40&#45;&gt;Node41 -->
<g id="edge5" class="edge">
<title>Node40&#45;&gt;Node41</title>
<path fill="none" stroke="#191970" d="M721.1492,-120C738.1563,-120 755.3305,-120 770.126,-120"/>
<polygon fill="#191970" stroke="#191970" points="770.4427,-123.5001 780.4427,-120 770.4427,-116.5001 770.4427,-123.5001"/>
</g>
<!-- Node43 -->
<g id="node8" class="node">
<title>Node43</title>
<g id="a_node8"><a xlink:href="classIMU.html#ac574728dbbc752155239a35c8bbd6e79" target="_top" xlink:title="IMU::readSensor">
<polygon fill="#ffffff" stroke="#000000" points="589,-274.5 589,-291.5 684,-291.5 684,-274.5 589,-274.5"/>
<text text-anchor="middle" x="636.5" y="-281.1" font-family="DejaVuSansMono" font-size="8.00" fill="#000000">IMU::readSensor</text>
</a>
</g>
</g>
<!-- Node42&#45;&gt;Node43 -->
<g id="edge7" class="edge">
<title>Node42&#45;&gt;Node43</title>
<path fill="none" stroke="#191970" d="M461.879,-237.5565C497.6215,-246.8581 554.8601,-261.754 593.9931,-271.938"/>
<polygon fill="#191970" stroke="#191970" points="593.2157,-275.3522 603.7748,-274.4836 594.9787,-268.5778 593.2157,-275.3522"/>
</g>
<!-- Node45 -->
<g id="node10" class="node">
<title>Node45</title>
<g id="a_node10"><a xlink:href="classTIME.html#a51b6020daf09773ef3948cf6b9ccd736" target="_top" xlink:title="Retorna o valor do tempo decorrido desde a última requisição. ">
<polygon fill="#ffffff" stroke="#000000" points="565,-184.5 565,-201.5 708,-201.5 708,-184.5 565,-184.5"/>
<text text-anchor="middle" x="636.5" y="-191.1" font-family="DejaVuSansMono" font-size="8.00" fill="#000000">TIME::computeElapsedTime</text>
</a>
</g>
</g>
<!-- Node42&#45;&gt;Node45 -->
<g id="edge9" class="edge">
<title>Node42&#45;&gt;Node45</title>
<path fill="none" stroke="#191970" d="M478.1746,-220.4685C507.9134,-215.309 546.0155,-208.6985 577.3887,-203.2555"/>
<polygon fill="#191970" stroke="#191970" points="578.0647,-206.6905 587.3192,-201.5326 576.8681,-199.7936 578.0647,-206.6905"/>
</g>
<!-- Node46 -->
<g id="node11" class="node">
<title>Node46</title>
<g id="a_node11"><a xlink:href="GPS_8h.html#ad604e63cc857e5663dfba96c37c66bc7" target="_top" xlink:title="processGPS">
<polygon fill="#ffffff" stroke="#000000" points="602,-220.5 602,-237.5 671,-237.5 671,-220.5 602,-220.5"/>
<text text-anchor="middle" x="636.5" y="-227.1" font-family="DejaVuSansMono" font-size="8.00" fill="#000000">processGPS</text>
</a>
</g>
</g>
<!-- Node42&#45;&gt;Node46 -->
<g id="edge10" class="edge">
<title>Node42&#45;&gt;Node46</title>
<path fill="none" stroke="#191970" d="M516.0968,-229C542.1392,-229 569.6191,-229 591.7404,-229"/>
<polygon fill="#191970" stroke="#191970" points="591.8203,-232.5001 601.8203,-229 591.8203,-225.5001 591.8203,-232.5001"/>
</g>
<!-- Node44 -->
<g id="node9" class="node">
<title>Node44</title>
<g id="a_node9"><a xlink:href="classIMU.html#a87c200faa130ff4d2d3416b2d83f4f49" target="_top" xlink:title="IMU::readRegisters">
<polygon fill="#ffffff" stroke="#000000" points="757,-283.5 757,-300.5 868,-300.5 868,-283.5 757,-283.5"/>
<text text-anchor="middle" x="812.5" y="-290.1" font-family="DejaVuSansMono" font-size="8.00" fill="#000000">IMU::readRegisters</text>
</a>
</g>
</g>
<!-- Node43&#45;&gt;Node44 -->
<g id="edge8" class="edge">
<title>Node43&#45;&gt;Node44</title>
<path fill="none" stroke="#191970" d="M684.1281,-285.4355C703.3753,-286.4198 725.912,-287.5722 746.6845,-288.6344"/>
<polygon fill="#191970" stroke="#191970" points="746.5523,-292.1322 756.7181,-289.1475 746.9099,-285.1413 746.5523,-292.1322"/>
</g>
<!-- Node47 -->
<g id="node12" class="node">
<title>Node47</title>
<g id="a_node12"><a xlink:href="GPS_8h.html#a5d2ecd8f29f7e3e702c8b8bea333f6c6" target="_top" xlink:title="GPSSERIAL">
<polygon fill="#ffffff" stroke="#000000" points="780.5,-247.5 780.5,-264.5 844.5,-264.5 844.5,-247.5 780.5,-247.5"/>
<text text-anchor="middle" x="812.5" y="-254.1" font-family="DejaVuSansMono" font-size="8.00" fill="#000000">GPSSERIAL</text>
</a>
</g>
</g>
<!-- Node46&#45;&gt;Node47 -->
<g id="edge11" class="edge">
<title>Node46&#45;&gt;Node47</title>
<path fill="none" stroke="#191970" d="M671.2719,-234.3343C699.6794,-238.6923 739.9407,-244.8687 770.2118,-249.5126"/>
<polygon fill="#191970" stroke="#191970" points="770.0515,-253.0289 780.4666,-251.0858 771.113,-246.1098 770.0515,-253.0289"/>
</g>
<!-- Node48 -->
<g id="node13" class="node">
<title>Node48</title>
<g id="a_node13"><a xlink:href="GPS_8h.html#aecde093c7427cc661daceaa118cf4455" target="_top" xlink:title="compareMsgHeader">
<polygon fill="#ffffff" stroke="#000000" points="762,-211.5 762,-228.5 863,-228.5 863,-211.5 762,-211.5"/>
<text text-anchor="middle" x="812.5" y="-218.1" font-family="DejaVuSansMono" font-size="8.00" fill="#000000">compareMsgHeader</text>
</a>
</g>
</g>
<!-- Node46&#45;&gt;Node48 -->
<g id="edge12" class="edge">
<title>Node46&#45;&gt;Node48</title>
<path fill="none" stroke="#191970" d="M671.2719,-227.2219C694.1903,-226.0499 724.8241,-224.4834 751.7027,-223.109"/>
<polygon fill="#191970" stroke="#191970" points="751.9883,-226.599 761.7964,-222.5928 751.6307,-219.6082 751.9883,-226.599"/>
</g>
<!-- Node49 -->
<g id="node14" class="node">
<title>Node49</title>
<g id="a_node14"><a xlink:href="GPS_8h.html#aa2fac937d6e192633f020459321241e7" target="_top" xlink:title="calcChecksum">
<polygon fill="#ffffff" stroke="#000000" points="772.5,-175.5 772.5,-192.5 852.5,-192.5 852.5,-175.5 772.5,-175.5"/>
<text text-anchor="middle" x="812.5" y="-182.1" font-family="DejaVuSansMono" font-size="8.00" fill="#000000">calcChecksum</text>
</a>
</g>
</g>
<!-- Node46&#45;&gt;Node49 -->
<g id="edge13" class="edge">
<title>Node46&#45;&gt;Node49</title>
<path fill="none" stroke="#191970" d="M671.174,-222.2418C686.5072,-219.0919 704.7165,-215.1303 721,-211 739.081,-206.4138 758.9626,-200.6371 775.5608,-195.605"/>
<polygon fill="#191970" stroke="#191970" points="776.8882,-198.8591 785.4258,-192.5854 774.8393,-192.1657 776.8882,-198.8591"/>
</g>
<!-- Node52 -->
<g id="node17" class="node">
<title>Node52</title>
<g id="a_node17"><a xlink:href="classekf_1_1EKF.html#ae6c0295a32e90b9594ad10bb1061b62b" target="_top" xlink:title="Atualiza matrix lineariza de estados F e a matrix G. ">
<polygon fill="#ffffff" stroke="#000000" points="578.5,-148.5 578.5,-165.5 694.5,-165.5 694.5,-148.5 578.5,-148.5"/>
<text text-anchor="middle" x="636.5" y="-155.1" font-family="DejaVuSansMono" font-size="8.00" fill="#000000">ekf::EKF::updateF_G</text>
</a>
</g>
</g>
<!-- Node51&#45;&gt;Node52 -->
<g id="edge16" class="edge">
<title>Node51&#45;&gt;Node52</title>
<path fill="none" stroke="#191970" d="M484.6062,-157C510.2601,-157 540.9601,-157 568.0248,-157"/>
<polygon fill="#191970" stroke="#191970" points="568.2015,-160.5001 578.2015,-157 568.2014,-153.5001 568.2015,-160.5001"/>
</g>
<!-- Node52&#45;&gt;Node41 -->
<g id="edge17" class="edge">
<title>Node52&#45;&gt;Node41</title>
<path fill="none" stroke="#191970" d="M677.3203,-148.4185C705.2664,-142.5434 742.2253,-134.7737 770.4341,-128.8434"/>
<polygon fill="#191970" stroke="#191970" points="771.332,-132.2312 780.398,-126.7487 769.8918,-125.381 771.332,-132.2312"/>
</g>
<!-- Node53&#45;&gt;Node40 -->
<g id="edge20" class="edge">
<title>Node53&#45;&gt;Node40</title>
<path fill="none" stroke="#191970" d="M476.8652,-91.535C507.1049,-96.9271 546.3729,-103.9291 578.395,-109.6391"/>
<polygon fill="#191970" stroke="#191970" points="578.0574,-113.134 588.5166,-111.4439 579.2863,-106.2427 578.0574,-113.134"/>
</g>
<!-- Node54 -->
<g id="node19" class="node">
<title>Node54</title>
<g id="a_node19"><a xlink:href="namespaceekf.html#aebcb4259d74954e6d5b117101bbec4ca" target="_top" xlink:title="Produto de quaternions. ">
<polygon fill="#ffffff" stroke="#000000" points="565,-65.5 565,-82.5 708,-82.5 708,-65.5 565,-65.5"/>
<text text-anchor="middle" x="636.5" y="-72.1" font-family="DejaVuSansMono" font-size="8.00" fill="#000000">ekf::multiplyQuaternions</text>
</a>
</g>
</g>
<!-- Node53&#45;&gt;Node54 -->
<g id="edge19" class="edge">
<title>Node53&#45;&gt;Node54</title>
<path fill="none" stroke="#191970" d="M513.6975,-79.3264C527.1817,-78.7415 541.1107,-78.1374 554.5305,-77.5553"/>
<polygon fill="#191970" stroke="#191970" points="554.8387,-81.0453 564.6776,-77.1152 554.5353,-74.0519 554.8387,-81.0453"/>
</g>
<!-- Node55&#45;&gt;Node41 -->
<g id="edge22" class="edge">
<title>Node55&#45;&gt;Node41</title>
<path fill="none" stroke="#191970" d="M482.0613,-10.4447C542.0789,-13.6698 641.7647,-23.8945 721,-56 749.7188,-67.6366 778.2465,-89.6929 795.6255,-104.6202"/>
<polygon fill="#191970" stroke="#191970" points="793.3943,-107.3191 803.2133,-111.2987 798.0191,-102.0644 793.3943,-107.3191"/>
</g>
<!-- Node56&#45;&gt;Node54 -->
<g id="edge24" class="edge">
<title>Node56&#45;&gt;Node54</title>
<path fill="none" stroke="#191970" d="M290.0913,-68.4081C306.9962,-66.9945 325.1562,-65.7124 342,-65 419.2642,-61.7319 438.7204,-62.1181 516,-65 528.489,-65.4657 541.691,-66.2021 554.5978,-67.0579"/>
<polygon fill="#191970" stroke="#191970" points="554.6489,-70.5697 564.8663,-67.767 555.1312,-63.5863 554.6489,-70.5697"/>
</g>
</g>
</svg>
        <g id="navigator" transform="translate(0 0)" fill="#404254">
                <rect fill="#f2f5e9" fill-opacity="0.5" stroke="#606060" stroke-width=".5" x="0" y="0" width="60" height="60"/>
                <use id="zoomplus" xlink:href="#zoomPlus" x="17" y="9" onmousedown="handleZoom(evt,'in')"/>
                <use id="zoomminus" xlink:href="#zoomMin" x="42" y="9" onmousedown="handleZoom(evt,'out')"/>
                <use id="reset" xlink:href="#resetDef" x="30" y="36" onmousedown="handleReset()"/>
                <g id="arrowUp" xlink:href="#dirArrow" transform="translate(30 24)" onmousedown="handlePan(0,-1)">
                  <use xlink:href="#rim" fill="#404040">
                        <set attributeName="fill" to="#808080" begin="arrowUp.mouseover" end="arrowUp.mouseout"/>
                  </use>
                  <path fill="none" stroke="white" stroke-width="1.5" d="M0,-3.0v7 M-2.5,-0.5L0,-3.0L2.5,-0.5"/>
                </g>
                <g id="arrowRight" xlink:href="#dirArrow" transform="rotate(90) translate(36 -43)" onmousedown="handlePan(1,0)">
                  <use xlink:href="#rim" fill="#404040">
                        <set attributeName="fill" to="#808080" begin="arrowRight.mouseover" end="arrowRight.mouseout"/>
                  </use>
                  <path fill="none" stroke="white" stroke-width="1.5" d="M0,-3.0v7 M-2.5,-0.5L0,-3.0L2.5,-0.5"/>
                </g>
                <g id="arrowDown" xlink:href="#dirArrow" transform="rotate(180) translate(-30 -48)" onmousedown="handlePan(0,1)">
                  <use xlink:href="#rim" fill="#404040">
                        <set attributeName="fill" to="#808080" begin="arrowDown.mouseover" end="arrowDown.mouseout"/>
                  </use>
                  <path fill="none" stroke="white" stroke-width="1.5" d="M0,-3.0v7 M-2.5,-0.5L0,-3.0L2.5,-0.5"/>
                </g>
                <g id="arrowLeft" xlink:href="#dirArrow" transform="rotate(270) translate(-36 17)" onmousedown="handlePan(-1,0)">
                  <use xlink:href="#rim" fill="#404040">
                        <set attributeName="fill" to="#808080" begin="arrowLeft.mouseover" end="arrowLeft.mouseout"/>
                  </use>
                  <path fill="none" stroke="white" stroke-width="1.5" d="M0,-3.0v7 M-2.5,-0.5L0,-3.0L2.5,-0.5"/>
                </g>
        </g>
        <svg viewBox="0 0 15 15" width="100%" height="30px" preserveAspectRatio="xMaxYMin meet">
         <g id="arrow_out" transform="scale(0.3 0.3)">
          <a xlink:href="classekf_1_1EKF_a651814ff64d234394572e2e7c5703a43_cgraph_org.svg" target="_base">
           <rect id="button" ry="5" rx="5" y="6" x="6" height="38" width="38"
                fill="#f2f5e9" fill-opacity="0.5" stroke="#606060" stroke-width="1.0"/>
           <path id="arrow"
             d="M 11.500037,31.436501 C 11.940474,20.09759 22.043105,11.32322 32.158766,21.979434 L 37.068811,17.246167 C 37.068811,17.246167 37.088388,32 37.088388,32 L 22.160133,31.978069 C 22.160133,31.978069 26.997745,27.140456 26.997745,27.140456 C 18.528582,18.264221 13.291696,25.230495 11.500037,31.436501 z"
             style="fill:#404040;"/>
          </a>
         </g>
        </svg>
</svg>
