<?xml version="1.0" encoding="UTF-8" standalone="no"?>
<!DOCTYPE svg PUBLIC "-//W3C//DTD SVG 1.1//EN"
 "http://www.w3.org/Graphics/SVG/1.1/DTD/svg11.dtd">
<!-- Generated by graphviz version 2.40.1 (20161225.0304)
 -->
<!-- Title: ekf::EKF::updatefi Pages: 1 -->
<svg width="371pt" height="26pt"
 viewBox="0.00 0.00 371.00 26.00" xmlns="http://www.w3.org/2000/svg" xmlns:xlink="http://www.w3.org/1999/xlink">
<g id="graph0" class="graph" transform="scale(1 1) rotate(0) translate(4 22)">
<title>ekf::EKF::updatefi</title>
<polygon fill="#ffffff" stroke="transparent" points="-4,4 -4,-22 367,-22 367,4 -4,4"/>
<!-- Node98 -->
<g id="node1" class="node">
<title>Node98</title>
<polygon fill="#bfbfbf" stroke="#000000" points="0,-.5 0,-17.5 111,-17.5 111,-.5 0,-.5"/>
<text text-anchor="middle" x="55.5" y="-7.1" font-family="DejaVuSansMono" font-size="8.00" fill="#000000">ekf::EKF::updatefi</text>
</g>
<!-- Node99 -->
<g id="node2" class="node">
<title>Node99</title>
<g id="a_node2"><a xlink:href="classekf_1_1EKF.html#ae6c0295a32e90b9594ad10bb1061b62b" target="_top" xlink:title="Atualiza matrix lineariza de estados F e a matrix G. ">
<polygon fill="#ffffff" stroke="#000000" points="147,-.5 147,-17.5 263,-17.5 263,-.5 147,-.5"/>
<text text-anchor="middle" x="205" y="-7.1" font-family="DejaVuSansMono" font-size="8.00" fill="#000000">ekf::EKF::updateF_G</text>
</a>
</g>
</g>
<!-- Node98&#45;&gt;Node99 -->
<g id="edge1" class="edge">
<title>Node98&#45;&gt;Node99</title>
<path fill="none" stroke="#191970" d="M111.1683,-9C119.4311,-9 128.0273,-9 136.5151,-9"/>
<polygon fill="#191970" stroke="#191970" points="136.7847,-12.5001 146.7847,-9 136.7847,-5.5001 136.7847,-12.5001"/>
</g>
<!-- Node100 -->
<g id="node3" class="node">
<title>Node100</title>
<g id="a_node3"><a xlink:href="namespaceekf.html#af3f0a631343e55ec8b42f3fbea182461" target="_top" xlink:title="Matrix antissimetrica. ">
<polygon fill="#ffffff" stroke="#000000" points="299,-.5 299,-17.5 363,-17.5 363,-.5 299,-.5"/>
<text text-anchor="middle" x="331" y="-7.1" font-family="DejaVuSansMono" font-size="8.00" fill="#000000">ekf::skew</text>
</a>
</g>
</g>
<!-- Node99&#45;&gt;Node100 -->
<g id="edge2" class="edge">
<title>Node99&#45;&gt;Node100</title>
<path fill="none" stroke="#191970" d="M263.2053,-9C271.8196,-9 280.5541,-9 288.7596,-9"/>
<polygon fill="#191970" stroke="#191970" points="288.8215,-12.5001 298.8215,-9 288.8214,-5.5001 288.8215,-12.5001"/>
</g>
</g>
</svg>
