<?xml version="1.0" encoding="UTF-8" standalone="no"?>
<!DOCTYPE svg PUBLIC "-//W3C//DTD SVG 1.1//EN"
 "http://www.w3.org/Graphics/SVG/1.1/DTD/svg11.dtd">
<!-- Generated by graphviz version 2.40.1 (20161225.0304)
 -->
<!-- Title: IMU::begin Pages: 1 -->
<svg width="729pt" height="249pt"
 viewBox="0.00 0.00 729.00 249.00" xmlns="http://www.w3.org/2000/svg" xmlns:xlink="http://www.w3.org/1999/xlink">
<g id="graph0" class="graph" transform="scale(1 1) rotate(0) translate(4 245)">
<title>IMU::begin</title>
<polygon fill="#ffffff" stroke="transparent" points="-4,4 -4,-245 725,-245 725,4 -4,4"/>
<!-- Node2 -->
<g id="node1" class="node">
<title>Node2</title>
<polygon fill="#bfbfbf" stroke="#000000" points="0,-112.5 0,-129.5 69,-129.5 69,-112.5 0,-112.5"/>
<text text-anchor="middle" x="34.5" y="-119.1" font-family="DejaVuSansMono" font-size="8.00" fill="#000000">IMU::begin</text>
</g>
<!-- Node3 -->
<g id="node2" class="node">
<title>Node3</title>
<g id="a_node2"><a xlink:href="classIMU.html#a37694424e4502ffc69bbb6c540c1a400" target="_top" xlink:title="IMU::writeRegister">
<polygon fill="#ffffff" stroke="#000000" points="463,-112.5 463,-129.5 574,-129.5 574,-112.5 463,-112.5"/>
<text text-anchor="middle" x="518.5" y="-119.1" font-family="DejaVuSansMono" font-size="8.00" fill="#000000">IMU::writeRegister</text>
</a>
</g>
</g>
<!-- Node2&#45;&gt;Node3 -->
<g id="edge1" class="edge">
<title>Node2&#45;&gt;Node3</title>
<path fill="none" stroke="#191970" d="M69.3081,-121C149.5438,-121 348.5617,-121 452.6631,-121"/>
<polygon fill="#191970" stroke="#191970" points="452.7392,-124.5001 462.7391,-121 452.7391,-117.5001 452.7392,-124.5001"/>
</g>
<!-- Node5 -->
<g id="node4" class="node">
<title>Node5</title>
<g id="a_node4"><a xlink:href="classIMU.html#af3b90e0b20d4bd55091be99f7aa67737" target="_top" xlink:title="IMU::writeAK8963Register">
<polygon fill="#ffffff" stroke="#000000" points="105,-149.5 105,-166.5 248,-166.5 248,-149.5 105,-149.5"/>
<text text-anchor="middle" x="176.5" y="-156.1" font-family="DejaVuSansMono" font-size="8.00" fill="#000000">IMU::writeAK8963Register</text>
</a>
</g>
</g>
<!-- Node2&#45;&gt;Node5 -->
<g id="edge3" class="edge">
<title>Node2&#45;&gt;Node5</title>
<path fill="none" stroke="#191970" d="M67.4346,-129.5815C87.2386,-134.7418 112.6525,-141.3637 133.9652,-146.917"/>
<polygon fill="#191970" stroke="#191970" points="133.1846,-150.3304 143.744,-149.465 134.9497,-143.5566 133.1846,-150.3304"/>
</g>
<!-- Node6 -->
<g id="node5" class="node">
<title>Node6</title>
<g id="a_node5"><a xlink:href="classIMU.html#a914f8b4262fba70e6d8fd0e584fa7996" target="_top" xlink:title="IMU::readAK8963Registers">
<polygon fill="#ffffff" stroke="#000000" points="284,-187.5 284,-204.5 427,-204.5 427,-187.5 284,-187.5"/>
<text text-anchor="middle" x="355.5" y="-194.1" font-family="DejaVuSansMono" font-size="8.00" fill="#000000">IMU::readAK8963Registers</text>
</a>
</g>
</g>
<!-- Node2&#45;&gt;Node6 -->
<g id="edge16" class="edge">
<title>Node2&#45;&gt;Node6</title>
<path fill="none" stroke="#191970" d="M42.1666,-129.5618C54.1451,-142.278 78.6701,-165.7545 105,-176 158.6332,-196.8698 223.5056,-201.5423 273.794,-201.1685"/>
<polygon fill="#191970" stroke="#191970" points="274.0226,-204.6657 283.9715,-201.0231 273.9225,-197.6664 274.0226,-204.6657"/>
</g>
<!-- Node7 -->
<g id="node6" class="node">
<title>Node7</title>
<g id="a_node6"><a xlink:href="classIMU.html#a5567bbe0d211f1e6d386eb69ffd960a7" target="_top" xlink:title="IMU::setAccelRange">
<polygon fill="#ffffff" stroke="#000000" points="300,-37.5 300,-54.5 411,-54.5 411,-37.5 300,-37.5"/>
<text text-anchor="middle" x="355.5" y="-44.1" font-family="DejaVuSansMono" font-size="8.00" fill="#000000">IMU::setAccelRange</text>
</a>
</g>
</g>
<!-- Node2&#45;&gt;Node7 -->
<g id="edge8" class="edge">
<title>Node2&#45;&gt;Node7</title>
<path fill="none" stroke="#191970" d="M42.1666,-112.4382C54.1451,-99.722 78.6701,-76.2455 105,-66 164.4627,-42.8618 237.7406,-39.6334 289.6419,-41.1179"/>
<polygon fill="#191970" stroke="#191970" points="289.6096,-44.6188 299.7267,-41.4731 289.8561,-37.6232 289.6096,-44.6188"/>
</g>
<!-- Node8 -->
<g id="node7" class="node">
<title>Node8</title>
<g id="a_node7"><a xlink:href="classIMU.html#a834f21762003f831e5e632cc7974ba75" target="_top" xlink:title="IMU::setGyroRange">
<polygon fill="#ffffff" stroke="#000000" points="302.5,-.5 302.5,-17.5 408.5,-17.5 408.5,-.5 302.5,-.5"/>
<text text-anchor="middle" x="355.5" y="-7.1" font-family="DejaVuSansMono" font-size="8.00" fill="#000000">IMU::setGyroRange</text>
</a>
</g>
</g>
<!-- Node2&#45;&gt;Node8 -->
<g id="edge10" class="edge">
<title>Node2&#45;&gt;Node8</title>
<path fill="none" stroke="#191970" d="M38.74,-112.4943C48.0132,-94.9088 71.9408,-54.7156 105,-37 162.857,-5.9958 238.9152,-1.7116 291.9814,-3.4794"/>
<polygon fill="#191970" stroke="#191970" points="292.1391,-6.9889 302.2759,-3.9075 292.43,.0051 292.1391,-6.9889"/>
</g>
<!-- Node9 -->
<g id="node8" class="node">
<title>Node9</title>
<g id="a_node8"><a xlink:href="classIMU.html#a928fa5e2db05bd402a3fa93bd3584527" target="_top" xlink:title="IMU::setDlpfBandwidth">
<polygon fill="#ffffff" stroke="#000000" points="113,-75.5 113,-92.5 240,-92.5 240,-75.5 113,-75.5"/>
<text text-anchor="middle" x="176.5" y="-82.1" font-family="DejaVuSansMono" font-size="8.00" fill="#000000">IMU::setDlpfBandwidth</text>
</a>
</g>
</g>
<!-- Node2&#45;&gt;Node9 -->
<g id="edge12" class="edge">
<title>Node2&#45;&gt;Node9</title>
<path fill="none" stroke="#191970" d="M67.4346,-112.4185C87.2386,-107.2582 112.6525,-100.6363 133.9652,-95.083"/>
<polygon fill="#191970" stroke="#191970" points="134.9497,-98.4434 143.744,-92.535 133.1846,-91.6696 134.9497,-98.4434"/>
</g>
<!-- Node10 -->
<g id="node9" class="node">
<title>Node10</title>
<g id="a_node9"><a xlink:href="classIMU.html#acd2af48f4eb0a0321080332016e3c1f7" target="_top" xlink:title="IMU::whoAmIAK8963">
<polygon fill="#ffffff" stroke="#000000" points="123.5,-223.5 123.5,-240.5 229.5,-240.5 229.5,-223.5 123.5,-223.5"/>
<text text-anchor="middle" x="176.5" y="-230.1" font-family="DejaVuSansMono" font-size="8.00" fill="#000000">IMU::whoAmIAK8963</text>
</a>
</g>
</g>
<!-- Node2&#45;&gt;Node10 -->
<g id="edge14" class="edge">
<title>Node2&#45;&gt;Node10</title>
<path fill="none" stroke="#191970" d="M39.0959,-129.6486C48.8637,-147.2119 73.4043,-187.2311 105,-209 111.493,-213.4736 118.9078,-217.117 126.4468,-220.0729"/>
<polygon fill="#191970" stroke="#191970" points="125.4077,-223.4179 136.0024,-223.46 127.7464,-216.8201 125.4077,-223.4179"/>
</g>
<!-- Node4 -->
<g id="node3" class="node">
<title>Node4</title>
<g id="a_node3"><a xlink:href="classIMU.html#a87c200faa130ff4d2d3416b2d83f4f49" target="_top" xlink:title="IMU::readRegisters">
<polygon fill="#ffffff" stroke="#000000" points="610,-130.5 610,-147.5 721,-147.5 721,-130.5 610,-130.5"/>
<text text-anchor="middle" x="665.5" y="-137.1" font-family="DejaVuSansMono" font-size="8.00" fill="#000000">IMU::readRegisters</text>
</a>
</g>
</g>
<!-- Node3&#45;&gt;Node4 -->
<g id="edge2" class="edge">
<title>Node3&#45;&gt;Node4</title>
<path fill="none" stroke="#191970" d="M574.0744,-127.805C582.4894,-128.8354 591.2383,-129.9067 599.8421,-130.9603"/>
<polygon fill="#191970" stroke="#191970" points="599.4957,-134.4439 609.847,-132.1853 600.3466,-127.4958 599.4957,-134.4439"/>
</g>
<!-- Node5&#45;&gt;Node3 -->
<g id="edge4" class="edge">
<title>Node5&#45;&gt;Node3</title>
<path fill="none" stroke="#191970" d="M248.1569,-152.5745C298.3182,-148.4945 366.8525,-142.3559 427,-135 436.4712,-133.8417 446.471,-132.4676 456.2449,-131.0401"/>
<polygon fill="#191970" stroke="#191970" points="456.9416,-134.475 466.3168,-129.54 455.9103,-127.5514 456.9416,-134.475"/>
</g>
<!-- Node5&#45;&gt;Node6 -->
<g id="edge5" class="edge">
<title>Node5&#45;&gt;Node6</title>
<path fill="none" stroke="#191970" d="M216.6711,-166.5279C242.8348,-172.0822 277.1776,-179.3729 305.1594,-185.3132"/>
<polygon fill="#191970" stroke="#191970" points="304.6448,-188.7819 315.1537,-187.4349 306.0985,-181.9345 304.6448,-188.7819"/>
</g>
<!-- Node6&#45;&gt;Node3 -->
<g id="edge6" class="edge">
<title>Node6&#45;&gt;Node3</title>
<path fill="none" stroke="#191970" d="M386.9873,-187.3995C399.6398,-183.5517 414.2263,-178.6128 427,-173 451.786,-162.109 478.5329,-146.405 496.6673,-135.1081"/>
<polygon fill="#191970" stroke="#191970" points="498.7227,-137.9497 505.3094,-129.6511 494.9853,-132.0309 498.7227,-137.9497"/>
</g>
<!-- Node6&#45;&gt;Node4 -->
<g id="edge7" class="edge">
<title>Node6&#45;&gt;Node4</title>
<path fill="none" stroke="#191970" d="M401.9101,-187.4665C457.2353,-177.2938 549.6534,-160.3008 609.061,-149.3775"/>
<polygon fill="#191970" stroke="#191970" points="609.8242,-152.7959 619.0263,-147.5452 608.5583,-145.9113 609.8242,-152.7959"/>
</g>
<!-- Node7&#45;&gt;Node3 -->
<g id="edge9" class="edge">
<title>Node7&#45;&gt;Node3</title>
<path fill="none" stroke="#191970" d="M386.9873,-54.6005C399.6398,-58.4483 414.2263,-63.3872 427,-69 451.786,-79.891 478.5329,-95.595 496.6673,-106.8919"/>
<polygon fill="#191970" stroke="#191970" points="494.9853,-109.9691 505.3094,-112.3489 498.7227,-104.0503 494.9853,-109.9691"/>
</g>
<!-- Node8&#45;&gt;Node3 -->
<g id="edge11" class="edge">
<title>Node8&#45;&gt;Node3</title>
<path fill="none" stroke="#191970" d="M402.3295,-17.588C410.8654,-20.2118 419.4495,-23.6101 427,-28 460.7731,-47.6357 490.5716,-83.0274 506.4209,-104.0314"/>
<polygon fill="#191970" stroke="#191970" points="503.7656,-106.3285 512.5084,-112.3131 509.4058,-102.1827 503.7656,-106.3285"/>
</g>
<!-- Node9&#45;&gt;Node3 -->
<g id="edge13" class="edge">
<title>Node9&#45;&gt;Node3</title>
<path fill="none" stroke="#191970" d="M240.1879,-88.7821C290.8846,-92.8454 363.6013,-99.2465 427,-107 436.4712,-108.1583 446.471,-109.5324 456.2449,-110.9599"/>
<polygon fill="#191970" stroke="#191970" points="455.9103,-114.4486 466.3168,-112.46 456.9416,-107.525 455.9103,-114.4486"/>
</g>
<!-- Node10&#45;&gt;Node6 -->
<g id="edge15" class="edge">
<title>Node10&#45;&gt;Node6</title>
<path fill="none" stroke="#191970" d="M218.9205,-223.4685C244.1305,-218.3983 276.3073,-211.927 303.0965,-206.5392"/>
<polygon fill="#191970" stroke="#191970" points="303.9606,-209.9356 313.0742,-204.5326 302.5804,-203.073 303.9606,-209.9356"/>
</g>
</g>
</svg>
