<?xml version="1.0" encoding="UTF-8" standalone="no"?>
<!DOCTYPE svg PUBLIC "-//W3C//DTD SVG 1.1//EN"
 "http://www.w3.org/Graphics/SVG/1.1/DTD/svg11.dtd">
<!-- Generated by graphviz version 2.40.1 (20161225.0304)
 -->
<!-- Title: IMU::setDlpfBandwidth Pages: 1 -->
<svg width="450pt" height="26pt"
 viewBox="0.00 0.00 450.00 26.00" xmlns="http://www.w3.org/2000/svg" xmlns:xlink="http://www.w3.org/1999/xlink">
<g id="graph0" class="graph" transform="scale(1 1) rotate(0) translate(4 22)">
<title>IMU::setDlpfBandwidth</title>
<polygon fill="#ffffff" stroke="transparent" points="-4,4 -4,-22 446,-22 446,4 -4,4"/>
<!-- Node80 -->
<g id="node1" class="node">
<title>Node80</title>
<polygon fill="#bfbfbf" stroke="#000000" points="0,-.5 0,-17.5 127,-17.5 127,-.5 0,-.5"/>
<text text-anchor="middle" x="63.5" y="-7.1" font-family="DejaVuSansMono" font-size="8.00" fill="#000000">IMU::setDlpfBandwidth</text>
</g>
<!-- Node81 -->
<g id="node2" class="node">
<title>Node81</title>
<g id="a_node2"><a xlink:href="classIMU.html#ae0d964d2f8ec122be068c41b84bc18a8" target="_top" xlink:title="IMU::begin">
<polygon fill="#ffffff" stroke="#000000" points="163,-.5 163,-17.5 232,-17.5 232,-.5 163,-.5"/>
<text text-anchor="middle" x="197.5" y="-7.1" font-family="DejaVuSansMono" font-size="8.00" fill="#000000">IMU::begin</text>
</a>
</g>
</g>
<!-- Node80&#45;&gt;Node81 -->
<g id="edge1" class="edge">
<title>Node80&#45;&gt;Node81</title>
<path fill="none" stroke="#191970" d="M137.4221,-9C146.3021,-9 155.0181,-9 162.9372,-9"/>
<polygon fill="#191970" stroke="#191970" points="137.3604,-5.5001 127.3604,-9 137.3604,-12.5001 137.3604,-5.5001"/>
</g>
<!-- Node82 -->
<g id="node3" class="node">
<title>Node82</title>
<g id="a_node3"><a xlink:href="classekf_1_1EKF.html#af52f661717f56b3deee7b4f42ba80dc5" target="_top" xlink:title="Inicializacao do filtro de Kalman. ">
<polygon fill="#ffffff" stroke="#000000" points="268,-.5 268,-17.5 363,-17.5 363,-.5 268,-.5"/>
<text text-anchor="middle" x="315.5" y="-7.1" font-family="DejaVuSansMono" font-size="8.00" fill="#000000">ekf::EKF::begin</text>
</a>
</g>
</g>
<!-- Node81&#45;&gt;Node82 -->
<g id="edge2" class="edge">
<title>Node81&#45;&gt;Node82</title>
<path fill="none" stroke="#191970" d="M242.5115,-9C250.8078,-9 259.4956,-9 267.8663,-9"/>
<polygon fill="#191970" stroke="#191970" points="242.2657,-5.5001 232.2657,-9 242.2656,-12.5001 242.2657,-5.5001"/>
</g>
<!-- Node83 -->
<g id="node4" class="node">
<title>Node83</title>
<g id="a_node4"><a xlink:href="main_8cpp.html#a4fc01d736fe50cf5b977f755b675f11d" target="_top" xlink:title="setup">
<polygon fill="#ffffff" stroke="#000000" points="399,-.5 399,-17.5 442,-17.5 442,-.5 399,-.5"/>
<text text-anchor="middle" x="420.5" y="-7.1" font-family="DejaVuSansMono" font-size="8.00" fill="#000000">setup</text>
</a>
</g>
</g>
<!-- Node82&#45;&gt;Node83 -->
<g id="edge3" class="edge">
<title>Node82&#45;&gt;Node83</title>
<path fill="none" stroke="#191970" d="M373.3476,-9C382.4085,-9 391.2548,-9 398.7917,-9"/>
<polygon fill="#191970" stroke="#191970" points="373.0846,-5.5001 363.0845,-9 373.0845,-12.5001 373.0846,-5.5001"/>
</g>
</g>
</svg>
