<?xml version="1.0" encoding="UTF-8" standalone="no"?>
<!DOCTYPE svg PUBLIC "-//W3C//DTD SVG 1.1//EN"
 "http://www.w3.org/Graphics/SVG/1.1/DTD/svg11.dtd">
<!-- Generated by graphviz version 2.40.1 (20161225.0304)
 -->
<!-- Title: TELEMETRIA::begin Pages: 1 -->
<svg width="450pt" height="45pt"
 viewBox="0.00 0.00 450.00 45.00" xmlns="http://www.w3.org/2000/svg" xmlns:xlink="http://www.w3.org/1999/xlink">
<g id="graph0" class="graph" transform="scale(1 1) rotate(0) translate(4 41)">
<title>TELEMETRIA::begin</title>
<polygon fill="#ffffff" stroke="transparent" points="-4,4 -4,-41 446,-41 446,4 -4,4"/>
<!-- Node13 -->
<g id="node1" class="node">
<title>Node13</title>
<polygon fill="#bfbfbf" stroke="#000000" points="0,-.5 0,-17.5 106,-17.5 106,-.5 0,-.5"/>
<text text-anchor="middle" x="53" y="-7.1" font-family="DejaVuSansMono" font-size="8.00" fill="#000000">TELEMETRIA::begin</text>
</g>
<!-- Node14 -->
<g id="node2" class="node">
<title>Node14</title>
<g id="a_node2"><a xlink:href="classTELEMETRIA.html#ae47c01609eec8284a663dd66e0d7c632" target="_top" xlink:title="TELEMETRIA::TELEMETRIA">
<polygon fill="#ffffff" stroke="#000000" points="142,-19.5 142,-36.5 274,-36.5 274,-19.5 142,-19.5"/>
<text text-anchor="middle" x="208" y="-26.1" font-family="DejaVuSansMono" font-size="8.00" fill="#000000">TELEMETRIA::TELEMETRIA</text>
</a>
</g>
</g>
<!-- Node13&#45;&gt;Node14 -->
<g id="edge1" class="edge">
<title>Node13&#45;&gt;Node14</title>
<path fill="none" stroke="#191970" d="M116.4592,-16.7789C124.8689,-17.8097 133.5068,-18.8686 141.9587,-19.9046"/>
<polygon fill="#191970" stroke="#191970" points="116.6938,-13.2815 106.3422,-15.5387 115.842,-20.2295 116.6938,-13.2815"/>
</g>
<!-- Node15 -->
<g id="node3" class="node">
<title>Node15</title>
<g id="a_node3"><a xlink:href="classTELEMETRIA.html#ace27ccd5888ebc3802a4eb22cc3fd9da" target="_top" xlink:title="TELEMETRIA::OnDataRecv">
<polygon fill="#ffffff" stroke="#000000" points="310,-.5 310,-17.5 442,-17.5 442,-.5 310,-.5"/>
<text text-anchor="middle" x="376" y="-7.1" font-family="DejaVuSansMono" font-size="8.00" fill="#000000">TELEMETRIA::OnDataRecv</text>
</a>
</g>
</g>
<!-- Node14&#45;&gt;Node15 -->
<g id="edge2" class="edge">
<title>Node14&#45;&gt;Node15</title>
<path fill="none" stroke="#191970" d="M284.5946,-19.3375C293.0134,-18.3854 301.5322,-17.422 309.8092,-16.4859"/>
<polygon fill="#191970" stroke="#191970" points="283.9413,-15.889 274.398,-20.4907 284.7281,-22.8447 283.9413,-15.889"/>
</g>
<!-- Node15&#45;&gt;Node13 -->
<g id="edge3" class="edge">
<title>Node15&#45;&gt;Node13</title>
<path fill="none" stroke="#191970" d="M299.615,-9C240.1077,-9 159.0149,-9 106.3369,-9"/>
<polygon fill="#191970" stroke="#191970" points="299.7164,-12.5001 309.7163,-9 299.7163,-5.5001 299.7164,-12.5001"/>
</g>
</g>
</svg>
