<?xml version="1.0" encoding="UTF-8" standalone="no"?>
<!DOCTYPE svg PUBLIC "-//W3C//DTD SVG 1.1//EN"
 "http://www.w3.org/Graphics/SVG/1.1/DTD/svg11.dtd">
<!-- Generated by graphviz version 2.40.1 (20161225.0304)
 -->
<!-- Title: METODOSCALIBRACAO::calibracaoGeometrica Pages: 1 -->
<svg width="603pt" height="35pt"
 viewBox="0.00 0.00 603.00 35.00" xmlns="http://www.w3.org/2000/svg" xmlns:xlink="http://www.w3.org/1999/xlink">
<g id="graph0" class="graph" transform="scale(1 1) rotate(0) translate(4 31)">
<title>METODOSCALIBRACAO::calibracaoGeometrica</title>
<polygon fill="#ffffff" stroke="transparent" points="-4,4 -4,-31 599,-31 599,4 -4,4"/>
<!-- Node3 -->
<g id="node1" class="node">
<title>Node3</title>
<polygon fill="#bfbfbf" stroke="#000000" points="0,-.5 0,-26.5 122,-26.5 122,-.5 0,-.5"/>
<text text-anchor="start" x="8" y="-16.1" font-family="DejaVuSansMono" font-size="8.00" fill="#000000">METODOSCALIBRACAO::</text>
<text text-anchor="middle" x="61" y="-7.1" font-family="DejaVuSansMono" font-size="8.00" fill="#000000">calibracaoGeometrica</text>
</g>
<!-- Node4 -->
<g id="node2" class="node">
<title>Node4</title>
<g id="a_node2"><a xlink:href="classIMU.html#a3546779010d9128859f465195eff77f5" target="_top" xlink:title="IMU::calibracaoMagnetometro">
<polygon fill="#ffffff" stroke="#000000" points="158,-5 158,-22 316,-22 316,-5 158,-5"/>
<text text-anchor="middle" x="237" y="-11.6" font-family="DejaVuSansMono" font-size="8.00" fill="#000000">IMU::calibracaoMagnetometro</text>
</a>
</g>
</g>
<!-- Node3&#45;&gt;Node4 -->
<g id="edge1" class="edge">
<title>Node3&#45;&gt;Node4</title>
<path fill="none" stroke="#191970" d="M132.1986,-13.5C140.6129,-13.5 149.2401,-13.5 157.7568,-13.5"/>
<polygon fill="#191970" stroke="#191970" points="132.0624,-10.0001 122.0623,-13.5 132.0623,-17.0001 132.0624,-10.0001"/>
</g>
<!-- Node5 -->
<g id="node3" class="node">
<title>Node5</title>
<g id="a_node3"><a xlink:href="classekf_1_1EKF.html#aecdea0922a84bc38cdd78e86657d6ae9" target="_top" xlink:title="ekf::EKF::calibrationMethods">
<polygon fill="#ffffff" stroke="#000000" points="352,-5 352,-22 516,-22 516,-5 352,-5"/>
<text text-anchor="middle" x="434" y="-11.6" font-family="DejaVuSansMono" font-size="8.00" fill="#000000">ekf::EKF::calibrationMethods</text>
</a>
</g>
</g>
<!-- Node4&#45;&gt;Node5 -->
<g id="edge2" class="edge">
<title>Node4&#45;&gt;Node5</title>
<path fill="none" stroke="#191970" d="M326.553,-13.5C335.0286,-13.5 343.5933,-13.5 351.9932,-13.5"/>
<polygon fill="#191970" stroke="#191970" points="326.2759,-10.0001 316.2759,-13.5 326.2759,-17.0001 326.2759,-10.0001"/>
</g>
<!-- Node6 -->
<g id="node4" class="node">
<title>Node6</title>
<g id="a_node4"><a xlink:href="main_8cpp.html#a4fc01d736fe50cf5b977f755b675f11d" target="_top" xlink:title="setup">
<polygon fill="#ffffff" stroke="#000000" points="552,-5 552,-22 595,-22 595,-5 552,-5"/>
<text text-anchor="middle" x="573.5" y="-11.6" font-family="DejaVuSansMono" font-size="8.00" fill="#000000">setup</text>
</a>
</g>
</g>
<!-- Node5&#45;&gt;Node6 -->
<g id="edge3" class="edge">
<title>Node5&#45;&gt;Node6</title>
<path fill="none" stroke="#191970" d="M526.627,-13.5C535.9048,-13.5 544.5753,-13.5 551.8741,-13.5"/>
<polygon fill="#191970" stroke="#191970" points="526.3575,-10.0001 516.3575,-13.5 526.3575,-17.0001 526.3575,-10.0001"/>
</g>
</g>
</svg>
