<?xml version="1.0" encoding="UTF-8" standalone="no"?>
<!DOCTYPE svg PUBLIC "-//W3C//DTD SVG 1.1//EN"
 "http://www.w3.org/Graphics/SVG/1.1/DTD/svg11.dtd">
<!-- Generated by graphviz version 2.40.1 (20161225.0304)
 -->
<!-- Title: ekf::EKF::temporalPrediction Pages: 1 -->
<!--zoomable 208 -->
<svg id="main" version="1.1" xmlns="http://www.w3.org/2000/svg" xmlns:xlink="http://www.w3.org/1999/xlink" xml:space="preserve" onload="init(evt)">
<style type="text/css"><![CDATA[
.edge:hover path { stroke: red; }
.edge:hover polygon { stroke: red; fill: red; }
]]></style>
<script type="text/javascript"><![CDATA[
var edges = document.getElementsByTagName('g');
if (edges && edges.length) {
  for (var i=0;i<edges.length;i++) {
    if (edges[i].id.substr(0,4)=='edge') {
      edges[i].setAttribute('class','edge');
    }
  }
}
]]></script>
        <defs>
                <circle id="rim" cx="0" cy="0" r="7"/>
                <circle id="rim2" cx="0" cy="0" r="3.5"/>
                <g id="zoomPlus">
                        <use xlink:href="#rim" fill="#404040">
                                <set attributeName="fill" to="#808080" begin="zoomplus.mouseover" end="zoomplus.mouseout"/>
                        </use>
                        <path d="M-4,0h8M0,-4v8" fill="none" stroke="white" stroke-width="1.5" pointer-events="none"/>
                </g>
                <g id="zoomMin">
                        <use xlink:href="#rim" fill="#404040">
                                <set attributeName="fill" to="#808080" begin="zoomminus.mouseover" end="zoomminus.mouseout"/>
                        </use>
                        <path d="M-4,0h8" fill="none" stroke="white" stroke-width="1.5" pointer-events="none"/>
                </g>
                <g id="dirArrow">
                        <path fill="none" stroke="white" stroke-width="1.5" d="M0,-3.0v7 M-2.5,-0.5L0,-3.0L2.5,-0.5"/>
                </g>
               <g id="resetDef">
                       <use xlink:href="#rim2" fill="#404040">
                               <set attributeName="fill" to="#808080" begin="reset.mouseover" end="reset.mouseout"/>
                       </use>
               </g>
        </defs>

<script type="text/javascript">
var viewWidth = 734;
var viewHeight = 208;
var sectionId = 'dynsection-11';
</script>
<script xlink:href="svgpan.js"/>
<svg id="graph" class="graph">
<g id="viewport">
<title>ekf::EKF::temporalPrediction</title>
<polygon fill="#ffffff" stroke="transparent" points="-4,4 -4,-204 730,-204 730,4 -4,4"/>
<!-- Node68 -->
<g id="node1" class="node">
<title>Node68</title>
<polygon fill="#bfbfbf" stroke="#000000" points="0,-72.5 0,-89.5 164,-89.5 164,-72.5 0,-72.5"/>
<text text-anchor="middle" x="82" y="-79.1" font-family="DejaVuSansMono" font-size="8.00" fill="#000000">ekf::EKF::temporalPrediction</text>
</g>
<!-- Node69 -->
<g id="node2" class="node">
<title>Node69</title>
<g id="a_node2"><a xlink:href="namespaceekf.html#ac031eda654b199bd45807eed2acdb3ec" target="_top" xlink:title="ekf::computeMcdFromQuaternion">
<polygon fill="#ffffff" stroke="#000000" points="410,-72.5 410,-89.5 579,-89.5 579,-72.5 410,-72.5"/>
<text text-anchor="middle" x="494.5" y="-79.1" font-family="DejaVuSansMono" font-size="8.00" fill="#000000">ekf::computeMcdFromQuaternion</text>
</a>
</g>
</g>
<!-- Node68&#45;&gt;Node69 -->
<g id="edge1" class="edge">
<title>Node68&#45;&gt;Node69</title>
<path fill="none" stroke="#191970" d="M127.2039,-89.5358C149.0982,-93.2493 175.8234,-97.1666 200,-99 277.1119,-104.8476 296.8791,-104.7283 374,-99 395.1131,-97.4318 418.1367,-94.3383 438.3494,-91.152"/>
<polygon fill="#191970" stroke="#191970" points="439.0187,-94.5893 448.3308,-89.536 437.8999,-87.6793 439.0187,-94.5893"/>
</g>
<!-- Node71 -->
<g id="node4" class="node">
<title>Node71</title>
<g id="a_node4"><a xlink:href="classekf_1_1EKF.html#a84048d25ebfb6431d7b1372b7315a7a3" target="_top" xlink:title="Atualiza a medicao a partir dos sensores da unidade Margin e GPS. ">
<polygon fill="#ffffff" stroke="#000000" points="200,-146.5 200,-163.5 374,-163.5 374,-146.5 200,-146.5"/>
<text text-anchor="middle" x="287" y="-153.1" font-family="DejaVuSansMono" font-size="8.00" fill="#000000">ekf::EKF::updateOfMeasurements</text>
</a>
</g>
</g>
<!-- Node68&#45;&gt;Node71 -->
<g id="edge3" class="edge">
<title>Node68&#45;&gt;Node71</title>
<path fill="none" stroke="#191970" d="M99.6626,-89.6244C122.4529,-100.5207 163.5141,-119.3718 200,-132 212.8237,-136.4384 226.9609,-140.5128 240.044,-143.9591"/>
<polygon fill="#191970" stroke="#191970" points="239.2475,-147.3681 249.804,-146.4678 240.9902,-140.5885 239.2475,-147.3681"/>
</g>
<!-- Node79 -->
<g id="node12" class="node">
<title>Node79</title>
<g id="a_node12"><a xlink:href="namespaceekf.html#a13baef64e88517a1c0af97c5bfb32787" target="_top" xlink:title="ekf::computeVectorProjection">
<polygon fill="#ffffff" stroke="#000000" points="205,-72.5 205,-89.5 369,-89.5 369,-72.5 205,-72.5"/>
<text text-anchor="middle" x="287" y="-79.1" font-family="DejaVuSansMono" font-size="8.00" fill="#000000">ekf::computeVectorProjection</text>
</a>
</g>
</g>
<!-- Node68&#45;&gt;Node79 -->
<g id="edge11" class="edge">
<title>Node68&#45;&gt;Node79</title>
<path fill="none" stroke="#191970" d="M164.2001,-81C174.2254,-81 184.5205,-81 194.6809,-81"/>
<polygon fill="#191970" stroke="#191970" points="194.7815,-84.5001 204.7814,-81 194.7814,-77.5001 194.7815,-84.5001"/>
</g>
<!-- Node80 -->
<g id="node13" class="node">
<title>Node80</title>
<g id="a_node13"><a xlink:href="classekf_1_1EKF.html#ad5949e9e8eae2938a332af03a8ec353b" target="_top" xlink:title="ekf::EKF::updatefi">
<polygon fill="#ffffff" stroke="#000000" points="231.5,-.5 231.5,-17.5 342.5,-17.5 342.5,-.5 231.5,-.5"/>
<text text-anchor="middle" x="287" y="-7.1" font-family="DejaVuSansMono" font-size="8.00" fill="#000000">ekf::EKF::updatefi</text>
</a>
</g>
</g>
<!-- Node68&#45;&gt;Node80 -->
<g id="edge12" class="edge">
<title>Node68&#45;&gt;Node80</title>
<path fill="none" stroke="#191970" d="M97.5745,-72.4928C119.729,-60.715 161.8908,-39.4853 200,-27 208.3067,-24.2786 217.1991,-21.88 226.011,-19.7946"/>
<polygon fill="#191970" stroke="#191970" points="226.9018,-23.1817 235.8901,-17.5727 225.3657,-16.3523 226.9018,-23.1817"/>
</g>
<!-- Node82 -->
<g id="node15" class="node">
<title>Node82</title>
<g id="a_node15"><a xlink:href="classekf_1_1EKF.html#a4bd0d4a6ec2787cf1c690fcf154a43c5" target="_top" xlink:title="ekf::EKF::integrationOfStates">
<polygon fill="#ffffff" stroke="#000000" points="202.5,-36.5 202.5,-53.5 371.5,-53.5 371.5,-36.5 202.5,-36.5"/>
<text text-anchor="middle" x="287" y="-43.1" font-family="DejaVuSansMono" font-size="8.00" fill="#000000">ekf::EKF::integrationOfStates</text>
</a>
</g>
</g>
<!-- Node68&#45;&gt;Node82 -->
<g id="edge15" class="edge">
<title>Node68&#45;&gt;Node82</title>
<path fill="none" stroke="#191970" d="M130.5821,-72.4685C159.8355,-67.3313 197.2799,-60.7557 228.198,-55.3262"/>
<polygon fill="#191970" stroke="#191970" points="229.1679,-58.7095 238.4118,-53.5326 227.9571,-51.815 229.1679,-58.7095"/>
</g>
<!-- Node70 -->
<g id="node3" class="node">
<title>Node70</title>
<g id="a_node3"><a xlink:href="namespaceekf.html#af3f0a631343e55ec8b42f3fbea182461" target="_top" xlink:title="Matrix antissimetrica. ">
<polygon fill="#ffffff" stroke="#000000" points="638.5,-19.5 638.5,-36.5 702.5,-36.5 702.5,-19.5 638.5,-19.5"/>
<text text-anchor="middle" x="670.5" y="-26.1" font-family="DejaVuSansMono" font-size="8.00" fill="#000000">ekf::skew</text>
</a>
</g>
</g>
<!-- Node69&#45;&gt;Node70 -->
<g id="edge2" class="edge">
<title>Node69&#45;&gt;Node70</title>
<path fill="none" stroke="#191970" d="M540.8745,-72.4763C553.3515,-69.8159 566.7743,-66.6165 579,-63 600.3295,-56.6905 623.7459,-47.6932 641.5504,-40.401"/>
<polygon fill="#191970" stroke="#191970" points="642.9227,-43.6209 650.8155,-36.5531 640.2378,-37.1563 642.9227,-43.6209"/>
</g>
<!-- Node72 -->
<g id="node5" class="node">
<title>Node72</title>
<g id="a_node5"><a xlink:href="classIMU.html#ac574728dbbc752155239a35c8bbd6e79" target="_top" xlink:title="IMU::readSensor">
<polygon fill="#ffffff" stroke="#000000" points="447,-182.5 447,-199.5 542,-199.5 542,-182.5 447,-182.5"/>
<text text-anchor="middle" x="494.5" y="-189.1" font-family="DejaVuSansMono" font-size="8.00" fill="#000000">IMU::readSensor</text>
</a>
</g>
</g>
<!-- Node71&#45;&gt;Node72 -->
<g id="edge4" class="edge">
<title>Node71&#45;&gt;Node72</title>
<path fill="none" stroke="#191970" d="M336.1746,-163.5315C366.346,-168.7661 405.1257,-175.4941 436.7534,-180.9813"/>
<polygon fill="#191970" stroke="#191970" points="436.2997,-184.4548 446.7508,-182.7158 437.4963,-177.5578 436.2997,-184.4548"/>
</g>
<!-- Node74 -->
<g id="node7" class="node">
<title>Node74</title>
<g id="a_node7"><a xlink:href="classTIME.html#a51b6020daf09773ef3948cf6b9ccd736" target="_top" xlink:title="Retorna o valor do tempo decorrido desde a última requisição. ">
<polygon fill="#ffffff" stroke="#000000" points="423,-146.5 423,-163.5 566,-163.5 566,-146.5 423,-146.5"/>
<text text-anchor="middle" x="494.5" y="-153.1" font-family="DejaVuSansMono" font-size="8.00" fill="#000000">TIME::computeElapsedTime</text>
</a>
</g>
</g>
<!-- Node71&#45;&gt;Node74 -->
<g id="edge6" class="edge">
<title>Node71&#45;&gt;Node74</title>
<path fill="none" stroke="#191970" d="M374.0968,-155C386.8737,-155 399.9965,-155 412.6628,-155"/>
<polygon fill="#191970" stroke="#191970" points="412.7078,-158.5001 422.7077,-155 412.7077,-151.5001 412.7078,-158.5001"/>
</g>
<!-- Node75 -->
<g id="node8" class="node">
<title>Node75</title>
<g id="a_node8"><a xlink:href="GPS_8h.html#ad604e63cc857e5663dfba96c37c66bc7" target="_top" xlink:title="processGPS">
<polygon fill="#ffffff" stroke="#000000" points="460,-110.5 460,-127.5 529,-127.5 529,-110.5 460,-110.5"/>
<text text-anchor="middle" x="494.5" y="-117.1" font-family="DejaVuSansMono" font-size="8.00" fill="#000000">processGPS</text>
</a>
</g>
</g>
<!-- Node71&#45;&gt;Node75 -->
<g id="edge7" class="edge">
<title>Node71&#45;&gt;Node75</title>
<path fill="none" stroke="#191970" d="M336.1746,-146.4685C370.7124,-140.4764 416.5303,-132.5273 449.9877,-126.7226"/>
<polygon fill="#191970" stroke="#191970" points="450.6935,-130.1525 459.948,-124.9946 449.4969,-123.2556 450.6935,-130.1525"/>
</g>
<!-- Node73 -->
<g id="node6" class="node">
<title>Node73</title>
<g id="a_node6"><a xlink:href="classIMU.html#a87c200faa130ff4d2d3416b2d83f4f49" target="_top" xlink:title="IMU::readRegisters">
<polygon fill="#ffffff" stroke="#000000" points="615,-182.5 615,-199.5 726,-199.5 726,-182.5 615,-182.5"/>
<text text-anchor="middle" x="670.5" y="-189.1" font-family="DejaVuSansMono" font-size="8.00" fill="#000000">IMU::readRegisters</text>
</a>
</g>
</g>
<!-- Node72&#45;&gt;Node73 -->
<g id="edge5" class="edge">
<title>Node72&#45;&gt;Node73</title>
<path fill="none" stroke="#191970" d="M542.1281,-191C561.3753,-191 583.912,-191 604.6845,-191"/>
<polygon fill="#191970" stroke="#191970" points="604.7181,-194.5001 614.7181,-191 604.718,-187.5001 604.7181,-194.5001"/>
</g>
<!-- Node76 -->
<g id="node9" class="node">
<title>Node76</title>
<g id="a_node9"><a xlink:href="GPS_8h.html#a5d2ecd8f29f7e3e702c8b8bea333f6c6" target="_top" xlink:title="GPSSERIAL">
<polygon fill="#ffffff" stroke="#000000" points="638.5,-74.5 638.5,-91.5 702.5,-91.5 702.5,-74.5 638.5,-74.5"/>
<text text-anchor="middle" x="670.5" y="-81.1" font-family="DejaVuSansMono" font-size="8.00" fill="#000000">GPSSERIAL</text>
</a>
</g>
</g>
<!-- Node75&#45;&gt;Node76 -->
<g id="edge8" class="edge">
<title>Node75&#45;&gt;Node76</title>
<path fill="none" stroke="#191970" d="M529.2719,-111.8876C557.8035,-106.0516 598.2925,-97.7697 628.6078,-91.5689"/>
<polygon fill="#191970" stroke="#191970" points="629.3709,-94.9853 638.4666,-89.5523 627.9681,-88.1273 629.3709,-94.9853"/>
</g>
<!-- Node77 -->
<g id="node10" class="node">
<title>Node77</title>
<g id="a_node10"><a xlink:href="GPS_8h.html#aecde093c7427cc661daceaa118cf4455" target="_top" xlink:title="compareMsgHeader">
<polygon fill="#ffffff" stroke="#000000" points="620,-146.5 620,-163.5 721,-163.5 721,-146.5 620,-146.5"/>
<text text-anchor="middle" x="670.5" y="-153.1" font-family="DejaVuSansMono" font-size="8.00" fill="#000000">compareMsgHeader</text>
</a>
</g>
</g>
<!-- Node75&#45;&gt;Node77 -->
<g id="edge9" class="edge">
<title>Node75&#45;&gt;Node77</title>
<path fill="none" stroke="#191970" d="M529.2719,-126.1124C554.8118,-131.3365 589.933,-138.5204 618.7616,-144.4171"/>
<polygon fill="#191970" stroke="#191970" points="618.1716,-147.8689 628.6702,-146.4439 619.5744,-141.0109 618.1716,-147.8689"/>
</g>
<!-- Node78 -->
<g id="node11" class="node">
<title>Node78</title>
<g id="a_node11"><a xlink:href="GPS_8h.html#aa2fac937d6e192633f020459321241e7" target="_top" xlink:title="calcChecksum">
<polygon fill="#ffffff" stroke="#000000" points="630.5,-110.5 630.5,-127.5 710.5,-127.5 710.5,-110.5 630.5,-110.5"/>
<text text-anchor="middle" x="670.5" y="-117.1" font-family="DejaVuSansMono" font-size="8.00" fill="#000000">calcChecksum</text>
</a>
</g>
</g>
<!-- Node75&#45;&gt;Node78 -->
<g id="edge10" class="edge">
<title>Node75&#45;&gt;Node78</title>
<path fill="none" stroke="#191970" d="M529.2719,-119C555.1464,-119 590.8549,-119 619.8913,-119"/>
<polygon fill="#191970" stroke="#191970" points="620.2566,-122.5001 630.2565,-119 620.2565,-115.5001 620.2566,-122.5001"/>
</g>
<!-- Node81 -->
<g id="node14" class="node">
<title>Node81</title>
<g id="a_node14"><a xlink:href="classekf_1_1EKF.html#ae6c0295a32e90b9594ad10bb1061b62b" target="_top" xlink:title="Atualiza matrix lineariza de estados F e a matrix G. ">
<polygon fill="#ffffff" stroke="#000000" points="436.5,-.5 436.5,-17.5 552.5,-17.5 552.5,-.5 436.5,-.5"/>
<text text-anchor="middle" x="494.5" y="-7.1" font-family="DejaVuSansMono" font-size="8.00" fill="#000000">ekf::EKF::updateF_G</text>
</a>
</g>
</g>
<!-- Node80&#45;&gt;Node81 -->
<g id="edge13" class="edge">
<title>Node80&#45;&gt;Node81</title>
<path fill="none" stroke="#191970" d="M342.6062,-9C368.2601,-9 398.9601,-9 426.0248,-9"/>
<polygon fill="#191970" stroke="#191970" points="426.2015,-12.5001 436.2015,-9 426.2014,-5.5001 426.2015,-12.5001"/>
</g>
<!-- Node81&#45;&gt;Node70 -->
<g id="edge14" class="edge">
<title>Node81&#45;&gt;Node70</title>
<path fill="none" stroke="#191970" d="M552.6168,-15.274C577.3629,-17.9454 605.6866,-21.0031 628.3679,-23.4516"/>
<polygon fill="#191970" stroke="#191970" points="628.0409,-26.9366 638.3588,-24.5302 628.7923,-19.977 628.0409,-26.9366"/>
</g>
<!-- Node82&#45;&gt;Node69 -->
<g id="edge17" class="edge">
<title>Node82&#45;&gt;Node69</title>
<path fill="none" stroke="#191970" d="M336.1746,-53.5315C365.9134,-58.691 404.0155,-65.3015 435.3887,-70.7445"/>
<polygon fill="#191970" stroke="#191970" points="434.8681,-74.2064 445.3192,-72.4674 436.0647,-67.3095 434.8681,-74.2064"/>
</g>
<!-- Node83 -->
<g id="node16" class="node">
<title>Node83</title>
<g id="a_node16"><a xlink:href="namespaceekf.html#aebcb4259d74954e6d5b117101bbec4ca" target="_top" xlink:title="Produto de quaternions. ">
<polygon fill="#ffffff" stroke="#000000" points="423,-36.5 423,-53.5 566,-53.5 566,-36.5 423,-36.5"/>
<text text-anchor="middle" x="494.5" y="-43.1" font-family="DejaVuSansMono" font-size="8.00" fill="#000000">ekf::multiplyQuaternions</text>
</a>
</g>
</g>
<!-- Node82&#45;&gt;Node83 -->
<g id="edge16" class="edge">
<title>Node82&#45;&gt;Node83</title>
<path fill="none" stroke="#191970" d="M371.6975,-45C385.1817,-45 399.1107,-45 412.5305,-45"/>
<polygon fill="#191970" stroke="#191970" points="412.6777,-48.5001 422.6776,-45 412.6776,-41.5001 412.6777,-48.5001"/>
</g>
</g>
</svg>
        <g id="navigator" transform="translate(0 0)" fill="#404254">
                <rect fill="#f2f5e9" fill-opacity="0.5" stroke="#606060" stroke-width=".5" x="0" y="0" width="60" height="60"/>
                <use id="zoomplus" xlink:href="#zoomPlus" x="17" y="9" onmousedown="handleZoom(evt,'in')"/>
                <use id="zoomminus" xlink:href="#zoomMin" x="42" y="9" onmousedown="handleZoom(evt,'out')"/>
                <use id="reset" xlink:href="#resetDef" x="30" y="36" onmousedown="handleReset()"/>
                <g id="arrowUp" xlink:href="#dirArrow" transform="translate(30 24)" onmousedown="handlePan(0,-1)">
                  <use xlink:href="#rim" fill="#404040">
                        <set attributeName="fill" to="#808080" begin="arrowUp.mouseover" end="arrowUp.mouseout"/>
                  </use>
                  <path fill="none" stroke="white" stroke-width="1.5" d="M0,-3.0v7 M-2.5,-0.5L0,-3.0L2.5,-0.5"/>
                </g>
                <g id="arrowRight" xlink:href="#dirArrow" transform="rotate(90) translate(36 -43)" onmousedown="handlePan(1,0)">
                  <use xlink:href="#rim" fill="#404040">
                        <set attributeName="fill" to="#808080" begin="arrowRight.mouseover" end="arrowRight.mouseout"/>
                  </use>
                  <path fill="none" stroke="white" stroke-width="1.5" d="M0,-3.0v7 M-2.5,-0.5L0,-3.0L2.5,-0.5"/>
                </g>
                <g id="arrowDown" xlink:href="#dirArrow" transform="rotate(180) translate(-30 -48)" onmousedown="handlePan(0,1)">
                  <use xlink:href="#rim" fill="#404040">
                        <set attributeName="fill" to="#808080" begin="arrowDown.mouseover" end="arrowDown.mouseout"/>
                  </use>
                  <path fill="none" stroke="white" stroke-width="1.5" d="M0,-3.0v7 M-2.5,-0.5L0,-3.0L2.5,-0.5"/>
                </g>
                <g id="arrowLeft" xlink:href="#dirArrow" transform="rotate(270) translate(-36 17)" onmousedown="handlePan(-1,0)">
                  <use xlink:href="#rim" fill="#404040">
                        <set attributeName="fill" to="#808080" begin="arrowLeft.mouseover" end="arrowLeft.mouseout"/>
                  </use>
                  <path fill="none" stroke="white" stroke-width="1.5" d="M0,-3.0v7 M-2.5,-0.5L0,-3.0L2.5,-0.5"/>
                </g>
        </g>
        <svg viewBox="0 0 15 15" width="100%" height="30px" preserveAspectRatio="xMaxYMin meet">
         <g id="arrow_out" transform="scale(0.3 0.3)">
          <a xlink:href="classekf_1_1EKF_a548f56f22a519f1f66b1bf59b9ed56d6_cgraph_org.svg" target="_base">
           <rect id="button" ry="5" rx="5" y="6" x="6" height="38" width="38"
                fill="#f2f5e9" fill-opacity="0.5" stroke="#606060" stroke-width="1.0"/>
           <path id="arrow"
             d="M 11.500037,31.436501 C 11.940474,20.09759 22.043105,11.32322 32.158766,21.979434 L 37.068811,17.246167 C 37.068811,17.246167 37.088388,32 37.088388,32 L 22.160133,31.978069 C 22.160133,31.978069 26.997745,27.140456 26.997745,27.140456 C 18.528582,18.264221 13.291696,25.230495 11.500037,31.436501 z"
             style="fill:#404040;"/>
          </a>
         </g>
        </svg>
</svg>
