<?xml version="1.0" encoding="UTF-8" standalone="no"?>
<!DOCTYPE svg PUBLIC "-//W3C//DTD SVG 1.1//EN"
 "http://www.w3.org/Graphics/SVG/1.1/DTD/svg11.dtd">
<!-- Generated by graphviz version 2.40.1 (20161225.0304)
 -->
<!-- Title: ekf::EKF::begin Pages: 1 -->
<svg width="934pt" height="288pt"
 viewBox="0.00 0.00 934.00 288.00" xmlns="http://www.w3.org/2000/svg" xmlns:xlink="http://www.w3.org/1999/xlink">
<g id="graph0" class="graph" transform="scale(1 1) rotate(0) translate(4 284)">
<title>ekf::EKF::begin</title>
<polygon fill="#ffffff" stroke="transparent" points="-4,4 -4,-284 930,-284 930,4 -4,4"/>
<!-- Node2 -->
<g id="node1" class="node">
<title>Node2</title>
<polygon fill="#bfbfbf" stroke="#000000" points="0,-196.5 0,-213.5 95,-213.5 95,-196.5 0,-196.5"/>
<text text-anchor="middle" x="47.5" y="-203.1" font-family="DejaVuSansMono" font-size="8.00" fill="#000000">ekf::EKF::begin</text>
</g>
<!-- Node3 -->
<g id="node2" class="node">
<title>Node3</title>
<g id="a_node2"><a xlink:href="GPS_8h.html#a35c55bcf9a6f5a52f34cb1ab02c91479" target="_top" xlink:title="gpsSetup">
<polygon fill="#ffffff" stroke="#000000" points="173,-256.5 173,-273.5 232,-273.5 232,-256.5 173,-256.5"/>
<text text-anchor="middle" x="202.5" y="-263.1" font-family="DejaVuSansMono" font-size="8.00" fill="#000000">gpsSetup</text>
</a>
</g>
</g>
<!-- Node2&#45;&gt;Node3 -->
<g id="edge1" class="edge">
<title>Node2&#45;&gt;Node3</title>
<path fill="none" stroke="#191970" d="M66.2189,-213.6017C83.0221,-221.1952 108.4418,-232.3683 131,-241 142.161,-245.2707 154.4515,-249.5466 165.6476,-253.2813"/>
<polygon fill="#191970" stroke="#191970" points="164.556,-256.6066 175.149,-256.4102 166.7455,-249.9579 164.556,-256.6066"/>
</g>
<!-- Node5 -->
<g id="node4" class="node">
<title>Node5</title>
<g id="a_node4"><a xlink:href="classTIME.html#a8cd98765b05a23aa7afe8fa5234b9695" target="_top" xlink:title="TIME::begin">
<polygon fill="#ffffff" stroke="#000000" points="165.5,-214.5 165.5,-231.5 239.5,-231.5 239.5,-214.5 165.5,-214.5"/>
<text text-anchor="middle" x="202.5" y="-221.1" font-family="DejaVuSansMono" font-size="8.00" fill="#000000">TIME::begin</text>
</a>
</g>
</g>
<!-- Node2&#45;&gt;Node5 -->
<g id="edge3" class="edge">
<title>Node2&#45;&gt;Node5</title>
<path fill="none" stroke="#191970" d="M95.2699,-210.5475C114.4213,-212.7715 136.4278,-215.3271 155.5014,-217.5421"/>
<polygon fill="#191970" stroke="#191970" points="155.1305,-221.0225 165.4675,-218.6995 155.938,-214.0692 155.1305,-221.0225"/>
</g>
<!-- Node6 -->
<g id="node5" class="node">
<title>Node6</title>
<g id="a_node5"><a xlink:href="classTIME.html#a51b6020daf09773ef3948cf6b9ccd736" target="_top" xlink:title="Retorna o valor do tempo decorrido desde a última requisição. ">
<polygon fill="#ffffff" stroke="#000000" points="131,-178.5 131,-195.5 274,-195.5 274,-178.5 131,-178.5"/>
<text text-anchor="middle" x="202.5" y="-185.1" font-family="DejaVuSansMono" font-size="8.00" fill="#000000">TIME::computeElapsedTime</text>
</a>
</g>
</g>
<!-- Node2&#45;&gt;Node6 -->
<g id="edge4" class="edge">
<title>Node2&#45;&gt;Node6</title>
<path fill="none" stroke="#191970" d="M95.2699,-199.4525C103.4776,-198.4994 112.2098,-197.4853 121.0107,-196.4633"/>
<polygon fill="#191970" stroke="#191970" points="121.4227,-199.939 130.9522,-195.3088 120.6152,-192.9858 121.4227,-199.939"/>
</g>
<!-- Node7 -->
<g id="node6" class="node">
<title>Node7</title>
<g id="a_node6"><a xlink:href="classIMU.html#ae0d964d2f8ec122be068c41b84bc18a8" target="_top" xlink:title="IMU::begin">
<polygon fill="#ffffff" stroke="#000000" points="168,-130.5 168,-147.5 237,-147.5 237,-130.5 168,-130.5"/>
<text text-anchor="middle" x="202.5" y="-137.1" font-family="DejaVuSansMono" font-size="8.00" fill="#000000">IMU::begin</text>
</a>
</g>
</g>
<!-- Node2&#45;&gt;Node7 -->
<g id="edge5" class="edge">
<title>Node2&#45;&gt;Node7</title>
<path fill="none" stroke="#191970" d="M67.3846,-196.3621C84.2874,-189.0351 109.2096,-178.2685 131,-169 144.6224,-163.2057 159.7351,-156.8537 172.5439,-151.4923"/>
<polygon fill="#191970" stroke="#191970" points="173.951,-154.6977 181.827,-147.6111 171.2508,-148.2394 173.951,-154.6977"/>
</g>
<!-- Node4 -->
<g id="node3" class="node">
<title>Node4</title>
<g id="a_node3"><a xlink:href="GPS_8h.html#a5d2ecd8f29f7e3e702c8b8bea333f6c6" target="_top" xlink:title="GPSSERIAL">
<polygon fill="#ffffff" stroke="#000000" points="349.5,-262.5 349.5,-279.5 413.5,-279.5 413.5,-262.5 349.5,-262.5"/>
<text text-anchor="middle" x="381.5" y="-269.1" font-family="DejaVuSansMono" font-size="8.00" fill="#000000">GPSSERIAL</text>
</a>
</g>
</g>
<!-- Node3&#45;&gt;Node4 -->
<g id="edge2" class="edge">
<title>Node3&#45;&gt;Node4</title>
<path fill="none" stroke="#191970" d="M232.0582,-265.9908C261.2684,-266.9699 306.2438,-268.4774 339.2268,-269.583"/>
<polygon fill="#191970" stroke="#191970" points="339.3674,-273.0896 349.479,-269.9267 339.6019,-266.0935 339.3674,-273.0896"/>
</g>
<!-- Node8 -->
<g id="node7" class="node">
<title>Node8</title>
<g id="a_node7"><a xlink:href="classIMU.html#a37694424e4502ffc69bbb6c540c1a400" target="_top" xlink:title="IMU::writeRegister">
<polygon fill="#ffffff" stroke="#000000" points="668,-111.5 668,-128.5 779,-128.5 779,-111.5 668,-111.5"/>
<text text-anchor="middle" x="723.5" y="-118.1" font-family="DejaVuSansMono" font-size="8.00" fill="#000000">IMU::writeRegister</text>
</a>
</g>
</g>
<!-- Node7&#45;&gt;Node8 -->
<g id="edge6" class="edge">
<title>Node7&#45;&gt;Node8</title>
<path fill="none" stroke="#191970" d="M237.3488,-140.625C258.3831,-141.5241 285.7253,-142.5485 310,-143 453.1036,-145.6615 489.7538,-153.8665 632,-138 646.7601,-136.3536 662.6912,-133.5759 677.0587,-130.6889"/>
<polygon fill="#191970" stroke="#191970" points="678.1255,-134.0422 687.205,-128.5822 676.7023,-127.1884 678.1255,-134.0422"/>
</g>
<!-- Node10 -->
<g id="node9" class="node">
<title>Node10</title>
<g id="a_node9"><a xlink:href="classIMU.html#af3b90e0b20d4bd55091be99f7aa67737" target="_top" xlink:title="IMU::writeAK8963Register">
<polygon fill="#ffffff" stroke="#000000" points="310,-74.5 310,-91.5 453,-91.5 453,-74.5 310,-74.5"/>
<text text-anchor="middle" x="381.5" y="-81.1" font-family="DejaVuSansMono" font-size="8.00" fill="#000000">IMU::writeAK8963Register</text>
</a>
</g>
</g>
<!-- Node7&#45;&gt;Node10 -->
<g id="edge8" class="edge">
<title>Node7&#45;&gt;Node10</title>
<path fill="none" stroke="#191970" d="M229.6862,-130.4948C260.3075,-120.915 310.2484,-105.291 344.4299,-94.5973"/>
<polygon fill="#191970" stroke="#191970" points="345.5591,-97.9114 354.0579,-91.5852 343.469,-91.2307 345.5591,-97.9114"/>
</g>
<!-- Node11 -->
<g id="node10" class="node">
<title>Node11</title>
<g id="a_node10"><a xlink:href="classIMU.html#a914f8b4262fba70e6d8fd0e584fa7996" target="_top" xlink:title="IMU::readAK8963Registers">
<polygon fill="#ffffff" stroke="#000000" points="489,-37.5 489,-54.5 632,-54.5 632,-37.5 489,-37.5"/>
<text text-anchor="middle" x="560.5" y="-44.1" font-family="DejaVuSansMono" font-size="8.00" fill="#000000">IMU::readAK8963Registers</text>
</a>
</g>
</g>
<!-- Node7&#45;&gt;Node11 -->
<g id="edge21" class="edge">
<title>Node7&#45;&gt;Node11</title>
<path fill="none" stroke="#191970" d="M211.3349,-130.4052C228.6038,-114.223 268.7638,-79.5539 310,-65 364.0605,-45.9199 428.6465,-41.4242 478.697,-41.5663"/>
<polygon fill="#191970" stroke="#191970" points="478.7948,-45.0673 488.8263,-41.6585 478.8586,-38.0676 478.7948,-45.0673"/>
</g>
<!-- Node12 -->
<g id="node11" class="node">
<title>Node12</title>
<g id="a_node11"><a xlink:href="classIMU.html#a5567bbe0d211f1e6d386eb69ffd960a7" target="_top" xlink:title="IMU::setAccelRange">
<polygon fill="#ffffff" stroke="#000000" points="505,-111.5 505,-128.5 616,-128.5 616,-111.5 505,-111.5"/>
<text text-anchor="middle" x="560.5" y="-118.1" font-family="DejaVuSansMono" font-size="8.00" fill="#000000">IMU::setAccelRange</text>
</a>
</g>
</g>
<!-- Node7&#45;&gt;Node12 -->
<g id="edge13" class="edge">
<title>Node7&#45;&gt;Node12</title>
<path fill="none" stroke="#191970" d="M237.1518,-137.1609C296.4802,-134.0122 418.4526,-127.5388 494.4647,-123.5047"/>
<polygon fill="#191970" stroke="#191970" points="495.0736,-126.9774 504.8741,-122.9522 494.7026,-119.9872 495.0736,-126.9774"/>
</g>
<!-- Node13 -->
<g id="node12" class="node">
<title>Node13</title>
<g id="a_node12"><a xlink:href="classIMU.html#a834f21762003f831e5e632cc7974ba75" target="_top" xlink:title="IMU::setGyroRange">
<polygon fill="#ffffff" stroke="#000000" points="507.5,-223.5 507.5,-240.5 613.5,-240.5 613.5,-223.5 507.5,-223.5"/>
<text text-anchor="middle" x="560.5" y="-230.1" font-family="DejaVuSansMono" font-size="8.00" fill="#000000">IMU::setGyroRange</text>
</a>
</g>
</g>
<!-- Node7&#45;&gt;Node13 -->
<g id="edge15" class="edge">
<title>Node7&#45;&gt;Node13</title>
<path fill="none" stroke="#191970" d="M226.264,-147.5273C240.4619,-152.9727 258.6602,-160.5773 274,-169 291.0751,-178.3754 291.9011,-186.7969 310,-194 370.7293,-218.1694 445.356,-227.0836 497.2861,-230.3091"/>
<polygon fill="#191970" stroke="#191970" points="497.1763,-233.8085 507.3587,-230.8812 497.5733,-226.8197 497.1763,-233.8085"/>
</g>
<!-- Node14 -->
<g id="node13" class="node">
<title>Node14</title>
<g id="a_node13"><a xlink:href="classIMU.html#a928fa5e2db05bd402a3fa93bd3584527" target="_top" xlink:title="IMU::setDlpfBandwidth">
<polygon fill="#ffffff" stroke="#000000" points="497,-186.5 497,-203.5 624,-203.5 624,-186.5 497,-186.5"/>
<text text-anchor="middle" x="560.5" y="-193.1" font-family="DejaVuSansMono" font-size="8.00" fill="#000000">IMU::setDlpfBandwidth</text>
</a>
</g>
</g>
<!-- Node7&#45;&gt;Node14 -->
<g id="edge17" class="edge">
<title>Node7&#45;&gt;Node14</title>
<path fill="none" stroke="#191970" d="M225.6319,-147.6228C247.1652,-155.2828 280.3115,-166.1454 310,-172 368.8257,-183.6005 436.6025,-189.3735 486.8104,-192.2331"/>
<polygon fill="#191970" stroke="#191970" points="486.7532,-195.735 496.9286,-192.7835 487.1335,-188.7454 486.7532,-195.735"/>
</g>
<!-- Node15 -->
<g id="node14" class="node">
<title>Node15</title>
<g id="a_node14"><a xlink:href="classIMU.html#acd2af48f4eb0a0321080332016e3c1f7" target="_top" xlink:title="IMU::whoAmIAK8963">
<polygon fill="#ffffff" stroke="#000000" points="328.5,-.5 328.5,-17.5 434.5,-17.5 434.5,-.5 328.5,-.5"/>
<text text-anchor="middle" x="381.5" y="-7.1" font-family="DejaVuSansMono" font-size="8.00" fill="#000000">IMU::whoAmIAK8963</text>
</a>
</g>
</g>
<!-- Node7&#45;&gt;Node15 -->
<g id="edge19" class="edge">
<title>Node7&#45;&gt;Node15</title>
<path fill="none" stroke="#191970" d="M208.7679,-130.4196C223.9042,-110.2948 264.5738,-59.673 310,-32 317.3637,-27.5142 325.6937,-23.8112 333.9996,-20.7859"/>
<polygon fill="#191970" stroke="#191970" points="335.3114,-24.0376 343.6795,-17.5395 333.0855,-17.4009 335.3114,-24.0376"/>
</g>
<!-- Node9 -->
<g id="node8" class="node">
<title>Node9</title>
<g id="a_node8"><a xlink:href="classIMU.html#a87c200faa130ff4d2d3416b2d83f4f49" target="_top" xlink:title="IMU::readRegisters">
<polygon fill="#ffffff" stroke="#000000" points="815,-74.5 815,-91.5 926,-91.5 926,-74.5 815,-74.5"/>
<text text-anchor="middle" x="870.5" y="-81.1" font-family="DejaVuSansMono" font-size="8.00" fill="#000000">IMU::readRegisters</text>
</a>
</g>
</g>
<!-- Node8&#45;&gt;Node9 -->
<g id="edge7" class="edge">
<title>Node8&#45;&gt;Node9</title>
<path fill="none" stroke="#191970" d="M757.5942,-111.4185C778.1884,-106.2349 804.6425,-99.5764 826.7668,-94.0077"/>
<polygon fill="#191970" stroke="#191970" points="827.7475,-97.3701 836.5907,-91.535 826.0388,-90.5818 827.7475,-97.3701"/>
</g>
<!-- Node10&#45;&gt;Node8 -->
<g id="edge9" class="edge">
<title>Node10&#45;&gt;Node8</title>
<path fill="none" stroke="#191970" d="M453.0007,-86.1665C503.2385,-88.9418 571.9272,-93.8422 632,-102 646.2002,-103.9284 661.5197,-106.6752 675.4867,-109.4439"/>
<polygon fill="#191970" stroke="#191970" points="674.8861,-112.8933 685.3825,-111.4524 676.2786,-106.0331 674.8861,-112.8933"/>
</g>
<!-- Node10&#45;&gt;Node11 -->
<g id="edge10" class="edge">
<title>Node10&#45;&gt;Node11</title>
<path fill="none" stroke="#191970" d="M423.0161,-74.4185C448.6581,-69.1181 481.7608,-62.2757 509.0587,-56.6331"/>
<polygon fill="#191970" stroke="#191970" points="510.1246,-59.9869 519.209,-54.535 508.7075,-53.1318 510.1246,-59.9869"/>
</g>
<!-- Node11&#45;&gt;Node8 -->
<g id="edge11" class="edge">
<title>Node11&#45;&gt;Node8</title>
<path fill="none" stroke="#191970" d="M591.6096,-54.5466C604.3399,-58.418 619.0836,-63.3883 632,-69 656.5732,-79.6761 683.1658,-94.9541 701.3157,-106.0019"/>
<polygon fill="#191970" stroke="#191970" points="699.6333,-109.0764 709.982,-111.3469 703.3079,-103.1184 699.6333,-109.0764"/>
</g>
<!-- Node11&#45;&gt;Node9 -->
<g id="edge12" class="edge">
<title>Node11&#45;&gt;Node9</title>
<path fill="none" stroke="#191970" d="M632.0095,-54.535C684.0351,-60.7445 753.9477,-69.0889 804.6172,-75.1366"/>
<polygon fill="#191970" stroke="#191970" points="804.4591,-78.6425 814.8035,-76.3523 805.2888,-71.6918 804.4591,-78.6425"/>
</g>
<!-- Node12&#45;&gt;Node8 -->
<g id="edge14" class="edge">
<title>Node12&#45;&gt;Node8</title>
<path fill="none" stroke="#191970" d="M616.1395,-120C629.4417,-120 643.7692,-120 657.4888,-120"/>
<polygon fill="#191970" stroke="#191970" points="657.8348,-123.5001 667.8347,-120 657.8347,-116.5001 657.8348,-123.5001"/>
</g>
<!-- Node13&#45;&gt;Node8 -->
<g id="edge16" class="edge">
<title>Node13&#45;&gt;Node8</title>
<path fill="none" stroke="#191970" d="M607.3295,-223.412C615.8654,-220.7882 624.4495,-217.3899 632,-213 665.7731,-193.3643 695.5716,-157.9726 711.4209,-136.9686"/>
<polygon fill="#191970" stroke="#191970" points="714.4058,-138.8173 717.5084,-128.6869 708.7656,-134.6715 714.4058,-138.8173"/>
</g>
<!-- Node14&#45;&gt;Node8 -->
<g id="edge18" class="edge">
<title>Node14&#45;&gt;Node8</title>
<path fill="none" stroke="#191970" d="M591.9873,-186.3995C604.6398,-182.5517 619.2263,-177.6128 632,-172 656.786,-161.109 683.5329,-145.405 701.6673,-134.1081"/>
<polygon fill="#191970" stroke="#191970" points="703.7227,-136.9497 710.3094,-128.6511 699.9853,-131.0309 703.7227,-136.9497"/>
</g>
<!-- Node15&#45;&gt;Node11 -->
<g id="edge20" class="edge">
<title>Node15&#45;&gt;Node11</title>
<path fill="none" stroke="#191970" d="M423.0161,-17.5815C448.6581,-22.8819 481.7608,-29.7243 509.0587,-35.3669"/>
<polygon fill="#191970" stroke="#191970" points="508.7075,-38.8682 519.209,-37.465 510.1246,-32.0131 508.7075,-38.8682"/>
</g>
</g>
</svg>
