<?xml version="1.0" encoding="UTF-8" standalone="no"?>
<!DOCTYPE svg PUBLIC "-//W3C//DTD SVG 1.1//EN"
 "http://www.w3.org/Graphics/SVG/1.1/DTD/svg11.dtd">
<!-- Generated by graphviz version 2.40.1 (20161225.0304)
 -->
<!-- Title: IMU::setAccelRange Pages: 1 -->
<svg width="413pt" height="26pt"
 viewBox="0.00 0.00 413.00 26.00" xmlns="http://www.w3.org/2000/svg" xmlns:xlink="http://www.w3.org/1999/xlink">
<g id="graph0" class="graph" transform="scale(1 1) rotate(0) translate(4 22)">
<title>IMU::setAccelRange</title>
<polygon fill="#ffffff" stroke="transparent" points="-4,4 -4,-22 409,-22 409,4 -4,4"/>
<!-- Node70 -->
<g id="node1" class="node">
<title>Node70</title>
<polygon fill="#bfbfbf" stroke="#000000" points="0,-.5 0,-17.5 111,-17.5 111,-.5 0,-.5"/>
<text text-anchor="middle" x="55.5" y="-7.1" font-family="DejaVuSansMono" font-size="8.00" fill="#000000">IMU::setAccelRange</text>
</g>
<!-- Node71 -->
<g id="node2" class="node">
<title>Node71</title>
<g id="a_node2"><a xlink:href="classIMU.html#a37694424e4502ffc69bbb6c540c1a400" target="_top" xlink:title="IMU::writeRegister">
<polygon fill="#ffffff" stroke="#000000" points="147,-.5 147,-17.5 258,-17.5 258,-.5 147,-.5"/>
<text text-anchor="middle" x="202.5" y="-7.1" font-family="DejaVuSansMono" font-size="8.00" fill="#000000">IMU::writeRegister</text>
</a>
</g>
</g>
<!-- Node70&#45;&gt;Node71 -->
<g id="edge1" class="edge">
<title>Node70&#45;&gt;Node71</title>
<path fill="none" stroke="#191970" d="M111.0744,-9C119.4894,-9 128.2383,-9 136.8421,-9"/>
<polygon fill="#191970" stroke="#191970" points="136.8471,-12.5001 146.847,-9 136.847,-5.5001 136.8471,-12.5001"/>
</g>
<!-- Node72 -->
<g id="node3" class="node">
<title>Node72</title>
<g id="a_node3"><a xlink:href="classIMU.html#a87c200faa130ff4d2d3416b2d83f4f49" target="_top" xlink:title="IMU::readRegisters">
<polygon fill="#ffffff" stroke="#000000" points="294,-.5 294,-17.5 405,-17.5 405,-.5 294,-.5"/>
<text text-anchor="middle" x="349.5" y="-7.1" font-family="DejaVuSansMono" font-size="8.00" fill="#000000">IMU::readRegisters</text>
</a>
</g>
</g>
<!-- Node71&#45;&gt;Node72 -->
<g id="edge2" class="edge">
<title>Node71&#45;&gt;Node72</title>
<path fill="none" stroke="#191970" d="M258.0744,-9C266.4894,-9 275.2383,-9 283.8421,-9"/>
<polygon fill="#191970" stroke="#191970" points="283.8471,-12.5001 293.847,-9 283.847,-5.5001 283.8471,-12.5001"/>
</g>
</g>
</svg>
