<?xml version="1.0" encoding="UTF-8" standalone="no"?>
<!DOCTYPE svg PUBLIC "-//W3C//DTD SVG 1.1//EN"
 "http://www.w3.org/Graphics/SVG/1.1/DTD/svg11.dtd">
<!-- Generated by graphviz version 2.40.1 (20161225.0304)
 -->
<!-- Title: ekf::EKF::statesUpdate Pages: 1 -->
<svg width="466pt" height="62pt"
 viewBox="0.00 0.00 466.00 62.00" xmlns="http://www.w3.org/2000/svg" xmlns:xlink="http://www.w3.org/1999/xlink">
<g id="graph0" class="graph" transform="scale(1 1) rotate(0) translate(4 58)">
<title>ekf::EKF::statesUpdate</title>
<polygon fill="#ffffff" stroke="transparent" points="-4,4 -4,-58 462,-58 462,4 -4,4"/>
<!-- Node63 -->
<g id="node1" class="node">
<title>Node63</title>
<polygon fill="#bfbfbf" stroke="#000000" points="0,-18.5 0,-35.5 132,-35.5 132,-18.5 0,-18.5"/>
<text text-anchor="middle" x="66" y="-25.1" font-family="DejaVuSansMono" font-size="8.00" fill="#000000">ekf::EKF::statesUpdate</text>
</g>
<!-- Node64 -->
<g id="node2" class="node">
<title>Node64</title>
<g id="a_node2"><a xlink:href="classekf_1_1EKF.html#a651814ff64d234394572e2e7c5703a43" target="_top" xlink:title="ekf::EKF::loopEKF">
<polygon fill="#ffffff" stroke="#000000" points="168,-18.5 168,-35.5 274,-35.5 274,-18.5 168,-18.5"/>
<text text-anchor="middle" x="221" y="-25.1" font-family="DejaVuSansMono" font-size="8.00" fill="#000000">ekf::EKF::loopEKF</text>
</a>
</g>
</g>
<!-- Node63&#45;&gt;Node64 -->
<g id="edge1" class="edge">
<title>Node63&#45;&gt;Node64</title>
<path fill="none" stroke="#191970" d="M142.2411,-27C150.8383,-27 159.4562,-27 167.6714,-27"/>
<polygon fill="#191970" stroke="#191970" points="142.1836,-23.5001 132.1835,-27 142.1835,-30.5001 142.1836,-23.5001"/>
</g>
<!-- Node65 -->
<g id="node3" class="node">
<title>Node65</title>
<g id="a_node3"><a xlink:href="main_8cpp.html#aa561fc46a0358a47fa9151f211523ba0" target="_top" xlink:title="core_1">
<polygon fill="#ffffff" stroke="#000000" points="320.5,-36.5 320.5,-53.5 368.5,-53.5 368.5,-36.5 320.5,-36.5"/>
<text text-anchor="middle" x="344.5" y="-43.1" font-family="DejaVuSansMono" font-size="8.00" fill="#000000">core_1</text>
</a>
</g>
</g>
<!-- Node64&#45;&gt;Node65 -->
<g id="edge2" class="edge">
<title>Node64&#45;&gt;Node65</title>
<path fill="none" stroke="#191970" d="M284.3338,-36.2308C297.1327,-38.0963 309.8409,-39.9485 320.2569,-41.4666"/>
<polygon fill="#191970" stroke="#191970" points="284.4921,-32.717 274.0918,-34.7381 283.4825,-39.6438 284.4921,-32.717"/>
</g>
<!-- Node67 -->
<g id="node5" class="node">
<title>Node67</title>
<g id="a_node5"><a xlink:href="main_8cpp.html#a50d45340b3399db75c34c3b9f67c1b11" target="_top" xlink:title="telemetria">
<polygon fill="#ffffff" stroke="#000000" points="310,-.5 310,-17.5 379,-17.5 379,-.5 310,-.5"/>
<text text-anchor="middle" x="344.5" y="-7.1" font-family="DejaVuSansMono" font-size="8.00" fill="#000000">telemetria</text>
</a>
</g>
</g>
<!-- Node64&#45;&gt;Node67 -->
<g id="edge4" class="edge">
<title>Node64&#45;&gt;Node67</title>
<path fill="none" stroke="#191970" d="M284.0216,-17.8147C292.8374,-16.5298 301.6187,-15.2499 309.6462,-14.0799"/>
<polygon fill="#191970" stroke="#191970" points="283.4825,-14.3562 274.0918,-19.2619 284.4921,-21.283 283.4825,-14.3562"/>
</g>
<!-- Node66 -->
<g id="node4" class="node">
<title>Node66</title>
<g id="a_node4"><a xlink:href="main_8cpp.html#a4fc01d736fe50cf5b977f755b675f11d" target="_top" xlink:title="setup">
<polygon fill="#ffffff" stroke="#000000" points="415,-36.5 415,-53.5 458,-53.5 458,-36.5 415,-36.5"/>
<text text-anchor="middle" x="436.5" y="-43.1" font-family="DejaVuSansMono" font-size="8.00" fill="#000000">setup</text>
</a>
</g>
</g>
<!-- Node65&#45;&gt;Node66 -->
<g id="edge3" class="edge">
<title>Node65&#45;&gt;Node66</title>
<path fill="none" stroke="#191970" d="M378.9202,-45C391.0215,-45 404.2665,-45 414.9991,-45"/>
<polygon fill="#191970" stroke="#191970" points="378.672,-41.5001 368.6719,-45 378.6719,-48.5001 378.672,-41.5001"/>
</g>
</g>
</svg>
