<?xml version="1.0" encoding="UTF-8" standalone="no"?>
<!DOCTYPE svg PUBLIC "-//W3C//DTD SVG 1.1//EN"
 "http://www.w3.org/Graphics/SVG/1.1/DTD/svg11.dtd">
<!-- Generated by graphviz version 2.40.1 (20161225.0304)
 -->
<!-- Title: IMU::whoAmIAK8963 Pages: 1 -->
<svg width="429pt" height="26pt"
 viewBox="0.00 0.00 429.00 26.00" xmlns="http://www.w3.org/2000/svg" xmlns:xlink="http://www.w3.org/1999/xlink">
<g id="graph0" class="graph" transform="scale(1 1) rotate(0) translate(4 22)">
<title>IMU::whoAmIAK8963</title>
<polygon fill="#ffffff" stroke="transparent" points="-4,4 -4,-22 425,-22 425,4 -4,4"/>
<!-- Node98 -->
<g id="node1" class="node">
<title>Node98</title>
<polygon fill="#bfbfbf" stroke="#000000" points="0,-.5 0,-17.5 106,-17.5 106,-.5 0,-.5"/>
<text text-anchor="middle" x="53" y="-7.1" font-family="DejaVuSansMono" font-size="8.00" fill="#000000">IMU::whoAmIAK8963</text>
</g>
<!-- Node99 -->
<g id="node2" class="node">
<title>Node99</title>
<g id="a_node2"><a xlink:href="classIMU.html#ae0d964d2f8ec122be068c41b84bc18a8" target="_top" xlink:title="IMU::begin">
<polygon fill="#ffffff" stroke="#000000" points="142,-.5 142,-17.5 211,-17.5 211,-.5 142,-.5"/>
<text text-anchor="middle" x="176.5" y="-7.1" font-family="DejaVuSansMono" font-size="8.00" fill="#000000">IMU::begin</text>
</a>
</g>
</g>
<!-- Node98&#45;&gt;Node99 -->
<g id="edge1" class="edge">
<title>Node98&#45;&gt;Node99</title>
<path fill="none" stroke="#191970" d="M116.3059,-9C125.0262,-9 133.705,-9 141.6462,-9"/>
<polygon fill="#191970" stroke="#191970" points="116.0919,-5.5001 106.0918,-9 116.0918,-12.5001 116.0919,-5.5001"/>
</g>
<!-- Node100 -->
<g id="node3" class="node">
<title>Node100</title>
<g id="a_node3"><a xlink:href="classekf_1_1EKF.html#af52f661717f56b3deee7b4f42ba80dc5" target="_top" xlink:title="Inicializacao do filtro de Kalman. ">
<polygon fill="#ffffff" stroke="#000000" points="247,-.5 247,-17.5 342,-17.5 342,-.5 247,-.5"/>
<text text-anchor="middle" x="294.5" y="-7.1" font-family="DejaVuSansMono" font-size="8.00" fill="#000000">ekf::EKF::begin</text>
</a>
</g>
</g>
<!-- Node99&#45;&gt;Node100 -->
<g id="edge2" class="edge">
<title>Node99&#45;&gt;Node100</title>
<path fill="none" stroke="#191970" d="M221.5115,-9C229.8078,-9 238.4956,-9 246.8663,-9"/>
<polygon fill="#191970" stroke="#191970" points="221.2657,-5.5001 211.2657,-9 221.2656,-12.5001 221.2657,-5.5001"/>
</g>
<!-- Node101 -->
<g id="node4" class="node">
<title>Node101</title>
<g id="a_node4"><a xlink:href="main_8cpp.html#a4fc01d736fe50cf5b977f755b675f11d" target="_top" xlink:title="setup">
<polygon fill="#ffffff" stroke="#000000" points="378,-.5 378,-17.5 421,-17.5 421,-.5 378,-.5"/>
<text text-anchor="middle" x="399.5" y="-7.1" font-family="DejaVuSansMono" font-size="8.00" fill="#000000">setup</text>
</a>
</g>
</g>
<!-- Node100&#45;&gt;Node101 -->
<g id="edge3" class="edge">
<title>Node100&#45;&gt;Node101</title>
<path fill="none" stroke="#191970" d="M352.3476,-9C361.4085,-9 370.2548,-9 377.7917,-9"/>
<polygon fill="#191970" stroke="#191970" points="352.0846,-5.5001 342.0845,-9 352.0845,-12.5001 352.0846,-5.5001"/>
</g>
</g>
</svg>
