<?xml version="1.0" encoding="UTF-8" standalone="no"?>
<!DOCTYPE svg PUBLIC "-//W3C//DTD SVG 1.1//EN"
 "http://www.w3.org/Graphics/SVG/1.1/DTD/svg11.dtd">
<!-- Generated by graphviz version 2.40.1 (20161225.0304)
 -->
<!-- Title: TELEMETRIA::TELEMETRIA Pages: 1 -->
<svg width="450pt" height="45pt"
 viewBox="0.00 0.00 450.00 45.00" xmlns="http://www.w3.org/2000/svg" xmlns:xlink="http://www.w3.org/1999/xlink">
<g id="graph0" class="graph" transform="scale(1 1) rotate(0) translate(4 41)">
<title>TELEMETRIA::TELEMETRIA</title>
<polygon fill="#ffffff" stroke="transparent" points="-4,4 -4,-41 446,-41 446,4 -4,4"/>
<!-- Node0 -->
<g id="node1" class="node">
<title>Node0</title>
<polygon fill="#bfbfbf" stroke="#000000" points="0,-.5 0,-17.5 132,-17.5 132,-.5 0,-.5"/>
<text text-anchor="middle" x="66" y="-7.1" font-family="DejaVuSansMono" font-size="8.00" fill="#000000">TELEMETRIA::TELEMETRIA</text>
</g>
<!-- Node1 -->
<g id="node2" class="node">
<title>Node1</title>
<g id="a_node2"><a xlink:href="classTELEMETRIA.html#a780be82ef9be2da12601a0ea7d10e647" target="_top" xlink:title="TELEMETRIA::begin">
<polygon fill="#ffffff" stroke="#000000" points="168,-19.5 168,-36.5 274,-36.5 274,-19.5 168,-19.5"/>
<text text-anchor="middle" x="221" y="-26.1" font-family="DejaVuSansMono" font-size="8.00" fill="#000000">TELEMETRIA::begin</text>
</a>
</g>
</g>
<!-- Node0&#45;&gt;Node1 -->
<g id="edge1" class="edge">
<title>Node0&#45;&gt;Node1</title>
<path fill="none" stroke="#191970" d="M132.1835,-17.1128C140.6072,-18.1454 149.2131,-19.2003 157.5917,-20.2274"/>
<polygon fill="#191970" stroke="#191970" points="157.3198,-23.7202 167.6714,-21.4629 158.1715,-16.7722 157.3198,-23.7202"/>
</g>
<!-- Node2 -->
<g id="node3" class="node">
<title>Node2</title>
<g id="a_node3"><a xlink:href="classTELEMETRIA.html#ace27ccd5888ebc3802a4eb22cc3fd9da" target="_top" xlink:title="TELEMETRIA::OnDataRecv">
<polygon fill="#ffffff" stroke="#000000" points="310,-.5 310,-17.5 442,-17.5 442,-.5 310,-.5"/>
<text text-anchor="middle" x="376" y="-7.1" font-family="DejaVuSansMono" font-size="8.00" fill="#000000">TELEMETRIA::OnDataRecv</text>
</a>
</g>
</g>
<!-- Node1&#45;&gt;Node2 -->
<g id="edge2" class="edge">
<title>Node1&#45;&gt;Node2</title>
<path fill="none" stroke="#191970" d="M274.3422,-21.4613C282.5875,-20.4506 291.2381,-19.3902 299.8662,-18.3325"/>
<polygon fill="#191970" stroke="#191970" points="300.4589,-21.7862 309.9587,-17.0954 299.6072,-14.8382 300.4589,-21.7862"/>
</g>
<!-- Node2&#45;&gt;Node0 -->
<g id="edge3" class="edge">
<title>Node2&#45;&gt;Node0</title>
<path fill="none" stroke="#191970" d="M309.9791,-9C260.8257,-9 193.6203,-9 142.1885,-9"/>
<polygon fill="#191970" stroke="#191970" points="142.1226,-5.5001 132.1225,-9 142.1225,-12.5001 142.1226,-5.5001"/>
</g>
</g>
</svg>
