<?xml version="1.0" encoding="UTF-8" standalone="no"?>
<!DOCTYPE svg PUBLIC "-//W3C//DTD SVG 1.1//EN"
 "http://www.w3.org/Graphics/SVG/1.1/DTD/svg11.dtd">
<!-- Generated by graphviz version 2.40.1 (20161225.0304)
 -->
<!-- Title: IMU::calibracaoMagnetometro Pages: 1 -->
<svg width="471pt" height="72pt"
 viewBox="0.00 0.00 471.00 71.50" xmlns="http://www.w3.org/2000/svg" xmlns:xlink="http://www.w3.org/1999/xlink">
<g id="graph0" class="graph" transform="scale(1 1) rotate(0) translate(4 67.5)">
<title>IMU::calibracaoMagnetometro</title>
<polygon fill="#ffffff" stroke="transparent" points="-4,4 -4,-67.5 467,-67.5 467,4 -4,4"/>
<!-- Node14 -->
<g id="node1" class="node">
<title>Node14</title>
<polygon fill="#bfbfbf" stroke="#000000" points="0,-25 0,-42 158,-42 158,-25 0,-25"/>
<text text-anchor="middle" x="79" y="-31.6" font-family="DejaVuSansMono" font-size="8.00" fill="#000000">IMU::calibracaoMagnetometro</text>
</g>
<!-- Node15 -->
<g id="node2" class="node">
<title>Node15</title>
<g id="a_node2"><a xlink:href="classIMU.html#ac574728dbbc752155239a35c8bbd6e79" target="_top" xlink:title="IMU::readSensor">
<polygon fill="#ffffff" stroke="#000000" points="207.5,-46 207.5,-63 302.5,-63 302.5,-46 207.5,-46"/>
<text text-anchor="middle" x="255" y="-52.6" font-family="DejaVuSansMono" font-size="8.00" fill="#000000">IMU::readSensor</text>
</a>
</g>
</g>
<!-- Node14&#45;&gt;Node15 -->
<g id="edge1" class="edge">
<title>Node14&#45;&gt;Node15</title>
<path fill="none" stroke="#191970" d="M150.3322,-42.0112C165.8937,-43.868 182.177,-45.8109 197.1384,-47.5961"/>
<polygon fill="#191970" stroke="#191970" points="196.9156,-51.0942 207.2599,-48.8037 197.745,-44.1435 196.9156,-51.0942"/>
</g>
<!-- Node17 -->
<g id="node4" class="node">
<title>Node17</title>
<g id="a_node4"><a xlink:href="classMETODOSCALIBRACAO.html#af0478ed112a1139bafefe7833568e641" target="_top" xlink:title="METODOSCALIBRACAO::\lcalibracaoGeometrica">
<polygon fill="#ffffff" stroke="#000000" points="194,-.5 194,-26.5 316,-26.5 316,-.5 194,-.5"/>
<text text-anchor="start" x="202" y="-16.1" font-family="DejaVuSansMono" font-size="8.00" fill="#000000">METODOSCALIBRACAO::</text>
<text text-anchor="middle" x="255" y="-7.1" font-family="DejaVuSansMono" font-size="8.00" fill="#000000">calibracaoGeometrica</text>
</a>
</g>
</g>
<!-- Node14&#45;&gt;Node17 -->
<g id="edge3" class="edge">
<title>Node14&#45;&gt;Node17</title>
<path fill="none" stroke="#191970" d="M153.895,-24.9892C163.8248,-23.8608 173.9823,-22.7066 183.8465,-21.5856"/>
<polygon fill="#191970" stroke="#191970" points="184.4571,-25.0389 193.9979,-20.4321 183.6667,-18.0836 184.4571,-25.0389"/>
</g>
<!-- Node16 -->
<g id="node3" class="node">
<title>Node16</title>
<g id="a_node3"><a xlink:href="classIMU.html#a87c200faa130ff4d2d3416b2d83f4f49" target="_top" xlink:title="IMU::readRegisters">
<polygon fill="#ffffff" stroke="#000000" points="352,-46 352,-63 463,-63 463,-46 352,-46"/>
<text text-anchor="middle" x="407.5" y="-52.6" font-family="DejaVuSansMono" font-size="8.00" fill="#000000">IMU::readRegisters</text>
</a>
</g>
</g>
<!-- Node15&#45;&gt;Node16 -->
<g id="edge2" class="edge">
<title>Node15&#45;&gt;Node16</title>
<path fill="none" stroke="#191970" d="M302.8335,-54.5C315.1021,-54.5 328.5161,-54.5 341.5237,-54.5"/>
<polygon fill="#191970" stroke="#191970" points="341.8389,-58.0001 351.8389,-54.5 341.8388,-51.0001 341.8389,-58.0001"/>
</g>
</g>
</svg>
