<?xml version="1.0" encoding="UTF-8" standalone="no"?>
<!DOCTYPE svg PUBLIC "-//W3C//DTD SVG 1.1//EN"
 "http://www.w3.org/Graphics/SVG/1.1/DTD/svg11.dtd">
<!-- Generated by graphviz version 2.40.1 (20161225.0304)
 -->
<!-- Title: ekf::EKF::temporalPrediction Pages: 1 -->
<svg width="498pt" height="62pt"
 viewBox="0.00 0.00 498.00 62.00" xmlns="http://www.w3.org/2000/svg" xmlns:xlink="http://www.w3.org/1999/xlink">
<g id="graph0" class="graph" transform="scale(1 1) rotate(0) translate(4 58)">
<title>ekf::EKF::temporalPrediction</title>
<polygon fill="#ffffff" stroke="transparent" points="-4,4 -4,-58 494,-58 494,4 -4,4"/>
<!-- Node84 -->
<g id="node1" class="node">
<title>Node84</title>
<polygon fill="#bfbfbf" stroke="#000000" points="0,-18.5 0,-35.5 164,-35.5 164,-18.5 0,-18.5"/>
<text text-anchor="middle" x="82" y="-25.1" font-family="DejaVuSansMono" font-size="8.00" fill="#000000">ekf::EKF::temporalPrediction</text>
</g>
<!-- Node85 -->
<g id="node2" class="node">
<title>Node85</title>
<g id="a_node2"><a xlink:href="classekf_1_1EKF.html#a651814ff64d234394572e2e7c5703a43" target="_top" xlink:title="ekf::EKF::loopEKF">
<polygon fill="#ffffff" stroke="#000000" points="200,-18.5 200,-35.5 306,-35.5 306,-18.5 200,-18.5"/>
<text text-anchor="middle" x="253" y="-25.1" font-family="DejaVuSansMono" font-size="8.00" fill="#000000">ekf::EKF::loopEKF</text>
</a>
</g>
</g>
<!-- Node84&#45;&gt;Node85 -->
<g id="edge1" class="edge">
<title>Node84&#45;&gt;Node85</title>
<path fill="none" stroke="#191970" d="M174.4946,-27C183.2067,-27 191.8214,-27 199.9734,-27"/>
<polygon fill="#191970" stroke="#191970" points="174.2444,-23.5001 164.2444,-27 174.2443,-30.5001 174.2444,-23.5001"/>
</g>
<!-- Node86 -->
<g id="node3" class="node">
<title>Node86</title>
<g id="a_node3"><a xlink:href="main_8cpp.html#aa561fc46a0358a47fa9151f211523ba0" target="_top" xlink:title="core_1">
<polygon fill="#ffffff" stroke="#000000" points="352.5,-36.5 352.5,-53.5 400.5,-53.5 400.5,-36.5 352.5,-36.5"/>
<text text-anchor="middle" x="376.5" y="-43.1" font-family="DejaVuSansMono" font-size="8.00" fill="#000000">core_1</text>
</a>
</g>
</g>
<!-- Node85&#45;&gt;Node86 -->
<g id="edge2" class="edge">
<title>Node85&#45;&gt;Node86</title>
<path fill="none" stroke="#191970" d="M316.3338,-36.2308C329.1327,-38.0963 341.8409,-39.9485 352.2569,-41.4666"/>
<polygon fill="#191970" stroke="#191970" points="316.4921,-32.717 306.0918,-34.7381 315.4825,-39.6438 316.4921,-32.717"/>
</g>
<!-- Node88 -->
<g id="node5" class="node">
<title>Node88</title>
<g id="a_node5"><a xlink:href="main_8cpp.html#a50d45340b3399db75c34c3b9f67c1b11" target="_top" xlink:title="telemetria">
<polygon fill="#ffffff" stroke="#000000" points="342,-.5 342,-17.5 411,-17.5 411,-.5 342,-.5"/>
<text text-anchor="middle" x="376.5" y="-7.1" font-family="DejaVuSansMono" font-size="8.00" fill="#000000">telemetria</text>
</a>
</g>
</g>
<!-- Node85&#45;&gt;Node88 -->
<g id="edge4" class="edge">
<title>Node85&#45;&gt;Node88</title>
<path fill="none" stroke="#191970" d="M316.0216,-17.8147C324.8374,-16.5298 333.6187,-15.2499 341.6462,-14.0799"/>
<polygon fill="#191970" stroke="#191970" points="315.4825,-14.3562 306.0918,-19.2619 316.4921,-21.283 315.4825,-14.3562"/>
</g>
<!-- Node87 -->
<g id="node4" class="node">
<title>Node87</title>
<g id="a_node4"><a xlink:href="main_8cpp.html#a4fc01d736fe50cf5b977f755b675f11d" target="_top" xlink:title="setup">
<polygon fill="#ffffff" stroke="#000000" points="447,-36.5 447,-53.5 490,-53.5 490,-36.5 447,-36.5"/>
<text text-anchor="middle" x="468.5" y="-43.1" font-family="DejaVuSansMono" font-size="8.00" fill="#000000">setup</text>
</a>
</g>
</g>
<!-- Node86&#45;&gt;Node87 -->
<g id="edge3" class="edge">
<title>Node86&#45;&gt;Node87</title>
<path fill="none" stroke="#191970" d="M410.9202,-45C423.0215,-45 436.2665,-45 446.9991,-45"/>
<polygon fill="#191970" stroke="#191970" points="410.672,-41.5001 400.6719,-45 410.6719,-48.5001 410.672,-41.5001"/>
</g>
</g>
</svg>
