<?xml version="1.0" encoding="UTF-8" standalone="no"?>
<!DOCTYPE svg PUBLIC "-//W3C//DTD SVG 1.1//EN"
 "http://www.w3.org/Graphics/SVG/1.1/DTD/svg11.dtd">
<!-- Generated by graphviz version 2.40.1 (20161225.0304)
 -->
<!-- Title: lib Pages: 1 -->
<svg width="326pt" height="148pt"
 viewBox="0.00 0.00 326.00 148.00" xmlns="http://www.w3.org/2000/svg" xmlns:xlink="http://www.w3.org/1999/xlink">
<g id="graph0" class="graph" transform="scale(1 1) rotate(0) translate(4 144)">
<title>lib</title>
<polygon fill="#ffffff" stroke="transparent" points="-4,4 -4,-144 322,-144 322,4 -4,4"/>
<g id="clust1" class="cluster">
<title>clusterdir_97aefd0d527b934f1d99a682da8fe6a9</title>
<g id="a_clust1"><a xlink:href="dir_97aefd0d527b934f1d99a682da8fe6a9.html" target="_top">
<polygon fill="#eeeeff" stroke="#000000" points="8,-8 8,-132 310,-132 310,-8 8,-8"/>
</a>
</g>
</g>
<!-- dir_97aefd0d527b934f1d99a682da8fe6a9 -->
<g id="node1" class="node">
<title>dir_97aefd0d527b934f1d99a682da8fe6a9</title>
<text text-anchor="middle" x="275" y="-104.1" font-family="DejaVuSansMono" font-size="8.00" fill="#000000">lib</text>
</g>
<!-- dir_f81b21074929c51f0f8ec4455f2eeb05 -->
<g id="node2" class="node">
<title>dir_f81b21074929c51f0f8ec4455f2eeb05</title>
<g id="a_node2"><a xlink:href="dir_f81b21074929c51f0f8ec4455f2eeb05.html" target="_top" xlink:title="EKF">
<polygon fill="#ffffff" stroke="#000000" points="230,-124 176,-124 176,-88 230,-88 230,-124"/>
<text text-anchor="middle" x="203" y="-104.1" font-family="DejaVuSansMono" font-size="8.00" fill="#000000">EKF</text>
</a>
</g>
</g>
<!-- dir_12ce51c2f27d7b7c42f475577e8e188a -->
<g id="node3" class="node">
<title>dir_12ce51c2f27d7b7c42f475577e8e188a</title>
<g id="a_node3"><a xlink:href="dir_12ce51c2f27d7b7c42f475577e8e188a.html" target="_top" xlink:title="GRUPO_QUAT">
<polygon fill="#ffffff" stroke="#000000" points="157.5,-52 88.5,-52 88.5,-16 157.5,-16 157.5,-52"/>
<text text-anchor="middle" x="123" y="-32.1" font-family="DejaVuSansMono" font-size="8.00" fill="#000000">GRUPO_QUAT</text>
</a>
</g>
</g>
<!-- dir_f81b21074929c51f0f8ec4455f2eeb05&#45;&gt;dir_12ce51c2f27d7b7c42f475577e8e188a -->
<g id="edge1" class="edge">
<title>dir_f81b21074929c51f0f8ec4455f2eeb05&#45;&gt;dir_12ce51c2f27d7b7c42f475577e8e188a</title>
<path fill="none" stroke="#000000" d="M182.8126,-87.8314C173.1486,-79.1337 161.4204,-68.5783 150.9184,-59.1265"/>
<polygon fill="#000000" stroke="#000000" points="152.9553,-56.251 143.1809,-52.1628 148.2725,-61.454 152.9553,-56.251"/>
<g id="a_edge1&#45;headlabel"><a xlink:href="dir_000001_000002.html" target="_top" xlink:title="1">
<text text-anchor="middle" x="157.5265" y="-54.6452" font-family="DejaVuSansMono" font-size="8.00" fill="#000000">1</text>
</a>
</g>
</g>
<!-- dir_3554028ee2797c78c7765098b85f4139 -->
<g id="node4" class="node">
<title>dir_3554028ee2797c78c7765098b85f4139</title>
<g id="a_node4"><a xlink:href="dir_3554028ee2797c78c7765098b85f4139.html" target="_top" xlink:title="IMU">
<polygon fill="#ffffff" stroke="#000000" points="230,-52 176,-52 176,-16 230,-16 230,-52"/>
<text text-anchor="middle" x="203" y="-32.1" font-family="DejaVuSansMono" font-size="8.00" fill="#000000">IMU</text>
</a>
</g>
</g>
<!-- dir_f81b21074929c51f0f8ec4455f2eeb05&#45;&gt;dir_3554028ee2797c78c7765098b85f4139 -->
<g id="edge2" class="edge">
<title>dir_f81b21074929c51f0f8ec4455f2eeb05&#45;&gt;dir_3554028ee2797c78c7765098b85f4139</title>
<path fill="none" stroke="#000000" d="M203,-87.8314C203,-80.131 203,-70.9743 203,-62.4166"/>
<polygon fill="#000000" stroke="#000000" points="206.5001,-62.4132 203,-52.4133 199.5001,-62.4133 206.5001,-62.4132"/>
<g id="a_edge2&#45;headlabel"><a xlink:href="dir_000001_000003.html" target="_top" xlink:title="1">
<text text-anchor="middle" x="209.3393" y="-64.1079" font-family="DejaVuSansMono" font-size="8.00" fill="#000000">1</text>
</a>
</g>
</g>
<!-- dir_6c721e2e855800aadb2bcd35baf8db9a -->
<g id="node7" class="node">
<title>dir_6c721e2e855800aadb2bcd35baf8db9a</title>
<g id="a_node7"><a xlink:href="dir_6c721e2e855800aadb2bcd35baf8db9a.html" target="_top" xlink:title="TIME">
<polygon fill="#ffffff" stroke="#000000" points="302,-52 248,-52 248,-16 302,-16 302,-52"/>
<text text-anchor="middle" x="275" y="-32.1" font-family="DejaVuSansMono" font-size="8.00" fill="#000000">TIME</text>
</a>
</g>
</g>
<!-- dir_f81b21074929c51f0f8ec4455f2eeb05&#45;&gt;dir_6c721e2e855800aadb2bcd35baf8db9a -->
<g id="edge3" class="edge">
<title>dir_f81b21074929c51f0f8ec4455f2eeb05&#45;&gt;dir_6c721e2e855800aadb2bcd35baf8db9a</title>
<path fill="none" stroke="#000000" d="M221.1686,-87.8314C229.7152,-79.2848 240.0557,-68.9443 249.3802,-59.6198"/>
<polygon fill="#000000" stroke="#000000" points="251.9905,-61.9592 256.5867,-52.4133 247.0408,-57.0095 251.9905,-61.9592"/>
<g id="a_edge3&#45;headlabel"><a xlink:href="dir_000001_000006.html" target="_top" xlink:title="1">
<text text-anchor="middle" x="251.4564" y="-64.6087" font-family="DejaVuSansMono" font-size="8.00" fill="#000000">1</text>
</a>
</g>
</g>
<!-- dir_97d622f1f79c74b26eaffd84373e448b -->
<g id="node5" class="node">
<title>dir_97d622f1f79c74b26eaffd84373e448b</title>
<g id="a_node5"><a xlink:href="dir_97d622f1f79c74b26eaffd84373e448b.html" target="_top" xlink:title="RK">
<polygon fill="#ffffff" stroke="#000000" points="158,-124 104,-124 104,-88 158,-88 158,-124"/>
<text text-anchor="middle" x="131" y="-104.1" font-family="DejaVuSansMono" font-size="8.00" fill="#000000">RK</text>
</a>
</g>
</g>
<!-- dir_c71cd14614257cd5fbb26ecd4fda3227 -->
<g id="node6" class="node">
<title>dir_c71cd14614257cd5fbb26ecd4fda3227</title>
<g id="a_node6"><a xlink:href="dir_c71cd14614257cd5fbb26ecd4fda3227.html" target="_top" xlink:title="TELEMETRIA">
<polygon fill="#ffffff" stroke="#000000" points="85.5,-124 16.5,-124 16.5,-88 85.5,-88 85.5,-124"/>
<text text-anchor="middle" x="51" y="-104.1" font-family="DejaVuSansMono" font-size="8.00" fill="#000000">TELEMETRIA</text>
</a>
</g>
</g>
</g>
</svg>
