<?xml version="1.0" encoding="UTF-8" standalone="no"?>
<!DOCTYPE svg PUBLIC "-//W3C//DTD SVG 1.1//EN"
 "http://www.w3.org/Graphics/SVG/1.1/DTD/svg11.dtd">
<!-- Generated by graphviz version 2.40.1 (20161225.0304)
 -->
<!-- Title: lib/EKF Pages: 1 -->
<svg width="222pt" height="149pt"
 viewBox="0.00 0.00 221.50 149.00" xmlns="http://www.w3.org/2000/svg" xmlns:xlink="http://www.w3.org/1999/xlink">
<g id="graph0" class="graph" transform="scale(1 1) rotate(0) translate(4 145)">
<title>lib/EKF</title>
<polygon fill="#ffffff" stroke="transparent" points="-4,4 -4,-145 217.5,-145 217.5,4 -4,4"/>
<g id="clust1" class="cluster">
<title>clusterdir_97aefd0d527b934f1d99a682da8fe6a9</title>
<g id="a_clust1"><a xlink:href="dir_97aefd0d527b934f1d99a682da8fe6a9.html" target="_top" xlink:title="lib">
<polygon fill="#ddddee" stroke="#000000" points="79.5,-64 79.5,-133 149.5,-133 149.5,-64 79.5,-64"/>
<text text-anchor="middle" x="114.5" y="-122.6" font-family="DejaVuSansMono" font-size="8.00" fill="#000000">lib</text>
</a>
</g>
</g>
<!-- dir_f81b21074929c51f0f8ec4455f2eeb05 -->
<g id="node1" class="node">
<title>dir_f81b21074929c51f0f8ec4455f2eeb05</title>
<g id="a_node1"><a xlink:href="dir_f81b21074929c51f0f8ec4455f2eeb05.html" target="_top" xlink:title="EKF">
<polygon fill="#eeeeff" stroke="#000000" points="141.5,-108 87.5,-108 87.5,-72 141.5,-72 141.5,-108"/>
<text text-anchor="middle" x="114.5" y="-88.1" font-family="DejaVuSansMono" font-size="8.00" fill="#000000">EKF</text>
</a>
</g>
</g>
<!-- dir_12ce51c2f27d7b7c42f475577e8e188a -->
<g id="node2" class="node">
<title>dir_12ce51c2f27d7b7c42f475577e8e188a</title>
<g id="a_node2"><a xlink:href="dir_12ce51c2f27d7b7c42f475577e8e188a.html" target="_top" xlink:title="GRUPO_QUAT">
<polygon fill="none" stroke="#000000" points="69,-36 0,-36 0,0 69,0 69,-36"/>
<text text-anchor="middle" x="34.5" y="-16.1" font-family="DejaVuSansMono" font-size="8.00" fill="#000000">GRUPO_QUAT</text>
</a>
</g>
</g>
<!-- dir_f81b21074929c51f0f8ec4455f2eeb05&#45;&gt;dir_12ce51c2f27d7b7c42f475577e8e188a -->
<g id="edge1" class="edge">
<title>dir_f81b21074929c51f0f8ec4455f2eeb05&#45;&gt;dir_12ce51c2f27d7b7c42f475577e8e188a</title>
<path fill="none" stroke="#000000" d="M94.3126,-71.8314C84.6486,-63.1337 72.9204,-52.5783 62.4184,-43.1265"/>
<polygon fill="#000000" stroke="#000000" points="64.4553,-40.251 54.6809,-36.1628 59.7725,-45.454 64.4553,-40.251"/>
<g id="a_edge1&#45;headlabel"><a xlink:href="dir_000001_000002.html" target="_top" xlink:title="1">
<text text-anchor="middle" x="69.0265" y="-38.6452" font-family="DejaVuSansMono" font-size="8.00" fill="#000000">1</text>
</a>
</g>
</g>
<!-- dir_3554028ee2797c78c7765098b85f4139 -->
<g id="node3" class="node">
<title>dir_3554028ee2797c78c7765098b85f4139</title>
<g id="a_node3"><a xlink:href="dir_3554028ee2797c78c7765098b85f4139.html" target="_top" xlink:title="IMU">
<polygon fill="none" stroke="#000000" points="141.5,-36 87.5,-36 87.5,0 141.5,0 141.5,-36"/>
<text text-anchor="middle" x="114.5" y="-16.1" font-family="DejaVuSansMono" font-size="8.00" fill="#000000">IMU</text>
</a>
</g>
</g>
<!-- dir_f81b21074929c51f0f8ec4455f2eeb05&#45;&gt;dir_3554028ee2797c78c7765098b85f4139 -->
<g id="edge2" class="edge">
<title>dir_f81b21074929c51f0f8ec4455f2eeb05&#45;&gt;dir_3554028ee2797c78c7765098b85f4139</title>
<path fill="none" stroke="#000000" d="M114.5,-71.8314C114.5,-64.131 114.5,-54.9743 114.5,-46.4166"/>
<polygon fill="#000000" stroke="#000000" points="118.0001,-46.4132 114.5,-36.4133 111.0001,-46.4133 118.0001,-46.4132"/>
<g id="a_edge2&#45;headlabel"><a xlink:href="dir_000001_000003.html" target="_top" xlink:title="1">
<text text-anchor="middle" x="120.8393" y="-48.1079" font-family="DejaVuSansMono" font-size="8.00" fill="#000000">1</text>
</a>
</g>
</g>
<!-- dir_6c721e2e855800aadb2bcd35baf8db9a -->
<g id="node4" class="node">
<title>dir_6c721e2e855800aadb2bcd35baf8db9a</title>
<g id="a_node4"><a xlink:href="dir_6c721e2e855800aadb2bcd35baf8db9a.html" target="_top" xlink:title="TIME">
<polygon fill="none" stroke="#000000" points="213.5,-36 159.5,-36 159.5,0 213.5,0 213.5,-36"/>
<text text-anchor="middle" x="186.5" y="-16.1" font-family="DejaVuSansMono" font-size="8.00" fill="#000000">TIME</text>
</a>
</g>
</g>
<!-- dir_f81b21074929c51f0f8ec4455f2eeb05&#45;&gt;dir_6c721e2e855800aadb2bcd35baf8db9a -->
<g id="edge3" class="edge">
<title>dir_f81b21074929c51f0f8ec4455f2eeb05&#45;&gt;dir_6c721e2e855800aadb2bcd35baf8db9a</title>
<path fill="none" stroke="#000000" d="M132.6686,-71.8314C141.2152,-63.2848 151.5557,-52.9443 160.8802,-43.6198"/>
<polygon fill="#000000" stroke="#000000" points="163.4905,-45.9592 168.0867,-36.4133 158.5408,-41.0095 163.4905,-45.9592"/>
<g id="a_edge3&#45;headlabel"><a xlink:href="dir_000001_000006.html" target="_top" xlink:title="1">
<text text-anchor="middle" x="162.9564" y="-48.6087" font-family="DejaVuSansMono" font-size="8.00" fill="#000000">1</text>
</a>
</g>
</g>
</g>
</svg>
