<?xml version="1.0" encoding="UTF-8" standalone="no"?>
<!DOCTYPE svg PUBLIC "-//W3C//DTD SVG 1.1//EN"
 "http://www.w3.org/Graphics/SVG/1.1/DTD/svg11.dtd">
<!-- Generated by graphviz version 2.40.1 (20161225.0304)
 -->
<!-- Title: lib/EKF/EKF.h Pages: 1 -->
<svg width="164pt" height="80pt"
 viewBox="0.00 0.00 164.00 80.00" xmlns="http://www.w3.org/2000/svg" xmlns:xlink="http://www.w3.org/1999/xlink">
<g id="graph0" class="graph" transform="scale(1 1) rotate(0) translate(4 76)">
<title>lib/EKF/EKF.h</title>
<polygon fill="#ffffff" stroke="transparent" points="-4,4 -4,-76 160,-76 160,4 -4,4"/>
<!-- Node0 -->
<g id="node1" class="node">
<title>Node0</title>
<polygon fill="#bfbfbf" stroke="#000000" points="37.5,-54.5 37.5,-71.5 122.5,-71.5 122.5,-54.5 37.5,-54.5"/>
<text text-anchor="middle" x="80" y="-61.1" font-family="DejaVuSansMono" font-size="8.00" fill="#000000">lib/EKF/EKF.h</text>
</g>
<!-- Node1 -->
<g id="node2" class="node">
<title>Node1</title>
<polygon fill="#ffffff" stroke="#bfbfbf" points="0,-.5 0,-17.5 74,-17.5 74,-.5 0,-.5"/>
<text text-anchor="middle" x="37" y="-7.1" font-family="DejaVuSansMono" font-size="8.00" fill="#000000">Eigen/Dense</text>
</g>
<!-- Node0&#45;&gt;Node1 -->
<g id="edge1" class="edge">
<title>Node0&#45;&gt;Node1</title>
<path fill="none" stroke="#191970" d="M72.8994,-54.083C66.763,-46.3768 57.7303,-35.0333 50.2608,-25.6531"/>
<polygon fill="#191970" stroke="#191970" points="52.9357,-23.3936 43.9685,-17.7511 47.4598,-27.7542 52.9357,-23.3936"/>
</g>
<!-- Node2 -->
<g id="node3" class="node">
<title>Node2</title>
<polygon fill="#ffffff" stroke="#bfbfbf" points="92,-.5 92,-17.5 156,-17.5 156,-.5 92,-.5"/>
<text text-anchor="middle" x="124" y="-7.1" font-family="DejaVuSansMono" font-size="8.00" fill="#000000">Arduino.h</text>
</g>
<!-- Node0&#45;&gt;Node2 -->
<g id="edge2" class="edge">
<title>Node0&#45;&gt;Node2</title>
<path fill="none" stroke="#191970" d="M87.2657,-54.083C93.5448,-46.3768 102.7876,-35.0333 110.4308,-25.6531"/>
<polygon fill="#191970" stroke="#191970" points="113.2661,-27.7143 116.8695,-17.7511 107.8394,-23.2926 113.2661,-27.7143"/>
</g>
</g>
</svg>
