<?xml version="1.0" encoding="UTF-8" standalone="no"?>
<!DOCTYPE svg PUBLIC "-//W3C//DTD SVG 1.1//EN"
 "http://www.w3.org/Graphics/SVG/1.1/DTD/svg11.dtd">
<!-- Generated by graphviz version 2.40.1 (20161225.0304)
 -->
<!-- Title: lib/EKF/EKF.cpp Pages: 1 -->
<svg width="642pt" height="188pt"
 viewBox="0.00 0.00 641.63 188.00" xmlns="http://www.w3.org/2000/svg" xmlns:xlink="http://www.w3.org/1999/xlink">
<g id="graph0" class="graph" transform="scale(1 1) rotate(0) translate(4 184)">
<title>lib/EKF/EKF.cpp</title>
<polygon fill="#ffffff" stroke="transparent" points="-4,4 -4,-184 637.6293,-184 637.6293,4 -4,4"/>
<!-- Node0 -->
<g id="node1" class="node">
<title>Node0</title>
<polygon fill="#bfbfbf" stroke="#000000" points="372.5,-162.5 372.5,-179.5 467.5,-179.5 467.5,-162.5 372.5,-162.5"/>
<text text-anchor="middle" x="420" y="-169.1" font-family="DejaVuSansMono" font-size="8.00" fill="#000000">lib/EKF/EKF.cpp</text>
</g>
<!-- Node1 -->
<g id="node2" class="node">
<title>Node1</title>
<g id="a_node2"><a xlink:href="EKF_8h.html" target="_top" xlink:title="Classe que implementa o filtro de Kalman estendido. ">
<polygon fill="#ffffff" stroke="#000000" points="374.5,-54.5 374.5,-71.5 417.5,-71.5 417.5,-54.5 374.5,-54.5"/>
<text text-anchor="middle" x="396" y="-61.1" font-family="DejaVuSansMono" font-size="8.00" fill="#000000">EKF.h</text>
</a>
</g>
</g>
<!-- Node0&#45;&gt;Node1 -->
<g id="edge1" class="edge">
<title>Node0&#45;&gt;Node1</title>
<path fill="none" stroke="#191970" d="M418.036,-162.1619C414.1315,-144.5918 405.3214,-104.9465 400.1007,-81.4532"/>
<polygon fill="#191970" stroke="#191970" points="403.5101,-80.661 397.9241,-71.6584 396.6768,-82.1795 403.5101,-80.661"/>
</g>
<!-- Node3 -->
<g id="node4" class="node">
<title>Node3</title>
<polygon fill="#ffffff" stroke="#bfbfbf" points="364,-.5 364,-17.5 428,-17.5 428,-.5 364,-.5"/>
<text text-anchor="middle" x="396" y="-7.1" font-family="DejaVuSansMono" font-size="8.00" fill="#000000">Arduino.h</text>
</g>
<!-- Node0&#45;&gt;Node3 -->
<g id="edge19" class="edge">
<title>Node0&#45;&gt;Node3</title>
<path fill="none" stroke="#191970" d="M467.7054,-162.7157C541.7504,-147.8344 671.082,-112.5493 623,-54 600.0889,-26.1012 497.4807,-15.1962 438.3592,-11.1743"/>
<polygon fill="#191970" stroke="#191970" points="438.4108,-7.6705 428.207,-10.5221 437.962,-14.6561 438.4108,-7.6705"/>
</g>
<!-- Node4 -->
<g id="node5" class="node">
<title>Node4</title>
<g id="a_node5"><a xlink:href="GPS_8h.html" target="_top" xlink:title="Simples Cabecalho de funcoes para leituras do GPS. ">
<polygon fill="#ffffff" stroke="#000000" points="488.5,-108.5 488.5,-125.5 531.5,-125.5 531.5,-108.5 488.5,-108.5"/>
<text text-anchor="middle" x="510" y="-115.1" font-family="DejaVuSansMono" font-size="8.00" fill="#000000">GPS.h</text>
</a>
</g>
</g>
<!-- Node0&#45;&gt;Node4 -->
<g id="edge4" class="edge">
<title>Node0&#45;&gt;Node4</title>
<path fill="none" stroke="#191970" d="M434.4601,-162.324C448.4996,-153.9002 470.0485,-140.9709 486.5431,-131.0741"/>
<polygon fill="#191970" stroke="#191970" points="488.8016,-133.8007 495.5758,-125.6545 485.2001,-127.7983 488.8016,-133.8007"/>
</g>
<!-- Node6 -->
<g id="node7" class="node">
<title>Node6</title>
<g id="a_node7"><a xlink:href="GRUPO__QUAT_8h.html" target="_top" xlink:title="Cabecalho com funcoes de quaternion. ">
<polygon fill="#ffffff" stroke="#000000" points="0,-54.5 0,-71.5 80,-71.5 80,-54.5 0,-54.5"/>
<text text-anchor="middle" x="40" y="-61.1" font-family="DejaVuSansMono" font-size="8.00" fill="#000000">GRUPO_QUAT.h</text>
</a>
</g>
</g>
<!-- Node0&#45;&gt;Node6 -->
<g id="edge7" class="edge">
<title>Node0&#45;&gt;Node6</title>
<path fill="none" stroke="#191970" d="M379.3346,-162.4508C340.6815,-154.07 281.0383,-140.4756 230,-126 174.2961,-110.2012 110.6202,-88.2817 72.9438,-74.9006"/>
<polygon fill="#191970" stroke="#191970" points="74.085,-71.5917 63.4904,-71.5283 71.7331,-78.1848 74.085,-71.5917"/>
</g>
<!-- Node7 -->
<g id="node8" class="node">
<title>Node7</title>
<g id="a_node8"><a xlink:href="TIME_8h.html" target="_top" xlink:title="Classe para medir Intervalo de tempo entre duas chamadas. ">
<polygon fill="#ffffff" stroke="#000000" points="422,-108.5 422,-125.5 470,-125.5 470,-108.5 422,-108.5"/>
<text text-anchor="middle" x="446" y="-115.1" font-family="DejaVuSansMono" font-size="8.00" fill="#000000">TIME.h</text>
</a>
</g>
</g>
<!-- Node0&#45;&gt;Node7 -->
<g id="edge10" class="edge">
<title>Node0&#45;&gt;Node7</title>
<path fill="none" stroke="#191970" d="M424.2934,-162.083C427.8523,-154.6913 433.0225,-143.9533 437.4243,-134.8111"/>
<polygon fill="#191970" stroke="#191970" points="440.6018,-136.2795 441.7865,-125.7511 434.2948,-133.2427 440.6018,-136.2795"/>
</g>
<!-- Node8 -->
<g id="node9" class="node">
<title>Node8</title>
<g id="a_node9"><a xlink:href="IMU_8h.html" target="_top" xlink:title="IMU.h">
<polygon fill="#ffffff" stroke="#000000" points="238.5,-108.5 238.5,-125.5 281.5,-125.5 281.5,-108.5 238.5,-108.5"/>
<text text-anchor="middle" x="260" y="-115.1" font-family="DejaVuSansMono" font-size="8.00" fill="#000000">IMU.h</text>
</a>
</g>
</g>
<!-- Node0&#45;&gt;Node8 -->
<g id="edge12" class="edge">
<title>Node0&#45;&gt;Node8</title>
<path fill="none" stroke="#191970" d="M394.6475,-162.4435C366.6223,-152.985 321.4582,-137.7421 291.2622,-127.551"/>
<polygon fill="#191970" stroke="#191970" points="292.2362,-124.1858 281.642,-124.3042 289.9977,-130.8183 292.2362,-124.1858"/>
</g>
<!-- Node2 -->
<g id="node3" class="node">
<title>Node2</title>
<polygon fill="#ffffff" stroke="#bfbfbf" points="147,-.5 147,-17.5 221,-17.5 221,-.5 147,-.5"/>
<text text-anchor="middle" x="184" y="-7.1" font-family="DejaVuSansMono" font-size="8.00" fill="#000000">Eigen/Dense</text>
</g>
<!-- Node1&#45;&gt;Node2 -->
<g id="edge2" class="edge">
<title>Node1&#45;&gt;Node2</title>
<path fill="none" stroke="#191970" d="M374.1108,-57.4244C339.5886,-48.6311 271.847,-31.3761 227.2535,-20.0174"/>
<polygon fill="#191970" stroke="#191970" points="228.1118,-16.6243 217.5573,-17.5476 226.3839,-23.4077 228.1118,-16.6243"/>
</g>
<!-- Node1&#45;&gt;Node3 -->
<g id="edge3" class="edge">
<title>Node1&#45;&gt;Node3</title>
<path fill="none" stroke="#191970" d="M396,-54.083C396,-47.0059 396,-36.8611 396,-27.9865"/>
<polygon fill="#191970" stroke="#191970" points="399.5001,-27.751 396,-17.7511 392.5001,-27.7511 399.5001,-27.751"/>
</g>
<!-- Node4&#45;&gt;Node3 -->
<g id="edge5" class="edge">
<title>Node4&#45;&gt;Node3</title>
<path fill="none" stroke="#191970" d="M501.0571,-108.4148C488.3903,-96.2657 464.4832,-73.3768 444,-54 433.6027,-44.1643 421.8846,-33.1767 412.6294,-24.521"/>
<polygon fill="#191970" stroke="#191970" points="414.9212,-21.8724 405.225,-17.6023 410.142,-26.987 414.9212,-21.8724"/>
</g>
<!-- Node5 -->
<g id="node6" class="node">
<title>Node5</title>
<polygon fill="#ffffff" stroke="#bfbfbf" points="512.5,-54.5 512.5,-71.5 613.5,-71.5 613.5,-54.5 512.5,-54.5"/>
<text text-anchor="middle" x="563" y="-61.1" font-family="DejaVuSansMono" font-size="8.00" fill="#000000">HardwareSerial.h</text>
</g>
<!-- Node4&#45;&gt;Node5 -->
<g id="edge6" class="edge">
<title>Node4&#45;&gt;Node5</title>
<path fill="none" stroke="#191970" d="M518.7519,-108.083C526.4697,-100.2195 537.9047,-88.5688 547.2165,-79.0813"/>
<polygon fill="#191970" stroke="#191970" points="549.9042,-81.3396 554.411,-71.7511 544.9084,-76.4363 549.9042,-81.3396"/>
</g>
<!-- Node6&#45;&gt;Node2 -->
<g id="edge8" class="edge">
<title>Node6&#45;&gt;Node2</title>
<path fill="none" stroke="#191970" d="M62.8172,-54.4435C86.8317,-45.4381 124.829,-31.1891 151.8692,-21.049"/>
<polygon fill="#191970" stroke="#191970" points="153.1552,-24.3049 161.2895,-17.5164 150.6973,-17.7506 153.1552,-24.3049"/>
</g>
<!-- Node6&#45;&gt;Node3 -->
<g id="edge9" class="edge">
<title>Node6&#45;&gt;Node3</title>
<path fill="none" stroke="#191970" d="M80.1457,-56.9105C147.9472,-46.626 284.5056,-25.9121 353.7202,-15.4132"/>
<polygon fill="#191970" stroke="#191970" points="354.4667,-18.8401 363.8287,-13.8799 353.4169,-11.9193 354.4667,-18.8401"/>
</g>
<!-- Node7&#45;&gt;Node3 -->
<g id="edge11" class="edge">
<title>Node7&#45;&gt;Node3</title>
<path fill="none" stroke="#191970" d="M444.2368,-108.1225C441.5541,-95.6263 435.8096,-72.3275 427,-54 422.2311,-44.0789 415.4168,-33.9068 409.3909,-25.7492"/>
<polygon fill="#191970" stroke="#191970" points="412.1564,-23.6039 403.2957,-17.7954 406.6002,-27.8617 412.1564,-23.6039"/>
</g>
<!-- Node8&#45;&gt;Node2 -->
<g id="edge13" class="edge">
<title>Node8&#45;&gt;Node2</title>
<path fill="none" stroke="#191970" d="M238.2937,-112.8211C204.0912,-105.746 140.1783,-90.371 127,-72 113.894,-53.7298 136.6082,-34.8793 157.1298,-22.6181"/>
<polygon fill="#191970" stroke="#191970" points="158.982,-25.5918 165.9731,-17.6309 155.5434,-19.4945 158.982,-25.5918"/>
</g>
<!-- Node8&#45;&gt;Node3 -->
<g id="edge17" class="edge">
<title>Node8&#45;&gt;Node3</title>
<path fill="none" stroke="#191970" d="M274.0211,-108.4406C287.8758,-99.7865 309.4779,-85.7599 327,-72 346.1964,-56.9253 366.6642,-37.8067 380.2771,-24.6059"/>
<polygon fill="#191970" stroke="#191970" points="382.7429,-27.09 387.4386,-17.5926 377.8451,-22.0888 382.7429,-27.09"/>
</g>
<!-- Node9 -->
<g id="node10" class="node">
<title>Node9</title>
<g id="a_node10"><a xlink:href="METODOSCALIBRACAO_8h.html" target="_top" xlink:title="METODOSCALIBRACAO.h">
<polygon fill="#ffffff" stroke="#000000" points="202,-54.5 202,-71.5 318,-71.5 318,-54.5 202,-54.5"/>
<text text-anchor="middle" x="260" y="-61.1" font-family="DejaVuSansMono" font-size="8.00" fill="#000000">METODOSCALIBRACAO.h</text>
</a>
</g>
</g>
<!-- Node8&#45;&gt;Node9 -->
<g id="edge14" class="edge">
<title>Node8&#45;&gt;Node9</title>
<path fill="none" stroke="#191970" d="M260,-108.083C260,-101.0059 260,-90.8611 260,-81.9865"/>
<polygon fill="#191970" stroke="#191970" points="263.5001,-81.751 260,-71.7511 256.5001,-81.7511 263.5001,-81.751"/>
</g>
<!-- Node10 -->
<g id="node11" class="node">
<title>Node10</title>
<polygon fill="#ffffff" stroke="#bfbfbf" points="136,-54.5 136,-71.5 184,-71.5 184,-54.5 136,-54.5"/>
<text text-anchor="middle" x="160" y="-61.1" font-family="DejaVuSansMono" font-size="8.00" fill="#000000">Wire.h</text>
</g>
<!-- Node8&#45;&gt;Node10 -->
<g id="edge18" class="edge">
<title>Node8&#45;&gt;Node10</title>
<path fill="none" stroke="#191970" d="M243.9333,-108.324C228.0422,-99.7428 203.4926,-86.486 185.0415,-76.5224"/>
<polygon fill="#191970" stroke="#191970" points="186.489,-73.3264 176.0269,-71.6545 183.1629,-79.4857 186.489,-73.3264"/>
</g>
<!-- Node9&#45;&gt;Node2 -->
<g id="edge15" class="edge">
<title>Node9&#45;&gt;Node2</title>
<path fill="none" stroke="#191970" d="M247.7893,-54.324C236.2241,-46.1066 218.6246,-33.6017 204.8393,-23.8069"/>
<polygon fill="#191970" stroke="#191970" points="206.612,-20.7729 196.4329,-17.8339 202.5575,-26.4791 206.612,-20.7729"/>
</g>
<!-- Node9&#45;&gt;Node3 -->
<g id="edge16" class="edge">
<title>Node9&#45;&gt;Node3</title>
<path fill="none" stroke="#191970" d="M281.5496,-54.4435C304.031,-45.5171 339.4877,-31.4387 364.9799,-21.3168"/>
<polygon fill="#191970" stroke="#191970" points="366.5487,-24.4598 374.5512,-17.5164 363.9654,-17.9539 366.5487,-24.4598"/>
</g>
</g>
</svg>
