<?xml version="1.0" encoding="UTF-8" standalone="no"?>
<!DOCTYPE svg PUBLIC "-//W3C//DTD SVG 1.1//EN"
 "http://www.w3.org/Graphics/SVG/1.1/DTD/svg11.dtd">
<!-- Generated by graphviz version 2.40.1 (20161225.0304)
 -->
<!-- Title: lib/EKF/EKF.h Pages: 1 -->
<svg width="202pt" height="80pt"
 viewBox="0.00 0.00 201.50 80.00" xmlns="http://www.w3.org/2000/svg" xmlns:xlink="http://www.w3.org/1999/xlink">
<g id="graph0" class="graph" transform="scale(1 1) rotate(0) translate(4 76)">
<title>lib/EKF/EKF.h</title>
<polygon fill="#ffffff" stroke="transparent" points="-4,4 -4,-76 197.5,-76 197.5,4 -4,4"/>
<!-- Node3 -->
<g id="node1" class="node">
<title>Node3</title>
<polygon fill="#bfbfbf" stroke="#000000" points="58,-54.5 58,-71.5 143,-71.5 143,-54.5 58,-54.5"/>
<text text-anchor="middle" x="100.5" y="-61.1" font-family="DejaVuSansMono" font-size="8.00" fill="#000000">lib/EKF/EKF.h</text>
</g>
<!-- Node4 -->
<g id="node2" class="node">
<title>Node4</title>
<g id="a_node2"><a xlink:href="EKF_8cpp.html" target="_top" xlink:title="Classe que implementa o filtro de Kalman estendido. ">
<polygon fill="#ffffff" stroke="#000000" points="0,-.5 0,-17.5 95,-17.5 95,-.5 0,-.5"/>
<text text-anchor="middle" x="47.5" y="-7.1" font-family="DejaVuSansMono" font-size="8.00" fill="#000000">lib/EKF/EKF.cpp</text>
</a>
</g>
</g>
<!-- Node3&#45;&gt;Node4 -->
<g id="edge1" class="edge">
<title>Node3&#45;&gt;Node4</title>
<path fill="none" stroke="#191970" d="M84.5191,-46.7175C75.1775,-37.1997 63.7541,-25.5608 56.089,-17.7511"/>
<polygon fill="#191970" stroke="#191970" points="82.2455,-49.3978 91.7481,-54.083 87.2413,-44.4945 82.2455,-49.3978"/>
</g>
<!-- Node5 -->
<g id="node3" class="node">
<title>Node5</title>
<g id="a_node3"><a xlink:href="main_8cpp.html" target="_top" xlink:title="src/main.cpp">
<polygon fill="#ffffff" stroke="#000000" points="113.5,-.5 113.5,-17.5 193.5,-17.5 193.5,-.5 113.5,-.5"/>
<text text-anchor="middle" x="153.5" y="-7.1" font-family="DejaVuSansMono" font-size="8.00" fill="#000000">src/main.cpp</text>
</a>
</g>
</g>
<!-- Node3&#45;&gt;Node5 -->
<g id="edge2" class="edge">
<title>Node3&#45;&gt;Node5</title>
<path fill="none" stroke="#191970" d="M116.4809,-46.7175C125.8225,-37.1997 137.2459,-25.5608 144.911,-17.7511"/>
<polygon fill="#191970" stroke="#191970" points="113.7587,-44.4945 109.2519,-54.083 118.7545,-49.3978 113.7587,-44.4945"/>
</g>
</g>
</svg>
