<?xml version="1.0" encoding="UTF-8" standalone="no"?>
<!DOCTYPE svg PUBLIC "-//W3C//DTD SVG 1.1//EN"
 "http://www.w3.org/Graphics/SVG/1.1/DTD/svg11.dtd">
<!-- Generated by graphviz version 2.40.1 (20161225.0304)
 -->
<!-- Title: processGPS Pages: 1 -->
<svg width="813pt" height="80pt"
 viewBox="0.00 0.00 813.00 80.00" xmlns="http://www.w3.org/2000/svg" xmlns:xlink="http://www.w3.org/1999/xlink">
<g id="graph0" class="graph" transform="scale(1 1) rotate(0) translate(4 76)">
<title>processGPS</title>
<polygon fill="#ffffff" stroke="transparent" points="-4,4 -4,-76 809,-76 809,4 -4,4"/>
<!-- Node47 -->
<g id="node1" class="node">
<title>Node47</title>
<polygon fill="#bfbfbf" stroke="#000000" points="0,-18.5 0,-35.5 69,-35.5 69,-18.5 0,-18.5"/>
<text text-anchor="middle" x="34.5" y="-25.1" font-family="DejaVuSansMono" font-size="8.00" fill="#000000">processGPS</text>
</g>
<!-- Node48 -->
<g id="node2" class="node">
<title>Node48</title>
<g id="a_node2"><a xlink:href="classekf_1_1EKF.html#a84048d25ebfb6431d7b1372b7315a7a3" target="_top" xlink:title="Atualiza a medicao a partir dos sensores da unidade Margin e GPS. ">
<polygon fill="#ffffff" stroke="#000000" points="105,-36.5 105,-53.5 279,-53.5 279,-36.5 105,-36.5"/>
<text text-anchor="middle" x="192" y="-43.1" font-family="DejaVuSansMono" font-size="8.00" fill="#000000">ekf::EKF::updateOfMeasurements</text>
</a>
</g>
</g>
<!-- Node47&#45;&gt;Node48 -->
<g id="edge1" class="edge">
<title>Node47&#45;&gt;Node48</title>
<path fill="none" stroke="#191970" d="M79.195,-32.108C91.1445,-33.4737 104.3896,-34.9874 117.4785,-36.4833"/>
<polygon fill="#191970" stroke="#191970" points="79.3968,-28.6084 69.064,-30.9502 78.6019,-35.5631 79.3968,-28.6084"/>
</g>
<!-- Node54 -->
<g id="node8" class="node">
<title>Node54</title>
<g id="a_node8"><a xlink:href="GPS_8h.html#aaab66558a5f695df7a6fcc3baa340da3" target="_top" xlink:title="gps_imprime">
<polygon fill="#ffffff" stroke="#000000" points="155,-.5 155,-17.5 229,-17.5 229,-.5 155,-.5"/>
<text text-anchor="middle" x="192" y="-7.1" font-family="DejaVuSansMono" font-size="8.00" fill="#000000">gps_imprime</text>
</a>
</g>
</g>
<!-- Node47&#45;&gt;Node54 -->
<g id="edge7" class="edge">
<title>Node47&#45;&gt;Node54</title>
<path fill="none" stroke="#191970" d="M79.2821,-21.882C103.1447,-19.1549 132.1548,-15.8395 154.7682,-13.2551"/>
<polygon fill="#191970" stroke="#191970" points="78.6019,-18.4369 69.064,-23.0498 79.3968,-25.3916 78.6019,-18.4369"/>
</g>
<!-- Node49 -->
<g id="node3" class="node">
<title>Node49</title>
<g id="a_node3"><a xlink:href="classekf_1_1EKF.html#a548f56f22a519f1f66b1bf59b9ed56d6" target="_top" xlink:title="ekf::EKF::temporalPrediction">
<polygon fill="#ffffff" stroke="#000000" points="315,-36.5 315,-53.5 479,-53.5 479,-36.5 315,-36.5"/>
<text text-anchor="middle" x="397" y="-43.1" font-family="DejaVuSansMono" font-size="8.00" fill="#000000">ekf::EKF::temporalPrediction</text>
</a>
</g>
</g>
<!-- Node48&#45;&gt;Node49 -->
<g id="edge2" class="edge">
<title>Node48&#45;&gt;Node49</title>
<path fill="none" stroke="#191970" d="M289.4954,-45C297.9376,-45 306.4252,-45 314.7284,-45"/>
<polygon fill="#191970" stroke="#191970" points="289.2357,-41.5001 279.2357,-45 289.2357,-48.5001 289.2357,-41.5001"/>
</g>
<!-- Node50 -->
<g id="node4" class="node">
<title>Node50</title>
<g id="a_node4"><a xlink:href="classekf_1_1EKF.html#a651814ff64d234394572e2e7c5703a43" target="_top" xlink:title="ekf::EKF::loopEKF">
<polygon fill="#ffffff" stroke="#000000" points="515,-36.5 515,-53.5 621,-53.5 621,-36.5 515,-36.5"/>
<text text-anchor="middle" x="568" y="-43.1" font-family="DejaVuSansMono" font-size="8.00" fill="#000000">ekf::EKF::loopEKF</text>
</a>
</g>
</g>
<!-- Node49&#45;&gt;Node50 -->
<g id="edge3" class="edge">
<title>Node49&#45;&gt;Node50</title>
<path fill="none" stroke="#191970" d="M489.4946,-45C498.2067,-45 506.8214,-45 514.9734,-45"/>
<polygon fill="#191970" stroke="#191970" points="489.2444,-41.5001 479.2444,-45 489.2443,-48.5001 489.2444,-41.5001"/>
</g>
<!-- Node51 -->
<g id="node5" class="node">
<title>Node51</title>
<g id="a_node5"><a xlink:href="main_8cpp.html#aa561fc46a0358a47fa9151f211523ba0" target="_top" xlink:title="core_1">
<polygon fill="#ffffff" stroke="#000000" points="667.5,-54.5 667.5,-71.5 715.5,-71.5 715.5,-54.5 667.5,-54.5"/>
<text text-anchor="middle" x="691.5" y="-61.1" font-family="DejaVuSansMono" font-size="8.00" fill="#000000">core_1</text>
</a>
</g>
</g>
<!-- Node50&#45;&gt;Node51 -->
<g id="edge4" class="edge">
<title>Node50&#45;&gt;Node51</title>
<path fill="none" stroke="#191970" d="M631.3338,-54.2308C644.1327,-56.0963 656.8409,-57.9485 667.2569,-59.4666"/>
<polygon fill="#191970" stroke="#191970" points="631.4921,-50.717 621.0918,-52.7381 630.4825,-57.6438 631.4921,-50.717"/>
</g>
<!-- Node53 -->
<g id="node7" class="node">
<title>Node53</title>
<g id="a_node7"><a xlink:href="main_8cpp.html#a50d45340b3399db75c34c3b9f67c1b11" target="_top" xlink:title="telemetria">
<polygon fill="#ffffff" stroke="#000000" points="657,-18.5 657,-35.5 726,-35.5 726,-18.5 657,-18.5"/>
<text text-anchor="middle" x="691.5" y="-25.1" font-family="DejaVuSansMono" font-size="8.00" fill="#000000">telemetria</text>
</a>
</g>
</g>
<!-- Node50&#45;&gt;Node53 -->
<g id="edge6" class="edge">
<title>Node50&#45;&gt;Node53</title>
<path fill="none" stroke="#191970" d="M631.0216,-35.8147C639.8374,-34.5298 648.6187,-33.2499 656.6462,-32.0799"/>
<polygon fill="#191970" stroke="#191970" points="630.4825,-32.3562 621.0918,-37.2619 631.4921,-39.283 630.4825,-32.3562"/>
</g>
<!-- Node52 -->
<g id="node6" class="node">
<title>Node52</title>
<g id="a_node6"><a xlink:href="main_8cpp.html#a4fc01d736fe50cf5b977f755b675f11d" target="_top" xlink:title="setup">
<polygon fill="#ffffff" stroke="#000000" points="762,-54.5 762,-71.5 805,-71.5 805,-54.5 762,-54.5"/>
<text text-anchor="middle" x="783.5" y="-61.1" font-family="DejaVuSansMono" font-size="8.00" fill="#000000">setup</text>
</a>
</g>
</g>
<!-- Node51&#45;&gt;Node52 -->
<g id="edge5" class="edge">
<title>Node51&#45;&gt;Node52</title>
<path fill="none" stroke="#191970" d="M725.9202,-63C738.0215,-63 751.2665,-63 761.9991,-63"/>
<polygon fill="#191970" stroke="#191970" points="725.672,-59.5001 715.6719,-63 725.6719,-66.5001 725.672,-59.5001"/>
</g>
</g>
</svg>
