<?xml version="1.0" encoding="UTF-8" standalone="no"?>
<!DOCTYPE svg PUBLIC "-//W3C//DTD SVG 1.1//EN"
 "http://www.w3.org/Graphics/SVG/1.1/DTD/svg11.dtd">
<!-- Generated by graphviz version 2.40.1 (20161225.0304)
 -->
<!-- Title: calcChecksum Pages: 1 -->
<svg width="929pt" height="80pt"
 viewBox="0.00 0.00 929.00 80.00" xmlns="http://www.w3.org/2000/svg" xmlns:xlink="http://www.w3.org/1999/xlink">
<g id="graph0" class="graph" transform="scale(1 1) rotate(0) translate(4 76)">
<title>calcChecksum</title>
<polygon fill="#ffffff" stroke="transparent" points="-4,4 -4,-76 925,-76 925,4 -4,4"/>
<!-- Node1 -->
<g id="node1" class="node">
<title>Node1</title>
<polygon fill="#bfbfbf" stroke="#000000" points="0,-18.5 0,-35.5 80,-35.5 80,-18.5 0,-18.5"/>
<text text-anchor="middle" x="40" y="-25.1" font-family="DejaVuSansMono" font-size="8.00" fill="#000000">calcChecksum</text>
</g>
<!-- Node2 -->
<g id="node2" class="node">
<title>Node2</title>
<g id="a_node2"><a xlink:href="GPS_8h.html#ad604e63cc857e5663dfba96c37c66bc7" target="_top" xlink:title="processGPS">
<polygon fill="#ffffff" stroke="#000000" points="116,-18.5 116,-35.5 185,-35.5 185,-18.5 116,-18.5"/>
<text text-anchor="middle" x="150.5" y="-25.1" font-family="DejaVuSansMono" font-size="8.00" fill="#000000">processGPS</text>
</a>
</g>
</g>
<!-- Node1&#45;&gt;Node2 -->
<g id="edge1" class="edge">
<title>Node1&#45;&gt;Node2</title>
<path fill="none" stroke="#191970" d="M90.2784,-27C98.9679,-27 107.8228,-27 115.9739,-27"/>
<polygon fill="#191970" stroke="#191970" points="90.2057,-23.5001 80.2056,-27 90.2056,-30.5001 90.2057,-23.5001"/>
</g>
<!-- Node3 -->
<g id="node3" class="node">
<title>Node3</title>
<g id="a_node3"><a xlink:href="classekf_1_1EKF.html#a84048d25ebfb6431d7b1372b7315a7a3" target="_top" xlink:title="Atualiza a medicao a partir dos sensores da unidade Margin e GPS. ">
<polygon fill="#ffffff" stroke="#000000" points="221,-36.5 221,-53.5 395,-53.5 395,-36.5 221,-36.5"/>
<text text-anchor="middle" x="308" y="-43.1" font-family="DejaVuSansMono" font-size="8.00" fill="#000000">ekf::EKF::updateOfMeasurements</text>
</a>
</g>
</g>
<!-- Node2&#45;&gt;Node3 -->
<g id="edge2" class="edge">
<title>Node2&#45;&gt;Node3</title>
<path fill="none" stroke="#191970" d="M195.195,-32.108C207.1445,-33.4737 220.3896,-34.9874 233.4785,-36.4833"/>
<polygon fill="#191970" stroke="#191970" points="195.3968,-28.6084 185.064,-30.9502 194.6019,-35.5631 195.3968,-28.6084"/>
</g>
<!-- Node9 -->
<g id="node9" class="node">
<title>Node9</title>
<g id="a_node9"><a xlink:href="GPS_8h.html#aaab66558a5f695df7a6fcc3baa340da3" target="_top" xlink:title="gps_imprime">
<polygon fill="#ffffff" stroke="#000000" points="271,-.5 271,-17.5 345,-17.5 345,-.5 271,-.5"/>
<text text-anchor="middle" x="308" y="-7.1" font-family="DejaVuSansMono" font-size="8.00" fill="#000000">gps_imprime</text>
</a>
</g>
</g>
<!-- Node2&#45;&gt;Node9 -->
<g id="edge8" class="edge">
<title>Node2&#45;&gt;Node9</title>
<path fill="none" stroke="#191970" d="M195.2821,-21.882C219.1447,-19.1549 248.1548,-15.8395 270.7682,-13.2551"/>
<polygon fill="#191970" stroke="#191970" points="194.6019,-18.4369 185.064,-23.0498 195.3968,-25.3916 194.6019,-18.4369"/>
</g>
<!-- Node4 -->
<g id="node4" class="node">
<title>Node4</title>
<g id="a_node4"><a xlink:href="classekf_1_1EKF.html#a548f56f22a519f1f66b1bf59b9ed56d6" target="_top" xlink:title="ekf::EKF::temporalPrediction">
<polygon fill="#ffffff" stroke="#000000" points="431,-36.5 431,-53.5 595,-53.5 595,-36.5 431,-36.5"/>
<text text-anchor="middle" x="513" y="-43.1" font-family="DejaVuSansMono" font-size="8.00" fill="#000000">ekf::EKF::temporalPrediction</text>
</a>
</g>
</g>
<!-- Node3&#45;&gt;Node4 -->
<g id="edge3" class="edge">
<title>Node3&#45;&gt;Node4</title>
<path fill="none" stroke="#191970" d="M405.4954,-45C413.9376,-45 422.4252,-45 430.7284,-45"/>
<polygon fill="#191970" stroke="#191970" points="405.2357,-41.5001 395.2357,-45 405.2357,-48.5001 405.2357,-41.5001"/>
</g>
<!-- Node5 -->
<g id="node5" class="node">
<title>Node5</title>
<g id="a_node5"><a xlink:href="classekf_1_1EKF.html#a651814ff64d234394572e2e7c5703a43" target="_top" xlink:title="ekf::EKF::loopEKF">
<polygon fill="#ffffff" stroke="#000000" points="631,-36.5 631,-53.5 737,-53.5 737,-36.5 631,-36.5"/>
<text text-anchor="middle" x="684" y="-43.1" font-family="DejaVuSansMono" font-size="8.00" fill="#000000">ekf::EKF::loopEKF</text>
</a>
</g>
</g>
<!-- Node4&#45;&gt;Node5 -->
<g id="edge4" class="edge">
<title>Node4&#45;&gt;Node5</title>
<path fill="none" stroke="#191970" d="M605.4946,-45C614.2067,-45 622.8214,-45 630.9734,-45"/>
<polygon fill="#191970" stroke="#191970" points="605.2444,-41.5001 595.2444,-45 605.2443,-48.5001 605.2444,-41.5001"/>
</g>
<!-- Node6 -->
<g id="node6" class="node">
<title>Node6</title>
<g id="a_node6"><a xlink:href="main_8cpp.html#aa561fc46a0358a47fa9151f211523ba0" target="_top" xlink:title="core_1">
<polygon fill="#ffffff" stroke="#000000" points="783.5,-54.5 783.5,-71.5 831.5,-71.5 831.5,-54.5 783.5,-54.5"/>
<text text-anchor="middle" x="807.5" y="-61.1" font-family="DejaVuSansMono" font-size="8.00" fill="#000000">core_1</text>
</a>
</g>
</g>
<!-- Node5&#45;&gt;Node6 -->
<g id="edge5" class="edge">
<title>Node5&#45;&gt;Node6</title>
<path fill="none" stroke="#191970" d="M747.3338,-54.2308C760.1327,-56.0963 772.8409,-57.9485 783.2569,-59.4666"/>
<polygon fill="#191970" stroke="#191970" points="747.4921,-50.717 737.0918,-52.7381 746.4825,-57.6438 747.4921,-50.717"/>
</g>
<!-- Node8 -->
<g id="node8" class="node">
<title>Node8</title>
<g id="a_node8"><a xlink:href="main_8cpp.html#a50d45340b3399db75c34c3b9f67c1b11" target="_top" xlink:title="telemetria">
<polygon fill="#ffffff" stroke="#000000" points="773,-18.5 773,-35.5 842,-35.5 842,-18.5 773,-18.5"/>
<text text-anchor="middle" x="807.5" y="-25.1" font-family="DejaVuSansMono" font-size="8.00" fill="#000000">telemetria</text>
</a>
</g>
</g>
<!-- Node5&#45;&gt;Node8 -->
<g id="edge7" class="edge">
<title>Node5&#45;&gt;Node8</title>
<path fill="none" stroke="#191970" d="M747.0216,-35.8147C755.8374,-34.5298 764.6187,-33.2499 772.6462,-32.0799"/>
<polygon fill="#191970" stroke="#191970" points="746.4825,-32.3562 737.0918,-37.2619 747.4921,-39.283 746.4825,-32.3562"/>
</g>
<!-- Node7 -->
<g id="node7" class="node">
<title>Node7</title>
<g id="a_node7"><a xlink:href="main_8cpp.html#a4fc01d736fe50cf5b977f755b675f11d" target="_top" xlink:title="setup">
<polygon fill="#ffffff" stroke="#000000" points="878,-54.5 878,-71.5 921,-71.5 921,-54.5 878,-54.5"/>
<text text-anchor="middle" x="899.5" y="-61.1" font-family="DejaVuSansMono" font-size="8.00" fill="#000000">setup</text>
</a>
</g>
</g>
<!-- Node6&#45;&gt;Node7 -->
<g id="edge6" class="edge">
<title>Node6&#45;&gt;Node7</title>
<path fill="none" stroke="#191970" d="M841.9202,-63C854.0215,-63 867.2665,-63 877.9991,-63"/>
<polygon fill="#191970" stroke="#191970" points="841.672,-59.5001 831.6719,-63 841.6719,-66.5001 841.672,-59.5001"/>
</g>
</g>
</svg>
