<?xml version="1.0" encoding="UTF-8" standalone="no"?>
<!DOCTYPE svg PUBLIC "-//W3C//DTD SVG 1.1//EN"
 "http://www.w3.org/Graphics/SVG/1.1/DTD/svg11.dtd">
<!-- Generated by graphviz version 2.40.1 (20161225.0304)
 -->
<!-- Title: processGPS Pages: 1 -->
<svg width="214pt" height="98pt"
 viewBox="0.00 0.00 214.00 98.00" xmlns="http://www.w3.org/2000/svg" xmlns:xlink="http://www.w3.org/1999/xlink">
<g id="graph0" class="graph" transform="scale(1 1) rotate(0) translate(4 94)">
<title>processGPS</title>
<polygon fill="#ffffff" stroke="transparent" points="-4,4 -4,-94 210,-94 210,4 -4,4"/>
<!-- Node43 -->
<g id="node1" class="node">
<title>Node43</title>
<polygon fill="#bfbfbf" stroke="#000000" points="0,-36.5 0,-53.5 69,-53.5 69,-36.5 0,-36.5"/>
<text text-anchor="middle" x="34.5" y="-43.1" font-family="DejaVuSansMono" font-size="8.00" fill="#000000">processGPS</text>
</g>
<!-- Node44 -->
<g id="node2" class="node">
<title>Node44</title>
<g id="a_node2"><a xlink:href="GPS_8h.html#a5d2ecd8f29f7e3e702c8b8bea333f6c6" target="_top" xlink:title="GPSSERIAL">
<polygon fill="#ffffff" stroke="#000000" points="123.5,-72.5 123.5,-89.5 187.5,-89.5 187.5,-72.5 123.5,-72.5"/>
<text text-anchor="middle" x="155.5" y="-79.1" font-family="DejaVuSansMono" font-size="8.00" fill="#000000">GPSSERIAL</text>
</a>
</g>
</g>
<!-- Node43&#45;&gt;Node44 -->
<g id="edge1" class="edge">
<title>Node43&#45;&gt;Node44</title>
<path fill="none" stroke="#191970" d="M63.1753,-53.5315C79.1823,-58.2939 99.3445,-64.2926 116.7406,-69.4683"/>
<polygon fill="#191970" stroke="#191970" points="116.0283,-72.9079 126.6112,-72.405 118.0245,-66.1986 116.0283,-72.9079"/>
</g>
<!-- Node45 -->
<g id="node3" class="node">
<title>Node45</title>
<g id="a_node3"><a xlink:href="GPS_8h.html#aecde093c7427cc661daceaa118cf4455" target="_top" xlink:title="compareMsgHeader">
<polygon fill="#ffffff" stroke="#000000" points="105,-36.5 105,-53.5 206,-53.5 206,-36.5 105,-36.5"/>
<text text-anchor="middle" x="155.5" y="-43.1" font-family="DejaVuSansMono" font-size="8.00" fill="#000000">compareMsgHeader</text>
</a>
</g>
</g>
<!-- Node43&#45;&gt;Node45 -->
<g id="edge2" class="edge">
<title>Node43&#45;&gt;Node45</title>
<path fill="none" stroke="#191970" d="M69.1737,-45C77.1043,-45 85.7638,-45 94.4386,-45"/>
<polygon fill="#191970" stroke="#191970" points="94.5865,-48.5001 104.5865,-45 94.5864,-41.5001 94.5865,-48.5001"/>
</g>
<!-- Node46 -->
<g id="node4" class="node">
<title>Node46</title>
<g id="a_node4"><a xlink:href="GPS_8h.html#aa2fac937d6e192633f020459321241e7" target="_top" xlink:title="calcChecksum">
<polygon fill="#ffffff" stroke="#000000" points="115.5,-.5 115.5,-17.5 195.5,-17.5 195.5,-.5 115.5,-.5"/>
<text text-anchor="middle" x="155.5" y="-7.1" font-family="DejaVuSansMono" font-size="8.00" fill="#000000">calcChecksum</text>
</a>
</g>
</g>
<!-- Node43&#45;&gt;Node46 -->
<g id="edge3" class="edge">
<title>Node43&#45;&gt;Node46</title>
<path fill="none" stroke="#191970" d="M63.1753,-36.4685C79.1823,-31.7061 99.3445,-25.7074 116.7406,-20.5317"/>
<polygon fill="#191970" stroke="#191970" points="118.0245,-23.8014 126.6112,-17.595 116.0283,-17.0921 118.0245,-23.8014"/>
</g>
</g>
</svg>
