<?xml version="1.0" encoding="UTF-8" standalone="no"?>
<!DOCTYPE svg PUBLIC "-//W3C//DTD SVG 1.1//EN"
 "http://www.w3.org/Graphics/SVG/1.1/DTD/svg11.dtd">
<!-- Generated by graphviz version 2.40.1 (20161225.0304)
 -->
<!-- Title: gpsSetup Pages: 1 -->
<svg width="277pt" height="26pt"
 viewBox="0.00 0.00 277.00 26.00" xmlns="http://www.w3.org/2000/svg" xmlns:xlink="http://www.w3.org/1999/xlink">
<g id="graph0" class="graph" transform="scale(1 1) rotate(0) translate(4 22)">
<title>gpsSetup</title>
<polygon fill="#ffffff" stroke="transparent" points="-4,4 -4,-22 273,-22 273,4 -4,4"/>
<!-- Node40 -->
<g id="node1" class="node">
<title>Node40</title>
<polygon fill="#bfbfbf" stroke="#000000" points="0,-.5 0,-17.5 59,-17.5 59,-.5 0,-.5"/>
<text text-anchor="middle" x="29.5" y="-7.1" font-family="DejaVuSansMono" font-size="8.00" fill="#000000">gpsSetup</text>
</g>
<!-- Node41 -->
<g id="node2" class="node">
<title>Node41</title>
<g id="a_node2"><a xlink:href="classekf_1_1EKF.html#af52f661717f56b3deee7b4f42ba80dc5" target="_top" xlink:title="Inicializacao do filtro de Kalman. ">
<polygon fill="#ffffff" stroke="#000000" points="95,-.5 95,-17.5 190,-17.5 190,-.5 95,-.5"/>
<text text-anchor="middle" x="142.5" y="-7.1" font-family="DejaVuSansMono" font-size="8.00" fill="#000000">ekf::EKF::begin</text>
</a>
</g>
</g>
<!-- Node40&#45;&gt;Node41 -->
<g id="edge1" class="edge">
<title>Node40&#45;&gt;Node41</title>
<path fill="none" stroke="#191970" d="M69.2524,-9C77.4625,-9 86.1912,-9 94.6546,-9"/>
<polygon fill="#191970" stroke="#191970" points="69.1895,-5.5001 59.1894,-9 69.1894,-12.5001 69.1895,-5.5001"/>
</g>
<!-- Node42 -->
<g id="node3" class="node">
<title>Node42</title>
<g id="a_node3"><a xlink:href="main_8cpp.html#a4fc01d736fe50cf5b977f755b675f11d" target="_top" xlink:title="setup">
<polygon fill="#ffffff" stroke="#000000" points="226,-.5 226,-17.5 269,-17.5 269,-.5 226,-.5"/>
<text text-anchor="middle" x="247.5" y="-7.1" font-family="DejaVuSansMono" font-size="8.00" fill="#000000">setup</text>
</a>
</g>
</g>
<!-- Node41&#45;&gt;Node42 -->
<g id="edge2" class="edge">
<title>Node41&#45;&gt;Node42</title>
<path fill="none" stroke="#191970" d="M200.3476,-9C209.4085,-9 218.2548,-9 225.7917,-9"/>
<polygon fill="#191970" stroke="#191970" points="200.0846,-5.5001 190.0845,-9 200.0845,-12.5001 200.0846,-5.5001"/>
</g>
</g>
</svg>
