<?xml version="1.0" encoding="UTF-8" standalone="no"?>
<!DOCTYPE svg PUBLIC "-//W3C//DTD SVG 1.1//EN"
 "http://www.w3.org/Graphics/SVG/1.1/DTD/svg11.dtd">
<!-- Generated by graphviz version 2.40.1 (20161225.0304)
 -->
<!-- Title: gps_imprime Pages: 1 -->
<svg width="324pt" height="98pt"
 viewBox="0.00 0.00 324.00 98.00" xmlns="http://www.w3.org/2000/svg" xmlns:xlink="http://www.w3.org/1999/xlink">
<g id="graph0" class="graph" transform="scale(1 1) rotate(0) translate(4 94)">
<title>gps_imprime</title>
<polygon fill="#ffffff" stroke="transparent" points="-4,4 -4,-94 320,-94 320,4 -4,4"/>
<!-- Node20 -->
<g id="node1" class="node">
<title>Node20</title>
<polygon fill="#bfbfbf" stroke="#000000" points="0,-53.5 0,-70.5 74,-70.5 74,-53.5 0,-53.5"/>
<text text-anchor="middle" x="37" y="-60.1" font-family="DejaVuSansMono" font-size="8.00" fill="#000000">gps_imprime</text>
</g>
<!-- Node21 -->
<g id="node2" class="node">
<title>Node21</title>
<g id="a_node2"><a xlink:href="GPS_8h.html#a5d2ecd8f29f7e3e702c8b8bea333f6c6" target="_top" xlink:title="GPSSERIAL">
<polygon fill="#ffffff" stroke="#000000" points="233.5,-72.5 233.5,-89.5 297.5,-89.5 297.5,-72.5 233.5,-72.5"/>
<text text-anchor="middle" x="265.5" y="-79.1" font-family="DejaVuSansMono" font-size="8.00" fill="#000000">GPSSERIAL</text>
</a>
</g>
</g>
<!-- Node20&#45;&gt;Node21 -->
<g id="edge1" class="edge">
<title>Node20&#45;&gt;Node21</title>
<path fill="none" stroke="#191970" d="M74.221,-65.095C115.111,-68.495 180.6412,-73.9439 223.3821,-77.4979"/>
<polygon fill="#191970" stroke="#191970" points="223.2073,-80.9953 233.463,-78.3361 223.7874,-74.0194 223.2073,-80.9953"/>
</g>
<!-- Node22 -->
<g id="node3" class="node">
<title>Node22</title>
<g id="a_node3"><a xlink:href="GPS_8h.html#ad604e63cc857e5663dfba96c37c66bc7" target="_top" xlink:title="processGPS">
<polygon fill="#ffffff" stroke="#000000" points="110,-35.5 110,-52.5 179,-52.5 179,-35.5 110,-35.5"/>
<text text-anchor="middle" x="144.5" y="-42.1" font-family="DejaVuSansMono" font-size="8.00" fill="#000000">processGPS</text>
</a>
</g>
</g>
<!-- Node20&#45;&gt;Node22 -->
<g id="edge2" class="edge">
<title>Node20&#45;&gt;Node22</title>
<path fill="none" stroke="#191970" d="M74.2966,-55.755C82.488,-54.3834 91.2436,-52.9174 99.6955,-51.5021"/>
<polygon fill="#191970" stroke="#191970" points="100.5115,-54.9143 109.7961,-49.8109 99.3554,-48.0104 100.5115,-54.9143"/>
</g>
<!-- Node22&#45;&gt;Node21 -->
<g id="edge3" class="edge">
<title>Node22&#45;&gt;Node21</title>
<path fill="none" stroke="#191970" d="M172.564,-52.5815C189.0575,-57.625 210.1173,-64.0648 228.0177,-69.5385"/>
<polygon fill="#191970" stroke="#191970" points="227.0018,-72.8877 237.5882,-72.465 229.0488,-66.1937 227.0018,-72.8877"/>
</g>
<!-- Node23 -->
<g id="node4" class="node">
<title>Node23</title>
<g id="a_node4"><a xlink:href="GPS_8h.html#aecde093c7427cc661daceaa118cf4455" target="_top" xlink:title="compareMsgHeader">
<polygon fill="#ffffff" stroke="#000000" points="215,-36.5 215,-53.5 316,-53.5 316,-36.5 215,-36.5"/>
<text text-anchor="middle" x="265.5" y="-43.1" font-family="DejaVuSansMono" font-size="8.00" fill="#000000">compareMsgHeader</text>
</a>
</g>
</g>
<!-- Node22&#45;&gt;Node23 -->
<g id="edge4" class="edge">
<title>Node22&#45;&gt;Node23</title>
<path fill="none" stroke="#191970" d="M179.1737,-44.2866C187.1043,-44.3521 195.7638,-44.4237 204.4386,-44.4954"/>
<polygon fill="#191970" stroke="#191970" points="204.5578,-47.9964 214.5865,-44.5792 204.6158,-40.9966 204.5578,-47.9964"/>
</g>
<!-- Node24 -->
<g id="node5" class="node">
<title>Node24</title>
<g id="a_node5"><a xlink:href="GPS_8h.html#aa2fac937d6e192633f020459321241e7" target="_top" xlink:title="calcChecksum">
<polygon fill="#ffffff" stroke="#000000" points="225.5,-.5 225.5,-17.5 305.5,-17.5 305.5,-.5 225.5,-.5"/>
<text text-anchor="middle" x="265.5" y="-7.1" font-family="DejaVuSansMono" font-size="8.00" fill="#000000">calcChecksum</text>
</a>
</g>
</g>
<!-- Node22&#45;&gt;Node24 -->
<g id="edge5" class="edge">
<title>Node22&#45;&gt;Node24</title>
<path fill="none" stroke="#191970" d="M174.0999,-35.438C189.7742,-30.9042 209.231,-25.2762 226.1591,-20.3796"/>
<polygon fill="#191970" stroke="#191970" points="227.1526,-23.7358 235.7863,-17.5949 225.2075,-17.0114 227.1526,-23.7358"/>
</g>
</g>
</svg>
