<?xml version="1.0" encoding="UTF-8" standalone="no"?>
<!DOCTYPE svg PUBLIC "-//W3C//DTD SVG 1.1//EN"
 "http://www.w3.org/Graphics/SVG/1.1/DTD/svg11.dtd">
<!-- Generated by graphviz version 2.40.1 (20161225.0304)
 -->
<!-- Title: compareMsgHeader Pages: 1 -->
<svg width="950pt" height="80pt"
 viewBox="0.00 0.00 950.00 80.00" xmlns="http://www.w3.org/2000/svg" xmlns:xlink="http://www.w3.org/1999/xlink">
<g id="graph0" class="graph" transform="scale(1 1) rotate(0) translate(4 76)">
<title>compareMsgHeader</title>
<polygon fill="#ffffff" stroke="transparent" points="-4,4 -4,-76 946,-76 946,4 -4,4"/>
<!-- Node11 -->
<g id="node1" class="node">
<title>Node11</title>
<polygon fill="#bfbfbf" stroke="#000000" points="0,-18.5 0,-35.5 101,-35.5 101,-18.5 0,-18.5"/>
<text text-anchor="middle" x="50.5" y="-25.1" font-family="DejaVuSansMono" font-size="8.00" fill="#000000">compareMsgHeader</text>
</g>
<!-- Node12 -->
<g id="node2" class="node">
<title>Node12</title>
<g id="a_node2"><a xlink:href="GPS_8h.html#ad604e63cc857e5663dfba96c37c66bc7" target="_top" xlink:title="processGPS">
<polygon fill="#ffffff" stroke="#000000" points="137,-18.5 137,-35.5 206,-35.5 206,-18.5 137,-18.5"/>
<text text-anchor="middle" x="171.5" y="-25.1" font-family="DejaVuSansMono" font-size="8.00" fill="#000000">processGPS</text>
</a>
</g>
</g>
<!-- Node11&#45;&gt;Node12 -->
<g id="edge1" class="edge">
<title>Node11&#45;&gt;Node12</title>
<path fill="none" stroke="#191970" d="M111.3605,-27C120.1228,-27 128.875,-27 136.8819,-27"/>
<polygon fill="#191970" stroke="#191970" points="111.1138,-23.5001 101.1138,-27 111.1138,-30.5001 111.1138,-23.5001"/>
</g>
<!-- Node13 -->
<g id="node3" class="node">
<title>Node13</title>
<g id="a_node3"><a xlink:href="classekf_1_1EKF.html#a84048d25ebfb6431d7b1372b7315a7a3" target="_top" xlink:title="Atualiza a medicao a partir dos sensores da unidade Margin e GPS. ">
<polygon fill="#ffffff" stroke="#000000" points="242,-36.5 242,-53.5 416,-53.5 416,-36.5 242,-36.5"/>
<text text-anchor="middle" x="329" y="-43.1" font-family="DejaVuSansMono" font-size="8.00" fill="#000000">ekf::EKF::updateOfMeasurements</text>
</a>
</g>
</g>
<!-- Node12&#45;&gt;Node13 -->
<g id="edge2" class="edge">
<title>Node12&#45;&gt;Node13</title>
<path fill="none" stroke="#191970" d="M216.195,-32.108C228.1445,-33.4737 241.3896,-34.9874 254.4785,-36.4833"/>
<polygon fill="#191970" stroke="#191970" points="216.3968,-28.6084 206.064,-30.9502 215.6019,-35.5631 216.3968,-28.6084"/>
</g>
<!-- Node19 -->
<g id="node9" class="node">
<title>Node19</title>
<g id="a_node9"><a xlink:href="GPS_8h.html#aaab66558a5f695df7a6fcc3baa340da3" target="_top" xlink:title="gps_imprime">
<polygon fill="#ffffff" stroke="#000000" points="292,-.5 292,-17.5 366,-17.5 366,-.5 292,-.5"/>
<text text-anchor="middle" x="329" y="-7.1" font-family="DejaVuSansMono" font-size="8.00" fill="#000000">gps_imprime</text>
</a>
</g>
</g>
<!-- Node12&#45;&gt;Node19 -->
<g id="edge8" class="edge">
<title>Node12&#45;&gt;Node19</title>
<path fill="none" stroke="#191970" d="M216.2821,-21.882C240.1447,-19.1549 269.1548,-15.8395 291.7682,-13.2551"/>
<polygon fill="#191970" stroke="#191970" points="215.6019,-18.4369 206.064,-23.0498 216.3968,-25.3916 215.6019,-18.4369"/>
</g>
<!-- Node14 -->
<g id="node4" class="node">
<title>Node14</title>
<g id="a_node4"><a xlink:href="classekf_1_1EKF.html#a548f56f22a519f1f66b1bf59b9ed56d6" target="_top" xlink:title="ekf::EKF::temporalPrediction">
<polygon fill="#ffffff" stroke="#000000" points="452,-36.5 452,-53.5 616,-53.5 616,-36.5 452,-36.5"/>
<text text-anchor="middle" x="534" y="-43.1" font-family="DejaVuSansMono" font-size="8.00" fill="#000000">ekf::EKF::temporalPrediction</text>
</a>
</g>
</g>
<!-- Node13&#45;&gt;Node14 -->
<g id="edge3" class="edge">
<title>Node13&#45;&gt;Node14</title>
<path fill="none" stroke="#191970" d="M426.4954,-45C434.9376,-45 443.4252,-45 451.7284,-45"/>
<polygon fill="#191970" stroke="#191970" points="426.2357,-41.5001 416.2357,-45 426.2357,-48.5001 426.2357,-41.5001"/>
</g>
<!-- Node15 -->
<g id="node5" class="node">
<title>Node15</title>
<g id="a_node5"><a xlink:href="classekf_1_1EKF.html#a651814ff64d234394572e2e7c5703a43" target="_top" xlink:title="ekf::EKF::loopEKF">
<polygon fill="#ffffff" stroke="#000000" points="652,-36.5 652,-53.5 758,-53.5 758,-36.5 652,-36.5"/>
<text text-anchor="middle" x="705" y="-43.1" font-family="DejaVuSansMono" font-size="8.00" fill="#000000">ekf::EKF::loopEKF</text>
</a>
</g>
</g>
<!-- Node14&#45;&gt;Node15 -->
<g id="edge4" class="edge">
<title>Node14&#45;&gt;Node15</title>
<path fill="none" stroke="#191970" d="M626.4946,-45C635.2067,-45 643.8214,-45 651.9734,-45"/>
<polygon fill="#191970" stroke="#191970" points="626.2444,-41.5001 616.2444,-45 626.2443,-48.5001 626.2444,-41.5001"/>
</g>
<!-- Node16 -->
<g id="node6" class="node">
<title>Node16</title>
<g id="a_node6"><a xlink:href="main_8cpp.html#aa561fc46a0358a47fa9151f211523ba0" target="_top" xlink:title="core_1">
<polygon fill="#ffffff" stroke="#000000" points="804.5,-54.5 804.5,-71.5 852.5,-71.5 852.5,-54.5 804.5,-54.5"/>
<text text-anchor="middle" x="828.5" y="-61.1" font-family="DejaVuSansMono" font-size="8.00" fill="#000000">core_1</text>
</a>
</g>
</g>
<!-- Node15&#45;&gt;Node16 -->
<g id="edge5" class="edge">
<title>Node15&#45;&gt;Node16</title>
<path fill="none" stroke="#191970" d="M768.3338,-54.2308C781.1327,-56.0963 793.8409,-57.9485 804.2569,-59.4666"/>
<polygon fill="#191970" stroke="#191970" points="768.4921,-50.717 758.0918,-52.7381 767.4825,-57.6438 768.4921,-50.717"/>
</g>
<!-- Node18 -->
<g id="node8" class="node">
<title>Node18</title>
<g id="a_node8"><a xlink:href="main_8cpp.html#a50d45340b3399db75c34c3b9f67c1b11" target="_top" xlink:title="telemetria">
<polygon fill="#ffffff" stroke="#000000" points="794,-18.5 794,-35.5 863,-35.5 863,-18.5 794,-18.5"/>
<text text-anchor="middle" x="828.5" y="-25.1" font-family="DejaVuSansMono" font-size="8.00" fill="#000000">telemetria</text>
</a>
</g>
</g>
<!-- Node15&#45;&gt;Node18 -->
<g id="edge7" class="edge">
<title>Node15&#45;&gt;Node18</title>
<path fill="none" stroke="#191970" d="M768.0216,-35.8147C776.8374,-34.5298 785.6187,-33.2499 793.6462,-32.0799"/>
<polygon fill="#191970" stroke="#191970" points="767.4825,-32.3562 758.0918,-37.2619 768.4921,-39.283 767.4825,-32.3562"/>
</g>
<!-- Node17 -->
<g id="node7" class="node">
<title>Node17</title>
<g id="a_node7"><a xlink:href="main_8cpp.html#a4fc01d736fe50cf5b977f755b675f11d" target="_top" xlink:title="setup">
<polygon fill="#ffffff" stroke="#000000" points="899,-54.5 899,-71.5 942,-71.5 942,-54.5 899,-54.5"/>
<text text-anchor="middle" x="920.5" y="-61.1" font-family="DejaVuSansMono" font-size="8.00" fill="#000000">setup</text>
</a>
</g>
</g>
<!-- Node16&#45;&gt;Node17 -->
<g id="edge6" class="edge">
<title>Node16&#45;&gt;Node17</title>
<path fill="none" stroke="#191970" d="M862.9202,-63C875.0215,-63 888.2665,-63 898.9991,-63"/>
<polygon fill="#191970" stroke="#191970" points="862.672,-59.5001 852.6719,-63 862.6719,-66.5001 862.672,-59.5001"/>
</g>
</g>
</svg>
