<?xml version="1.0" encoding="UTF-8" standalone="no"?>
<!DOCTYPE svg PUBLIC "-//W3C//DTD SVG 1.1//EN"
 "http://www.w3.org/Graphics/SVG/1.1/DTD/svg11.dtd">
<!-- Generated by graphviz version 2.40.1 (20161225.0304)
 -->
<!-- Title: lib/EKF/GPS.h Pages: 1 -->
<svg width="192pt" height="80pt"
 viewBox="0.00 0.00 191.50 80.00" xmlns="http://www.w3.org/2000/svg" xmlns:xlink="http://www.w3.org/1999/xlink">
<g id="graph0" class="graph" transform="scale(1 1) rotate(0) translate(4 76)">
<title>lib/EKF/GPS.h</title>
<polygon fill="#ffffff" stroke="transparent" points="-4,4 -4,-76 187.5,-76 187.5,4 -4,4"/>
<!-- Node0 -->
<g id="node1" class="node">
<title>Node0</title>
<polygon fill="#bfbfbf" stroke="#000000" points="39.5,-54.5 39.5,-71.5 124.5,-71.5 124.5,-54.5 39.5,-54.5"/>
<text text-anchor="middle" x="82" y="-61.1" font-family="DejaVuSansMono" font-size="8.00" fill="#000000">lib/EKF/GPS.h</text>
</g>
<!-- Node1 -->
<g id="node2" class="node">
<title>Node1</title>
<polygon fill="#ffffff" stroke="#bfbfbf" points="0,-.5 0,-17.5 64,-17.5 64,-.5 0,-.5"/>
<text text-anchor="middle" x="32" y="-7.1" font-family="DejaVuSansMono" font-size="8.00" fill="#000000">Arduino.h</text>
</g>
<!-- Node0&#45;&gt;Node1 -->
<g id="edge1" class="edge">
<title>Node0&#45;&gt;Node1</title>
<path fill="none" stroke="#191970" d="M73.7435,-54.083C66.5353,-46.2982 55.8902,-34.8015 47.1542,-25.3665"/>
<polygon fill="#191970" stroke="#191970" points="49.4651,-22.7108 40.1028,-17.7511 44.3288,-27.4666 49.4651,-22.7108"/>
</g>
<!-- Node2 -->
<g id="node3" class="node">
<title>Node2</title>
<polygon fill="#ffffff" stroke="#bfbfbf" points="82.5,-.5 82.5,-17.5 183.5,-17.5 183.5,-.5 82.5,-.5"/>
<text text-anchor="middle" x="133" y="-7.1" font-family="DejaVuSansMono" font-size="8.00" fill="#000000">HardwareSerial.h</text>
</g>
<!-- Node0&#45;&gt;Node2 -->
<g id="edge2" class="edge">
<title>Node0&#45;&gt;Node2</title>
<path fill="none" stroke="#191970" d="M90.4216,-54.083C97.8482,-46.2195 108.8517,-34.5688 117.8122,-25.0813"/>
<polygon fill="#191970" stroke="#191970" points="120.4134,-27.4244 124.7351,-17.7511 115.3243,-22.618 120.4134,-27.4244"/>
</g>
</g>
</svg>
