<?xml version="1.0" encoding="UTF-8" standalone="no"?>
<!DOCTYPE svg PUBLIC "-//W3C//DTD SVG 1.1//EN"
 "http://www.w3.org/Graphics/SVG/1.1/DTD/svg11.dtd">
<!-- Generated by graphviz version 2.40.1 (20161225.0304)
 -->
<!-- Title: GPSSERIAL Pages: 1 -->
<!--zoomable 99 -->
<svg id="main" version="1.1" xmlns="http://www.w3.org/2000/svg" xmlns:xlink="http://www.w3.org/1999/xlink" xml:space="preserve" onload="init(evt)">
<style type="text/css"><![CDATA[
.edge:hover path { stroke: red; }
.edge:hover polygon { stroke: red; fill: red; }
]]></style>
<script type="text/javascript"><![CDATA[
var edges = document.getElementsByTagName('g');
if (edges && edges.length) {
  for (var i=0;i<edges.length;i++) {
    if (edges[i].id.substr(0,4)=='edge') {
      edges[i].setAttribute('class','edge');
    }
  }
}
]]></script>
        <defs>
                <circle id="rim" cx="0" cy="0" r="7"/>
                <circle id="rim2" cx="0" cy="0" r="3.5"/>
                <g id="zoomPlus">
                        <use xlink:href="#rim" fill="#404040">
                                <set attributeName="fill" to="#808080" begin="zoomplus.mouseover" end="zoomplus.mouseout"/>
                        </use>
                        <path d="M-4,0h8M0,-4v8" fill="none" stroke="white" stroke-width="1.5" pointer-events="none"/>
                </g>
                <g id="zoomMin">
                        <use xlink:href="#rim" fill="#404040">
                                <set attributeName="fill" to="#808080" begin="zoomminus.mouseover" end="zoomminus.mouseout"/>
                        </use>
                        <path d="M-4,0h8" fill="none" stroke="white" stroke-width="1.5" pointer-events="none"/>
                </g>
                <g id="dirArrow">
                        <path fill="none" stroke="white" stroke-width="1.5" d="M0,-3.0v7 M-2.5,-0.5L0,-3.0L2.5,-0.5"/>
                </g>
               <g id="resetDef">
                       <use xlink:href="#rim2" fill="#404040">
                               <set attributeName="fill" to="#808080" begin="reset.mouseover" end="reset.mouseout"/>
                       </use>
               </g>
        </defs>

<script type="text/javascript">
var viewWidth = 913;
var viewHeight = 99;
var sectionId = 'dynsection-5';
</script>
<script xlink:href="svgpan.js"/>
<svg id="graph" class="graph">
<g id="viewport">
<title>GPSSERIAL</title>
<polygon fill="#ffffff" stroke="transparent" points="-4,4 -4,-95 909,-95 909,4 -4,4"/>
<!-- Node27 -->
<g id="node1" class="node">
<title>Node27</title>
<polygon fill="#bfbfbf" stroke="#000000" points="0,-37.5 0,-54.5 64,-54.5 64,-37.5 0,-37.5"/>
<text text-anchor="middle" x="32" y="-44.1" font-family="DejaVuSansMono" font-size="8.00" fill="#000000">GPSSERIAL</text>
</g>
<!-- Node28 -->
<g id="node2" class="node">
<title>Node28</title>
<g id="a_node2"><a xlink:href="GPS_8h.html#a35c55bcf9a6f5a52f34cb1ab02c91479" target="_top" xlink:title="gpsSetup">
<polygon fill="#ffffff" stroke="#000000" points="105,-73.5 105,-90.5 164,-90.5 164,-73.5 105,-73.5"/>
<text text-anchor="middle" x="134.5" y="-80.1" font-family="DejaVuSansMono" font-size="8.00" fill="#000000">gpsSetup</text>
</a>
</g>
</g>
<!-- Node27&#45;&gt;Node28 -->
<g id="edge1" class="edge">
<title>Node27&#45;&gt;Node28</title>
<path fill="none" stroke="#191970" d="M65.8804,-57.8995C80.3079,-62.9667 96.8183,-68.7655 110.0281,-73.405"/>
<polygon fill="#191970" stroke="#191970" points="66.8859,-54.5431 56.2911,-54.5315 64.5662,-61.1476 66.8859,-54.5431"/>
</g>
<!-- Node31 -->
<g id="node5" class="node">
<title>Node31</title>
<g id="a_node5"><a xlink:href="GPS_8h.html#ad604e63cc857e5663dfba96c37c66bc7" target="_top" xlink:title="processGPS">
<polygon fill="#ffffff" stroke="#000000" points="100,-37.5 100,-54.5 169,-54.5 169,-37.5 100,-37.5"/>
<text text-anchor="middle" x="134.5" y="-44.1" font-family="DejaVuSansMono" font-size="8.00" fill="#000000">processGPS</text>
</a>
</g>
</g>
<!-- Node27&#45;&gt;Node31 -->
<g id="edge4" class="edge">
<title>Node27&#45;&gt;Node31</title>
<path fill="none" stroke="#191970" d="M74.3294,-46C82.8672,-46 91.7459,-46 99.9779,-46"/>
<polygon fill="#191970" stroke="#191970" points="74.1504,-42.5001 64.1504,-46 74.1504,-49.5001 74.1504,-42.5001"/>
</g>
<!-- Node37 -->
<g id="node11" class="node">
<title>Node37</title>
<g id="a_node11"><a xlink:href="GPS_8h.html#aaab66558a5f695df7a6fcc3baa340da3" target="_top" xlink:title="gps_imprime">
<polygon fill="#ffffff" stroke="#000000" points="255,-.5 255,-17.5 329,-17.5 329,-.5 255,-.5"/>
<text text-anchor="middle" x="292" y="-7.1" font-family="DejaVuSansMono" font-size="8.00" fill="#000000">gps_imprime</text>
</a>
</g>
</g>
<!-- Node27&#45;&gt;Node37 -->
<g id="edge12" class="edge">
<title>Node27&#45;&gt;Node37</title>
<path fill="none" stroke="#191970" d="M70.0097,-34.7907C79.7194,-32.2447 90.1887,-29.7722 100,-28 153.3996,-18.3544 216.1021,-13.3079 254.9495,-10.9024"/>
<polygon fill="#191970" stroke="#191970" points="68.9608,-31.4486 60.2255,-37.4441 70.793,-38.2046 68.9608,-31.4486"/>
</g>
<!-- Node29 -->
<g id="node3" class="node">
<title>Node29</title>
<g id="a_node3"><a xlink:href="classekf_1_1EKF.html#af52f661717f56b3deee7b4f42ba80dc5" target="_top" xlink:title="Inicializacao do filtro de Kalman. ">
<polygon fill="#ffffff" stroke="#000000" points="449.5,-73.5 449.5,-90.5 544.5,-90.5 544.5,-73.5 449.5,-73.5"/>
<text text-anchor="middle" x="497" y="-80.1" font-family="DejaVuSansMono" font-size="8.00" fill="#000000">ekf::EKF::begin</text>
</a>
</g>
</g>
<!-- Node28&#45;&gt;Node29 -->
<g id="edge2" class="edge">
<title>Node28&#45;&gt;Node29</title>
<path fill="none" stroke="#191970" d="M174.3504,-82C241.603,-82 377.3334,-82 449.4494,-82"/>
<polygon fill="#191970" stroke="#191970" points="174.1649,-78.5001 164.1649,-82 174.1649,-85.5001 174.1649,-78.5001"/>
</g>
<!-- Node30 -->
<g id="node4" class="node">
<title>Node30</title>
<g id="a_node4"><a xlink:href="main_8cpp.html#a4fc01d736fe50cf5b977f755b675f11d" target="_top" xlink:title="setup">
<polygon fill="#ffffff" stroke="#000000" points="862,-54.5 862,-71.5 905,-71.5 905,-54.5 862,-54.5"/>
<text text-anchor="middle" x="883.5" y="-61.1" font-family="DejaVuSansMono" font-size="8.00" fill="#000000">setup</text>
</a>
</g>
</g>
<!-- Node29&#45;&gt;Node30 -->
<g id="edge3" class="edge">
<title>Node29&#45;&gt;Node30</title>
<path fill="none" stroke="#191970" d="M554.7977,-79.1587C642.1685,-74.8636 803.8443,-66.9158 861.9777,-64.058"/>
<polygon fill="#191970" stroke="#191970" points="554.5962,-75.6643 544.7801,-79.6512 554.94,-82.6559 554.5962,-75.6643"/>
</g>
<!-- Node32 -->
<g id="node6" class="node">
<title>Node32</title>
<g id="a_node6"><a xlink:href="classekf_1_1EKF.html#a84048d25ebfb6431d7b1372b7315a7a3" target="_top" xlink:title="Atualiza a medicao a partir dos sensores da unidade Margin e GPS. ">
<polygon fill="#ffffff" stroke="#000000" points="205,-36.5 205,-53.5 379,-53.5 379,-36.5 205,-36.5"/>
<text text-anchor="middle" x="292" y="-43.1" font-family="DejaVuSansMono" font-size="8.00" fill="#000000">ekf::EKF::updateOfMeasurements</text>
</a>
</g>
</g>
<!-- Node31&#45;&gt;Node32 -->
<g id="edge5" class="edge">
<title>Node31&#45;&gt;Node32</title>
<path fill="none" stroke="#191970" d="M179.3303,-45.7154C187.4277,-45.664 196.1166,-45.6088 204.9464,-45.5527"/>
<polygon fill="#191970" stroke="#191970" points="179.0416,-42.217 169.064,-45.7805 179.0861,-49.2169 179.0416,-42.217"/>
</g>
<!-- Node31&#45;&gt;Node37 -->
<g id="edge11" class="edge">
<title>Node31&#45;&gt;Node37</title>
<path fill="none" stroke="#191970" d="M174.2891,-34.8352C184.2854,-32.1521 195.0112,-29.3771 205,-27 221.2054,-23.1434 239.2216,-19.3372 254.6366,-16.2253"/>
<polygon fill="#191970" stroke="#191970" points="173.3232,-31.4707 164.5903,-37.4696 175.1581,-38.226 173.3232,-31.4707"/>
</g>
<!-- Node33 -->
<g id="node7" class="node">
<title>Node33</title>
<g id="a_node7"><a xlink:href="classekf_1_1EKF.html#a548f56f22a519f1f66b1bf59b9ed56d6" target="_top" xlink:title="ekf::EKF::temporalPrediction">
<polygon fill="#ffffff" stroke="#000000" points="415,-36.5 415,-53.5 579,-53.5 579,-36.5 415,-36.5"/>
<text text-anchor="middle" x="497" y="-43.1" font-family="DejaVuSansMono" font-size="8.00" fill="#000000">ekf::EKF::temporalPrediction</text>
</a>
</g>
</g>
<!-- Node32&#45;&gt;Node33 -->
<g id="edge6" class="edge">
<title>Node32&#45;&gt;Node33</title>
<path fill="none" stroke="#191970" d="M389.4954,-45C397.9376,-45 406.4252,-45 414.7284,-45"/>
<polygon fill="#191970" stroke="#191970" points="389.2357,-41.5001 379.2357,-45 389.2357,-48.5001 389.2357,-41.5001"/>
</g>
<!-- Node34 -->
<g id="node8" class="node">
<title>Node34</title>
<g id="a_node8"><a xlink:href="classekf_1_1EKF.html#a651814ff64d234394572e2e7c5703a43" target="_top" xlink:title="ekf::EKF::loopEKF">
<polygon fill="#ffffff" stroke="#000000" points="615,-36.5 615,-53.5 721,-53.5 721,-36.5 615,-36.5"/>
<text text-anchor="middle" x="668" y="-43.1" font-family="DejaVuSansMono" font-size="8.00" fill="#000000">ekf::EKF::loopEKF</text>
</a>
</g>
</g>
<!-- Node33&#45;&gt;Node34 -->
<g id="edge7" class="edge">
<title>Node33&#45;&gt;Node34</title>
<path fill="none" stroke="#191970" d="M589.4946,-45C598.2067,-45 606.8214,-45 614.9734,-45"/>
<polygon fill="#191970" stroke="#191970" points="589.2444,-41.5001 579.2444,-45 589.2443,-48.5001 589.2444,-41.5001"/>
</g>
<!-- Node35 -->
<g id="node9" class="node">
<title>Node35</title>
<g id="a_node9"><a xlink:href="main_8cpp.html#aa561fc46a0358a47fa9151f211523ba0" target="_top" xlink:title="core_1">
<polygon fill="#ffffff" stroke="#000000" points="767.5,-36.5 767.5,-53.5 815.5,-53.5 815.5,-36.5 767.5,-36.5"/>
<text text-anchor="middle" x="791.5" y="-43.1" font-family="DejaVuSansMono" font-size="8.00" fill="#000000">core_1</text>
</a>
</g>
</g>
<!-- Node34&#45;&gt;Node35 -->
<g id="edge8" class="edge">
<title>Node34&#45;&gt;Node35</title>
<path fill="none" stroke="#191970" d="M731.3338,-45C744.1327,-45 756.8409,-45 767.2569,-45"/>
<polygon fill="#191970" stroke="#191970" points="731.0919,-41.5001 721.0918,-45 731.0918,-48.5001 731.0919,-41.5001"/>
</g>
<!-- Node36 -->
<g id="node10" class="node">
<title>Node36</title>
<g id="a_node10"><a xlink:href="main_8cpp.html#a50d45340b3399db75c34c3b9f67c1b11" target="_top" xlink:title="telemetria">
<polygon fill="#ffffff" stroke="#000000" points="757,-.5 757,-17.5 826,-17.5 826,-.5 757,-.5"/>
<text text-anchor="middle" x="791.5" y="-7.1" font-family="DejaVuSansMono" font-size="8.00" fill="#000000">telemetria</text>
</a>
</g>
</g>
<!-- Node34&#45;&gt;Node36 -->
<g id="edge10" class="edge">
<title>Node34&#45;&gt;Node36</title>
<path fill="none" stroke="#191970" d="M707.3239,-33.5372C725.0542,-28.3688 745.639,-22.3684 762.0143,-17.595"/>
<polygon fill="#191970" stroke="#191970" points="705.8887,-30.3098 697.2678,-36.4685 707.8477,-37.0301 705.8887,-30.3098"/>
</g>
<!-- Node35&#45;&gt;Node30 -->
<g id="edge9" class="edge">
<title>Node35&#45;&gt;Node30</title>
<path fill="none" stroke="#191970" d="M825.5538,-51.6627C837.7537,-54.0496 851.1581,-56.6722 861.9991,-58.7933"/>
<polygon fill="#191970" stroke="#191970" points="826.1579,-48.2146 815.6719,-49.7293 824.8138,-55.0844 826.1579,-48.2146"/>
</g>
</g>
</svg>
        <g id="navigator" transform="translate(0 0)" fill="#404254">
                <rect fill="#f2f5e9" fill-opacity="0.5" stroke="#606060" stroke-width=".5" x="0" y="0" width="60" height="60"/>
                <use id="zoomplus" xlink:href="#zoomPlus" x="17" y="9" onmousedown="handleZoom(evt,'in')"/>
                <use id="zoomminus" xlink:href="#zoomMin" x="42" y="9" onmousedown="handleZoom(evt,'out')"/>
                <use id="reset" xlink:href="#resetDef" x="30" y="36" onmousedown="handleReset()"/>
                <g id="arrowUp" xlink:href="#dirArrow" transform="translate(30 24)" onmousedown="handlePan(0,-1)">
                  <use xlink:href="#rim" fill="#404040">
                        <set attributeName="fill" to="#808080" begin="arrowUp.mouseover" end="arrowUp.mouseout"/>
                  </use>
                  <path fill="none" stroke="white" stroke-width="1.5" d="M0,-3.0v7 M-2.5,-0.5L0,-3.0L2.5,-0.5"/>
                </g>
                <g id="arrowRight" xlink:href="#dirArrow" transform="rotate(90) translate(36 -43)" onmousedown="handlePan(1,0)">
                  <use xlink:href="#rim" fill="#404040">
                        <set attributeName="fill" to="#808080" begin="arrowRight.mouseover" end="arrowRight.mouseout"/>
                  </use>
                  <path fill="none" stroke="white" stroke-width="1.5" d="M0,-3.0v7 M-2.5,-0.5L0,-3.0L2.5,-0.5"/>
                </g>
                <g id="arrowDown" xlink:href="#dirArrow" transform="rotate(180) translate(-30 -48)" onmousedown="handlePan(0,1)">
                  <use xlink:href="#rim" fill="#404040">
                        <set attributeName="fill" to="#808080" begin="arrowDown.mouseover" end="arrowDown.mouseout"/>
                  </use>
                  <path fill="none" stroke="white" stroke-width="1.5" d="M0,-3.0v7 M-2.5,-0.5L0,-3.0L2.5,-0.5"/>
                </g>
                <g id="arrowLeft" xlink:href="#dirArrow" transform="rotate(270) translate(-36 17)" onmousedown="handlePan(-1,0)">
                  <use xlink:href="#rim" fill="#404040">
                        <set attributeName="fill" to="#808080" begin="arrowLeft.mouseover" end="arrowLeft.mouseout"/>
                  </use>
                  <path fill="none" stroke="white" stroke-width="1.5" d="M0,-3.0v7 M-2.5,-0.5L0,-3.0L2.5,-0.5"/>
                </g>
        </g>
        <svg viewBox="0 0 15 15" width="100%" height="30px" preserveAspectRatio="xMaxYMin meet">
         <g id="arrow_out" transform="scale(0.3 0.3)">
          <a xlink:href="GPS_8h_a5d2ecd8f29f7e3e702c8b8bea333f6c6_icgraph_org.svg" target="_base">
           <rect id="button" ry="5" rx="5" y="6" x="6" height="38" width="38"
                fill="#f2f5e9" fill-opacity="0.5" stroke="#606060" stroke-width="1.0"/>
           <path id="arrow"
             d="M 11.500037,31.436501 C 11.940474,20.09759 22.043105,11.32322 32.158766,21.979434 L 37.068811,17.246167 C 37.068811,17.246167 37.088388,32 37.088388,32 L 22.160133,31.978069 C 22.160133,31.978069 26.997745,27.140456 26.997745,27.140456 C 18.528582,18.264221 13.291696,25.230495 11.500037,31.436501 z"
             style="fill:#404040;"/>
          </a>
         </g>
        </svg>
</svg>
