<?xml version="1.0" encoding="UTF-8" standalone="no"?>
<!DOCTYPE svg PUBLIC "-//W3C//DTD SVG 1.1//EN"
 "http://www.w3.org/Graphics/SVG/1.1/DTD/svg11.dtd">
<!-- Generated by graphviz version 2.40.1 (20161225.0304)
 -->
<!-- Title: Legenda do Grafo Pages: 1 -->
<svg width="525pt" height="149pt"
 viewBox="0.00 0.00 524.50 149.00" xmlns="http://www.w3.org/2000/svg" xmlns:xlink="http://www.w3.org/1999/xlink">
<g id="graph0" class="graph" transform="scale(1 1) rotate(0) translate(4 145)">
<title>Legenda do Grafo</title>
<polygon fill="#ffffff" stroke="transparent" points="-4,4 -4,-145 520.5,-145 520.5,4 -4,4"/>
<!-- Node9 -->
<g id="node1" class="node">
<title>Node9</title>
<polygon fill="#bfbfbf" stroke="#000000" points="306.5,-17 242.5,-17 242.5,0 306.5,0 306.5,-17"/>
<text text-anchor="middle" x="274.5" y="-6.6" font-family="DejaVuSansMono" font-size="8.00" fill="#000000">Inherited</text>
</g>
<!-- Node10 -->
<g id="node2" class="node">
<title>Node10</title>
<g id="a_node2"><a xlink:href="$classPublicBase.html" xlink:title="PublicBase">
<polygon fill="none" stroke="#000000" points="69,-79 0,-79 0,-62 69,-62 69,-79"/>
<text text-anchor="middle" x="34.5" y="-68.6" font-family="DejaVuSansMono" font-size="8.00" fill="#000000">PublicBase</text>
</a>
</g>
</g>
<!-- Node10&#45;&gt;Node9 -->
<g id="edge1" class="edge">
<title>Node10&#45;&gt;Node9</title>
<path fill="none" stroke="#191970" d="M77.5807,-59.3708C124.9739,-47.1276 200.0354,-27.7367 242.4859,-16.7703"/>
<polygon fill="#191970" stroke="#191970" points="76.4257,-56.0542 67.619,-61.9443 78.1766,-62.8317 76.4257,-56.0542"/>
</g>
<!-- Node11 -->
<g id="node3" class="node">
<title>Node11</title>
<g id="a_node3"><a xlink:href="$classTruncated.html" xlink:title="Truncated">
<polygon fill="none" stroke="#ff0000" points="66.5,-141 2.5,-141 2.5,-124 66.5,-124 66.5,-141"/>
<text text-anchor="middle" x="34.5" y="-130.6" font-family="DejaVuSansMono" font-size="8.00" fill="#000000">Truncated</text>
</a>
</g>
</g>
<!-- Node11&#45;&gt;Node10 -->
<g id="edge2" class="edge">
<title>Node11&#45;&gt;Node10</title>
<path fill="none" stroke="#191970" d="M34.5,-113.5373C34.5,-102.0299 34.5,-87.9026 34.5,-79.0476"/>
<polygon fill="#191970" stroke="#191970" points="31.0001,-113.8791 34.5,-123.8792 38.0001,-113.8792 31.0001,-113.8791"/>
</g>
<!-- Node13 -->
<g id="node4" class="node">
<title>Node13</title>
<g id="a_node4"><a xlink:href="$classProtectedBase.html" xlink:title="ProtectedBase">
<polygon fill="none" stroke="#000000" points="172,-79 87,-79 87,-62 172,-62 172,-79"/>
<text text-anchor="middle" x="129.5" y="-68.6" font-family="DejaVuSansMono" font-size="8.00" fill="#000000">ProtectedBase</text>
</a>
</g>
</g>
<!-- Node13&#45;&gt;Node9 -->
<g id="edge3" class="edge">
<title>Node13&#45;&gt;Node9</title>
<path fill="none" stroke="#006400" d="M159.1041,-57.8417C187.5688,-45.6706 229.8095,-27.6091 254.5096,-17.0476"/>
<polygon fill="#006400" stroke="#006400" points="157.4803,-54.7294 149.6616,-61.8792 160.2324,-61.1657 157.4803,-54.7294"/>
</g>
<!-- Node14 -->
<g id="node5" class="node">
<title>Node14</title>
<g id="a_node5"><a xlink:href="$classPrivateBase.html" xlink:title="PrivateBase">
<polygon fill="none" stroke="#000000" points="264.5,-79 190.5,-79 190.5,-62 264.5,-62 264.5,-79"/>
<text text-anchor="middle" x="227.5" y="-68.6" font-family="DejaVuSansMono" font-size="8.00" fill="#000000">PrivateBase</text>
</a>
</g>
</g>
<!-- Node14&#45;&gt;Node9 -->
<g id="edge4" class="edge">
<title>Node14&#45;&gt;Node9</title>
<path fill="none" stroke="#8b1a1a" d="M240.264,-53.6623C249.244,-41.8164 260.8882,-26.4561 268.0204,-17.0476"/>
<polygon fill="#8b1a1a" stroke="#8b1a1a" points="237.2871,-51.7957 234.0351,-61.8792 242.8654,-56.0245 237.2871,-51.7957"/>
</g>
<!-- Node15 -->
<g id="node6" class="node">
<title>Node15</title>
<polygon fill="none" stroke="#bfbfbf" points="362.5,-79 282.5,-79 282.5,-62 362.5,-62 362.5,-79"/>
<text text-anchor="middle" x="322.5" y="-68.6" font-family="DejaVuSansMono" font-size="8.00" fill="#000000">Undocumented</text>
</g>
<!-- Node15&#45;&gt;Node9 -->
<g id="edge5" class="edge">
<title>Node15&#45;&gt;Node9</title>
<path fill="none" stroke="#191970" d="M309.4644,-53.6623C300.2933,-41.8164 288.4015,-26.4561 281.1175,-17.0476"/>
<polygon fill="#191970" stroke="#191970" points="306.9365,-56.1145 315.8258,-61.8792 312.4716,-51.8293 306.9365,-56.1145"/>
</g>
<!-- Node16 -->
<g id="node7" class="node">
<title>Node16</title>
<g id="a_node7"><a xlink:href="$classTempl.html" xlink:title="Templ&lt; int &gt;">
<polygon fill="none" stroke="#000000" points="460.5,-79 380.5,-79 380.5,-62 460.5,-62 460.5,-79"/>
<text text-anchor="middle" x="420.5" y="-68.6" font-family="DejaVuSansMono" font-size="8.00" fill="#000000">Templ&lt; int &gt;</text>
</a>
</g>
</g>
<!-- Node16&#45;&gt;Node9 -->
<g id="edge6" class="edge">
<title>Node16&#45;&gt;Node9</title>
<path fill="none" stroke="#191970" d="M390.6917,-57.8417C362.0307,-45.6706 319.4987,-27.6091 294.6283,-17.0476"/>
<polygon fill="#191970" stroke="#191970" points="389.6268,-61.1919 400.1993,-61.8792 392.363,-54.7488 389.6268,-61.1919"/>
</g>
<!-- Node17 -->
<g id="node8" class="node">
<title>Node17</title>
<g id="a_node8"><a xlink:href="$classTempl.html" xlink:title="Templ&lt; T &gt;">
<polygon fill="none" stroke="#000000" points="455,-141 386,-141 386,-124 455,-124 455,-141"/>
<text text-anchor="middle" x="420.5" y="-130.6" font-family="DejaVuSansMono" font-size="8.00" fill="#000000">Templ&lt; T &gt;</text>
</a>
</g>
</g>
<!-- Node17&#45;&gt;Node16 -->
<g id="edge7" class="edge">
<title>Node17&#45;&gt;Node16</title>
<path fill="none" stroke="#ffa500" stroke-dasharray="5,2" d="M420.5,-113.5373C420.5,-102.0299 420.5,-87.9026 420.5,-79.0476"/>
<polygon fill="#ffa500" stroke="#ffa500" points="417.0001,-113.8791 420.5,-123.8792 424.0001,-113.8792 417.0001,-113.8791"/>
<text text-anchor="middle" x="439" y="-99.6" font-family="DejaVuSansMono" font-size="8.00" fill="#000000">&lt; int &gt;</text>
</g>
<!-- Node18 -->
<g id="node9" class="node">
<title>Node18</title>
<g id="a_node9"><a xlink:href="$classUsed.html" xlink:title="Used">
<polygon fill="none" stroke="#000000" points="516.5,-79 478.5,-79 478.5,-62 516.5,-62 516.5,-79"/>
<text text-anchor="middle" x="497.5" y="-68.6" font-family="DejaVuSansMono" font-size="8.00" fill="#000000">Used</text>
</a>
</g>
</g>
<!-- Node18&#45;&gt;Node9 -->
<g id="edge8" class="edge">
<title>Node18&#45;&gt;Node9</title>
<path fill="none" stroke="#9a32cd" stroke-dasharray="5,2" d="M468.5823,-61.7898C405.8637,-43.7354 343.4924,-26.8801 306.6647,-17.0398"/>
<polygon fill="#9a32cd" stroke="#9a32cd" points="467.6621,-65.167 478.2406,-64.5789 469.6042,-58.4418 467.6621,-65.167"/>
<text text-anchor="middle" x="433.5" y="-37.6" font-family="DejaVuSansMono" font-size="8.00" fill="#000000">m_usedClass</text>
</g>
</g>
</svg>
