<?xml version="1.0" encoding="UTF-8" standalone="no"?>
<!DOCTYPE svg PUBLIC "-//W3C//DTD SVG 1.1//EN"
 "http://www.w3.org/Graphics/SVG/1.1/DTD/svg11.dtd">
<!-- Generated by graphviz version 2.40.1 (20161225.0304)
 -->
<!-- Title: lib/GRUPO_QUAT/GRUPO_QUAT.h Pages: 1 -->
<svg width="164pt" height="89pt"
 viewBox="0.00 0.00 164.00 89.00" xmlns="http://www.w3.org/2000/svg" xmlns:xlink="http://www.w3.org/1999/xlink">
<g id="graph0" class="graph" transform="scale(1 1) rotate(0) translate(4 85)">
<title>lib/GRUPO_QUAT/GRUPO_QUAT.h</title>
<polygon fill="#ffffff" stroke="transparent" points="-4,4 -4,-85 160,-85 160,4 -4,4"/>
<!-- Node0 -->
<g id="node1" class="node">
<title>Node0</title>
<polygon fill="#bfbfbf" stroke="#000000" points="19,-54.5 19,-80.5 141,-80.5 141,-54.5 19,-54.5"/>
<text text-anchor="start" x="27" y="-70.1" font-family="DejaVuSansMono" font-size="8.00" fill="#000000">lib/GRUPO_QUAT/GRUPO</text>
<text text-anchor="middle" x="80" y="-61.1" font-family="DejaVuSansMono" font-size="8.00" fill="#000000">_QUAT.h</text>
</g>
<!-- Node1 -->
<g id="node2" class="node">
<title>Node1</title>
<polygon fill="#ffffff" stroke="#bfbfbf" points="0,-.5 0,-17.5 74,-17.5 74,-.5 0,-.5"/>
<text text-anchor="middle" x="37" y="-7.1" font-family="DejaVuSansMono" font-size="8.00" fill="#000000">Eigen/Dense</text>
</g>
<!-- Node0&#45;&gt;Node1 -->
<g id="edge1" class="edge">
<title>Node0&#45;&gt;Node1</title>
<path fill="none" stroke="#191970" d="M70.2426,-54.2254C64.0727,-45.8314 56.0416,-34.9054 49.4189,-25.8955"/>
<polygon fill="#191970" stroke="#191970" points="52.1295,-23.6735 43.3868,-17.689 46.4893,-27.8194 52.1295,-23.6735"/>
</g>
<!-- Node2 -->
<g id="node3" class="node">
<title>Node2</title>
<polygon fill="#ffffff" stroke="#bfbfbf" points="92,-.5 92,-17.5 156,-17.5 156,-.5 92,-.5"/>
<text text-anchor="middle" x="124" y="-7.1" font-family="DejaVuSansMono" font-size="8.00" fill="#000000">Arduino.h</text>
</g>
<!-- Node0&#45;&gt;Node2 -->
<g id="edge2" class="edge">
<title>Node0&#45;&gt;Node2</title>
<path fill="none" stroke="#191970" d="M89.9843,-54.2254C96.2977,-45.8314 104.5156,-34.9054 111.2923,-25.8955"/>
<polygon fill="#191970" stroke="#191970" points="114.2509,-27.7846 117.4647,-17.689 108.6566,-23.5769 114.2509,-27.7846"/>
</g>
</g>
</svg>
