<?xml version="1.0" encoding="UTF-8" standalone="no"?>
<!DOCTYPE svg PUBLIC "-//W3C//DTD SVG 1.1//EN"
 "http://www.w3.org/Graphics/SVG/1.1/DTD/svg11.dtd">
<!-- Generated by graphviz version 2.40.1 (20161225.0304)
 -->
<!-- Title: lib/GRUPO_QUAT/GRUPO_QUAT.cpp Pages: 1 -->
<svg width="164pt" height="143pt"
 viewBox="0.00 0.00 164.00 143.00" xmlns="http://www.w3.org/2000/svg" xmlns:xlink="http://www.w3.org/1999/xlink">
<g id="graph0" class="graph" transform="scale(1 1) rotate(0) translate(4 139)">
<title>lib/GRUPO_QUAT/GRUPO_QUAT.cpp</title>
<polygon fill="#ffffff" stroke="transparent" points="-4,4 -4,-139 160,-139 160,4 -4,4"/>
<!-- Node0 -->
<g id="node1" class="node">
<title>Node0</title>
<polygon fill="#bfbfbf" stroke="#000000" points="29,-108.5 29,-134.5 151,-134.5 151,-108.5 29,-108.5"/>
<text text-anchor="start" x="37" y="-124.1" font-family="DejaVuSansMono" font-size="8.00" fill="#000000">lib/GRUPO_QUAT/GRUPO</text>
<text text-anchor="middle" x="90" y="-115.1" font-family="DejaVuSansMono" font-size="8.00" fill="#000000">_QUAT.cpp</text>
</g>
<!-- Node1 -->
<g id="node2" class="node">
<title>Node1</title>
<g id="a_node2"><a xlink:href="GRUPO__QUAT_8h.html" target="_top" xlink:title="Cabecalho com funcoes de quaternion. ">
<polygon fill="#ffffff" stroke="#000000" points="16,-54.5 16,-71.5 96,-71.5 96,-54.5 16,-54.5"/>
<text text-anchor="middle" x="56" y="-61.1" font-family="DejaVuSansMono" font-size="8.00" fill="#000000">GRUPO_QUAT.h</text>
</a>
</g>
</g>
<!-- Node0&#45;&gt;Node1 -->
<g id="edge1" class="edge">
<title>Node0&#45;&gt;Node1</title>
<path fill="none" stroke="#191970" d="M82.2849,-108.2254C77.5079,-100.0063 71.3201,-89.3596 66.1483,-80.4611"/>
<polygon fill="#191970" stroke="#191970" points="69.101,-78.5761 61.05,-71.689 63.0489,-82.0935 69.101,-78.5761"/>
</g>
<!-- Node3 -->
<g id="node4" class="node">
<title>Node3</title>
<polygon fill="#ffffff" stroke="#bfbfbf" points="92,-.5 92,-17.5 156,-17.5 156,-.5 92,-.5"/>
<text text-anchor="middle" x="124" y="-7.1" font-family="DejaVuSansMono" font-size="8.00" fill="#000000">Arduino.h</text>
</g>
<!-- Node0&#45;&gt;Node3 -->
<g id="edge4" class="edge">
<title>Node0&#45;&gt;Node3</title>
<path fill="none" stroke="#191970" d="M93.9525,-108.4738C96.9798,-98.4924 101.2582,-84.3775 105,-72 109.5512,-56.9451 114.7023,-39.8626 118.4918,-27.2873"/>
<polygon fill="#191970" stroke="#191970" points="121.8886,-28.1453 121.4221,-17.5607 115.1862,-26.126 121.8886,-28.1453"/>
</g>
<!-- Node2 -->
<g id="node3" class="node">
<title>Node2</title>
<polygon fill="#ffffff" stroke="#bfbfbf" points="0,-.5 0,-17.5 74,-17.5 74,-.5 0,-.5"/>
<text text-anchor="middle" x="37" y="-7.1" font-family="DejaVuSansMono" font-size="8.00" fill="#000000">Eigen/Dense</text>
</g>
<!-- Node1&#45;&gt;Node2 -->
<g id="edge2" class="edge">
<title>Node1&#45;&gt;Node2</title>
<path fill="none" stroke="#191970" d="M52.8625,-54.083C50.3171,-46.8486 46.6438,-36.4087 43.4729,-27.3968"/>
<polygon fill="#191970" stroke="#191970" points="46.6998,-26.0225 40.0791,-17.7511 40.0966,-28.3459 46.6998,-26.0225"/>
</g>
<!-- Node1&#45;&gt;Node3 -->
<g id="edge3" class="edge">
<title>Node1&#45;&gt;Node3</title>
<path fill="none" stroke="#191970" d="M66.9254,-54.324C77.1746,-46.1849 92.7206,-33.8395 105.001,-24.0874"/>
<polygon fill="#191970" stroke="#191970" points="107.2213,-26.7937 112.8758,-17.8339 102.8681,-21.3119 107.2213,-26.7937"/>
</g>
</g>
</svg>
