<?xml version="1.0" encoding="UTF-8" standalone="no"?>
<!DOCTYPE svg PUBLIC "-//W3C//DTD SVG 1.1//EN"
 "http://www.w3.org/Graphics/SVG/1.1/DTD/svg11.dtd">
<!-- Generated by graphviz version 2.40.1 (20161225.0304)
 -->
<!-- Title: lib/GRUPO_QUAT/GRUPO_QUAT.h Pages: 1 -->
<svg width="342pt" height="98pt"
 viewBox="0.00 0.00 341.50 98.00" xmlns="http://www.w3.org/2000/svg" xmlns:xlink="http://www.w3.org/1999/xlink">
<g id="graph0" class="graph" transform="scale(1 1) rotate(0) translate(4 94)">
<title>lib/GRUPO_QUAT/GRUPO_QUAT.h</title>
<polygon fill="#ffffff" stroke="transparent" points="-4,4 -4,-94 337.5,-94 337.5,4 -4,4"/>
<!-- Node3 -->
<g id="node1" class="node">
<title>Node3</title>
<polygon fill="#bfbfbf" stroke="#000000" points="113.5,-63.5 113.5,-89.5 235.5,-89.5 235.5,-63.5 113.5,-63.5"/>
<text text-anchor="start" x="121.5" y="-79.1" font-family="DejaVuSansMono" font-size="8.00" fill="#000000">lib/GRUPO_QUAT/GRUPO</text>
<text text-anchor="middle" x="174.5" y="-70.1" font-family="DejaVuSansMono" font-size="8.00" fill="#000000">_QUAT.h</text>
</g>
<!-- Node4 -->
<g id="node2" class="node">
<title>Node4</title>
<g id="a_node2"><a xlink:href="EKF_8cpp.html" target="_top" xlink:title="Classe que implementa o filtro de Kalman estendido. ">
<polygon fill="#ffffff" stroke="#000000" points="0,-5 0,-22 95,-22 95,-5 0,-5"/>
<text text-anchor="middle" x="47.5" y="-11.6" font-family="DejaVuSansMono" font-size="8.00" fill="#000000">lib/EKF/EKF.cpp</text>
</a>
</g>
</g>
<!-- Node3&#45;&gt;Node4 -->
<g id="edge1" class="edge">
<title>Node3&#45;&gt;Node4</title>
<path fill="none" stroke="#191970" d="M138.9538,-58.8668C114.7644,-46.8674 83.8134,-31.5137 64.8345,-22.099"/>
<polygon fill="#191970" stroke="#191970" points="137.6718,-62.1378 148.1855,-63.4464 140.7826,-55.867 137.6718,-62.1378"/>
</g>
<!-- Node5 -->
<g id="node3" class="node">
<title>Node5</title>
<g id="a_node3"><a xlink:href="GRUPO__QUAT_8cpp.html" target="_top" xlink:title="Cabecalho com funcoes de quaternion. ">
<polygon fill="#ffffff" stroke="#000000" points="113.5,-.5 113.5,-26.5 235.5,-26.5 235.5,-.5 113.5,-.5"/>
<text text-anchor="start" x="121.5" y="-16.1" font-family="DejaVuSansMono" font-size="8.00" fill="#000000">lib/GRUPO_QUAT/GRUPO</text>
<text text-anchor="middle" x="174.5" y="-7.1" font-family="DejaVuSansMono" font-size="8.00" fill="#000000">_QUAT.cpp</text>
</a>
</g>
</g>
<!-- Node3&#45;&gt;Node5 -->
<g id="edge2" class="edge">
<title>Node3&#45;&gt;Node5</title>
<path fill="none" stroke="#191970" d="M174.5,-53.1641C174.5,-44.1693 174.5,-34.2205 174.5,-26.5369"/>
<polygon fill="#191970" stroke="#191970" points="171.0001,-53.4463 174.5,-63.4464 178.0001,-53.4464 171.0001,-53.4463"/>
</g>
<!-- Node6 -->
<g id="node4" class="node">
<title>Node6</title>
<g id="a_node4"><a xlink:href="main_8cpp.html" target="_top" xlink:title="src/main.cpp">
<polygon fill="#ffffff" stroke="#000000" points="253.5,-5 253.5,-22 333.5,-22 333.5,-5 253.5,-5"/>
<text text-anchor="middle" x="293.5" y="-11.6" font-family="DejaVuSansMono" font-size="8.00" fill="#000000">src/main.cpp</text>
</a>
</g>
</g>
<!-- Node3&#45;&gt;Node6 -->
<g id="edge3" class="edge">
<title>Node3&#45;&gt;Node6</title>
<path fill="none" stroke="#191970" d="M208.1083,-58.7074C230.7292,-46.7316 259.5528,-31.4721 277.2575,-22.099"/>
<polygon fill="#191970" stroke="#191970" points="206.3571,-55.6742 199.1569,-63.4464 209.6324,-61.8607 206.3571,-55.6742"/>
</g>
</g>
</svg>
