<?xml version="1.0" encoding="UTF-8" standalone="no"?>
<!DOCTYPE svg PUBLIC "-//W3C//DTD SVG 1.1//EN"
 "http://www.w3.org/Graphics/SVG/1.1/DTD/svg11.dtd">
<!-- Generated by graphviz version 2.40.1 (20161225.0304)
 -->
<!-- Title: lib/IMU/IMU.h Pages: 1 -->
<svg width="272pt" height="134pt"
 viewBox="0.00 0.00 272.00 134.00" xmlns="http://www.w3.org/2000/svg" xmlns:xlink="http://www.w3.org/1999/xlink">
<g id="graph0" class="graph" transform="scale(1 1) rotate(0) translate(4 130)">
<title>lib/IMU/IMU.h</title>
<polygon fill="#ffffff" stroke="transparent" points="-4,4 -4,-130 268,-130 268,4 -4,4"/>
<!-- Node0 -->
<g id="node1" class="node">
<title>Node0</title>
<polygon fill="#bfbfbf" stroke="#000000" points="102.5,-108.5 102.5,-125.5 187.5,-125.5 187.5,-108.5 102.5,-108.5"/>
<text text-anchor="middle" x="145" y="-115.1" font-family="DejaVuSansMono" font-size="8.00" fill="#000000">lib/IMU/IMU.h</text>
</g>
<!-- Node1 -->
<g id="node2" class="node">
<title>Node1</title>
<polygon fill="#ffffff" stroke="#bfbfbf" points="0,-.5 0,-17.5 74,-17.5 74,-.5 0,-.5"/>
<text text-anchor="middle" x="37" y="-7.1" font-family="DejaVuSansMono" font-size="8.00" fill="#000000">Eigen/Dense</text>
</g>
<!-- Node0&#45;&gt;Node1 -->
<g id="edge1" class="edge">
<title>Node0&#45;&gt;Node1</title>
<path fill="none" stroke="#191970" d="M102.4322,-111.2774C78.3002,-105.613 50.0086,-94.3559 35,-72 26.3272,-59.0816 27.9055,-41.0786 31.023,-27.6243"/>
<polygon fill="#191970" stroke="#191970" points="34.5024,-28.1764 33.8125,-17.604 27.7588,-26.299 34.5024,-28.1764"/>
</g>
<!-- Node2 -->
<g id="node3" class="node">
<title>Node2</title>
<g id="a_node3"><a xlink:href="METODOSCALIBRACAO_8h.html" target="_top" xlink:title="METODOSCALIBRACAO.h">
<polygon fill="#ffffff" stroke="#000000" points="44,-54.5 44,-71.5 160,-71.5 160,-54.5 44,-54.5"/>
<text text-anchor="middle" x="102" y="-61.1" font-family="DejaVuSansMono" font-size="8.00" fill="#000000">METODOSCALIBRACAO.h</text>
</a>
</g>
</g>
<!-- Node0&#45;&gt;Node2 -->
<g id="edge2" class="edge">
<title>Node0&#45;&gt;Node2</title>
<path fill="none" stroke="#191970" d="M137.8994,-108.083C131.763,-100.3768 122.7303,-89.0333 115.2608,-79.6531"/>
<polygon fill="#191970" stroke="#191970" points="117.9357,-77.3936 108.9685,-71.7511 112.4598,-81.7542 117.9357,-77.3936"/>
</g>
<!-- Node3 -->
<g id="node4" class="node">
<title>Node3</title>
<polygon fill="#ffffff" stroke="#bfbfbf" points="134,-.5 134,-17.5 198,-17.5 198,-.5 134,-.5"/>
<text text-anchor="middle" x="166" y="-7.1" font-family="DejaVuSansMono" font-size="8.00" fill="#000000">Arduino.h</text>
</g>
<!-- Node0&#45;&gt;Node3 -->
<g id="edge5" class="edge">
<title>Node0&#45;&gt;Node3</title>
<path fill="none" stroke="#191970" d="M151.3668,-108.232C157.2602,-99.5324 165.607,-85.5719 169,-72 172.6193,-57.5229 171.5349,-40.6056 169.7292,-27.949"/>
<polygon fill="#191970" stroke="#191970" points="173.1152,-26.984 167.9823,-17.7156 166.215,-28.1619 173.1152,-26.984"/>
</g>
<!-- Node4 -->
<g id="node5" class="node">
<title>Node4</title>
<polygon fill="#ffffff" stroke="#bfbfbf" points="216,-54.5 216,-71.5 264,-71.5 264,-54.5 216,-54.5"/>
<text text-anchor="middle" x="240" y="-61.1" font-family="DejaVuSansMono" font-size="8.00" fill="#000000">Wire.h</text>
</g>
<!-- Node0&#45;&gt;Node4 -->
<g id="edge6" class="edge">
<title>Node0&#45;&gt;Node4</title>
<path fill="none" stroke="#191970" d="M160.2634,-108.324C175.2214,-99.8215 198.2548,-86.7288 215.7267,-76.7975"/>
<polygon fill="#191970" stroke="#191970" points="217.8104,-79.639 224.7745,-71.6545 214.3512,-73.5534 217.8104,-79.639"/>
</g>
<!-- Node2&#45;&gt;Node1 -->
<g id="edge3" class="edge">
<title>Node2&#45;&gt;Node1</title>
<path fill="none" stroke="#191970" d="M91.5566,-54.324C81.8538,-46.2631 67.1847,-34.0765 55.5003,-24.3695"/>
<polygon fill="#191970" stroke="#191970" points="57.5619,-21.532 47.6334,-17.8339 53.0887,-26.9163 57.5619,-21.532"/>
</g>
<!-- Node2&#45;&gt;Node3 -->
<g id="edge4" class="edge">
<title>Node2&#45;&gt;Node3</title>
<path fill="none" stroke="#191970" d="M112.2827,-54.324C121.8363,-46.2631 136.2797,-34.0765 147.7843,-24.3695"/>
<polygon fill="#191970" stroke="#191970" points="150.1443,-26.9577 155.5302,-17.8339 145.6302,-21.6076 150.1443,-26.9577"/>
</g>
</g>
</svg>
