<?xml version="1.0" encoding="UTF-8" standalone="no"?>
<!DOCTYPE svg PUBLIC "-//W3C//DTD SVG 1.1//EN"
 "http://www.w3.org/Graphics/SVG/1.1/DTD/svg11.dtd">
<!-- Generated by graphviz version 2.40.1 (20161225.0304)
 -->
<!-- Title: lib/IMU/IMU.cpp Pages: 1 -->
<svg width="274pt" height="188pt"
 viewBox="0.00 0.00 273.50 188.00" xmlns="http://www.w3.org/2000/svg" xmlns:xlink="http://www.w3.org/1999/xlink">
<g id="graph0" class="graph" transform="scale(1 1) rotate(0) translate(4 184)">
<title>lib/IMU/IMU.cpp</title>
<polygon fill="#ffffff" stroke="transparent" points="-4,4 -4,-184 269.5,-184 269.5,4 -4,4"/>
<!-- Node0 -->
<g id="node1" class="node">
<title>Node0</title>
<polygon fill="#bfbfbf" stroke="#000000" points="170.5,-162.5 170.5,-179.5 265.5,-179.5 265.5,-162.5 170.5,-162.5"/>
<text text-anchor="middle" x="218" y="-169.1" font-family="DejaVuSansMono" font-size="8.00" fill="#000000">lib/IMU/IMU.cpp</text>
</g>
<!-- Node1 -->
<g id="node2" class="node">
<title>Node1</title>
<g id="a_node2"><a xlink:href="IMU_8h.html" target="_top" xlink:title="IMU.h">
<polygon fill="#ffffff" stroke="#000000" points="144.5,-108.5 144.5,-125.5 187.5,-125.5 187.5,-108.5 144.5,-108.5"/>
<text text-anchor="middle" x="166" y="-115.1" font-family="DejaVuSansMono" font-size="8.00" fill="#000000">IMU.h</text>
</a>
</g>
</g>
<!-- Node0&#45;&gt;Node1 -->
<g id="edge1" class="edge">
<title>Node0&#45;&gt;Node1</title>
<path fill="none" stroke="#191970" d="M209.4133,-162.083C201.841,-154.2195 190.6218,-142.5688 181.4856,-133.0813"/>
<polygon fill="#191970" stroke="#191970" points="183.8845,-130.5266 174.427,-125.7511 178.8423,-135.3821 183.8845,-130.5266"/>
</g>
<!-- Node4 -->
<g id="node5" class="node">
<title>Node4</title>
<polygon fill="#ffffff" stroke="#bfbfbf" points="134,-.5 134,-17.5 198,-17.5 198,-.5 134,-.5"/>
<text text-anchor="middle" x="166" y="-7.1" font-family="DejaVuSansMono" font-size="8.00" fill="#000000">Arduino.h</text>
</g>
<!-- Node0&#45;&gt;Node4 -->
<g id="edge8" class="edge">
<title>Node0&#45;&gt;Node4</title>
<path fill="none" stroke="#191970" d="M224.7208,-162.4539C239.7305,-142.2547 272.9899,-90.5231 251,-54 241.4245,-38.096 224.1341,-27.5186 207.636,-20.6407"/>
<polygon fill="#191970" stroke="#191970" points="208.6691,-17.2891 198.078,-17.0063 206.1811,-23.832 208.6691,-17.2891"/>
</g>
<!-- Node2 -->
<g id="node3" class="node">
<title>Node2</title>
<polygon fill="#ffffff" stroke="#bfbfbf" points="0,-.5 0,-17.5 74,-17.5 74,-.5 0,-.5"/>
<text text-anchor="middle" x="37" y="-7.1" font-family="DejaVuSansMono" font-size="8.00" fill="#000000">Eigen/Dense</text>
</g>
<!-- Node1&#45;&gt;Node2 -->
<g id="edge2" class="edge">
<title>Node1&#45;&gt;Node2</title>
<path fill="none" stroke="#191970" d="M144.4817,-113.8646C106.2127,-107.8005 28.8411,-93.1712 13,-72 2.6464,-58.1626 12.2206,-39.3289 22.179,-25.8657"/>
<polygon fill="#191970" stroke="#191970" points="25.0424,-27.8899 28.573,-17.9006 19.5836,-23.5078 25.0424,-27.8899"/>
</g>
<!-- Node3 -->
<g id="node4" class="node">
<title>Node3</title>
<g id="a_node4"><a xlink:href="METODOSCALIBRACAO_8h.html" target="_top" xlink:title="METODOSCALIBRACAO.h">
<polygon fill="#ffffff" stroke="#000000" points="22,-54.5 22,-71.5 138,-71.5 138,-54.5 22,-54.5"/>
<text text-anchor="middle" x="80" y="-61.1" font-family="DejaVuSansMono" font-size="8.00" fill="#000000">METODOSCALIBRACAO.h</text>
</a>
</g>
</g>
<!-- Node1&#45;&gt;Node3 -->
<g id="edge3" class="edge">
<title>Node1&#45;&gt;Node3</title>
<path fill="none" stroke="#191970" d="M152.1826,-108.324C138.767,-99.9002 118.1759,-86.9709 102.4144,-77.0741"/>
<polygon fill="#191970" stroke="#191970" points="104.1132,-74.0081 93.7831,-71.6545 100.3908,-79.9364 104.1132,-74.0081"/>
</g>
<!-- Node1&#45;&gt;Node4 -->
<g id="edge6" class="edge">
<title>Node1&#45;&gt;Node4</title>
<path fill="none" stroke="#191970" d="M166,-108.1619C166,-90.6713 166,-51.3048 166,-27.7731"/>
<polygon fill="#191970" stroke="#191970" points="169.5001,-27.6583 166,-17.6584 162.5001,-27.6584 169.5001,-27.6583"/>
</g>
<!-- Node5 -->
<g id="node6" class="node">
<title>Node5</title>
<polygon fill="#ffffff" stroke="#bfbfbf" points="194,-54.5 194,-71.5 242,-71.5 242,-54.5 194,-54.5"/>
<text text-anchor="middle" x="218" y="-61.1" font-family="DejaVuSansMono" font-size="8.00" fill="#000000">Wire.h</text>
</g>
<!-- Node1&#45;&gt;Node5 -->
<g id="edge7" class="edge">
<title>Node1&#45;&gt;Node5</title>
<path fill="none" stroke="#191970" d="M174.5867,-108.083C182.159,-100.2195 193.3782,-88.5688 202.5144,-79.0813"/>
<polygon fill="#191970" stroke="#191970" points="205.1577,-81.3821 209.573,-71.7511 200.1155,-76.5266 205.1577,-81.3821"/>
</g>
<!-- Node3&#45;&gt;Node2 -->
<g id="edge4" class="edge">
<title>Node3&#45;&gt;Node2</title>
<path fill="none" stroke="#191970" d="M72.8994,-54.083C66.763,-46.3768 57.7303,-35.0333 50.2608,-25.6531"/>
<polygon fill="#191970" stroke="#191970" points="52.9357,-23.3936 43.9685,-17.7511 47.4598,-27.7542 52.9357,-23.3936"/>
</g>
<!-- Node3&#45;&gt;Node4 -->
<g id="edge5" class="edge">
<title>Node3&#45;&gt;Node4</title>
<path fill="none" stroke="#191970" d="M93.8174,-54.324C107.233,-45.9002 127.8241,-32.9709 143.5856,-23.0741"/>
<polygon fill="#191970" stroke="#191970" points="145.6092,-25.9364 152.2169,-17.6545 141.8868,-20.0081 145.6092,-25.9364"/>
</g>
</g>
</svg>
