<?xml version="1.0" encoding="UTF-8" standalone="no"?>
<!DOCTYPE svg PUBLIC "-//W3C//DTD SVG 1.1//EN"
 "http://www.w3.org/Graphics/SVG/1.1/DTD/svg11.dtd">
<!-- Generated by graphviz version 2.40.1 (20161225.0304)
 -->
<!-- Title: core_1 Pages: 1 -->
<svg width="960pt" height="309pt"
 viewBox="0.00 0.00 960.00 309.00" xmlns="http://www.w3.org/2000/svg" xmlns:xlink="http://www.w3.org/1999/xlink">
<g id="graph0" class="graph" transform="scale(1 1) rotate(0) translate(4 305)">
<title>core_1</title>
<polygon fill="#ffffff" stroke="transparent" points="-4,4 -4,-305 956,-305 956,4 -4,4"/>
<!-- Node0 -->
<g id="node1" class="node">
<title>Node0</title>
<polygon fill="#bfbfbf" stroke="#000000" points="0,-111.5 0,-128.5 48,-128.5 48,-111.5 0,-111.5"/>
<text text-anchor="middle" x="24" y="-118.1" font-family="DejaVuSansMono" font-size="8.00" fill="#000000">core_1</text>
</g>
<!-- Node1 -->
<g id="node2" class="node">
<title>Node1</title>
<g id="a_node2"><a xlink:href="classekf_1_1EKF.html#a651814ff64d234394572e2e7c5703a43" target="_top" xlink:title="ekf::EKF::loopEKF">
<polygon fill="#ffffff" stroke="#000000" points="84,-111.5 84,-128.5 190,-128.5 190,-111.5 84,-111.5"/>
<text text-anchor="middle" x="137" y="-118.1" font-family="DejaVuSansMono" font-size="8.00" fill="#000000">ekf::EKF::loopEKF</text>
</a>
</g>
</g>
<!-- Node0&#45;&gt;Node1 -->
<g id="edge1" class="edge">
<title>Node0&#45;&gt;Node1</title>
<path fill="none" stroke="#191970" d="M48.2413,-120C55.7801,-120 64.4712,-120 73.4028,-120"/>
<polygon fill="#191970" stroke="#191970" points="73.5403,-123.5001 83.5403,-120 73.5402,-116.5001 73.5403,-123.5001"/>
</g>
<!-- Node2 -->
<g id="node3" class="node">
<title>Node2</title>
<g id="a_node3"><a xlink:href="namespaceekf.html#a7a798898cf7aa6db9b57d53dcf93d185" target="_top" xlink:title="ekf::quaternion2Euler">
<polygon fill="#ffffff" stroke="#000000" points="244.5,-183.5 244.5,-200.5 371.5,-200.5 371.5,-183.5 244.5,-183.5"/>
<text text-anchor="middle" x="308" y="-190.1" font-family="DejaVuSansMono" font-size="8.00" fill="#000000">ekf::quaternion2Euler</text>
</a>
</g>
</g>
<!-- Node1&#45;&gt;Node2 -->
<g id="edge2" class="edge">
<title>Node1&#45;&gt;Node2</title>
<path fill="none" stroke="#191970" d="M148.434,-128.6551C164.7722,-140.6086 196.1334,-162.0459 226,-174 232.605,-176.6437 239.6725,-178.9336 246.7859,-180.9086"/>
<polygon fill="#191970" stroke="#191970" points="245.9179,-184.2992 256.4753,-183.4102 247.6677,-177.5214 245.9179,-184.2992"/>
</g>
<!-- Node3 -->
<g id="node4" class="node">
<title>Node3</title>
<g id="a_node4"><a xlink:href="namespaceekf.html#ae9e1aaaa7793db099f4ef88b44aab8d5" target="_top" xlink:title="ekf::printEigen">
<polygon fill="#ffffff" stroke="#000000" points="260.5,-147.5 260.5,-164.5 355.5,-164.5 355.5,-147.5 260.5,-147.5"/>
<text text-anchor="middle" x="308" y="-154.1" font-family="DejaVuSansMono" font-size="8.00" fill="#000000">ekf::printEigen</text>
</a>
</g>
</g>
<!-- Node1&#45;&gt;Node3 -->
<g id="edge3" class="edge">
<title>Node1&#45;&gt;Node3</title>
<path fill="none" stroke="#191970" d="M177.5246,-128.5315C201.5018,-133.5793 232.076,-140.016 257.6,-145.3895"/>
<polygon fill="#191970" stroke="#191970" points="256.9637,-148.8322 267.4703,-147.4674 258.4059,-141.9823 256.9637,-148.8322"/>
</g>
<!-- Node4 -->
<g id="node5" class="node">
<title>Node4</title>
<g id="a_node5"><a xlink:href="classekf_1_1EKF.html#a548f56f22a519f1f66b1bf59b9ed56d6" target="_top" xlink:title="ekf::EKF::temporalPrediction">
<polygon fill="#ffffff" stroke="#000000" points="226,-111.5 226,-128.5 390,-128.5 390,-111.5 226,-111.5"/>
<text text-anchor="middle" x="308" y="-118.1" font-family="DejaVuSansMono" font-size="8.00" fill="#000000">ekf::EKF::temporalPrediction</text>
</a>
</g>
</g>
<!-- Node1&#45;&gt;Node4 -->
<g id="edge4" class="edge">
<title>Node1&#45;&gt;Node4</title>
<path fill="none" stroke="#191970" d="M190.1681,-120C198.3424,-120 206.979,-120 215.7106,-120"/>
<polygon fill="#191970" stroke="#191970" points="215.9825,-123.5001 225.9825,-120 215.9825,-116.5001 215.9825,-123.5001"/>
</g>
<!-- Node20 -->
<g id="node21" class="node">
<title>Node20</title>
<g id="a_node21"><a xlink:href="classekf_1_1EKF.html#a94bc601335d20c0a058e8e8600d912e7" target="_top" xlink:title="ekf::EKF::updateH">
<polygon fill="#ffffff" stroke="#000000" points="460,-.5 460,-17.5 566,-17.5 566,-.5 460,-.5"/>
<text text-anchor="middle" x="513" y="-7.1" font-family="DejaVuSansMono" font-size="8.00" fill="#000000">ekf::EKF::updateH</text>
</a>
</g>
</g>
<!-- Node1&#45;&gt;Node20 -->
<g id="edge22" class="edge">
<title>Node1&#45;&gt;Node20</title>
<path fill="none" stroke="#191970" d="M146.0216,-111.4538C161.2136,-97.5934 193.4442,-70.4146 226,-57 299.0753,-26.8895 390.0223,-15.6548 449.7049,-11.4705"/>
<polygon fill="#191970" stroke="#191970" points="449.99,-14.9594 459.7397,-10.8127 449.5321,-7.9744 449.99,-14.9594"/>
</g>
<!-- Node21 -->
<g id="node22" class="node">
<title>Node21</title>
<g id="a_node22"><a xlink:href="classekf_1_1EKF.html#a03bd00a47fa41884a6fef987dcb06c41" target="_top" xlink:title="ekf::EKF::statesUpdate">
<polygon fill="#ffffff" stroke="#000000" points="242,-66.5 242,-83.5 374,-83.5 374,-66.5 242,-66.5"/>
<text text-anchor="middle" x="308" y="-73.1" font-family="DejaVuSansMono" font-size="8.00" fill="#000000">ekf::EKF::statesUpdate</text>
</a>
</g>
</g>
<!-- Node1&#45;&gt;Node21 -->
<g id="edge24" class="edge">
<title>Node1&#45;&gt;Node21</title>
<path fill="none" stroke="#191970" d="M169.5663,-111.4299C196.9034,-104.2359 236.1431,-93.9097 265.8695,-86.087"/>
<polygon fill="#191970" stroke="#191970" points="266.775,-89.4679 275.555,-83.5382 264.9935,-82.6984 266.775,-89.4679"/>
</g>
<!-- Node5 -->
<g id="node6" class="node">
<title>Node5</title>
<g id="a_node6"><a xlink:href="namespaceekf.html#ac031eda654b199bd45807eed2acdb3ec" target="_top" xlink:title="ekf::computeMcdFromQuaternion">
<polygon fill="#ffffff" stroke="#000000" points="636,-111.5 636,-128.5 805,-128.5 805,-111.5 636,-111.5"/>
<text text-anchor="middle" x="720.5" y="-118.1" font-family="DejaVuSansMono" font-size="8.00" fill="#000000">ekf::computeMcdFromQuaternion</text>
</a>
</g>
</g>
<!-- Node4&#45;&gt;Node5 -->
<g id="edge5" class="edge">
<title>Node4&#45;&gt;Node5</title>
<path fill="none" stroke="#191970" d="M390.4841,-120C458.2721,-120 554.3652,-120 625.3886,-120"/>
<polygon fill="#191970" stroke="#191970" points="625.6792,-123.5001 635.6792,-120 625.6791,-116.5001 625.6792,-123.5001"/>
</g>
<!-- Node7 -->
<g id="node8" class="node">
<title>Node7</title>
<g id="a_node8"><a xlink:href="classekf_1_1EKF.html#a84048d25ebfb6431d7b1372b7315a7a3" target="_top" xlink:title="Atualiza a medicao a partir dos sensores da unidade Margin e GPS. ">
<polygon fill="#ffffff" stroke="#000000" points="426,-220.5 426,-237.5 600,-237.5 600,-220.5 426,-220.5"/>
<text text-anchor="middle" x="513" y="-227.1" font-family="DejaVuSansMono" font-size="8.00" fill="#000000">ekf::EKF::updateOfMeasurements</text>
</a>
</g>
</g>
<!-- Node4&#45;&gt;Node7 -->
<g id="edge7" class="edge">
<title>Node4&#45;&gt;Node7</title>
<path fill="none" stroke="#191970" d="M373.589,-128.6219C379.4755,-131.062 385.0657,-134.1359 390,-138 418.481,-160.3041 397.3849,-188.8681 426,-211 428.3448,-212.8136 430.8279,-214.4563 433.4153,-215.9435"/>
<polygon fill="#191970" stroke="#191970" points="432.0444,-219.1693 442.5647,-220.4239 435.123,-212.8826 432.0444,-219.1693"/>
</g>
<!-- Node15 -->
<g id="node16" class="node">
<title>Node15</title>
<g id="a_node16"><a xlink:href="namespaceekf.html#a13baef64e88517a1c0af97c5bfb32787" target="_top" xlink:title="ekf::computeVectorProjection">
<polygon fill="#ffffff" stroke="#000000" points="431,-184.5 431,-201.5 595,-201.5 595,-184.5 431,-184.5"/>
<text text-anchor="middle" x="513" y="-191.1" font-family="DejaVuSansMono" font-size="8.00" fill="#000000">ekf::computeVectorProjection</text>
</a>
</g>
</g>
<!-- Node4&#45;&gt;Node15 -->
<g id="edge15" class="edge">
<title>Node4&#45;&gt;Node15</title>
<path fill="none" stroke="#191970" d="M366.8844,-128.5284C374.9309,-130.9397 382.867,-134.0327 390,-138 410.051,-149.1524 405.882,-163.9688 426,-175 430.2559,-177.3336 434.7802,-179.3656 439.4424,-181.1346"/>
<polygon fill="#191970" stroke="#191970" points="438.5704,-184.5341 449.1645,-184.4093 440.8049,-177.9003 438.5704,-184.5341"/>
</g>
<!-- Node16 -->
<g id="node17" class="node">
<title>Node16</title>
<g id="a_node17"><a xlink:href="classekf_1_1EKF.html#ad5949e9e8eae2938a332af03a8ec353b" target="_top" xlink:title="ekf::EKF::updatefi">
<polygon fill="#ffffff" stroke="#000000" points="457.5,-148.5 457.5,-165.5 568.5,-165.5 568.5,-148.5 457.5,-148.5"/>
<text text-anchor="middle" x="513" y="-155.1" font-family="DejaVuSansMono" font-size="8.00" fill="#000000">ekf::EKF::updatefi</text>
</a>
</g>
</g>
<!-- Node4&#45;&gt;Node16 -->
<g id="edge16" class="edge">
<title>Node4&#45;&gt;Node16</title>
<path fill="none" stroke="#191970" d="M355.2885,-128.535C385.1639,-133.9271 423.9587,-140.9291 455.5951,-146.6391"/>
<polygon fill="#191970" stroke="#191970" points="455.132,-150.112 465.5947,-148.4439 456.3754,-143.2233 455.132,-150.112"/>
</g>
<!-- Node18 -->
<g id="node19" class="node">
<title>Node18</title>
<g id="a_node19"><a xlink:href="classekf_1_1EKF.html#a4bd0d4a6ec2787cf1c690fcf154a43c5" target="_top" xlink:title="ekf::EKF::integrationOfStates">
<polygon fill="#ffffff" stroke="#000000" points="428.5,-74.5 428.5,-91.5 597.5,-91.5 597.5,-74.5 428.5,-74.5"/>
<text text-anchor="middle" x="513" y="-81.1" font-family="DejaVuSansMono" font-size="8.00" fill="#000000">ekf::EKF::integrationOfStates</text>
</a>
</g>
</g>
<!-- Node4&#45;&gt;Node18 -->
<g id="edge19" class="edge">
<title>Node4&#45;&gt;Node18</title>
<path fill="none" stroke="#191970" d="M355.2885,-111.465C385.1639,-106.0729 423.9587,-99.0709 455.5951,-93.3609"/>
<polygon fill="#191970" stroke="#191970" points="456.3754,-96.7767 465.5947,-91.5561 455.132,-89.888 456.3754,-96.7767"/>
</g>
<!-- Node6 -->
<g id="node7" class="node">
<title>Node6</title>
<g id="a_node7"><a xlink:href="namespaceekf.html#af3f0a631343e55ec8b42f3fbea182461" target="_top" xlink:title="Matrix antissimetrica. ">
<polygon fill="#ffffff" stroke="#000000" points="864.5,-111.5 864.5,-128.5 928.5,-128.5 928.5,-111.5 864.5,-111.5"/>
<text text-anchor="middle" x="896.5" y="-118.1" font-family="DejaVuSansMono" font-size="8.00" fill="#000000">ekf::skew</text>
</a>
</g>
</g>
<!-- Node5&#45;&gt;Node6 -->
<g id="edge6" class="edge">
<title>Node5&#45;&gt;Node6</title>
<path fill="none" stroke="#191970" d="M805.1492,-120C822.1563,-120 839.3305,-120 854.126,-120"/>
<polygon fill="#191970" stroke="#191970" points="854.4427,-123.5001 864.4427,-120 854.4427,-116.5001 854.4427,-123.5001"/>
</g>
<!-- Node8 -->
<g id="node9" class="node">
<title>Node8</title>
<g id="a_node9"><a xlink:href="classIMU.html#ac574728dbbc752155239a35c8bbd6e79" target="_top" xlink:title="IMU::readSensor">
<polygon fill="#ffffff" stroke="#000000" points="673,-274.5 673,-291.5 768,-291.5 768,-274.5 673,-274.5"/>
<text text-anchor="middle" x="720.5" y="-281.1" font-family="DejaVuSansMono" font-size="8.00" fill="#000000">IMU::readSensor</text>
</a>
</g>
</g>
<!-- Node7&#45;&gt;Node8 -->
<g id="edge8" class="edge">
<title>Node7&#45;&gt;Node8</title>
<path fill="none" stroke="#191970" d="M545.879,-237.5565C581.6215,-246.8581 638.8601,-261.754 677.9931,-271.938"/>
<polygon fill="#191970" stroke="#191970" points="677.2157,-275.3522 687.7748,-274.4836 678.9787,-268.5778 677.2157,-275.3522"/>
</g>
<!-- Node10 -->
<g id="node11" class="node">
<title>Node10</title>
<g id="a_node11"><a xlink:href="classTIME.html#a51b6020daf09773ef3948cf6b9ccd736" target="_top" xlink:title="Retorna o valor do tempo decorrido desde a última requisição. ">
<polygon fill="#ffffff" stroke="#000000" points="649,-184.5 649,-201.5 792,-201.5 792,-184.5 649,-184.5"/>
<text text-anchor="middle" x="720.5" y="-191.1" font-family="DejaVuSansMono" font-size="8.00" fill="#000000">TIME::computeElapsedTime</text>
</a>
</g>
</g>
<!-- Node7&#45;&gt;Node10 -->
<g id="edge10" class="edge">
<title>Node7&#45;&gt;Node10</title>
<path fill="none" stroke="#191970" d="M562.1746,-220.4685C591.9134,-215.309 630.0155,-208.6985 661.3887,-203.2555"/>
<polygon fill="#191970" stroke="#191970" points="662.0647,-206.6905 671.3192,-201.5326 660.8681,-199.7936 662.0647,-206.6905"/>
</g>
<!-- Node11 -->
<g id="node12" class="node">
<title>Node11</title>
<g id="a_node12"><a xlink:href="GPS_8h.html#ad604e63cc857e5663dfba96c37c66bc7" target="_top" xlink:title="processGPS">
<polygon fill="#ffffff" stroke="#000000" points="686,-220.5 686,-237.5 755,-237.5 755,-220.5 686,-220.5"/>
<text text-anchor="middle" x="720.5" y="-227.1" font-family="DejaVuSansMono" font-size="8.00" fill="#000000">processGPS</text>
</a>
</g>
</g>
<!-- Node7&#45;&gt;Node11 -->
<g id="edge11" class="edge">
<title>Node7&#45;&gt;Node11</title>
<path fill="none" stroke="#191970" d="M600.0968,-229C626.1392,-229 653.6191,-229 675.7404,-229"/>
<polygon fill="#191970" stroke="#191970" points="675.8203,-232.5001 685.8203,-229 675.8203,-225.5001 675.8203,-232.5001"/>
</g>
<!-- Node9 -->
<g id="node10" class="node">
<title>Node9</title>
<g id="a_node10"><a xlink:href="classIMU.html#a87c200faa130ff4d2d3416b2d83f4f49" target="_top" xlink:title="IMU::readRegisters">
<polygon fill="#ffffff" stroke="#000000" points="841,-283.5 841,-300.5 952,-300.5 952,-283.5 841,-283.5"/>
<text text-anchor="middle" x="896.5" y="-290.1" font-family="DejaVuSansMono" font-size="8.00" fill="#000000">IMU::readRegisters</text>
</a>
</g>
</g>
<!-- Node8&#45;&gt;Node9 -->
<g id="edge9" class="edge">
<title>Node8&#45;&gt;Node9</title>
<path fill="none" stroke="#191970" d="M768.1281,-285.4355C787.3753,-286.4198 809.912,-287.5722 830.6845,-288.6344"/>
<polygon fill="#191970" stroke="#191970" points="830.5523,-292.1322 840.7181,-289.1475 830.9099,-285.1413 830.5523,-292.1322"/>
</g>
<!-- Node12 -->
<g id="node13" class="node">
<title>Node12</title>
<g id="a_node13"><a xlink:href="GPS_8h.html#a5d2ecd8f29f7e3e702c8b8bea333f6c6" target="_top" xlink:title="GPSSERIAL">
<polygon fill="#ffffff" stroke="#000000" points="864.5,-247.5 864.5,-264.5 928.5,-264.5 928.5,-247.5 864.5,-247.5"/>
<text text-anchor="middle" x="896.5" y="-254.1" font-family="DejaVuSansMono" font-size="8.00" fill="#000000">GPSSERIAL</text>
</a>
</g>
</g>
<!-- Node11&#45;&gt;Node12 -->
<g id="edge12" class="edge">
<title>Node11&#45;&gt;Node12</title>
<path fill="none" stroke="#191970" d="M755.2719,-234.3343C783.6794,-238.6923 823.9407,-244.8687 854.2118,-249.5126"/>
<polygon fill="#191970" stroke="#191970" points="854.0515,-253.0289 864.4666,-251.0858 855.113,-246.1098 854.0515,-253.0289"/>
</g>
<!-- Node13 -->
<g id="node14" class="node">
<title>Node13</title>
<g id="a_node14"><a xlink:href="GPS_8h.html#aecde093c7427cc661daceaa118cf4455" target="_top" xlink:title="compareMsgHeader">
<polygon fill="#ffffff" stroke="#000000" points="846,-211.5 846,-228.5 947,-228.5 947,-211.5 846,-211.5"/>
<text text-anchor="middle" x="896.5" y="-218.1" font-family="DejaVuSansMono" font-size="8.00" fill="#000000">compareMsgHeader</text>
</a>
</g>
</g>
<!-- Node11&#45;&gt;Node13 -->
<g id="edge13" class="edge">
<title>Node11&#45;&gt;Node13</title>
<path fill="none" stroke="#191970" d="M755.2719,-227.2219C778.1903,-226.0499 808.8241,-224.4834 835.7027,-223.109"/>
<polygon fill="#191970" stroke="#191970" points="835.9883,-226.599 845.7964,-222.5928 835.6307,-219.6082 835.9883,-226.599"/>
</g>
<!-- Node14 -->
<g id="node15" class="node">
<title>Node14</title>
<g id="a_node15"><a xlink:href="GPS_8h.html#aa2fac937d6e192633f020459321241e7" target="_top" xlink:title="calcChecksum">
<polygon fill="#ffffff" stroke="#000000" points="856.5,-175.5 856.5,-192.5 936.5,-192.5 936.5,-175.5 856.5,-175.5"/>
<text text-anchor="middle" x="896.5" y="-182.1" font-family="DejaVuSansMono" font-size="8.00" fill="#000000">calcChecksum</text>
</a>
</g>
</g>
<!-- Node11&#45;&gt;Node14 -->
<g id="edge14" class="edge">
<title>Node11&#45;&gt;Node14</title>
<path fill="none" stroke="#191970" d="M755.174,-222.2418C770.5072,-219.0919 788.7165,-215.1303 805,-211 823.081,-206.4138 842.9626,-200.6371 859.5608,-195.605"/>
<polygon fill="#191970" stroke="#191970" points="860.8882,-198.8591 869.4258,-192.5854 858.8393,-192.1657 860.8882,-198.8591"/>
</g>
<!-- Node17 -->
<g id="node18" class="node">
<title>Node17</title>
<g id="a_node18"><a xlink:href="classekf_1_1EKF.html#ae6c0295a32e90b9594ad10bb1061b62b" target="_top" xlink:title="Atualiza matrix lineariza de estados F e a matrix G. ">
<polygon fill="#ffffff" stroke="#000000" points="662.5,-148.5 662.5,-165.5 778.5,-165.5 778.5,-148.5 662.5,-148.5"/>
<text text-anchor="middle" x="720.5" y="-155.1" font-family="DejaVuSansMono" font-size="8.00" fill="#000000">ekf::EKF::updateF_G</text>
</a>
</g>
</g>
<!-- Node16&#45;&gt;Node17 -->
<g id="edge17" class="edge">
<title>Node16&#45;&gt;Node17</title>
<path fill="none" stroke="#191970" d="M568.6062,-157C594.2601,-157 624.9601,-157 652.0248,-157"/>
<polygon fill="#191970" stroke="#191970" points="652.2015,-160.5001 662.2015,-157 652.2014,-153.5001 652.2015,-160.5001"/>
</g>
<!-- Node17&#45;&gt;Node6 -->
<g id="edge18" class="edge">
<title>Node17&#45;&gt;Node6</title>
<path fill="none" stroke="#191970" d="M761.3203,-148.4185C789.2664,-142.5434 826.2253,-134.7737 854.4341,-128.8434"/>
<polygon fill="#191970" stroke="#191970" points="855.332,-132.2312 864.398,-126.7487 853.8918,-125.381 855.332,-132.2312"/>
</g>
<!-- Node18&#45;&gt;Node5 -->
<g id="edge21" class="edge">
<title>Node18&#45;&gt;Node5</title>
<path fill="none" stroke="#191970" d="M560.8652,-91.535C591.1049,-96.9271 630.3729,-103.9291 662.395,-109.6391"/>
<polygon fill="#191970" stroke="#191970" points="662.0574,-113.134 672.5166,-111.4439 663.2863,-106.2427 662.0574,-113.134"/>
</g>
<!-- Node19 -->
<g id="node20" class="node">
<title>Node19</title>
<g id="a_node20"><a xlink:href="namespaceekf.html#aebcb4259d74954e6d5b117101bbec4ca" target="_top" xlink:title="Produto de quaternions. ">
<polygon fill="#ffffff" stroke="#000000" points="649,-65.5 649,-82.5 792,-82.5 792,-65.5 649,-65.5"/>
<text text-anchor="middle" x="720.5" y="-72.1" font-family="DejaVuSansMono" font-size="8.00" fill="#000000">ekf::multiplyQuaternions</text>
</a>
</g>
</g>
<!-- Node18&#45;&gt;Node19 -->
<g id="edge20" class="edge">
<title>Node18&#45;&gt;Node19</title>
<path fill="none" stroke="#191970" d="M597.6975,-79.3264C611.1817,-78.7415 625.1107,-78.1374 638.5305,-77.5553"/>
<polygon fill="#191970" stroke="#191970" points="638.8387,-81.0453 648.6776,-77.1152 638.5353,-74.0519 638.8387,-81.0453"/>
</g>
<!-- Node20&#45;&gt;Node6 -->
<g id="edge23" class="edge">
<title>Node20&#45;&gt;Node6</title>
<path fill="none" stroke="#191970" d="M566.0613,-10.4447C626.0789,-13.6698 725.7647,-23.8945 805,-56 833.7188,-67.6366 862.2465,-89.6929 879.6255,-104.6202"/>
<polygon fill="#191970" stroke="#191970" points="877.3943,-107.3191 887.2133,-111.2987 882.0191,-102.0644 877.3943,-107.3191"/>
</g>
<!-- Node21&#45;&gt;Node19 -->
<g id="edge25" class="edge">
<title>Node21&#45;&gt;Node19</title>
<path fill="none" stroke="#191970" d="M374.0913,-68.4081C390.9962,-66.9945 409.1562,-65.7124 426,-65 503.2642,-61.7319 522.7204,-62.1181 600,-65 612.489,-65.4657 625.691,-66.2021 638.5978,-67.0579"/>
<polygon fill="#191970" stroke="#191970" points="638.6489,-70.5697 648.8663,-67.767 639.1312,-63.5863 638.6489,-70.5697"/>
</g>
</g>
</svg>
