<?xml version="1.0" encoding="UTF-8" standalone="no"?>
<!DOCTYPE svg PUBLIC "-//W3C//DTD SVG 1.1//EN"
 "http://www.w3.org/Graphics/SVG/1.1/DTD/svg11.dtd">
<!-- Generated by graphviz version 2.40.1 (20161225.0304)
 -->
<!-- Title: setup Pages: 1 -->
<svg width="1086pt" height="661pt"
 viewBox="0.00 0.00 1086.00 660.82" xmlns="http://www.w3.org/2000/svg" xmlns:xlink="http://www.w3.org/1999/xlink">
<g id="graph0" class="graph" transform="scale(1 1) rotate(0) translate(4 656.8239)">
<title>setup</title>
<polygon fill="#ffffff" stroke="transparent" points="-4,4 -4,-656.8239 1082,-656.8239 1082,4 -4,4"/>
<!-- Node26 -->
<g id="node1" class="node">
<title>Node26</title>
<polygon fill="#bfbfbf" stroke="#000000" points="0,-320.3239 0,-337.3239 43,-337.3239 43,-320.3239 0,-320.3239"/>
<text text-anchor="middle" x="21.5" y="-326.9239" font-family="DejaVuSansMono" font-size="8.00" fill="#000000">setup</text>
</g>
<!-- Node27 -->
<g id="node2" class="node">
<title>Node27</title>
<g id="a_node2"><a xlink:href="classekf_1_1EKF.html#af52f661717f56b3deee7b4f42ba80dc5" target="_top" xlink:title="Inicializacao do filtro de Kalman. ">
<polygon fill="#ffffff" stroke="#000000" points="79,-320.3239 79,-337.3239 174,-337.3239 174,-320.3239 79,-320.3239"/>
<text text-anchor="middle" x="126.5" y="-326.9239" font-family="DejaVuSansMono" font-size="8.00" fill="#000000">ekf::EKF::begin</text>
</a>
</g>
</g>
<!-- Node26&#45;&gt;Node27 -->
<g id="edge1" class="edge">
<title>Node26&#45;&gt;Node27</title>
<path fill="none" stroke="#191970" d="M43.0017,-328.8239C50.4996,-328.8239 59.3117,-328.8239 68.3499,-328.8239"/>
<polygon fill="#191970" stroke="#191970" points="68.5922,-332.324 78.5922,-328.8239 68.5922,-325.324 68.5922,-332.324"/>
</g>
<!-- Node41 -->
<g id="node16" class="node">
<title>Node41</title>
<g id="a_node16"><a xlink:href="classekf_1_1EKF.html#aecdea0922a84bc38cdd78e86657d6ae9" target="_top" xlink:title="ekf::EKF::calibrationMethods">
<polygon fill="#ffffff" stroke="#000000" points="352,-375.3239 352,-392.3239 516,-392.3239 516,-375.3239 352,-375.3239"/>
<text text-anchor="middle" x="434" y="-381.9239" font-family="DejaVuSansMono" font-size="8.00" fill="#000000">ekf::EKF::calibrationMethods</text>
</a>
</g>
</g>
<!-- Node26&#45;&gt;Node41 -->
<g id="edge23" class="edge">
<title>Node26&#45;&gt;Node41</title>
<path fill="none" stroke="#191970" d="M43.1112,-336.5286C53.7965,-340.096 66.9542,-344.1307 79,-346.8239 166.9338,-366.4844 269.5087,-375.7477 341.7215,-380.082"/>
<polygon fill="#191970" stroke="#191970" points="341.5188,-383.5761 351.7048,-380.6615 341.9245,-376.5878 341.5188,-383.5761"/>
</g>
<!-- Node46 -->
<g id="node21" class="node">
<title>Node46</title>
<g id="a_node21"><a xlink:href="main_8cpp.html#aa561fc46a0358a47fa9151f211523ba0" target="_top" xlink:title="core_1">
<polygon fill="#ffffff" stroke="#000000" points="102.5,-191.3239 102.5,-208.3239 150.5,-208.3239 150.5,-191.3239 102.5,-191.3239"/>
<text text-anchor="middle" x="126.5" y="-197.9239" font-family="DejaVuSansMono" font-size="8.00" fill="#000000">core_1</text>
</a>
</g>
</g>
<!-- Node26&#45;&gt;Node46 -->
<g id="edge30" class="edge">
<title>Node26&#45;&gt;Node46</title>
<path fill="none" stroke="#191970" d="M28.7171,-319.9572C46.1093,-298.5896 90.559,-243.9801 113.0429,-216.3569"/>
<polygon fill="#191970" stroke="#191970" points="115.9107,-218.3781 119.5089,-208.4129 110.4817,-213.9591 115.9107,-218.3781"/>
</g>
<!-- Node28 -->
<g id="node3" class="node">
<title>Node28</title>
<g id="a_node3"><a xlink:href="GPS_8h.html#a35c55bcf9a6f5a52f34cb1ab02c91479" target="_top" xlink:title="gpsSetup">
<polygon fill="#ffffff" stroke="#000000" points="233.5,-302.3239 233.5,-319.3239 292.5,-319.3239 292.5,-302.3239 233.5,-302.3239"/>
<text text-anchor="middle" x="263" y="-308.9239" font-family="DejaVuSansMono" font-size="8.00" fill="#000000">gpsSetup</text>
</a>
</g>
</g>
<!-- Node27&#45;&gt;Node28 -->
<g id="edge2" class="edge">
<title>Node27&#45;&gt;Node28</title>
<path fill="none" stroke="#191970" d="M174.2411,-322.5284C190.2322,-320.4197 207.8792,-318.0926 223.1975,-316.0726"/>
<polygon fill="#191970" stroke="#191970" points="223.925,-319.5071 233.3815,-314.7297 223.0098,-312.5672 223.925,-319.5071"/>
</g>
<!-- Node30 -->
<g id="node5" class="node">
<title>Node30</title>
<g id="a_node5"><a xlink:href="classTIME.html#a8cd98765b05a23aa7afe8fa5234b9695" target="_top" xlink:title="TIME::begin">
<polygon fill="#ffffff" stroke="#000000" points="226,-338.3239 226,-355.3239 300,-355.3239 300,-338.3239 226,-338.3239"/>
<text text-anchor="middle" x="263" y="-344.9239" font-family="DejaVuSansMono" font-size="8.00" fill="#000000">TIME::begin</text>
</a>
</g>
</g>
<!-- Node27&#45;&gt;Node30 -->
<g id="edge4" class="edge">
<title>Node27&#45;&gt;Node30</title>
<path fill="none" stroke="#191970" d="M174.2411,-335.1195C187.7191,-336.8968 202.3736,-338.8292 215.8186,-340.6022"/>
<polygon fill="#191970" stroke="#191970" points="215.453,-344.0842 225.8248,-341.9217 216.3682,-337.1443 215.453,-344.0842"/>
</g>
<!-- Node31 -->
<g id="node6" class="node">
<title>Node31</title>
<g id="a_node6"><a xlink:href="classTIME.html#a51b6020daf09773ef3948cf6b9ccd736" target="_top" xlink:title="Retorna o valor do tempo decorrido desde a última requisição. ">
<polygon fill="#ffffff" stroke="#000000" points="775,-265.3239 775,-282.3239 918,-282.3239 918,-265.3239 775,-265.3239"/>
<text text-anchor="middle" x="846.5" y="-271.9239" font-family="DejaVuSansMono" font-size="8.00" fill="#000000">TIME::computeElapsedTime</text>
</a>
</g>
</g>
<!-- Node27&#45;&gt;Node31 -->
<g id="edge5" class="edge">
<title>Node27&#45;&gt;Node31</title>
<path fill="none" stroke="#191970" d="M141.6071,-320.2306C157.8967,-311.4704 184.8796,-298.4005 210,-292.8239 405.2522,-249.4795 642.4166,-257.9087 764.7423,-266.5822"/>
<polygon fill="#191970" stroke="#191970" points="764.5554,-270.0778 774.7832,-267.3132 765.0637,-263.0963 764.5554,-270.0778"/>
</g>
<!-- Node32 -->
<g id="node7" class="node">
<title>Node32</title>
<g id="a_node7"><a xlink:href="classIMU.html#ae0d964d2f8ec122be068c41b84bc18a8" target="_top" xlink:title="IMU::begin">
<polygon fill="#ffffff" stroke="#000000" points="228.5,-505.3239 228.5,-522.3239 297.5,-522.3239 297.5,-505.3239 228.5,-505.3239"/>
<text text-anchor="middle" x="263" y="-511.9239" font-family="DejaVuSansMono" font-size="8.00" fill="#000000">IMU::begin</text>
</a>
</g>
</g>
<!-- Node27&#45;&gt;Node32 -->
<g id="edge6" class="edge">
<title>Node27&#45;&gt;Node32</title>
<path fill="none" stroke="#191970" d="M133.0837,-337.7469C154.4808,-366.7467 222.3009,-458.664 250.5068,-496.8918"/>
<polygon fill="#191970" stroke="#191970" points="247.7288,-499.0218 256.4824,-504.9905 253.3615,-494.8658 247.7288,-499.0218"/>
</g>
<!-- Node29 -->
<g id="node4" class="node">
<title>Node29</title>
<g id="a_node4"><a xlink:href="GPS_8h.html#a5d2ecd8f29f7e3e702c8b8bea333f6c6" target="_top" xlink:title="GPSSERIAL">
<polygon fill="#ffffff" stroke="#000000" points="990.5,-302.3239 990.5,-319.3239 1054.5,-319.3239 1054.5,-302.3239 990.5,-302.3239"/>
<text text-anchor="middle" x="1022.5" y="-308.9239" font-family="DejaVuSansMono" font-size="8.00" fill="#000000">GPSSERIAL</text>
</a>
</g>
</g>
<!-- Node28&#45;&gt;Node29 -->
<g id="edge3" class="edge">
<title>Node28&#45;&gt;Node29</title>
<path fill="none" stroke="#191970" d="M292.7733,-310.8239C410.3833,-310.8239 842.8856,-310.8239 980.2978,-310.8239"/>
<polygon fill="#191970" stroke="#191970" points="980.4259,-314.324 990.4258,-310.8239 980.4258,-307.324 980.4259,-314.324"/>
</g>
<!-- Node33 -->
<g id="node8" class="node">
<title>Node33</title>
<g id="a_node8"><a xlink:href="classIMU.html#a37694424e4502ffc69bbb6c540c1a400" target="_top" xlink:title="IMU::writeRegister">
<polygon fill="#ffffff" stroke="#000000" points="791,-504.3239 791,-521.3239 902,-521.3239 902,-504.3239 791,-504.3239"/>
<text text-anchor="middle" x="846.5" y="-510.9239" font-family="DejaVuSansMono" font-size="8.00" fill="#000000">IMU::writeRegister</text>
</a>
</g>
</g>
<!-- Node32&#45;&gt;Node33 -->
<g id="edge7" class="edge">
<title>Node32&#45;&gt;Node33</title>
<path fill="none" stroke="#191970" d="M297.6391,-516.2226C314.0992,-517.2464 334.0552,-518.3203 352,-518.8239 505.6051,-523.1353 686.1353,-518.4855 780.8614,-515.2973"/>
<polygon fill="#191970" stroke="#191970" points="780.9944,-518.7949 790.8689,-514.9551 780.7551,-511.799 780.9944,-518.7949"/>
</g>
<!-- Node35 -->
<g id="node10" class="node">
<title>Node35</title>
<g id="a_node10"><a xlink:href="classIMU.html#af3b90e0b20d4bd55091be99f7aa67737" target="_top" xlink:title="IMU::writeAK8963Register">
<polygon fill="#ffffff" stroke="#000000" points="362.5,-561.3239 362.5,-578.3239 505.5,-578.3239 505.5,-561.3239 362.5,-561.3239"/>
<text text-anchor="middle" x="434" y="-567.9239" font-family="DejaVuSansMono" font-size="8.00" fill="#000000">IMU::writeAK8963Register</text>
</a>
</g>
</g>
<!-- Node32&#45;&gt;Node35 -->
<g id="edge9" class="edge">
<title>Node32&#45;&gt;Node35</title>
<path fill="none" stroke="#191970" d="M284.7706,-522.4628C302.6829,-529.4332 328.8051,-539.2847 352,-546.8239 364.6486,-550.9352 378.5327,-554.997 391.2222,-558.5365"/>
<polygon fill="#191970" stroke="#191970" points="390.5262,-561.975 401.0965,-561.2541 392.3837,-555.226 390.5262,-561.975"/>
</g>
<!-- Node36 -->
<g id="node11" class="node">
<title>Node36</title>
<g id="a_node11"><a xlink:href="classIMU.html#a914f8b4262fba70e6d8fd0e584fa7996" target="_top" xlink:title="IMU::readAK8963Registers">
<polygon fill="#ffffff" stroke="#000000" points="567.5,-598.3239 567.5,-615.3239 710.5,-615.3239 710.5,-598.3239 567.5,-598.3239"/>
<text text-anchor="middle" x="639" y="-604.9239" font-family="DejaVuSansMono" font-size="8.00" fill="#000000">IMU::readAK8963Registers</text>
</a>
</g>
</g>
<!-- Node32&#45;&gt;Node36 -->
<g id="edge22" class="edge">
<title>Node32&#45;&gt;Node36</title>
<path fill="none" stroke="#191970" d="M270.1879,-522.7041C284.0218,-539.0459 316.1686,-573.5179 352,-587.8239 417.5401,-613.9915 498.1829,-617.058 557.2797,-614.5544"/>
<polygon fill="#191970" stroke="#191970" points="557.4943,-618.0482 567.3128,-614.0674 557.1548,-611.0564 557.4943,-618.0482"/>
</g>
<!-- Node37 -->
<g id="node12" class="node">
<title>Node37</title>
<g id="a_node12"><a xlink:href="classIMU.html#a5567bbe0d211f1e6d386eb69ffd960a7" target="_top" xlink:title="IMU::setAccelRange">
<polygon fill="#ffffff" stroke="#000000" points="583.5,-486.3239 583.5,-503.3239 694.5,-503.3239 694.5,-486.3239 583.5,-486.3239"/>
<text text-anchor="middle" x="639" y="-492.9239" font-family="DejaVuSansMono" font-size="8.00" fill="#000000">IMU::setAccelRange</text>
</a>
</g>
</g>
<!-- Node32&#45;&gt;Node37 -->
<g id="edge14" class="edge">
<title>Node32&#45;&gt;Node37</title>
<path fill="none" stroke="#191970" d="M297.6992,-512.0705C360.2888,-508.9078 493.0217,-502.2005 573.2682,-498.1455"/>
<polygon fill="#191970" stroke="#191970" points="573.4564,-501.6405 583.267,-497.6402 573.103,-494.6495 573.4564,-501.6405"/>
</g>
<!-- Node38 -->
<g id="node13" class="node">
<title>Node38</title>
<g id="a_node13"><a xlink:href="classIMU.html#a834f21762003f831e5e632cc7974ba75" target="_top" xlink:title="IMU::setGyroRange">
<polygon fill="#ffffff" stroke="#000000" points="586,-450.3239 586,-467.3239 692,-467.3239 692,-450.3239 586,-450.3239"/>
<text text-anchor="middle" x="639" y="-456.9239" font-family="DejaVuSansMono" font-size="8.00" fill="#000000">IMU::setGyroRange</text>
</a>
</g>
</g>
<!-- Node32&#45;&gt;Node38 -->
<g id="edge16" class="edge">
<title>Node32&#45;&gt;Node38</title>
<path fill="none" stroke="#191970" d="M297.577,-506.7435C314.0235,-503.4979 333.986,-499.7345 352,-496.8239 428.7641,-484.421 517.565,-473.1306 575.8178,-466.138"/>
<polygon fill="#191970" stroke="#191970" points="576.4565,-469.5867 585.9709,-464.9256 575.6265,-462.636 576.4565,-469.5867"/>
</g>
<!-- Node39 -->
<g id="node14" class="node">
<title>Node39</title>
<g id="a_node14"><a xlink:href="classIMU.html#a928fa5e2db05bd402a3fa93bd3584527" target="_top" xlink:title="IMU::setDlpfBandwidth">
<polygon fill="#ffffff" stroke="#000000" points="370.5,-411.3239 370.5,-428.3239 497.5,-428.3239 497.5,-411.3239 370.5,-411.3239"/>
<text text-anchor="middle" x="434" y="-417.9239" font-family="DejaVuSansMono" font-size="8.00" fill="#000000">IMU::setDlpfBandwidth</text>
</a>
</g>
</g>
<!-- Node32&#45;&gt;Node39 -->
<g id="edge18" class="edge">
<title>Node32&#45;&gt;Node39</title>
<path fill="none" stroke="#191970" d="M271.5021,-505.0428C286.4318,-490.1152 318.9273,-459.7661 352,-442.8239 361.08,-438.1726 371.2223,-434.3577 381.1947,-431.2663"/>
<polygon fill="#191970" stroke="#191970" points="382.4309,-434.5523 391.0649,-428.4119 380.4861,-427.8278 382.4309,-434.5523"/>
</g>
<!-- Node40 -->
<g id="node15" class="node">
<title>Node40</title>
<g id="a_node15"><a xlink:href="classIMU.html#acd2af48f4eb0a0321080332016e3c1f7" target="_top" xlink:title="IMU::whoAmIAK8963">
<polygon fill="#ffffff" stroke="#000000" points="381,-635.3239 381,-652.3239 487,-652.3239 487,-635.3239 381,-635.3239"/>
<text text-anchor="middle" x="434" y="-641.9239" font-family="DejaVuSansMono" font-size="8.00" fill="#000000">IMU::whoAmIAK8963</text>
</a>
</g>
</g>
<!-- Node32&#45;&gt;Node40 -->
<g id="edge20" class="edge">
<title>Node32&#45;&gt;Node40</title>
<path fill="none" stroke="#191970" d="M267.7428,-522.5539C279.3095,-543.0017 311.0463,-594.2713 352,-620.8239 359.1335,-625.449 367.1994,-629.1567 375.4189,-632.1259"/>
<polygon fill="#191970" stroke="#191970" points="374.4993,-635.5074 385.0917,-635.2829 376.6712,-628.8529 374.4993,-635.5074"/>
</g>
<!-- Node34 -->
<g id="node9" class="node">
<title>Node34</title>
<g id="a_node9"><a xlink:href="classIMU.html#a87c200faa130ff4d2d3416b2d83f4f49" target="_top" xlink:title="IMU::readRegisters">
<polygon fill="#ffffff" stroke="#000000" points="967,-504.3239 967,-521.3239 1078,-521.3239 1078,-504.3239 967,-504.3239"/>
<text text-anchor="middle" x="1022.5" y="-510.9239" font-family="DejaVuSansMono" font-size="8.00" fill="#000000">IMU::readRegisters</text>
</a>
</g>
</g>
<!-- Node33&#45;&gt;Node34 -->
<g id="edge8" class="edge">
<title>Node33&#45;&gt;Node34</title>
<path fill="none" stroke="#191970" d="M902.1875,-512.8239C919.5262,-512.8239 938.8084,-512.8239 956.7664,-512.8239"/>
<polygon fill="#191970" stroke="#191970" points="956.873,-516.324 966.8729,-512.8239 956.8729,-509.324 956.873,-516.324"/>
</g>
<!-- Node35&#45;&gt;Node33 -->
<g id="edge10" class="edge">
<title>Node35&#45;&gt;Node33</title>
<path fill="none" stroke="#191970" d="M505.5755,-567.6393C564.9814,-564.9434 651.4888,-558.9717 726,-545.8239 754.9701,-540.712 787.0654,-531.7544 810.8434,-524.4606"/>
<polygon fill="#191970" stroke="#191970" points="811.9863,-527.7705 820.4913,-521.4526 809.9028,-521.0877 811.9863,-527.7705"/>
</g>
<!-- Node35&#45;&gt;Node36 -->
<g id="edge11" class="edge">
<title>Node35&#45;&gt;Node36</title>
<path fill="none" stroke="#191970" d="M481.2885,-578.3589C511.1639,-583.7511 549.9587,-590.7531 581.5951,-596.463"/>
<polygon fill="#191970" stroke="#191970" points="581.132,-599.9359 591.5947,-598.2679 582.3754,-593.0472 581.132,-599.9359"/>
</g>
<!-- Node36&#45;&gt;Node33 -->
<g id="edge12" class="edge">
<title>Node36&#45;&gt;Node33</title>
<path fill="none" stroke="#191970" d="M680.4847,-598.3153C695.1537,-594.6684 711.5827,-589.8423 726,-583.8239 763.1895,-568.2995 802.8057,-543.0623 826.0708,-527.2313"/>
<polygon fill="#191970" stroke="#191970" points="828.1818,-530.0272 834.4273,-521.4689 824.2079,-524.2644 828.1818,-530.0272"/>
</g>
<!-- Node36&#45;&gt;Node34 -->
<g id="edge13" class="edge">
<title>Node36&#45;&gt;Node34</title>
<path fill="none" stroke="#191970" d="M673.7095,-598.3163C743.4097,-581.232 900.3247,-542.7704 977.6709,-523.812"/>
<polygon fill="#191970" stroke="#191970" points="978.7134,-527.1602 987.5927,-521.3801 977.0469,-520.3614 978.7134,-527.1602"/>
</g>
<!-- Node37&#45;&gt;Node33 -->
<g id="edge15" class="edge">
<title>Node37&#45;&gt;Node33</title>
<path fill="none" stroke="#191970" d="M694.6062,-499.6476C721.1215,-501.9477 753.0275,-504.7155 780.7385,-507.1193"/>
<polygon fill="#191970" stroke="#191970" points="780.4752,-510.6095 790.7403,-507.987 781.0802,-503.6357 780.4752,-510.6095"/>
</g>
<!-- Node38&#45;&gt;Node33 -->
<g id="edge17" class="edge">
<title>Node38&#45;&gt;Node33</title>
<path fill="none" stroke="#191970" d="M683.8752,-467.338C697.4636,-470.1229 712.3907,-473.39 726,-476.8239 754.7122,-484.0688 786.8228,-493.7414 810.6723,-501.236"/>
<polygon fill="#191970" stroke="#191970" points="809.7636,-504.6195 820.3537,-504.3012 811.8765,-497.9459 809.7636,-504.6195"/>
</g>
<!-- Node39&#45;&gt;Node33 -->
<g id="edge19" class="edge">
<title>Node39&#45;&gt;Node33</title>
<path fill="none" stroke="#191970" d="M497.6618,-416.0435C557.8991,-414.397 650.1339,-416.9237 726,-440.8239 765.3985,-453.2358 805.4506,-480.7756 828.019,-497.9695"/>
<polygon fill="#191970" stroke="#191970" points="825.9979,-500.8316 836.0397,-504.2101 830.2965,-495.3069 825.9979,-500.8316"/>
</g>
<!-- Node40&#45;&gt;Node36 -->
<g id="edge21" class="edge">
<title>Node40&#45;&gt;Node36</title>
<path fill="none" stroke="#191970" d="M481.2885,-635.2889C511.1639,-629.8968 549.9587,-622.8948 581.5951,-617.1848"/>
<polygon fill="#191970" stroke="#191970" points="582.3754,-620.6006 591.5947,-615.38 581.132,-613.7119 582.3754,-620.6006"/>
</g>
<!-- Node42 -->
<g id="node17" class="node">
<title>Node42</title>
<g id="a_node17"><a xlink:href="classIMU.html#a5f096cb37d4b16851381bf09d6809403" target="_top" xlink:title="IMU::calibraGyro">
<polygon fill="#ffffff" stroke="#000000" points="588.5,-340.3239 588.5,-357.3239 689.5,-357.3239 689.5,-340.3239 588.5,-340.3239"/>
<text text-anchor="middle" x="639" y="-346.9239" font-family="DejaVuSansMono" font-size="8.00" fill="#000000">IMU::calibraGyro</text>
</a>
</g>
</g>
<!-- Node41&#45;&gt;Node42 -->
<g id="edge24" class="edge">
<title>Node41&#45;&gt;Node42</title>
<path fill="none" stroke="#191970" d="M483.8865,-375.3067C512.5296,-370.4165 548.6931,-364.2422 578.8953,-359.0857"/>
<polygon fill="#191970" stroke="#191970" points="579.6215,-362.5125 588.8898,-357.3793 578.4434,-355.6123 579.6215,-362.5125"/>
</g>
<!-- Node44 -->
<g id="node19" class="node">
<title>Node44</title>
<g id="a_node19"><a xlink:href="classIMU.html#a3546779010d9128859f465195eff77f5" target="_top" xlink:title="IMU::calibracaoMagnetometro">
<polygon fill="#ffffff" stroke="#000000" points="560,-376.3239 560,-393.3239 718,-393.3239 718,-376.3239 560,-376.3239"/>
<text text-anchor="middle" x="639" y="-382.9239" font-family="DejaVuSansMono" font-size="8.00" fill="#000000">IMU::calibracaoMagnetometro</text>
</a>
</g>
</g>
<!-- Node41&#45;&gt;Node44 -->
<g id="edge27" class="edge">
<title>Node41&#45;&gt;Node44</title>
<path fill="none" stroke="#191970" d="M516.2001,-384.2249C527.2018,-384.2786 538.5285,-384.3338 549.6455,-384.3881"/>
<polygon fill="#191970" stroke="#191970" points="549.7636,-387.8886 559.7806,-384.4375 549.7978,-380.8887 549.7636,-387.8886"/>
</g>
<!-- Node43 -->
<g id="node18" class="node">
<title>Node43</title>
<g id="a_node18"><a xlink:href="classIMU.html#ac574728dbbc752155239a35c8bbd6e79" target="_top" xlink:title="IMU::readSensor">
<polygon fill="#ffffff" stroke="#000000" points="799,-340.3239 799,-357.3239 894,-357.3239 894,-340.3239 799,-340.3239"/>
<text text-anchor="middle" x="846.5" y="-346.9239" font-family="DejaVuSansMono" font-size="8.00" fill="#000000">IMU::readSensor</text>
</a>
</g>
</g>
<!-- Node42&#45;&gt;Node43 -->
<g id="edge25" class="edge">
<title>Node42&#45;&gt;Node43</title>
<path fill="none" stroke="#191970" d="M689.7602,-348.8239C719.6195,-348.8239 757.4832,-348.8239 788.5153,-348.8239"/>
<polygon fill="#191970" stroke="#191970" points="788.756,-352.324 798.7559,-348.8239 788.7559,-345.324 788.756,-352.324"/>
</g>
<!-- Node43&#45;&gt;Node34 -->
<g id="edge26" class="edge">
<title>Node43&#45;&gt;Node34</title>
<path fill="none" stroke="#191970" d="M894.3814,-352.8711C907.1288,-355.6711 920.3116,-360.2815 931,-367.8239 976.9047,-400.2175 1004.8583,-463.6656 1016.3775,-494.7668"/>
<polygon fill="#191970" stroke="#191970" points="1013.1237,-496.0632 1019.7691,-504.3148 1019.7199,-493.7201 1013.1237,-496.0632"/>
</g>
<!-- Node44&#45;&gt;Node43 -->
<g id="edge28" class="edge">
<title>Node44&#45;&gt;Node43</title>
<path fill="none" stroke="#191970" d="M688.1746,-376.2924C718.346,-371.0579 757.1257,-364.3299 788.7534,-358.8426"/>
<polygon fill="#191970" stroke="#191970" points="789.4963,-362.2661 798.7508,-357.1081 788.2997,-355.3691 789.4963,-362.2661"/>
</g>
<!-- Node45 -->
<g id="node20" class="node">
<title>Node45</title>
<g id="a_node20"><a xlink:href="classMETODOSCALIBRACAO.html#af0478ed112a1139bafefe7833568e641" target="_top" xlink:title="METODOSCALIBRACAO::\lcalibracaoGeometrica">
<polygon fill="#ffffff" stroke="#000000" points="785.5,-376.8239 785.5,-402.8239 907.5,-402.8239 907.5,-376.8239 785.5,-376.8239"/>
<text text-anchor="start" x="793.5" y="-392.4239" font-family="DejaVuSansMono" font-size="8.00" fill="#000000">METODOSCALIBRACAO::</text>
<text text-anchor="middle" x="846.5" y="-383.4239" font-family="DejaVuSansMono" font-size="8.00" fill="#000000">calibracaoGeometrica</text>
</a>
</g>
</g>
<!-- Node44&#45;&gt;Node45 -->
<g id="edge29" class="edge">
<title>Node44&#45;&gt;Node45</title>
<path fill="none" stroke="#191970" d="M718.0388,-386.7285C736.8826,-387.1826 756.8811,-387.6645 775.3463,-388.1094"/>
<polygon fill="#191970" stroke="#191970" points="775.3485,-391.6104 785.43,-388.3524 775.5172,-384.6124 775.3485,-391.6104"/>
</g>
<!-- Node47 -->
<g id="node22" class="node">
<title>Node47</title>
<g id="a_node22"><a xlink:href="classekf_1_1EKF.html#a651814ff64d234394572e2e7c5703a43" target="_top" xlink:title="ekf::EKF::loopEKF">
<polygon fill="#ffffff" stroke="#000000" points="210,-100.3239 210,-117.3239 316,-117.3239 316,-100.3239 210,-100.3239"/>
<text text-anchor="middle" x="263" y="-106.9239" font-family="DejaVuSansMono" font-size="8.00" fill="#000000">ekf::EKF::loopEKF</text>
</a>
</g>
</g>
<!-- Node46&#45;&gt;Node47 -->
<g id="edge31" class="edge">
<title>Node46&#45;&gt;Node47</title>
<path fill="none" stroke="#191970" d="M139.5882,-191.0985C163.1912,-175.3631 213.084,-142.1013 241.6763,-123.0397"/>
<polygon fill="#191970" stroke="#191970" points="243.7717,-125.8493 250.1507,-117.3901 239.8887,-120.025 243.7717,-125.8493"/>
</g>
<!-- Node48 -->
<g id="node23" class="node">
<title>Node48</title>
<g id="a_node23"><a xlink:href="namespaceekf.html#a7a798898cf7aa6db9b57d53dcf93d185" target="_top" xlink:title="ekf::quaternion2Euler">
<polygon fill="#ffffff" stroke="#000000" points="370.5,-82.3239 370.5,-99.3239 497.5,-99.3239 497.5,-82.3239 370.5,-82.3239"/>
<text text-anchor="middle" x="434" y="-88.9239" font-family="DejaVuSansMono" font-size="8.00" fill="#000000">ekf::quaternion2Euler</text>
</a>
</g>
</g>
<!-- Node47&#45;&gt;Node48 -->
<g id="edge32" class="edge">
<title>Node47&#45;&gt;Node48</title>
<path fill="none" stroke="#191970" d="M316.1681,-103.2273C330.1084,-101.7599 345.3936,-100.1509 360.2014,-98.5922"/>
<polygon fill="#191970" stroke="#191970" points="360.7758,-102.0512 370.3544,-97.5235 360.0429,-95.0896 360.7758,-102.0512"/>
</g>
<!-- Node49 -->
<g id="node24" class="node">
<title>Node49</title>
<g id="a_node24"><a xlink:href="namespaceekf.html#ae9e1aaaa7793db099f4ef88b44aab8d5" target="_top" xlink:title="ekf::printEigen">
<polygon fill="#ffffff" stroke="#000000" points="386.5,-46.3239 386.5,-63.3239 481.5,-63.3239 481.5,-46.3239 386.5,-46.3239"/>
<text text-anchor="middle" x="434" y="-52.9239" font-family="DejaVuSansMono" font-size="8.00" fill="#000000">ekf::printEigen</text>
</a>
</g>
</g>
<!-- Node47&#45;&gt;Node49 -->
<g id="edge33" class="edge">
<title>Node47&#45;&gt;Node49</title>
<path fill="none" stroke="#191970" d="M281.4205,-100.3086C299.1918,-92.3496 327.0025,-80.5629 352,-72.8239 360.4974,-70.1932 369.6038,-67.7938 378.5458,-65.6649"/>
<polygon fill="#191970" stroke="#191970" points="379.5642,-69.0224 388.5305,-63.3784 378.0016,-62.199 379.5642,-69.0224"/>
</g>
<!-- Node50 -->
<g id="node25" class="node">
<title>Node50</title>
<g id="a_node25"><a xlink:href="classekf_1_1EKF.html#a548f56f22a519f1f66b1bf59b9ed56d6" target="_top" xlink:title="ekf::EKF::temporalPrediction">
<polygon fill="#ffffff" stroke="#000000" points="352,-155.3239 352,-172.3239 516,-172.3239 516,-155.3239 352,-155.3239"/>
<text text-anchor="middle" x="434" y="-161.9239" font-family="DejaVuSansMono" font-size="8.00" fill="#000000">ekf::EKF::temporalPrediction</text>
</a>
</g>
</g>
<!-- Node47&#45;&gt;Node50 -->
<g id="edge34" class="edge">
<title>Node47&#45;&gt;Node50</title>
<path fill="none" stroke="#191970" d="M281.7819,-117.4259C299.5812,-125.3357 327.2067,-136.9903 352,-144.8239 361.5102,-147.8287 371.7777,-150.5818 381.7229,-153.0038"/>
<polygon fill="#191970" stroke="#191970" points="380.9844,-156.4256 391.5206,-155.3126 382.59,-149.6122 380.9844,-156.4256"/>
</g>
<!-- Node62 -->
<g id="node37" class="node">
<title>Node62</title>
<g id="a_node37"><a xlink:href="classekf_1_1EKF.html#a94bc601335d20c0a058e8e8600d912e7" target="_top" xlink:title="ekf::EKF::updateH">
<polygon fill="#ffffff" stroke="#000000" points="793.5,-17.3239 793.5,-34.3239 899.5,-34.3239 899.5,-17.3239 793.5,-17.3239"/>
<text text-anchor="middle" x="846.5" y="-23.9239" font-family="DejaVuSansMono" font-size="8.00" fill="#000000">ekf::EKF::updateH</text>
</a>
</g>
</g>
<!-- Node47&#45;&gt;Node62 -->
<g id="edge51" class="edge">
<title>Node47&#45;&gt;Node62</title>
<path fill="none" stroke="#191970" d="M270.1882,-100.0355C284.0227,-83.8881 316.1704,-49.9523 352,-36.8239 502.5755,18.3486 696.6151,-1.1207 790.5761,-15.6913"/>
<polygon fill="#191970" stroke="#191970" points="790.2877,-19.1894 800.7136,-17.3051 791.3882,-12.2765 790.2877,-19.1894"/>
</g>
<!-- Node63 -->
<g id="node38" class="node">
<title>Node63</title>
<g id="a_node38"><a xlink:href="classekf_1_1EKF.html#a03bd00a47fa41884a6fef987dcb06c41" target="_top" xlink:title="ekf::EKF::statesUpdate">
<polygon fill="#ffffff" stroke="#000000" points="368,-118.3239 368,-135.3239 500,-135.3239 500,-118.3239 368,-118.3239"/>
<text text-anchor="middle" x="434" y="-124.9239" font-family="DejaVuSansMono" font-size="8.00" fill="#000000">ekf::EKF::statesUpdate</text>
</a>
</g>
</g>
<!-- Node47&#45;&gt;Node63 -->
<g id="edge53" class="edge">
<title>Node47&#45;&gt;Node63</title>
<path fill="none" stroke="#191970" d="M316.1681,-114.4206C329.3433,-115.8074 343.7196,-117.3207 357.759,-118.7986"/>
<polygon fill="#191970" stroke="#191970" points="357.5888,-122.2999 367.9003,-119.8661 358.3217,-115.3384 357.5888,-122.2999"/>
</g>
<!-- Node51 -->
<g id="node26" class="node">
<title>Node51</title>
<g id="a_node26"><a xlink:href="namespaceekf.html#ac031eda654b199bd45807eed2acdb3ec" target="_top" xlink:title="ekf::computeMcdFromQuaternion">
<polygon fill="#ffffff" stroke="#000000" points="762,-108.3239 762,-125.3239 931,-125.3239 931,-108.3239 762,-108.3239"/>
<text text-anchor="middle" x="846.5" y="-114.9239" font-family="DejaVuSansMono" font-size="8.00" fill="#000000">ekf::computeMcdFromQuaternion</text>
</a>
</g>
</g>
<!-- Node50&#45;&gt;Node51 -->
<g id="edge35" class="edge">
<title>Node50&#45;&gt;Node51</title>
<path fill="none" stroke="#191970" d="M489.76,-155.3053C509.4076,-152.4324 531.6624,-149.3237 552,-146.8239 618.6462,-138.6322 693.975,-130.9877 751.7636,-125.4657"/>
<polygon fill="#191970" stroke="#191970" points="752.3537,-128.9255 761.9774,-124.4944 751.6909,-121.9569 752.3537,-128.9255"/>
</g>
<!-- Node53 -->
<g id="node28" class="node">
<title>Node53</title>
<g id="a_node28"><a xlink:href="classekf_1_1EKF.html#a84048d25ebfb6431d7b1372b7315a7a3" target="_top" xlink:title="Atualiza a medicao a partir dos sensores da unidade Margin e GPS. ">
<polygon fill="#ffffff" stroke="#000000" points="552,-228.3239 552,-245.3239 726,-245.3239 726,-228.3239 552,-228.3239"/>
<text text-anchor="middle" x="639" y="-234.9239" font-family="DejaVuSansMono" font-size="8.00" fill="#000000">ekf::EKF::updateOfMeasurements</text>
</a>
</g>
</g>
<!-- Node50&#45;&gt;Node53 -->
<g id="edge37" class="edge">
<title>Node50&#45;&gt;Node53</title>
<path fill="none" stroke="#191970" d="M449.5524,-172.5046C471.6808,-184.5196 513.8117,-206.1649 552,-218.8239 560.2971,-221.5744 569.1843,-223.9891 577.9936,-226.0821"/>
<polygon fill="#191970" stroke="#191970" points="577.346,-229.5239 587.871,-228.3091 578.8857,-222.6953 577.346,-229.5239"/>
</g>
<!-- Node57 -->
<g id="node32" class="node">
<title>Node57</title>
<g id="a_node32"><a xlink:href="namespaceekf.html#a13baef64e88517a1c0af97c5bfb32787" target="_top" xlink:title="ekf::computeVectorProjection">
<polygon fill="#ffffff" stroke="#000000" points="557,-192.3239 557,-209.3239 721,-209.3239 721,-192.3239 557,-192.3239"/>
<text text-anchor="middle" x="639" y="-198.9239" font-family="DejaVuSansMono" font-size="8.00" fill="#000000">ekf::computeVectorProjection</text>
</a>
</g>
</g>
<!-- Node50&#45;&gt;Node57 -->
<g id="edge44" class="edge">
<title>Node50&#45;&gt;Node57</title>
<path fill="none" stroke="#191970" d="M481.2885,-172.3589C511.1639,-177.7511 549.9587,-184.7531 581.5951,-190.463"/>
<polygon fill="#191970" stroke="#191970" points="581.132,-193.9359 591.5947,-192.2679 582.3754,-187.0472 581.132,-193.9359"/>
</g>
<!-- Node58 -->
<g id="node33" class="node">
<title>Node58</title>
<g id="a_node33"><a xlink:href="classekf_1_1EKF.html#ad5949e9e8eae2938a332af03a8ec353b" target="_top" xlink:title="ekf::EKF::updatefi">
<polygon fill="#ffffff" stroke="#000000" points="583.5,-156.3239 583.5,-173.3239 694.5,-173.3239 694.5,-156.3239 583.5,-156.3239"/>
<text text-anchor="middle" x="639" y="-162.9239" font-family="DejaVuSansMono" font-size="8.00" fill="#000000">ekf::EKF::updatefi</text>
</a>
</g>
</g>
<!-- Node50&#45;&gt;Node58 -->
<g id="edge45" class="edge">
<title>Node50&#45;&gt;Node58</title>
<path fill="none" stroke="#191970" d="M516.2001,-164.2249C535.0976,-164.3171 554.954,-164.414 573.0591,-164.5023"/>
<polygon fill="#191970" stroke="#191970" points="573.1901,-168.0029 583.2071,-164.5518 573.2243,-161.0029 573.1901,-168.0029"/>
</g>
<!-- Node60 -->
<g id="node35" class="node">
<title>Node60</title>
<g id="a_node35"><a xlink:href="classekf_1_1EKF.html#a4bd0d4a6ec2787cf1c690fcf154a43c5" target="_top" xlink:title="ekf::EKF::integrationOfStates">
<polygon fill="#ffffff" stroke="#000000" points="554.5,-82.3239 554.5,-99.3239 723.5,-99.3239 723.5,-82.3239 554.5,-82.3239"/>
<text text-anchor="middle" x="639" y="-88.9239" font-family="DejaVuSansMono" font-size="8.00" fill="#000000">ekf::EKF::integrationOfStates</text>
</a>
</g>
</g>
<!-- Node50&#45;&gt;Node60 -->
<g id="edge48" class="edge">
<title>Node50&#45;&gt;Node60</title>
<path fill="none" stroke="#191970" d="M487.8109,-155.2877C497.4894,-152.6637 507.2676,-149.252 516,-144.8239 534.8318,-135.2746 533.3173,-123.6618 552,-113.8239 561.1139,-109.0248 571.3038,-105.1721 581.411,-102.0966"/>
<polygon fill="#191970" stroke="#191970" points="582.3642,-105.4644 591.0382,-99.3806 580.4635,-98.7273 582.3642,-105.4644"/>
</g>
<!-- Node52 -->
<g id="node27" class="node">
<title>Node52</title>
<g id="a_node27"><a xlink:href="namespaceekf.html#af3f0a631343e55ec8b42f3fbea182461" target="_top" xlink:title="Matrix antissimetrica. ">
<polygon fill="#ffffff" stroke="#000000" points="990.5,-108.3239 990.5,-125.3239 1054.5,-125.3239 1054.5,-108.3239 990.5,-108.3239"/>
<text text-anchor="middle" x="1022.5" y="-114.9239" font-family="DejaVuSansMono" font-size="8.00" fill="#000000">ekf::skew</text>
</a>
</g>
</g>
<!-- Node51&#45;&gt;Node52 -->
<g id="edge36" class="edge">
<title>Node51&#45;&gt;Node52</title>
<path fill="none" stroke="#191970" d="M931.1492,-116.8239C948.1563,-116.8239 965.3305,-116.8239 980.126,-116.8239"/>
<polygon fill="#191970" stroke="#191970" points="980.4427,-120.324 990.4427,-116.8239 980.4427,-113.324 980.4427,-120.324"/>
</g>
<!-- Node53&#45;&gt;Node31 -->
<g id="edge39" class="edge">
<title>Node53&#45;&gt;Node31</title>
<path fill="none" stroke="#191970" d="M686.8652,-245.3589C717.1049,-250.7511 756.3729,-257.7531 788.395,-263.463"/>
<polygon fill="#191970" stroke="#191970" points="788.0574,-266.958 798.5166,-265.2679 789.2863,-260.0667 788.0574,-266.958"/>
</g>
<!-- Node53&#45;&gt;Node43 -->
<g id="edge38" class="edge">
<title>Node53&#45;&gt;Node43</title>
<path fill="none" stroke="#191970" d="M654.9376,-245.4264C690.8461,-264.8083 778.3042,-312.0146 821.5067,-335.3336"/>
<polygon fill="#191970" stroke="#191970" points="820.0457,-338.5222 830.5081,-340.1922 823.3706,-332.3623 820.0457,-338.5222"/>
</g>
<!-- Node54 -->
<g id="node29" class="node">
<title>Node54</title>
<g id="a_node29"><a xlink:href="GPS_8h.html#ad604e63cc857e5663dfba96c37c66bc7" target="_top" xlink:title="processGPS">
<polygon fill="#ffffff" stroke="#000000" points="812,-229.3239 812,-246.3239 881,-246.3239 881,-229.3239 812,-229.3239"/>
<text text-anchor="middle" x="846.5" y="-235.9239" font-family="DejaVuSansMono" font-size="8.00" fill="#000000">processGPS</text>
</a>
</g>
</g>
<!-- Node53&#45;&gt;Node54 -->
<g id="edge40" class="edge">
<title>Node53&#45;&gt;Node54</title>
<path fill="none" stroke="#191970" d="M726.0968,-237.2437C752.1392,-237.3692 779.6191,-237.5016 801.7404,-237.6082"/>
<polygon fill="#191970" stroke="#191970" points="801.8035,-241.1085 811.8203,-237.6568 801.8373,-234.1086 801.8035,-241.1085"/>
</g>
<!-- Node54&#45;&gt;Node29 -->
<g id="edge41" class="edge">
<title>Node54&#45;&gt;Node29</title>
<path fill="none" stroke="#191970" d="M881.3827,-242.5794C896.9203,-245.3716 915.2321,-249.6072 931,-255.8239 945.0938,-261.3806 978.4999,-282.2687 1000.8061,-296.6416"/>
<polygon fill="#191970" stroke="#191970" points="999.0187,-299.6539 1009.3143,-302.1542 1002.8251,-293.7792 999.0187,-299.6539"/>
</g>
<!-- Node55 -->
<g id="node30" class="node">
<title>Node55</title>
<g id="a_node30"><a xlink:href="GPS_8h.html#aecde093c7427cc661daceaa118cf4455" target="_top" xlink:title="compareMsgHeader">
<polygon fill="#ffffff" stroke="#000000" points="972,-211.3239 972,-228.3239 1073,-228.3239 1073,-211.3239 972,-211.3239"/>
<text text-anchor="middle" x="1022.5" y="-217.9239" font-family="DejaVuSansMono" font-size="8.00" fill="#000000">compareMsgHeader</text>
</a>
</g>
</g>
<!-- Node54&#45;&gt;Node55 -->
<g id="edge42" class="edge">
<title>Node54&#45;&gt;Node55</title>
<path fill="none" stroke="#191970" d="M881.2719,-234.2677C904.1903,-231.9238 934.8241,-228.7908 961.7027,-226.0418"/>
<polygon fill="#191970" stroke="#191970" points="962.2045,-229.5089 971.7964,-225.0095 961.4922,-222.5452 962.2045,-229.5089"/>
</g>
<!-- Node56 -->
<g id="node31" class="node">
<title>Node56</title>
<g id="a_node31"><a xlink:href="GPS_8h.html#aa2fac937d6e192633f020459321241e7" target="_top" xlink:title="calcChecksum">
<polygon fill="#ffffff" stroke="#000000" points="982.5,-247.3239 982.5,-264.3239 1062.5,-264.3239 1062.5,-247.3239 982.5,-247.3239"/>
<text text-anchor="middle" x="1022.5" y="-253.9239" font-family="DejaVuSansMono" font-size="8.00" fill="#000000">calcChecksum</text>
</a>
</g>
</g>
<!-- Node54&#45;&gt;Node56 -->
<g id="edge43" class="edge">
<title>Node54&#45;&gt;Node56</title>
<path fill="none" stroke="#191970" d="M881.2719,-241.3802C907.2598,-244.038 943.1683,-247.7105 972.273,-250.6871"/>
<polygon fill="#191970" stroke="#191970" points="971.9523,-254.1725 982.2565,-251.7081 972.6645,-247.2088 971.9523,-254.1725"/>
</g>
<!-- Node59 -->
<g id="node34" class="node">
<title>Node59</title>
<g id="a_node34"><a xlink:href="classekf_1_1EKF.html#ae6c0295a32e90b9594ad10bb1061b62b" target="_top" xlink:title="Atualiza matrix lineariza de estados F e a matrix G. ">
<polygon fill="#ffffff" stroke="#000000" points="788.5,-145.3239 788.5,-162.3239 904.5,-162.3239 904.5,-145.3239 788.5,-145.3239"/>
<text text-anchor="middle" x="846.5" y="-151.9239" font-family="DejaVuSansMono" font-size="8.00" fill="#000000">ekf::EKF::updateF_G</text>
</a>
</g>
</g>
<!-- Node58&#45;&gt;Node59 -->
<g id="edge46" class="edge">
<title>Node58&#45;&gt;Node59</title>
<path fill="none" stroke="#191970" d="M694.6062,-161.8761C720.2601,-160.5162 750.9601,-158.8887 778.0248,-157.454"/>
<polygon fill="#191970" stroke="#191970" points="778.4008,-160.939 788.2015,-156.9145 778.0302,-153.9488 778.4008,-160.939"/>
</g>
<!-- Node59&#45;&gt;Node52 -->
<g id="edge47" class="edge">
<title>Node59&#45;&gt;Node52</title>
<path fill="none" stroke="#191970" d="M887.3203,-145.2424C915.2664,-139.3674 952.2253,-131.5976 980.4341,-125.6673"/>
<polygon fill="#191970" stroke="#191970" points="981.332,-129.0552 990.398,-123.5727 979.8918,-122.2049 981.332,-129.0552"/>
</g>
<!-- Node60&#45;&gt;Node51 -->
<g id="edge50" class="edge">
<title>Node60&#45;&gt;Node51</title>
<path fill="none" stroke="#191970" d="M706.9433,-99.3373C726.559,-101.7952 748.1211,-104.497 768.3069,-107.0262"/>
<polygon fill="#191970" stroke="#191970" points="768.0465,-110.5209 778.4041,-108.2914 768.9169,-103.5752 768.0465,-110.5209"/>
</g>
<!-- Node61 -->
<g id="node36" class="node">
<title>Node61</title>
<g id="a_node36"><a xlink:href="namespaceekf.html#aebcb4259d74954e6d5b117101bbec4ca" target="_top" xlink:title="Produto de quaternions. ">
<polygon fill="#ffffff" stroke="#000000" points="775,-72.3239 775,-89.3239 918,-89.3239 918,-72.3239 775,-72.3239"/>
<text text-anchor="middle" x="846.5" y="-78.9239" font-family="DejaVuSansMono" font-size="8.00" fill="#000000">ekf::multiplyQuaternions</text>
</a>
</g>
</g>
<!-- Node60&#45;&gt;Node61 -->
<g id="edge49" class="edge">
<title>Node60&#45;&gt;Node61</title>
<path fill="none" stroke="#191970" d="M723.6975,-86.7421C737.1817,-86.0923 751.1107,-85.421 764.5305,-84.7743"/>
<polygon fill="#191970" stroke="#191970" points="764.8577,-88.2627 774.6776,-84.2853 764.5207,-81.2708 764.8577,-88.2627"/>
</g>
<!-- Node62&#45;&gt;Node52 -->
<g id="edge52" class="edge">
<title>Node62&#45;&gt;Node52</title>
<path fill="none" stroke="#191970" d="M868.0136,-34.4029C885.2912,-41.4924 910.0423,-52.1005 931,-62.8239 955.331,-75.2734 982.1496,-91.4017 1000.4252,-102.7797"/>
<polygon fill="#191970" stroke="#191970" points="998.8143,-105.9008 1009.1449,-108.2519 1002.5352,-99.9717 998.8143,-105.9008"/>
</g>
<!-- Node63&#45;&gt;Node61 -->
<g id="edge54" class="edge">
<title>Node63&#45;&gt;Node61</title>
<path fill="none" stroke="#191970" d="M492.8349,-118.2059C500.8887,-115.8078 508.84,-112.7423 516,-108.8239 535.8494,-97.9611 531.095,-81.4831 552,-72.8239 637.143,-37.5566 748.3231,-55.897 806.7103,-69.8541"/>
<polygon fill="#191970" stroke="#191970" points="806.0916,-73.3064 816.6393,-72.3082 807.7712,-66.5109 806.0916,-73.3064"/>
</g>
</g>
</svg>
