<?xml version="1.0" encoding="UTF-8" standalone="no"?>
<!DOCTYPE svg PUBLIC "-//W3C//DTD SVG 1.1//EN"
 "http://www.w3.org/Graphics/SVG/1.1/DTD/svg11.dtd">
<!-- Generated by graphviz version 2.40.1 (20161225.0304)
 -->
<!-- Title: telemetria Pages: 1 -->
<svg width="981pt" height="320pt"
 viewBox="0.00 0.00 981.00 320.00" xmlns="http://www.w3.org/2000/svg" xmlns:xlink="http://www.w3.org/1999/xlink">
<g id="graph0" class="graph" transform="scale(1 1) rotate(0) translate(4 316)">
<title>telemetria</title>
<polygon fill="#ffffff" stroke="transparent" points="-4,4 -4,-316 977,-316 977,4 -4,4"/>
<!-- Node65 -->
<g id="node1" class="node">
<title>Node65</title>
<polygon fill="#bfbfbf" stroke="#000000" points="0,-257.5 0,-274.5 69,-274.5 69,-257.5 0,-257.5"/>
<text text-anchor="middle" x="34.5" y="-264.1" font-family="DejaVuSansMono" font-size="8.00" fill="#000000">telemetria</text>
</g>
<!-- Node66 -->
<g id="node2" class="node">
<title>Node66</title>
<g id="a_node2"><a xlink:href="namespaceekf.html#a7a798898cf7aa6db9b57d53dcf93d185" target="_top" xlink:title="ekf::quaternion2Euler">
<polygon fill="#ffffff" stroke="#000000" points="265.5,-294.5 265.5,-311.5 392.5,-311.5 392.5,-294.5 265.5,-294.5"/>
<text text-anchor="middle" x="329" y="-301.1" font-family="DejaVuSansMono" font-size="8.00" fill="#000000">ekf::quaternion2Euler</text>
</a>
</g>
</g>
<!-- Node65&#45;&gt;Node66 -->
<g id="edge1" class="edge">
<title>Node65&#45;&gt;Node66</title>
<path fill="none" stroke="#191970" d="M69.1697,-273.5565C80.5461,-275.8559 93.277,-278.2381 105,-280 154.853,-287.4925 211.3198,-293.2727 255.0874,-297.1645"/>
<polygon fill="#191970" stroke="#191970" points="254.8075,-300.6533 265.0749,-298.0395 255.4185,-293.6801 254.8075,-300.6533"/>
</g>
<!-- Node67 -->
<g id="node3" class="node">
<title>Node67</title>
<g id="a_node3"><a xlink:href="classekf_1_1EKF.html#a651814ff64d234394572e2e7c5703a43" target="_top" xlink:title="ekf::EKF::loopEKF">
<polygon fill="#ffffff" stroke="#000000" points="105,-220.5 105,-237.5 211,-237.5 211,-220.5 105,-220.5"/>
<text text-anchor="middle" x="158" y="-227.1" font-family="DejaVuSansMono" font-size="8.00" fill="#000000">ekf::EKF::loopEKF</text>
</a>
</g>
</g>
<!-- Node65&#45;&gt;Node67 -->
<g id="edge2" class="edge">
<title>Node65&#45;&gt;Node67</title>
<path fill="none" stroke="#191970" d="M63.1438,-257.4185C79.9781,-252.375 101.473,-245.9352 119.7432,-240.4615"/>
<polygon fill="#191970" stroke="#191970" points="120.9367,-243.7578 129.5115,-237.535 118.9277,-237.0522 120.9367,-243.7578"/>
</g>
<!-- Node68 -->
<g id="node4" class="node">
<title>Node68</title>
<g id="a_node4"><a xlink:href="namespaceekf.html#ae9e1aaaa7793db099f4ef88b44aab8d5" target="_top" xlink:title="ekf::printEigen">
<polygon fill="#ffffff" stroke="#000000" points="281.5,-257.5 281.5,-274.5 376.5,-274.5 376.5,-257.5 281.5,-257.5"/>
<text text-anchor="middle" x="329" y="-264.1" font-family="DejaVuSansMono" font-size="8.00" fill="#000000">ekf::printEigen</text>
</a>
</g>
</g>
<!-- Node65&#45;&gt;Node68 -->
<g id="edge27" class="edge">
<title>Node65&#45;&gt;Node68</title>
<path fill="none" stroke="#191970" d="M69.1489,-266C118.8805,-266 211.117,-266 271.2567,-266"/>
<polygon fill="#191970" stroke="#191970" points="271.3575,-269.5001 281.3575,-266 271.3574,-262.5001 271.3575,-269.5001"/>
</g>
<!-- Node67&#45;&gt;Node66 -->
<g id="edge3" class="edge">
<title>Node67&#45;&gt;Node66</title>
<path fill="none" stroke="#191970" d="M169.152,-237.5743C185.4019,-249.6631 216.9359,-271.6205 247,-284 254.3971,-287.0459 262.3801,-289.6579 270.3604,-291.8824"/>
<polygon fill="#191970" stroke="#191970" points="269.4942,-295.2735 280.0535,-294.4066 271.2583,-288.4994 269.4942,-295.2735"/>
</g>
<!-- Node67&#45;&gt;Node68 -->
<g id="edge4" class="edge">
<title>Node67&#45;&gt;Node68</title>
<path fill="none" stroke="#191970" d="M197.6606,-237.5815C222.0488,-242.8585 253.5014,-249.6641 279.5128,-255.2922"/>
<polygon fill="#191970" stroke="#191970" points="279.0404,-258.771 289.5544,-257.465 280.5208,-251.9293 279.0404,-258.771"/>
</g>
<!-- Node69 -->
<g id="node5" class="node">
<title>Node69</title>
<g id="a_node5"><a xlink:href="classekf_1_1EKF.html#a548f56f22a519f1f66b1bf59b9ed56d6" target="_top" xlink:title="ekf::EKF::temporalPrediction">
<polygon fill="#ffffff" stroke="#000000" points="247,-91.5 247,-108.5 411,-108.5 411,-91.5 247,-91.5"/>
<text text-anchor="middle" x="329" y="-98.1" font-family="DejaVuSansMono" font-size="8.00" fill="#000000">ekf::EKF::temporalPrediction</text>
</a>
</g>
</g>
<!-- Node67&#45;&gt;Node69 -->
<g id="edge5" class="edge">
<title>Node67&#45;&gt;Node69</title>
<path fill="none" stroke="#191970" d="M169.4853,-220.3356C198.2031,-198.6713 273.3938,-141.9485 309.3271,-114.841"/>
<polygon fill="#191970" stroke="#191970" points="311.6893,-117.4432 317.5647,-108.6266 307.4736,-111.855 311.6893,-117.4432"/>
</g>
<!-- Node85 -->
<g id="node21" class="node">
<title>Node85</title>
<g id="a_node21"><a xlink:href="classekf_1_1EKF.html#a94bc601335d20c0a058e8e8600d912e7" target="_top" xlink:title="ekf::EKF::updateH">
<polygon fill="#ffffff" stroke="#000000" points="481,-220.5 481,-237.5 587,-237.5 587,-220.5 481,-220.5"/>
<text text-anchor="middle" x="534" y="-227.1" font-family="DejaVuSansMono" font-size="8.00" fill="#000000">ekf::EKF::updateH</text>
</a>
</g>
</g>
<!-- Node67&#45;&gt;Node85 -->
<g id="edge23" class="edge">
<title>Node67&#45;&gt;Node85</title>
<path fill="none" stroke="#191970" d="M211.0741,-229C279.2791,-229 397.5606,-229 470.4751,-229"/>
<polygon fill="#191970" stroke="#191970" points="470.8925,-232.5001 480.8925,-229 470.8924,-225.5001 470.8925,-232.5001"/>
</g>
<!-- Node86 -->
<g id="node22" class="node">
<title>Node86</title>
<g id="a_node22"><a xlink:href="classekf_1_1EKF.html#a03bd00a47fa41884a6fef987dcb06c41" target="_top" xlink:title="ekf::EKF::statesUpdate">
<polygon fill="#ffffff" stroke="#000000" points="263,-183.5 263,-200.5 395,-200.5 395,-183.5 263,-183.5"/>
<text text-anchor="middle" x="329" y="-190.1" font-family="DejaVuSansMono" font-size="8.00" fill="#000000">ekf::EKF::statesUpdate</text>
</a>
</g>
</g>
<!-- Node67&#45;&gt;Node86 -->
<g id="edge25" class="edge">
<title>Node67&#45;&gt;Node86</title>
<path fill="none" stroke="#191970" d="M197.6606,-220.4185C222.0488,-215.1415 253.5014,-208.3359 279.5128,-202.7078"/>
<polygon fill="#191970" stroke="#191970" points="280.5208,-206.0707 289.5544,-200.535 279.0404,-199.229 280.5208,-206.0707"/>
</g>
<!-- Node70 -->
<g id="node6" class="node">
<title>Node70</title>
<g id="a_node6"><a xlink:href="namespaceekf.html#ac031eda654b199bd45807eed2acdb3ec" target="_top" xlink:title="ekf::computeMcdFromQuaternion">
<polygon fill="#ffffff" stroke="#000000" points="657,-145.5 657,-162.5 826,-162.5 826,-145.5 657,-145.5"/>
<text text-anchor="middle" x="741.5" y="-152.1" font-family="DejaVuSansMono" font-size="8.00" fill="#000000">ekf::computeMcdFromQuaternion</text>
</a>
</g>
</g>
<!-- Node69&#45;&gt;Node70 -->
<g id="edge6" class="edge">
<title>Node69&#45;&gt;Node70</title>
<path fill="none" stroke="#191970" d="M398.3588,-108.509C457.545,-115.837 544.9016,-126.8113 621,-137 637.5609,-139.2173 655.3898,-141.6871 672.1226,-144.0417"/>
<polygon fill="#191970" stroke="#191970" points="671.9872,-147.5572 682.3783,-145.4896 672.9658,-140.626 671.9872,-147.5572"/>
</g>
<!-- Node72 -->
<g id="node8" class="node">
<title>Node72</title>
<g id="a_node8"><a xlink:href="classekf_1_1EKF.html#a84048d25ebfb6431d7b1372b7315a7a3" target="_top" xlink:title="Atualiza a medicao a partir dos sensores da unidade Margin e GPS. ">
<polygon fill="#ffffff" stroke="#000000" points="447,-36.5 447,-53.5 621,-53.5 621,-36.5 447,-36.5"/>
<text text-anchor="middle" x="534" y="-43.1" font-family="DejaVuSansMono" font-size="8.00" fill="#000000">ekf::EKF::updateOfMeasurements</text>
</a>
</g>
</g>
<!-- Node69&#45;&gt;Node72 -->
<g id="edge8" class="edge">
<title>Node69&#45;&gt;Node72</title>
<path fill="none" stroke="#191970" d="M353.6544,-91.4786C377.3841,-83.4655 414.3737,-71.4677 447,-63 457.0692,-60.3867 467.8715,-57.901 478.3216,-55.657"/>
<polygon fill="#191970" stroke="#191970" points="479.1302,-59.0637 488.1975,-53.5834 477.6917,-52.213 479.1302,-59.0637"/>
</g>
<!-- Node80 -->
<g id="node16" class="node">
<title>Node80</title>
<g id="a_node16"><a xlink:href="namespaceekf.html#a13baef64e88517a1c0af97c5bfb32787" target="_top" xlink:title="ekf::computeVectorProjection">
<polygon fill="#ffffff" stroke="#000000" points="452,-.5 452,-17.5 616,-17.5 616,-.5 452,-.5"/>
<text text-anchor="middle" x="534" y="-7.1" font-family="DejaVuSansMono" font-size="8.00" fill="#000000">ekf::computeVectorProjection</text>
</a>
</g>
</g>
<!-- Node69&#45;&gt;Node80 -->
<g id="edge16" class="edge">
<title>Node69&#45;&gt;Node80</title>
<path fill="none" stroke="#191970" d="M340.0064,-91.3224C360.0754,-75.9437 404.4784,-43.9352 447,-27 453.699,-24.332 460.8526,-22.0381 468.0715,-20.0707"/>
<polygon fill="#191970" stroke="#191970" points="469.0795,-23.4262 477.9192,-17.5859 467.3668,-16.6389 469.0795,-23.4262"/>
</g>
<!-- Node81 -->
<g id="node17" class="node">
<title>Node81</title>
<g id="a_node17"><a xlink:href="classekf_1_1EKF.html#ad5949e9e8eae2938a332af03a8ec353b" target="_top" xlink:title="ekf::EKF::updatefi">
<polygon fill="#ffffff" stroke="#000000" points="478.5,-72.5 478.5,-89.5 589.5,-89.5 589.5,-72.5 478.5,-72.5"/>
<text text-anchor="middle" x="534" y="-79.1" font-family="DejaVuSansMono" font-size="8.00" fill="#000000">ekf::EKF::updatefi</text>
</a>
</g>
</g>
<!-- Node69&#45;&gt;Node81 -->
<g id="edge17" class="edge">
<title>Node69&#45;&gt;Node81</title>
<path fill="none" stroke="#191970" d="M411.2001,-92.3815C430.0976,-90.63 449.954,-88.7896 468.0591,-87.1116"/>
<polygon fill="#191970" stroke="#191970" points="468.5728,-90.5791 478.2071,-86.171 467.9268,-83.6089 468.5728,-90.5791"/>
</g>
<!-- Node83 -->
<g id="node19" class="node">
<title>Node83</title>
<g id="a_node19"><a xlink:href="classekf_1_1EKF.html#a4bd0d4a6ec2787cf1c690fcf154a43c5" target="_top" xlink:title="ekf::EKF::integrationOfStates">
<polygon fill="#ffffff" stroke="#000000" points="449.5,-146.5 449.5,-163.5 618.5,-163.5 618.5,-146.5 449.5,-146.5"/>
<text text-anchor="middle" x="534" y="-153.1" font-family="DejaVuSansMono" font-size="8.00" fill="#000000">ekf::EKF::integrationOfStates</text>
</a>
</g>
</g>
<!-- Node69&#45;&gt;Node83 -->
<g id="edge20" class="edge">
<title>Node69&#45;&gt;Node83</title>
<path fill="none" stroke="#191970" d="M360.5381,-108.6112C384.2965,-115.084 417.6797,-124.1488 447,-132 461.4512,-135.8697 477.264,-140.0625 491.3979,-143.7953"/>
<polygon fill="#191970" stroke="#191970" points="490.7874,-147.2539 501.3494,-146.4208 492.5732,-140.4855 490.7874,-147.2539"/>
</g>
<!-- Node71 -->
<g id="node7" class="node">
<title>Node71</title>
<g id="a_node7"><a xlink:href="namespaceekf.html#af3f0a631343e55ec8b42f3fbea182461" target="_top" xlink:title="Matrix antissimetrica. ">
<polygon fill="#ffffff" stroke="#000000" points="885.5,-145.5 885.5,-162.5 949.5,-162.5 949.5,-145.5 885.5,-145.5"/>
<text text-anchor="middle" x="917.5" y="-152.1" font-family="DejaVuSansMono" font-size="8.00" fill="#000000">ekf::skew</text>
</a>
</g>
</g>
<!-- Node70&#45;&gt;Node71 -->
<g id="edge7" class="edge">
<title>Node70&#45;&gt;Node71</title>
<path fill="none" stroke="#191970" d="M826.1492,-154C843.1563,-154 860.3305,-154 875.126,-154"/>
<polygon fill="#191970" stroke="#191970" points="875.4427,-157.5001 885.4427,-154 875.4427,-150.5001 875.4427,-157.5001"/>
</g>
<!-- Node73 -->
<g id="node9" class="node">
<title>Node73</title>
<g id="a_node9"><a xlink:href="classIMU.html#ac574728dbbc752155239a35c8bbd6e79" target="_top" xlink:title="IMU::readSensor">
<polygon fill="#ffffff" stroke="#000000" points="694,-36.5 694,-53.5 789,-53.5 789,-36.5 694,-36.5"/>
<text text-anchor="middle" x="741.5" y="-43.1" font-family="DejaVuSansMono" font-size="8.00" fill="#000000">IMU::readSensor</text>
</a>
</g>
</g>
<!-- Node72&#45;&gt;Node73 -->
<g id="edge9" class="edge">
<title>Node72&#45;&gt;Node73</title>
<path fill="none" stroke="#191970" d="M621.0968,-45C642.2493,-45 664.3502,-45 683.7577,-45"/>
<polygon fill="#191970" stroke="#191970" points="683.9396,-48.5001 693.9395,-45 683.9395,-41.5001 683.9396,-48.5001"/>
</g>
<!-- Node75 -->
<g id="node11" class="node">
<title>Node75</title>
<g id="a_node11"><a xlink:href="classTIME.html#a51b6020daf09773ef3948cf6b9ccd736" target="_top" xlink:title="Retorna o valor do tempo decorrido desde a última requisição. ">
<polygon fill="#ffffff" stroke="#000000" points="670,-.5 670,-17.5 813,-17.5 813,-.5 670,-.5"/>
<text text-anchor="middle" x="741.5" y="-7.1" font-family="DejaVuSansMono" font-size="8.00" fill="#000000">TIME::computeElapsedTime</text>
</a>
</g>
</g>
<!-- Node72&#45;&gt;Node75 -->
<g id="edge11" class="edge">
<title>Node72&#45;&gt;Node75</title>
<path fill="none" stroke="#191970" d="M583.1746,-36.4685C612.9134,-31.309 651.0155,-24.6985 682.3887,-19.2555"/>
<polygon fill="#191970" stroke="#191970" points="683.0647,-22.6905 692.3192,-17.5326 681.8681,-15.7936 683.0647,-22.6905"/>
</g>
<!-- Node76 -->
<g id="node12" class="node">
<title>Node76</title>
<g id="a_node12"><a xlink:href="GPS_8h.html#ad604e63cc857e5663dfba96c37c66bc7" target="_top" xlink:title="processGPS">
<polygon fill="#ffffff" stroke="#000000" points="707,-73.5 707,-90.5 776,-90.5 776,-73.5 707,-73.5"/>
<text text-anchor="middle" x="741.5" y="-80.1" font-family="DejaVuSansMono" font-size="8.00" fill="#000000">processGPS</text>
</a>
</g>
</g>
<!-- Node72&#45;&gt;Node76 -->
<g id="edge12" class="edge">
<title>Node72&#45;&gt;Node76</title>
<path fill="none" stroke="#191970" d="M581.8652,-53.535C616.466,-59.7048 662.8869,-67.9822 696.7485,-74.0202"/>
<polygon fill="#191970" stroke="#191970" points="696.368,-77.5075 706.8271,-75.8174 697.5969,-70.6162 696.368,-77.5075"/>
</g>
<!-- Node74 -->
<g id="node10" class="node">
<title>Node74</title>
<g id="a_node10"><a xlink:href="classIMU.html#a87c200faa130ff4d2d3416b2d83f4f49" target="_top" xlink:title="IMU::readRegisters">
<polygon fill="#ffffff" stroke="#000000" points="862,-1.5 862,-18.5 973,-18.5 973,-1.5 862,-1.5"/>
<text text-anchor="middle" x="917.5" y="-8.1" font-family="DejaVuSansMono" font-size="8.00" fill="#000000">IMU::readRegisters</text>
</a>
</g>
</g>
<!-- Node73&#45;&gt;Node74 -->
<g id="edge10" class="edge">
<title>Node73&#45;&gt;Node74</title>
<path fill="none" stroke="#191970" d="M784.5544,-36.438C808.7217,-31.6321 839.0709,-25.5967 864.6684,-20.5063"/>
<polygon fill="#191970" stroke="#191970" points="865.4601,-23.9175 874.5854,-18.5342 864.0948,-17.0519 865.4601,-23.9175"/>
</g>
<!-- Node77 -->
<g id="node13" class="node">
<title>Node77</title>
<g id="a_node13"><a xlink:href="GPS_8h.html#a5d2ecd8f29f7e3e702c8b8bea333f6c6" target="_top" xlink:title="GPSSERIAL">
<polygon fill="#ffffff" stroke="#000000" points="885.5,-37.5 885.5,-54.5 949.5,-54.5 949.5,-37.5 885.5,-37.5"/>
<text text-anchor="middle" x="917.5" y="-44.1" font-family="DejaVuSansMono" font-size="8.00" fill="#000000">GPSSERIAL</text>
</a>
</g>
</g>
<!-- Node76&#45;&gt;Node77 -->
<g id="edge13" class="edge">
<title>Node76&#45;&gt;Node77</title>
<path fill="none" stroke="#191970" d="M776.2719,-74.8876C804.8035,-69.0516 845.2925,-60.7697 875.6078,-54.5689"/>
<polygon fill="#191970" stroke="#191970" points="876.3709,-57.9853 885.4666,-52.5523 874.9681,-51.1273 876.3709,-57.9853"/>
</g>
<!-- Node78 -->
<g id="node14" class="node">
<title>Node78</title>
<g id="a_node14"><a xlink:href="GPS_8h.html#aecde093c7427cc661daceaa118cf4455" target="_top" xlink:title="compareMsgHeader">
<polygon fill="#ffffff" stroke="#000000" points="867,-109.5 867,-126.5 968,-126.5 968,-109.5 867,-109.5"/>
<text text-anchor="middle" x="917.5" y="-116.1" font-family="DejaVuSansMono" font-size="8.00" fill="#000000">compareMsgHeader</text>
</a>
</g>
</g>
<!-- Node76&#45;&gt;Node78 -->
<g id="edge14" class="edge">
<title>Node76&#45;&gt;Node78</title>
<path fill="none" stroke="#191970" d="M776.2719,-89.1124C801.8118,-94.3365 836.933,-101.5204 865.7616,-107.4171"/>
<polygon fill="#191970" stroke="#191970" points="865.1716,-110.8689 875.6702,-109.4439 866.5744,-104.0109 865.1716,-110.8689"/>
</g>
<!-- Node79 -->
<g id="node15" class="node">
<title>Node79</title>
<g id="a_node15"><a xlink:href="GPS_8h.html#aa2fac937d6e192633f020459321241e7" target="_top" xlink:title="calcChecksum">
<polygon fill="#ffffff" stroke="#000000" points="877.5,-73.5 877.5,-90.5 957.5,-90.5 957.5,-73.5 877.5,-73.5"/>
<text text-anchor="middle" x="917.5" y="-80.1" font-family="DejaVuSansMono" font-size="8.00" fill="#000000">calcChecksum</text>
</a>
</g>
</g>
<!-- Node76&#45;&gt;Node79 -->
<g id="edge15" class="edge">
<title>Node76&#45;&gt;Node79</title>
<path fill="none" stroke="#191970" d="M776.2719,-82C802.1464,-82 837.8549,-82 866.8913,-82"/>
<polygon fill="#191970" stroke="#191970" points="867.2566,-85.5001 877.2565,-82 867.2565,-78.5001 867.2566,-85.5001"/>
</g>
<!-- Node82 -->
<g id="node18" class="node">
<title>Node82</title>
<g id="a_node18"><a xlink:href="classekf_1_1EKF.html#ae6c0295a32e90b9594ad10bb1061b62b" target="_top" xlink:title="Atualiza matrix lineariza de estados F e a matrix G. ">
<polygon fill="#ffffff" stroke="#000000" points="683.5,-109.5 683.5,-126.5 799.5,-126.5 799.5,-109.5 683.5,-109.5"/>
<text text-anchor="middle" x="741.5" y="-116.1" font-family="DejaVuSansMono" font-size="8.00" fill="#000000">ekf::EKF::updateF_G</text>
</a>
</g>
</g>
<!-- Node81&#45;&gt;Node82 -->
<g id="edge18" class="edge">
<title>Node81&#45;&gt;Node82</title>
<path fill="none" stroke="#191970" d="M581.8652,-89.535C612.1049,-94.9271 651.3729,-101.9291 683.395,-107.6391"/>
<polygon fill="#191970" stroke="#191970" points="683.0574,-111.134 693.5166,-109.4439 684.2863,-104.2427 683.0574,-111.134"/>
</g>
<!-- Node82&#45;&gt;Node71 -->
<g id="edge19" class="edge">
<title>Node82&#45;&gt;Node71</title>
<path fill="none" stroke="#191970" d="M783.2095,-126.5315C811.0938,-132.2351 847.6467,-139.7118 875.5754,-145.4245"/>
<polygon fill="#191970" stroke="#191970" points="874.9441,-148.8678 885.4427,-147.4428 876.347,-142.0098 874.9441,-148.8678"/>
</g>
<!-- Node83&#45;&gt;Node70 -->
<g id="edge22" class="edge">
<title>Node83&#45;&gt;Node70</title>
<path fill="none" stroke="#191970" d="M618.6975,-154.5918C627.9146,-154.5474 637.3395,-154.502 646.6676,-154.457"/>
<polygon fill="#191970" stroke="#191970" points="646.7541,-157.9567 656.737,-154.4085 646.7203,-150.9568 646.7541,-157.9567"/>
</g>
<!-- Node84 -->
<g id="node20" class="node">
<title>Node84</title>
<g id="a_node20"><a xlink:href="namespaceekf.html#aebcb4259d74954e6d5b117101bbec4ca" target="_top" xlink:title="Produto de quaternions. ">
<polygon fill="#ffffff" stroke="#000000" points="670,-182.5 670,-199.5 813,-199.5 813,-182.5 670,-182.5"/>
<text text-anchor="middle" x="741.5" y="-189.1" font-family="DejaVuSansMono" font-size="8.00" fill="#000000">ekf::multiplyQuaternions</text>
</a>
</g>
</g>
<!-- Node83&#45;&gt;Node84 -->
<g id="edge21" class="edge">
<title>Node83&#45;&gt;Node84</title>
<path fill="none" stroke="#191970" d="M583.1746,-163.5315C612.9134,-168.691 651.0155,-175.3015 682.3887,-180.7445"/>
<polygon fill="#191970" stroke="#191970" points="681.8681,-184.2064 692.3192,-182.4674 683.0647,-177.3095 681.8681,-184.2064"/>
</g>
<!-- Node85&#45;&gt;Node71 -->
<g id="edge24" class="edge">
<title>Node85&#45;&gt;Node71</title>
<path fill="none" stroke="#191970" d="M587.0601,-232.7084C646.6477,-235.2083 745.5381,-234.314 826,-209 853.4013,-200.3793 881.1611,-182.0382 898.8023,-168.9059"/>
<polygon fill="#191970" stroke="#191970" points="901.2366,-171.4502 907.0496,-162.5924 896.9816,-165.8918 901.2366,-171.4502"/>
</g>
<!-- Node86&#45;&gt;Node84 -->
<g id="edge26" class="edge">
<title>Node86&#45;&gt;Node84</title>
<path fill="none" stroke="#191970" d="M395.2753,-191.8393C467.201,-191.665 582.128,-191.3864 659.64,-191.1984"/>
<polygon fill="#191970" stroke="#191970" points="659.8553,-194.698 669.8468,-191.1737 659.8383,-187.6981 659.8553,-194.698"/>
</g>
</g>
</svg>
