<?xml version="1.0" encoding="UTF-8" standalone="no"?>
<!DOCTYPE svg PUBLIC "-//W3C//DTD SVG 1.1//EN"
 "http://www.w3.org/Graphics/SVG/1.1/DTD/svg11.dtd">
<!-- Generated by graphviz version 2.40.1 (20161225.0304)
 -->
<!-- Title: src/main.cpp Pages: 1 -->
<svg width="275pt" height="134pt"
 viewBox="0.00 0.00 274.57 134.00" xmlns="http://www.w3.org/2000/svg" xmlns:xlink="http://www.w3.org/1999/xlink">
<g id="graph0" class="graph" transform="scale(1 1) rotate(0) translate(4 130)">
<title>src/main.cpp</title>
<polygon fill="#ffffff" stroke="transparent" points="-4,4 -4,-130 270.5711,-130 270.5711,4 -4,4"/>
<!-- Node0 -->
<g id="node1" class="node">
<title>Node0</title>
<polygon fill="#bfbfbf" stroke="#000000" points="93.1147,-108.5 93.1147,-125.5 173.1147,-125.5 173.1147,-108.5 93.1147,-108.5"/>
<text text-anchor="middle" x="133.1147" y="-115.1" font-family="DejaVuSansMono" font-size="8.00" fill="#000000">src/main.cpp</text>
</g>
<!-- Node1 -->
<g id="node2" class="node">
<title>Node1</title>
<g id="a_node2"><a xlink:href="EKF_8h.html" target="_top" xlink:title="Classe que implementa o filtro de Kalman estendido. ">
<polygon fill="#ffffff" stroke="#000000" points="111.6147,-54.5 111.6147,-71.5 154.6147,-71.5 154.6147,-54.5 111.6147,-54.5"/>
<text text-anchor="middle" x="133.1147" y="-61.1" font-family="DejaVuSansMono" font-size="8.00" fill="#000000">EKF.h</text>
</a>
</g>
</g>
<!-- Node0&#45;&gt;Node1 -->
<g id="edge1" class="edge">
<title>Node0&#45;&gt;Node1</title>
<path fill="none" stroke="#191970" d="M133.1147,-108.083C133.1147,-101.0059 133.1147,-90.8611 133.1147,-81.9865"/>
<polygon fill="#191970" stroke="#191970" points="136.6148,-81.751 133.1147,-71.7511 129.6148,-81.7511 136.6148,-81.751"/>
</g>
<!-- Node2 -->
<g id="node3" class="node">
<title>Node2</title>
<polygon fill="#ffffff" stroke="#bfbfbf" points="16.1147,-.5 16.1147,-17.5 90.1147,-17.5 90.1147,-.5 16.1147,-.5"/>
<text text-anchor="middle" x="53.1147" y="-7.1" font-family="DejaVuSansMono" font-size="8.00" fill="#000000">Eigen/Dense</text>
</g>
<!-- Node0&#45;&gt;Node2 -->
<g id="edge9" class="edge">
<title>Node0&#45;&gt;Node2</title>
<path fill="none" stroke="#191970" d="M93.3626,-108.4325C59.5141,-100.2362 14.725,-86.9386 4.1147,-72 -8.0901,-54.8165 11.508,-35.8112 29.4248,-23.2155"/>
<polygon fill="#191970" stroke="#191970" points="31.5295,-26.0198 37.9385,-17.5832 27.6672,-20.1817 31.5295,-26.0198"/>
</g>
<!-- Node3 -->
<g id="node4" class="node">
<title>Node3</title>
<polygon fill="#ffffff" stroke="#bfbfbf" points="144.1147,-.5 144.1147,-17.5 208.1147,-17.5 208.1147,-.5 144.1147,-.5"/>
<text text-anchor="middle" x="176.1147" y="-7.1" font-family="DejaVuSansMono" font-size="8.00" fill="#000000">Arduino.h</text>
</g>
<!-- Node0&#45;&gt;Node3 -->
<g id="edge10" class="edge">
<title>Node0&#45;&gt;Node3</title>
<path fill="none" stroke="#191970" d="M172.8668,-108.4325C206.7153,-100.2362 251.5044,-86.9386 262.1147,-72 278.1468,-49.4279 246.0781,-31.7239 216.6485,-20.906"/>
<polygon fill="#191970" stroke="#191970" points="217.4373,-17.4751 206.8425,-17.5043 215.1431,-24.0885 217.4373,-17.4751"/>
</g>
<!-- Node4 -->
<g id="node5" class="node">
<title>Node4</title>
<g id="a_node5"><a xlink:href="PARAMETROS_8h.html" target="_top" xlink:title="PARAMETROS.h">
<polygon fill="#ffffff" stroke="#000000" points="173.1147,-54.5 173.1147,-71.5 253.1147,-71.5 253.1147,-54.5 173.1147,-54.5"/>
<text text-anchor="middle" x="213.1147" y="-61.1" font-family="DejaVuSansMono" font-size="8.00" fill="#000000">PARAMETROS.h</text>
</a>
</g>
</g>
<!-- Node0&#45;&gt;Node4 -->
<g id="edge4" class="edge">
<title>Node0&#45;&gt;Node4</title>
<path fill="none" stroke="#191970" d="M145.9681,-108.324C158.3311,-99.979 177.2448,-87.2122 191.8519,-77.3524"/>
<polygon fill="#191970" stroke="#191970" points="193.9629,-80.1503 200.2932,-71.6545 190.0465,-74.3483 193.9629,-80.1503"/>
</g>
<!-- Node5 -->
<g id="node6" class="node">
<title>Node5</title>
<g id="a_node6"><a xlink:href="GRUPO__QUAT_8h.html" target="_top" xlink:title="Cabecalho com funcoes de quaternion. ">
<polygon fill="#ffffff" stroke="#000000" points="13.1147,-54.5 13.1147,-71.5 93.1147,-71.5 93.1147,-54.5 13.1147,-54.5"/>
<text text-anchor="middle" x="53.1147" y="-61.1" font-family="DejaVuSansMono" font-size="8.00" fill="#000000">GRUPO_QUAT.h</text>
</a>
</g>
</g>
<!-- Node0&#45;&gt;Node5 -->
<g id="edge6" class="edge">
<title>Node0&#45;&gt;Node5</title>
<path fill="none" stroke="#191970" d="M120.2613,-108.324C107.8983,-99.979 88.9846,-87.2122 74.3775,-77.3524"/>
<polygon fill="#191970" stroke="#191970" points="76.1829,-74.3483 65.9362,-71.6545 72.2665,-80.1503 76.1829,-74.3483"/>
</g>
<!-- Node1&#45;&gt;Node2 -->
<g id="edge2" class="edge">
<title>Node1&#45;&gt;Node2</title>
<path fill="none" stroke="#191970" d="M120.2613,-54.324C107.8983,-45.979 88.9846,-33.2122 74.3775,-23.3524"/>
<polygon fill="#191970" stroke="#191970" points="76.1829,-20.3483 65.9362,-17.6545 72.2665,-26.1503 76.1829,-20.3483"/>
</g>
<!-- Node1&#45;&gt;Node3 -->
<g id="edge3" class="edge">
<title>Node1&#45;&gt;Node3</title>
<path fill="none" stroke="#191970" d="M140.2153,-54.083C146.3517,-46.3768 155.3844,-35.0333 162.8539,-25.6531"/>
<polygon fill="#191970" stroke="#191970" points="165.6549,-27.7542 169.1462,-17.7511 160.179,-23.3936 165.6549,-27.7542"/>
</g>
<!-- Node4&#45;&gt;Node3 -->
<g id="edge5" class="edge">
<title>Node4&#45;&gt;Node3</title>
<path fill="none" stroke="#191970" d="M207.0049,-54.083C201.8325,-46.5341 194.2686,-35.4948 187.9203,-26.2298"/>
<polygon fill="#191970" stroke="#191970" points="190.6504,-24.0221 182.1108,-17.7511 184.8759,-27.9787 190.6504,-24.0221"/>
</g>
<!-- Node5&#45;&gt;Node2 -->
<g id="edge7" class="edge">
<title>Node5&#45;&gt;Node2</title>
<path fill="none" stroke="#191970" d="M53.1147,-54.083C53.1147,-47.0059 53.1147,-36.8611 53.1147,-27.9865"/>
<polygon fill="#191970" stroke="#191970" points="56.6148,-27.751 53.1147,-17.7511 49.6148,-27.7511 56.6148,-27.751"/>
</g>
<!-- Node5&#45;&gt;Node3 -->
<g id="edge8" class="edge">
<title>Node5&#45;&gt;Node3</title>
<path fill="none" stroke="#191970" d="M72.6044,-54.4435C92.7569,-45.5961 124.4376,-31.6875 147.4455,-21.5865"/>
<polygon fill="#191970" stroke="#191970" points="148.9667,-24.7411 156.7162,-17.5164 146.1527,-18.3316 148.9667,-24.7411"/>
</g>
</g>
</svg>
