<?xml version="1.0" encoding="UTF-8" standalone="no"?>
<!DOCTYPE svg PUBLIC "-//W3C//DTD SVG 1.1//EN"
 "http://www.w3.org/Graphics/SVG/1.1/DTD/svg11.dtd">
<!-- Generated by graphviz version 2.40.1 (20161225.0304)
 -->
<!-- Title: lib/IMU/METODOSCALIBRACAO.h Pages: 1 -->
<svg width="216pt" height="134pt"
 viewBox="0.00 0.00 216.00 134.00" xmlns="http://www.w3.org/2000/svg" xmlns:xlink="http://www.w3.org/1999/xlink">
<g id="graph0" class="graph" transform="scale(1 1) rotate(0) translate(4 130)">
<title>lib/IMU/METODOSCALIBRACAO.h</title>
<polygon fill="#ffffff" stroke="transparent" points="-4,4 -4,-130 212,-130 212,4 -4,4"/>
<!-- Node3 -->
<g id="node1" class="node">
<title>Node3</title>
<polygon fill="#bfbfbf" stroke="#000000" points="24.5,-108.5 24.5,-125.5 182.5,-125.5 182.5,-108.5 24.5,-108.5"/>
<text text-anchor="middle" x="103.5" y="-115.1" font-family="DejaVuSansMono" font-size="8.00" fill="#000000">lib/IMU/METODOSCALIBRACAO.h</text>
</g>
<!-- Node4 -->
<g id="node2" class="node">
<title>Node4</title>
<g id="a_node2"><a xlink:href="IMU_8h.html" target="_top" xlink:title="lib/IMU/IMU.h">
<polygon fill="#ffffff" stroke="#000000" points="61,-54.5 61,-71.5 146,-71.5 146,-54.5 61,-54.5"/>
<text text-anchor="middle" x="103.5" y="-61.1" font-family="DejaVuSansMono" font-size="8.00" fill="#000000">lib/IMU/IMU.h</text>
</a>
</g>
</g>
<!-- Node3&#45;&gt;Node4 -->
<g id="edge1" class="edge">
<title>Node3&#45;&gt;Node4</title>
<path fill="none" stroke="#191970" d="M103.5,-97.8045C103.5,-88.9102 103.5,-78.7798 103.5,-71.7511"/>
<polygon fill="#191970" stroke="#191970" points="100.0001,-98.083 103.5,-108.083 107.0001,-98.083 100.0001,-98.083"/>
</g>
<!-- Node5 -->
<g id="node3" class="node">
<title>Node5</title>
<g id="a_node3"><a xlink:href="EKF_8cpp.html" target="_top" xlink:title="Classe que implementa o filtro de Kalman estendido. ">
<polygon fill="#ffffff" stroke="#000000" points="0,-.5 0,-17.5 95,-17.5 95,-.5 0,-.5"/>
<text text-anchor="middle" x="47.5" y="-7.1" font-family="DejaVuSansMono" font-size="8.00" fill="#000000">lib/EKF/EKF.cpp</text>
</a>
</g>
</g>
<!-- Node4&#45;&gt;Node5 -->
<g id="edge2" class="edge">
<title>Node4&#45;&gt;Node5</title>
<path fill="none" stroke="#191970" d="M87.1701,-47.2533C77.235,-37.6731 64.9125,-25.7906 56.6611,-17.8339"/>
<polygon fill="#191970" stroke="#191970" points="84.8747,-49.902 94.5026,-54.324 89.7336,-44.8631 84.8747,-49.902"/>
</g>
<!-- Node6 -->
<g id="node4" class="node">
<title>Node6</title>
<g id="a_node4"><a xlink:href="IMU_8cpp.html" target="_top" xlink:title="lib/IMU/IMU.cpp">
<polygon fill="#ffffff" stroke="#000000" points="113,-.5 113,-17.5 208,-17.5 208,-.5 113,-.5"/>
<text text-anchor="middle" x="160.5" y="-7.1" font-family="DejaVuSansMono" font-size="8.00" fill="#000000">lib/IMU/IMU.cpp</text>
</a>
</g>
</g>
<!-- Node4&#45;&gt;Node6 -->
<g id="edge3" class="edge">
<title>Node4&#45;&gt;Node6</title>
<path fill="none" stroke="#191970" d="M120.1215,-47.2533C130.234,-37.6731 142.7766,-25.7906 151.1753,-17.8339"/>
<polygon fill="#191970" stroke="#191970" points="117.5105,-44.9056 112.658,-54.324 122.3247,-49.9873 117.5105,-44.9056"/>
</g>
</g>
</svg>
