<?xml version="1.0" encoding="UTF-8" standalone="no"?>
<!DOCTYPE svg PUBLIC "-//W3C//DTD SVG 1.1//EN"
 "http://www.w3.org/Graphics/SVG/1.1/DTD/svg11.dtd">
<!-- Generated by graphviz version 2.40.1 (20161225.0304)
 -->
<!-- Title: funcoesQuaternion.screwMatrix Pages: 1 -->
<svg width="550pt" height="72pt"
 viewBox="0.00 0.00 550.00 71.50" xmlns="http://www.w3.org/2000/svg" xmlns:xlink="http://www.w3.org/1999/xlink">
<g id="graph0" class="graph" transform="scale(1 1) rotate(0) translate(4 67.5)">
<title>funcoesQuaternion.screwMatrix</title>
<polygon fill="#ffffff" stroke="transparent" points="-4,4 -4,-67.5 546,-67.5 546,4 -4,4"/>
<!-- Node20 -->
<g id="node1" class="node">
<title>Node20</title>
<polygon fill="#bfbfbf" stroke="#000000" points="0,-25 0,-42 169,-42 169,-25 0,-25"/>
<text text-anchor="middle" x="84.5" y="-31.6" font-family="DejaVuSansMono" font-size="8.00" fill="#000000">funcoesQuaternion.screwMatrix</text>
</g>
<!-- Node21 -->
<g id="node2" class="node">
<title>Node21</title>
<g id="a_node2"><a xlink:href="namespacefuncoesQuaternion.html#ae6403803c70ef98b5fe361ed2ef6c0fb" target="_top" xlink:title="funcoesQuaternion.matrixQ">
<polygon fill="#ffffff" stroke="#000000" points="207.5,-46 207.5,-63 355.5,-63 355.5,-46 207.5,-46"/>
<text text-anchor="middle" x="281.5" y="-52.6" font-family="DejaVuSansMono" font-size="8.00" fill="#000000">funcoesQuaternion.matrixQ</text>
</a>
</g>
</g>
<!-- Node20&#45;&gt;Node21 -->
<g id="edge1" class="edge">
<title>Node20&#45;&gt;Node21</title>
<path fill="none" stroke="#191970" d="M174.3898,-43.0822C185.3908,-44.2549 196.536,-45.4429 207.2711,-46.5873"/>
<polygon fill="#191970" stroke="#191970" points="174.6581,-39.591 164.3434,-42.0112 173.9161,-46.5516 174.6581,-39.591"/>
</g>
<!-- Node23 -->
<g id="node4" class="node">
<title>Node23</title>
<g id="a_node4"><a xlink:href="namespacefuncoesQuaternion.html#ada70be41ba6ffe4e79d0748e7a7c5bb6" target="_top" xlink:title="funcoesQuaternion.rotation\lMatrix">
<polygon fill="#ffffff" stroke="#000000" points="205,-.5 205,-26.5 358,-26.5 358,-.5 205,-.5"/>
<text text-anchor="start" x="213" y="-16.1" font-family="DejaVuSansMono" font-size="8.00" fill="#000000">funcoesQuaternion.rotation</text>
<text text-anchor="middle" x="281.5" y="-7.1" font-family="DejaVuSansMono" font-size="8.00" fill="#000000">Matrix</text>
</a>
</g>
</g>
<!-- Node20&#45;&gt;Node23 -->
<g id="edge3" class="edge">
<title>Node20&#45;&gt;Node23</title>
<path fill="none" stroke="#191970" d="M178.3492,-23.9722C187.2551,-23.068 196.2117,-22.1587 204.9271,-21.2739"/>
<polygon fill="#191970" stroke="#191970" points="177.9267,-20.497 168.3314,-24.9892 178.6338,-27.4612 177.9267,-20.497"/>
</g>
<!-- Node22 -->
<g id="node3" class="node">
<title>Node22</title>
<g id="a_node3"><a xlink:href="namespacefuncoesQuaternion.html#ac2a07ac7ff5a03fc94498dee3cbd56c0" target="_top" xlink:title="funcoesQuaternion.matrixS">
<polygon fill="#ffffff" stroke="#000000" points="394,-46 394,-63 542,-63 542,-46 394,-46"/>
<text text-anchor="middle" x="468" y="-52.6" font-family="DejaVuSansMono" font-size="8.00" fill="#000000">funcoesQuaternion.matrixS</text>
</a>
</g>
</g>
<!-- Node21&#45;&gt;Node22 -->
<g id="edge2" class="edge">
<title>Node21&#45;&gt;Node22</title>
<path fill="none" stroke="#191970" d="M365.7848,-54.5C375.0966,-54.5 384.5287,-54.5 393.7052,-54.5"/>
<polygon fill="#191970" stroke="#191970" points="365.7457,-51.0001 355.7456,-54.5 365.7456,-58.0001 365.7457,-51.0001"/>
</g>
</g>
</svg>
