<?xml version="1.0" encoding="UTF-8" standalone="no"?>
<!DOCTYPE svg PUBLIC "-//W3C//DTD SVG 1.1//EN"
 "http://www.w3.org/Graphics/SVG/1.1/DTD/svg11.dtd">
<!-- Generated by graphviz version 2.40.1 (20161225.0304)
 -->
<!-- Title: ekf::computeMcdFromQuaternion Pages: 1 -->
<svg width="908pt" height="62pt"
 viewBox="0.00 0.00 908.00 62.00" xmlns="http://www.w3.org/2000/svg" xmlns:xlink="http://www.w3.org/1999/xlink">
<g id="graph0" class="graph" transform="scale(1 1) rotate(0) translate(4 58)">
<title>ekf::computeMcdFromQuaternion</title>
<polygon fill="#ffffff" stroke="transparent" points="-4,4 -4,-58 904,-58 904,4 -4,4"/>
<!-- Node2 -->
<g id="node1" class="node">
<title>Node2</title>
<polygon fill="#bfbfbf" stroke="#000000" points="0,-18.5 0,-35.5 169,-35.5 169,-18.5 0,-18.5"/>
<text text-anchor="middle" x="84.5" y="-25.1" font-family="DejaVuSansMono" font-size="8.00" fill="#000000">ekf::computeMcdFromQuaternion</text>
</g>
<!-- Node3 -->
<g id="node2" class="node">
<title>Node3</title>
<g id="a_node2"><a xlink:href="classekf_1_1EKF.html#a548f56f22a519f1f66b1bf59b9ed56d6" target="_top" xlink:title="ekf::EKF::temporalPrediction">
<polygon fill="#ffffff" stroke="#000000" points="410,-18.5 410,-35.5 574,-35.5 574,-18.5 410,-18.5"/>
<text text-anchor="middle" x="492" y="-25.1" font-family="DejaVuSansMono" font-size="8.00" fill="#000000">ekf::EKF::temporalPrediction</text>
</a>
</g>
</g>
<!-- Node2&#45;&gt;Node3 -->
<g id="edge1" class="edge">
<title>Node2&#45;&gt;Node3</title>
<path fill="none" stroke="#191970" d="M179.5553,-27C249.414,-27 343.3764,-27 409.9624,-27"/>
<polygon fill="#191970" stroke="#191970" points="179.4294,-23.5001 169.4293,-27 179.4293,-30.5001 179.4294,-23.5001"/>
</g>
<!-- Node8 -->
<g id="node7" class="node">
<title>Node8</title>
<g id="a_node7"><a xlink:href="classekf_1_1EKF.html#a4bd0d4a6ec2787cf1c690fcf154a43c5" target="_top" xlink:title="ekf::EKF::integrationOfStates">
<polygon fill="#ffffff" stroke="#000000" points="205,-.5 205,-17.5 374,-17.5 374,-.5 205,-.5"/>
<text text-anchor="middle" x="289.5" y="-7.1" font-family="DejaVuSansMono" font-size="8.00" fill="#000000">ekf::EKF::integrationOfStates</text>
</a>
</g>
</g>
<!-- Node2&#45;&gt;Node8 -->
<g id="edge6" class="edge">
<title>Node2&#45;&gt;Node8</title>
<path fill="none" stroke="#191970" d="M179.0854,-18.6949C187.6628,-17.9418 196.3146,-17.1821 204.7986,-16.4372"/>
<polygon fill="#191970" stroke="#191970" points="178.7204,-15.2134 169.0649,-19.5748 179.3327,-22.1866 178.7204,-15.2134"/>
</g>
<!-- Node4 -->
<g id="node3" class="node">
<title>Node4</title>
<g id="a_node3"><a xlink:href="classekf_1_1EKF.html#a651814ff64d234394572e2e7c5703a43" target="_top" xlink:title="ekf::EKF::loopEKF">
<polygon fill="#ffffff" stroke="#000000" points="610,-18.5 610,-35.5 716,-35.5 716,-18.5 610,-18.5"/>
<text text-anchor="middle" x="663" y="-25.1" font-family="DejaVuSansMono" font-size="8.00" fill="#000000">ekf::EKF::loopEKF</text>
</a>
</g>
</g>
<!-- Node3&#45;&gt;Node4 -->
<g id="edge2" class="edge">
<title>Node3&#45;&gt;Node4</title>
<path fill="none" stroke="#191970" d="M584.4946,-27C593.2067,-27 601.8214,-27 609.9734,-27"/>
<polygon fill="#191970" stroke="#191970" points="584.2444,-23.5001 574.2444,-27 584.2443,-30.5001 584.2444,-23.5001"/>
</g>
<!-- Node5 -->
<g id="node4" class="node">
<title>Node5</title>
<g id="a_node4"><a xlink:href="main_8cpp.html#aa561fc46a0358a47fa9151f211523ba0" target="_top" xlink:title="core_1">
<polygon fill="#ffffff" stroke="#000000" points="762.5,-36.5 762.5,-53.5 810.5,-53.5 810.5,-36.5 762.5,-36.5"/>
<text text-anchor="middle" x="786.5" y="-43.1" font-family="DejaVuSansMono" font-size="8.00" fill="#000000">core_1</text>
</a>
</g>
</g>
<!-- Node4&#45;&gt;Node5 -->
<g id="edge3" class="edge">
<title>Node4&#45;&gt;Node5</title>
<path fill="none" stroke="#191970" d="M726.3338,-36.2308C739.1327,-38.0963 751.8409,-39.9485 762.2569,-41.4666"/>
<polygon fill="#191970" stroke="#191970" points="726.4921,-32.717 716.0918,-34.7381 725.4825,-39.6438 726.4921,-32.717"/>
</g>
<!-- Node7 -->
<g id="node6" class="node">
<title>Node7</title>
<g id="a_node6"><a xlink:href="main_8cpp.html#a50d45340b3399db75c34c3b9f67c1b11" target="_top" xlink:title="telemetria">
<polygon fill="#ffffff" stroke="#000000" points="752,-.5 752,-17.5 821,-17.5 821,-.5 752,-.5"/>
<text text-anchor="middle" x="786.5" y="-7.1" font-family="DejaVuSansMono" font-size="8.00" fill="#000000">telemetria</text>
</a>
</g>
</g>
<!-- Node4&#45;&gt;Node7 -->
<g id="edge5" class="edge">
<title>Node4&#45;&gt;Node7</title>
<path fill="none" stroke="#191970" d="M726.0216,-17.8147C734.8374,-16.5298 743.6187,-15.2499 751.6462,-14.0799"/>
<polygon fill="#191970" stroke="#191970" points="725.4825,-14.3562 716.0918,-19.2619 726.4921,-21.283 725.4825,-14.3562"/>
</g>
<!-- Node6 -->
<g id="node5" class="node">
<title>Node6</title>
<g id="a_node5"><a xlink:href="main_8cpp.html#a4fc01d736fe50cf5b977f755b675f11d" target="_top" xlink:title="setup">
<polygon fill="#ffffff" stroke="#000000" points="857,-36.5 857,-53.5 900,-53.5 900,-36.5 857,-36.5"/>
<text text-anchor="middle" x="878.5" y="-43.1" font-family="DejaVuSansMono" font-size="8.00" fill="#000000">setup</text>
</a>
</g>
</g>
<!-- Node5&#45;&gt;Node6 -->
<g id="edge4" class="edge">
<title>Node5&#45;&gt;Node6</title>
<path fill="none" stroke="#191970" d="M820.9202,-45C833.0215,-45 846.2665,-45 856.9991,-45"/>
<polygon fill="#191970" stroke="#191970" points="820.672,-41.5001 810.6719,-45 820.6719,-48.5001 820.672,-41.5001"/>
</g>
<!-- Node8&#45;&gt;Node3 -->
<g id="edge7" class="edge">
<title>Node8&#45;&gt;Node3</title>
<path fill="none" stroke="#191970" d="M384.2309,-17.4205C392.8087,-18.183 401.4491,-18.951 409.9046,-19.7026"/>
<polygon fill="#191970" stroke="#191970" points="384.4756,-13.9286 374.2049,-16.5293 383.8557,-20.9011 384.4756,-13.9286"/>
</g>
</g>
</svg>
