<?xml version="1.0" encoding="UTF-8" standalone="no"?>
<!DOCTYPE svg PUBLIC "-//W3C//DTD SVG 1.1//EN"
 "http://www.w3.org/Graphics/SVG/1.1/DTD/svg11.dtd">
<!-- Generated by graphviz version 2.40.1 (20161225.0304)
 -->
<!-- Title: ekf::skew Pages: 1 -->
<svg width="1008pt" height="134pt"
 viewBox="0.00 0.00 1008.00 133.99" xmlns="http://www.w3.org/2000/svg" xmlns:xlink="http://www.w3.org/1999/xlink">
<g id="graph0" class="graph" transform="scale(1 1) rotate(0) translate(4 129.9901)">
<title>ekf::skew</title>
<polygon fill="#ffffff" stroke="transparent" points="-4,4 -4,-129.9901 1004,-129.9901 1004,4 -4,4"/>
<!-- Node43 -->
<g id="node1" class="node">
<title>Node43</title>
<polygon fill="#bfbfbf" stroke="#000000" points="0,-54.5 0,-71.5 64,-71.5 64,-54.5 0,-54.5"/>
<text text-anchor="middle" x="32" y="-61.1" font-family="DejaVuSansMono" font-size="8.00" fill="#000000">ekf::skew</text>
</g>
<!-- Node44 -->
<g id="node2" class="node">
<title>Node44</title>
<g id="a_node2"><a xlink:href="classekf_1_1EKF.html#ae6c0295a32e90b9594ad10bb1061b62b" target="_top" xlink:title="Atualiza matrix lineariza de estados F e a matrix G. ">
<polygon fill="#ffffff" stroke="#000000" points="126.5,-72.5 126.5,-89.5 242.5,-89.5 242.5,-72.5 126.5,-72.5"/>
<text text-anchor="middle" x="184.5" y="-79.1" font-family="DejaVuSansMono" font-size="8.00" fill="#000000">ekf::EKF::updateF_G</text>
</a>
</g>
</g>
<!-- Node43&#45;&gt;Node44 -->
<g id="edge1" class="edge">
<title>Node43&#45;&gt;Node44</title>
<path fill="none" stroke="#191970" d="M74.4905,-68.0153C90.5439,-69.9101 109.0987,-72.1002 126.3432,-74.1356"/>
<polygon fill="#191970" stroke="#191970" points="74.6827,-64.5137 64.3413,-66.8173 73.8621,-71.4655 74.6827,-64.5137"/>
</g>
<!-- Node51 -->
<g id="node9" class="node">
<title>Node51</title>
<g id="a_node9"><a xlink:href="classekf_1_1EKF.html#a94bc601335d20c0a058e8e8600d912e7" target="_top" xlink:title="ekf::EKF::updateH">
<polygon fill="#ffffff" stroke="#000000" points="539,-99.5 539,-116.5 645,-116.5 645,-99.5 539,-99.5"/>
<text text-anchor="middle" x="592" y="-106.1" font-family="DejaVuSansMono" font-size="8.00" fill="#000000">ekf::EKF::updateH</text>
</a>
</g>
</g>
<!-- Node43&#45;&gt;Node51 -->
<g id="edge8" class="edge">
<title>Node43&#45;&gt;Node51</title>
<path fill="none" stroke="#191970" d="M52.8764,-77.3577C65.8176,-85.3935 83.1393,-94.6481 100,-99 255.3068,-139.0859 447.4437,-125.2148 538.8531,-114.9695"/>
<polygon fill="#191970" stroke="#191970" points="54.5944,-74.3006 44.2966,-71.8093 50.7932,-80.1786 54.5944,-74.3006"/>
</g>
<!-- Node52 -->
<g id="node10" class="node">
<title>Node52</title>
<g id="a_node10"><a xlink:href="namespaceekf.html#a9c00a936937eadb4b340f0f969afbdca" target="_top" xlink:title="Calcula a Matriz Right&#45;Quaternion a partir do quaternion q. ">
<polygon fill="#ffffff" stroke="#000000" points="155,-36.5 155,-53.5 214,-53.5 214,-36.5 155,-36.5"/>
<text text-anchor="middle" x="184.5" y="-43.1" font-family="DejaVuSansMono" font-size="8.00" fill="#000000">ekf::S_r</text>
</a>
</g>
</g>
<!-- Node43&#45;&gt;Node52 -->
<g id="edge10" class="edge">
<title>Node43&#45;&gt;Node52</title>
<path fill="none" stroke="#191970" d="M74.5017,-57.9834C100.0531,-54.9675 131.9384,-51.204 154.7911,-48.5066"/>
<polygon fill="#191970" stroke="#191970" points="73.8621,-54.5345 64.3413,-59.1827 74.6827,-61.4863 73.8621,-54.5345"/>
</g>
<!-- Node53 -->
<g id="node11" class="node">
<title>Node53</title>
<g id="a_node11"><a xlink:href="namespaceekf.html#ac031eda654b199bd45807eed2acdb3ec" target="_top" xlink:title="ekf::computeMcdFromQuaternion">
<polygon fill="#ffffff" stroke="#000000" points="100,-.5 100,-17.5 269,-17.5 269,-.5 100,-.5"/>
<text text-anchor="middle" x="184.5" y="-7.1" font-family="DejaVuSansMono" font-size="8.00" fill="#000000">ekf::computeMcdFromQuaternion</text>
</a>
</g>
</g>
<!-- Node43&#45;&gt;Node53 -->
<g id="edge11" class="edge">
<title>Node43&#45;&gt;Node53</title>
<path fill="none" stroke="#191970" d="M54.2088,-49.2257C67.1573,-41.7163 84.037,-32.7979 100,-27 110.5736,-23.1596 122.2045,-20.0245 133.3655,-17.511"/>
<polygon fill="#191970" stroke="#191970" points="52.3494,-46.2593 45.5444,-54.3799 55.9282,-52.2754 52.3494,-46.2593"/>
</g>
<!-- Node45 -->
<g id="node3" class="node">
<title>Node45</title>
<g id="a_node3"><a xlink:href="classekf_1_1EKF.html#ad5949e9e8eae2938a332af03a8ec353b" target="_top" xlink:title="ekf::EKF::updatefi">
<polygon fill="#ffffff" stroke="#000000" points="334,-72.5 334,-89.5 445,-89.5 445,-72.5 334,-72.5"/>
<text text-anchor="middle" x="389.5" y="-79.1" font-family="DejaVuSansMono" font-size="8.00" fill="#000000">ekf::EKF::updatefi</text>
</a>
</g>
</g>
<!-- Node44&#45;&gt;Node45 -->
<g id="edge2" class="edge">
<title>Node44&#45;&gt;Node45</title>
<path fill="none" stroke="#191970" d="M252.9839,-81C279.3129,-81 309.0194,-81 333.9818,-81"/>
<polygon fill="#191970" stroke="#191970" points="252.6965,-77.5001 242.6964,-81 252.6964,-84.5001 252.6965,-77.5001"/>
</g>
<!-- Node46 -->
<g id="node4" class="node">
<title>Node46</title>
<g id="a_node4"><a xlink:href="classekf_1_1EKF.html#a548f56f22a519f1f66b1bf59b9ed56d6" target="_top" xlink:title="ekf::EKF::temporalPrediction">
<polygon fill="#ffffff" stroke="#000000" points="510,-54.5 510,-71.5 674,-71.5 674,-54.5 510,-54.5"/>
<text text-anchor="middle" x="592" y="-61.1" font-family="DejaVuSansMono" font-size="8.00" fill="#000000">ekf::EKF::temporalPrediction</text>
</a>
</g>
</g>
<!-- Node45&#45;&gt;Node46 -->
<g id="edge3" class="edge">
<title>Node45&#45;&gt;Node46</title>
<path fill="none" stroke="#191970" d="M455.1808,-75.1617C472.6483,-73.609 491.7339,-71.9125 509.9576,-70.2927"/>
<polygon fill="#191970" stroke="#191970" points="454.7527,-71.6859 445.1019,-76.0576 455.3725,-78.6584 454.7527,-71.6859"/>
</g>
<!-- Node47 -->
<g id="node5" class="node">
<title>Node47</title>
<g id="a_node5"><a xlink:href="classekf_1_1EKF.html#a651814ff64d234394572e2e7c5703a43" target="_top" xlink:title="ekf::EKF::loopEKF">
<polygon fill="#ffffff" stroke="#000000" points="710,-72.5 710,-89.5 816,-89.5 816,-72.5 710,-72.5"/>
<text text-anchor="middle" x="763" y="-79.1" font-family="DejaVuSansMono" font-size="8.00" fill="#000000">ekf::EKF::loopEKF</text>
</a>
</g>
</g>
<!-- Node46&#45;&gt;Node47 -->
<g id="edge4" class="edge">
<title>Node46&#45;&gt;Node47</title>
<path fill="none" stroke="#191970" d="M683.1972,-72.5997C692.2222,-73.5497 701.1622,-74.4908 709.6126,-75.3803"/>
<polygon fill="#191970" stroke="#191970" points="683.3046,-69.0918 672.9931,-71.5256 682.5717,-76.0533 683.3046,-69.0918"/>
</g>
<!-- Node48 -->
<g id="node6" class="node">
<title>Node48</title>
<g id="a_node6"><a xlink:href="main_8cpp.html#aa561fc46a0358a47fa9151f211523ba0" target="_top" xlink:title="core_1">
<polygon fill="#ffffff" stroke="#000000" points="862.5,-90.5 862.5,-107.5 910.5,-107.5 910.5,-90.5 862.5,-90.5"/>
<text text-anchor="middle" x="886.5" y="-97.1" font-family="DejaVuSansMono" font-size="8.00" fill="#000000">core_1</text>
</a>
</g>
</g>
<!-- Node47&#45;&gt;Node48 -->
<g id="edge5" class="edge">
<title>Node47&#45;&gt;Node48</title>
<path fill="none" stroke="#191970" d="M826.3338,-90.2308C839.1327,-92.0963 851.8409,-93.9485 862.2569,-95.4666"/>
<polygon fill="#191970" stroke="#191970" points="826.4921,-86.717 816.0918,-88.7381 825.4825,-93.6438 826.4921,-86.717"/>
</g>
<!-- Node50 -->
<g id="node8" class="node">
<title>Node50</title>
<g id="a_node8"><a xlink:href="main_8cpp.html#a50d45340b3399db75c34c3b9f67c1b11" target="_top" xlink:title="telemetria">
<polygon fill="#ffffff" stroke="#000000" points="852,-54.5 852,-71.5 921,-71.5 921,-54.5 852,-54.5"/>
<text text-anchor="middle" x="886.5" y="-61.1" font-family="DejaVuSansMono" font-size="8.00" fill="#000000">telemetria</text>
</a>
</g>
</g>
<!-- Node47&#45;&gt;Node50 -->
<g id="edge7" class="edge">
<title>Node47&#45;&gt;Node50</title>
<path fill="none" stroke="#191970" d="M826.0216,-71.8147C834.8374,-70.5298 843.6187,-69.2499 851.6462,-68.0799"/>
<polygon fill="#191970" stroke="#191970" points="825.4825,-68.3562 816.0918,-73.2619 826.4921,-75.283 825.4825,-68.3562"/>
</g>
<!-- Node49 -->
<g id="node7" class="node">
<title>Node49</title>
<g id="a_node7"><a xlink:href="main_8cpp.html#a4fc01d736fe50cf5b977f755b675f11d" target="_top" xlink:title="setup">
<polygon fill="#ffffff" stroke="#000000" points="957,-90.5 957,-107.5 1000,-107.5 1000,-90.5 957,-90.5"/>
<text text-anchor="middle" x="978.5" y="-97.1" font-family="DejaVuSansMono" font-size="8.00" fill="#000000">setup</text>
</a>
</g>
</g>
<!-- Node48&#45;&gt;Node49 -->
<g id="edge6" class="edge">
<title>Node48&#45;&gt;Node49</title>
<path fill="none" stroke="#191970" d="M920.9202,-99C933.0215,-99 946.2665,-99 956.9991,-99"/>
<polygon fill="#191970" stroke="#191970" points="920.672,-95.5001 910.6719,-99 920.6719,-102.5001 920.672,-95.5001"/>
</g>
<!-- Node51&#45;&gt;Node47 -->
<g id="edge9" class="edge">
<title>Node51&#45;&gt;Node47</title>
<path fill="none" stroke="#191970" d="M655.262,-98.0113C673.216,-95.1764 692.576,-92.1196 709.8648,-89.3898"/>
<polygon fill="#191970" stroke="#191970" points="654.4998,-94.5882 645.1681,-99.605 655.5916,-101.5025 654.4998,-94.5882"/>
</g>
<!-- Node53&#45;&gt;Node46 -->
<g id="edge12" class="edge">
<title>Node53&#45;&gt;Node46</title>
<path fill="none" stroke="#191970" d="M279.1112,-9.3153C335.9938,-10.8816 409.6084,-15.3422 474,-27 507.9318,-33.1432 545.8555,-45.7982 569.3292,-54.3447"/>
<polygon fill="#191970" stroke="#191970" points="279.1363,-5.8149 269.0518,-9.0635 278.9611,-12.8127 279.1363,-5.8149"/>
</g>
<!-- Node54 -->
<g id="node12" class="node">
<title>Node54</title>
<g id="a_node12"><a xlink:href="classekf_1_1EKF.html#a4bd0d4a6ec2787cf1c690fcf154a43c5" target="_top" xlink:title="ekf::EKF::integrationOfStates">
<polygon fill="#ffffff" stroke="#000000" points="305,-36.5 305,-53.5 474,-53.5 474,-36.5 305,-36.5"/>
<text text-anchor="middle" x="389.5" y="-43.1" font-family="DejaVuSansMono" font-size="8.00" fill="#000000">ekf::EKF::integrationOfStates</text>
</a>
</g>
</g>
<!-- Node53&#45;&gt;Node54 -->
<g id="edge13" class="edge">
<title>Node53&#45;&gt;Node54</title>
<path fill="none" stroke="#191970" d="M243.2956,-19.3251C274.2128,-24.7544 311.6573,-31.3301 340.9118,-36.4674"/>
<polygon fill="#191970" stroke="#191970" points="243.5368,-15.814 233.0821,-17.5315 242.326,-22.7085 243.5368,-15.814"/>
</g>
<!-- Node54&#45;&gt;Node46 -->
<g id="edge14" class="edge">
<title>Node54&#45;&gt;Node46</title>
<path fill="none" stroke="#191970" d="M484.2309,-53.4205C492.8087,-54.183 501.4491,-54.951 509.9046,-55.7026"/>
<polygon fill="#191970" stroke="#191970" points="484.4756,-49.9286 474.2049,-52.5293 483.8557,-56.9011 484.4756,-49.9286"/>
</g>
</g>
</svg>
