<?xml version="1.0" encoding="UTF-8" standalone="no"?>
<!DOCTYPE svg PUBLIC "-//W3C//DTD SVG 1.1//EN"
 "http://www.w3.org/Graphics/SVG/1.1/DTD/svg11.dtd">
<!-- Generated by graphviz version 2.40.1 (20161225.0304)
 -->
<!-- Title: ekf::quaternion2Euler Pages: 1 -->
<svg width="461pt" height="62pt"
 viewBox="0.00 0.00 461.00 62.00" xmlns="http://www.w3.org/2000/svg" xmlns:xlink="http://www.w3.org/1999/xlink">
<g id="graph0" class="graph" transform="scale(1 1) rotate(0) translate(4 58)">
<title>ekf::quaternion2Euler</title>
<polygon fill="#ffffff" stroke="transparent" points="-4,4 -4,-58 457,-58 457,4 -4,4"/>
<!-- Node34 -->
<g id="node1" class="node">
<title>Node34</title>
<polygon fill="#bfbfbf" stroke="#000000" points="0,-17.5 0,-34.5 127,-34.5 127,-17.5 0,-17.5"/>
<text text-anchor="middle" x="63.5" y="-24.1" font-family="DejaVuSansMono" font-size="8.00" fill="#000000">ekf::quaternion2Euler</text>
</g>
<!-- Node35 -->
<g id="node2" class="node">
<title>Node35</title>
<g id="a_node2"><a xlink:href="classekf_1_1EKF.html#a651814ff64d234394572e2e7c5703a43" target="_top" xlink:title="ekf::EKF::loopEKF">
<polygon fill="#ffffff" stroke="#000000" points="163,-36.5 163,-53.5 269,-53.5 269,-36.5 163,-36.5"/>
<text text-anchor="middle" x="216" y="-43.1" font-family="DejaVuSansMono" font-size="8.00" fill="#000000">ekf::EKF::loopEKF</text>
</a>
</g>
</g>
<!-- Node34&#45;&gt;Node35 -->
<g id="edge1" class="edge">
<title>Node34&#45;&gt;Node35</title>
<path fill="none" stroke="#191970" d="M137.2774,-35.1919C145.8233,-36.2567 154.4106,-37.3266 162.6094,-38.3481"/>
<polygon fill="#191970" stroke="#191970" points="137.6461,-31.7109 127.2901,-33.9476 136.7806,-38.6572 137.6461,-31.7109"/>
</g>
<!-- Node38 -->
<g id="node5" class="node">
<title>Node38</title>
<g id="a_node5"><a xlink:href="main_8cpp.html#a50d45340b3399db75c34c3b9f67c1b11" target="_top" xlink:title="telemetria">
<polygon fill="#ffffff" stroke="#000000" points="305,-.5 305,-17.5 374,-17.5 374,-.5 305,-.5"/>
<text text-anchor="middle" x="339.5" y="-7.1" font-family="DejaVuSansMono" font-size="8.00" fill="#000000">telemetria</text>
</a>
</g>
</g>
<!-- Node34&#45;&gt;Node38 -->
<g id="edge5" class="edge">
<title>Node34&#45;&gt;Node38</title>
<path fill="none" stroke="#191970" d="M137.4373,-21.4459C191.7181,-18.1025 262.9938,-13.7123 304.7688,-11.1392"/>
<polygon fill="#191970" stroke="#191970" points="136.9324,-17.9703 127.1665,-22.0785 137.3628,-24.957 136.9324,-17.9703"/>
</g>
<!-- Node36 -->
<g id="node3" class="node">
<title>Node36</title>
<g id="a_node3"><a xlink:href="main_8cpp.html#aa561fc46a0358a47fa9151f211523ba0" target="_top" xlink:title="core_1">
<polygon fill="#ffffff" stroke="#000000" points="315.5,-36.5 315.5,-53.5 363.5,-53.5 363.5,-36.5 315.5,-36.5"/>
<text text-anchor="middle" x="339.5" y="-43.1" font-family="DejaVuSansMono" font-size="8.00" fill="#000000">core_1</text>
</a>
</g>
</g>
<!-- Node35&#45;&gt;Node36 -->
<g id="edge2" class="edge">
<title>Node35&#45;&gt;Node36</title>
<path fill="none" stroke="#191970" d="M279.3338,-45C292.1327,-45 304.8409,-45 315.2569,-45"/>
<polygon fill="#191970" stroke="#191970" points="279.0919,-41.5001 269.0918,-45 279.0918,-48.5001 279.0919,-41.5001"/>
</g>
<!-- Node35&#45;&gt;Node38 -->
<g id="edge4" class="edge">
<title>Node35&#45;&gt;Node38</title>
<path fill="none" stroke="#191970" d="M255.3239,-33.5372C273.0542,-28.3688 293.639,-22.3684 310.0143,-17.595"/>
<polygon fill="#191970" stroke="#191970" points="253.8887,-30.3098 245.2678,-36.4685 255.8477,-37.0301 253.8887,-30.3098"/>
</g>
<!-- Node37 -->
<g id="node4" class="node">
<title>Node37</title>
<g id="a_node4"><a xlink:href="main_8cpp.html#a4fc01d736fe50cf5b977f755b675f11d" target="_top" xlink:title="setup">
<polygon fill="#ffffff" stroke="#000000" points="410,-36.5 410,-53.5 453,-53.5 453,-36.5 410,-36.5"/>
<text text-anchor="middle" x="431.5" y="-43.1" font-family="DejaVuSansMono" font-size="8.00" fill="#000000">setup</text>
</a>
</g>
</g>
<!-- Node36&#45;&gt;Node37 -->
<g id="edge3" class="edge">
<title>Node36&#45;&gt;Node37</title>
<path fill="none" stroke="#191970" d="M373.9202,-45C386.0215,-45 399.2665,-45 409.9991,-45"/>
<polygon fill="#191970" stroke="#191970" points="373.672,-41.5001 363.6719,-45 373.6719,-48.5001 373.672,-41.5001"/>
</g>
</g>
</svg>
