<?xml version="1.0" encoding="UTF-8" standalone="no"?>
<!DOCTYPE svg PUBLIC "-//W3C//DTD SVG 1.1//EN"
 "http://www.w3.org/Graphics/SVG/1.1/DTD/svg11.dtd">
<!-- Generated by graphviz version 2.40.1 (20161225.0304)
 -->
<!-- Title: ekf::printEigen Pages: 1 -->
<svg width="429pt" height="62pt"
 viewBox="0.00 0.00 429.00 62.00" xmlns="http://www.w3.org/2000/svg" xmlns:xlink="http://www.w3.org/1999/xlink">
<g id="graph0" class="graph" transform="scale(1 1) rotate(0) translate(4 58)">
<title>ekf::printEigen</title>
<polygon fill="#ffffff" stroke="transparent" points="-4,4 -4,-58 425,-58 425,4 -4,4"/>
<!-- Node28 -->
<g id="node1" class="node">
<title>Node28</title>
<polygon fill="#bfbfbf" stroke="#000000" points="0,-17.5 0,-34.5 95,-34.5 95,-17.5 0,-17.5"/>
<text text-anchor="middle" x="47.5" y="-24.1" font-family="DejaVuSansMono" font-size="8.00" fill="#000000">ekf::printEigen</text>
</g>
<!-- Node29 -->
<g id="node2" class="node">
<title>Node29</title>
<g id="a_node2"><a xlink:href="classekf_1_1EKF.html#a651814ff64d234394572e2e7c5703a43" target="_top" xlink:title="ekf::EKF::loopEKF">
<polygon fill="#ffffff" stroke="#000000" points="131,-36.5 131,-53.5 237,-53.5 237,-36.5 131,-36.5"/>
<text text-anchor="middle" x="184" y="-43.1" font-family="DejaVuSansMono" font-size="8.00" fill="#000000">ekf::EKF::loopEKF</text>
</a>
</g>
</g>
<!-- Node28&#45;&gt;Node29 -->
<g id="edge1" class="edge">
<title>Node28&#45;&gt;Node29</title>
<path fill="none" stroke="#191970" d="M105.4213,-34.0623C113.885,-35.2404 122.5657,-36.4487 130.9263,-37.6125"/>
<polygon fill="#191970" stroke="#191970" points="105.6281,-30.5574 95.2411,-32.6453 104.663,-37.4906 105.6281,-30.5574"/>
</g>
<!-- Node32 -->
<g id="node5" class="node">
<title>Node32</title>
<g id="a_node5"><a xlink:href="main_8cpp.html#a50d45340b3399db75c34c3b9f67c1b11" target="_top" xlink:title="telemetria">
<polygon fill="#ffffff" stroke="#000000" points="273,-.5 273,-17.5 342,-17.5 342,-.5 273,-.5"/>
<text text-anchor="middle" x="307.5" y="-7.1" font-family="DejaVuSansMono" font-size="8.00" fill="#000000">telemetria</text>
</a>
</g>
</g>
<!-- Node28&#45;&gt;Node32 -->
<g id="edge5" class="edge">
<title>Node28&#45;&gt;Node32</title>
<path fill="none" stroke="#191970" d="M105.4848,-22.2087C156.9004,-18.8469 230.2735,-14.0494 272.9866,-11.2566"/>
<polygon fill="#191970" stroke="#191970" points="104.9383,-18.7369 95.188,-22.8819 105.3951,-25.7219 104.9383,-18.7369"/>
</g>
<!-- Node30 -->
<g id="node3" class="node">
<title>Node30</title>
<g id="a_node3"><a xlink:href="main_8cpp.html#aa561fc46a0358a47fa9151f211523ba0" target="_top" xlink:title="core_1">
<polygon fill="#ffffff" stroke="#000000" points="283.5,-36.5 283.5,-53.5 331.5,-53.5 331.5,-36.5 283.5,-36.5"/>
<text text-anchor="middle" x="307.5" y="-43.1" font-family="DejaVuSansMono" font-size="8.00" fill="#000000">core_1</text>
</a>
</g>
</g>
<!-- Node29&#45;&gt;Node30 -->
<g id="edge2" class="edge">
<title>Node29&#45;&gt;Node30</title>
<path fill="none" stroke="#191970" d="M247.3338,-45C260.1327,-45 272.8409,-45 283.2569,-45"/>
<polygon fill="#191970" stroke="#191970" points="247.0919,-41.5001 237.0918,-45 247.0918,-48.5001 247.0919,-41.5001"/>
</g>
<!-- Node29&#45;&gt;Node32 -->
<g id="edge4" class="edge">
<title>Node29&#45;&gt;Node32</title>
<path fill="none" stroke="#191970" d="M223.3239,-33.5372C241.0542,-28.3688 261.639,-22.3684 278.0143,-17.595"/>
<polygon fill="#191970" stroke="#191970" points="221.8887,-30.3098 213.2678,-36.4685 223.8477,-37.0301 221.8887,-30.3098"/>
</g>
<!-- Node31 -->
<g id="node4" class="node">
<title>Node31</title>
<g id="a_node4"><a xlink:href="main_8cpp.html#a4fc01d736fe50cf5b977f755b675f11d" target="_top" xlink:title="setup">
<polygon fill="#ffffff" stroke="#000000" points="378,-36.5 378,-53.5 421,-53.5 421,-36.5 378,-36.5"/>
<text text-anchor="middle" x="399.5" y="-43.1" font-family="DejaVuSansMono" font-size="8.00" fill="#000000">setup</text>
</a>
</g>
</g>
<!-- Node30&#45;&gt;Node31 -->
<g id="edge3" class="edge">
<title>Node30&#45;&gt;Node31</title>
<path fill="none" stroke="#191970" d="M341.9202,-45C354.0215,-45 367.2665,-45 377.9991,-45"/>
<polygon fill="#191970" stroke="#191970" points="341.672,-41.5001 331.6719,-45 341.6719,-48.5001 341.672,-41.5001"/>
</g>
</g>
</svg>
