<?xml version="1.0" encoding="UTF-8" standalone="no"?>
<!DOCTYPE svg PUBLIC "-//W3C//DTD SVG 1.1//EN"
 "http://www.w3.org/Graphics/SVG/1.1/DTD/svg11.dtd">
<!-- Generated by graphviz version 2.40.1 (20161225.0304)
 -->
<!-- Title: funcoesQuaternion.matrixS Pages: 1 -->
<svg width="545pt" height="26pt"
 viewBox="0.00 0.00 545.00 26.00" xmlns="http://www.w3.org/2000/svg" xmlns:xlink="http://www.w3.org/1999/xlink">
<g id="graph0" class="graph" transform="scale(1 1) rotate(0) translate(4 22)">
<title>funcoesQuaternion.matrixS</title>
<polygon fill="#ffffff" stroke="transparent" points="-4,4 -4,-22 541,-22 541,4 -4,4"/>
<!-- Node8 -->
<g id="node1" class="node">
<title>Node8</title>
<polygon fill="#bfbfbf" stroke="#000000" points="0,-.5 0,-17.5 148,-17.5 148,-.5 0,-.5"/>
<text text-anchor="middle" x="74" y="-7.1" font-family="DejaVuSansMono" font-size="8.00" fill="#000000">funcoesQuaternion.matrixS</text>
</g>
<!-- Node9 -->
<g id="node2" class="node">
<title>Node9</title>
<g id="a_node2"><a xlink:href="namespacefuncoesQuaternion.html#ae6403803c70ef98b5fe361ed2ef6c0fb" target="_top" xlink:title="funcoesQuaternion.matrixQ">
<polygon fill="#ffffff" stroke="#000000" points="184,-.5 184,-17.5 332,-17.5 332,-.5 184,-.5"/>
<text text-anchor="middle" x="258" y="-7.1" font-family="DejaVuSansMono" font-size="8.00" fill="#000000">funcoesQuaternion.matrixQ</text>
</a>
</g>
</g>
<!-- Node8&#45;&gt;Node9 -->
<g id="edge1" class="edge">
<title>Node8&#45;&gt;Node9</title>
<path fill="none" stroke="#191970" d="M148.0445,-9C156.5139,-9 165.1946,-9 173.7841,-9"/>
<polygon fill="#191970" stroke="#191970" points="173.8075,-12.5001 183.8075,-9 173.8075,-5.5001 173.8075,-12.5001"/>
</g>
<!-- Node10 -->
<g id="node3" class="node">
<title>Node10</title>
<g id="a_node3"><a xlink:href="namespacefuncoesQuaternion.html#a7efd86bc50646d0d79ba1944a2622f08" target="_top" xlink:title="funcoesQuaternion.screwMatrix">
<polygon fill="#ffffff" stroke="#000000" points="368,-.5 368,-17.5 537,-17.5 537,-.5 368,-.5"/>
<text text-anchor="middle" x="452.5" y="-7.1" font-family="DejaVuSansMono" font-size="8.00" fill="#000000">funcoesQuaternion.screwMatrix</text>
</a>
</g>
</g>
<!-- Node9&#45;&gt;Node10 -->
<g id="edge2" class="edge">
<title>Node9&#45;&gt;Node10</title>
<path fill="none" stroke="#191970" d="M332.087,-9C340.4975,-9 349.1535,-9 357.7829,-9"/>
<polygon fill="#191970" stroke="#191970" points="357.8845,-12.5001 367.8845,-9 357.8845,-5.5001 357.8845,-12.5001"/>
</g>
</g>
</svg>
