<?xml version="1.0" encoding="UTF-8" standalone="no"?>
<!DOCTYPE svg PUBLIC "-//W3C//DTD SVG 1.1//EN"
 "http://www.w3.org/Graphics/SVG/1.1/DTD/svg11.dtd">
<!-- Generated by graphviz version 2.40.1 (20161225.0304)
 -->
<!-- Title: ekf::multiplyQuaternions Pages: 1 -->
<svg width="882pt" height="62pt"
 viewBox="0.00 0.00 882.00 62.00" xmlns="http://www.w3.org/2000/svg" xmlns:xlink="http://www.w3.org/1999/xlink">
<g id="graph0" class="graph" transform="scale(1 1) rotate(0) translate(4 58)">
<title>ekf::multiplyQuaternions</title>
<polygon fill="#ffffff" stroke="transparent" points="-4,4 -4,-58 878,-58 878,4 -4,4"/>
<!-- Node17 -->
<g id="node1" class="node">
<title>Node17</title>
<polygon fill="#bfbfbf" stroke="#000000" points="0,-18.5 0,-35.5 143,-35.5 143,-18.5 0,-18.5"/>
<text text-anchor="middle" x="71.5" y="-25.1" font-family="DejaVuSansMono" font-size="8.00" fill="#000000">ekf::multiplyQuaternions</text>
</g>
<!-- Node18 -->
<g id="node2" class="node">
<title>Node18</title>
<g id="a_node2"><a xlink:href="classekf_1_1EKF.html#a03bd00a47fa41884a6fef987dcb06c41" target="_top" xlink:title="ekf::EKF::statesUpdate">
<polygon fill="#ffffff" stroke="#000000" points="400,-36.5 400,-53.5 532,-53.5 532,-36.5 400,-36.5"/>
<text text-anchor="middle" x="466" y="-43.1" font-family="DejaVuSansMono" font-size="8.00" fill="#000000">ekf::EKF::statesUpdate</text>
</a>
</g>
</g>
<!-- Node17&#45;&gt;Node18 -->
<g id="edge1" class="edge">
<title>Node17&#45;&gt;Node18</title>
<path fill="none" stroke="#191970" d="M153.4826,-30.7407C226.5267,-34.0735 332.0586,-38.8886 399.8454,-41.9815"/>
<polygon fill="#191970" stroke="#191970" points="153.5478,-27.2401 143.3987,-30.2805 153.2287,-34.2328 153.5478,-27.2401"/>
</g>
<!-- Node23 -->
<g id="node7" class="node">
<title>Node23</title>
<g id="a_node7"><a xlink:href="classekf_1_1EKF.html#a4bd0d4a6ec2787cf1c690fcf154a43c5" target="_top" xlink:title="ekf::EKF::integrationOfStates">
<polygon fill="#ffffff" stroke="#000000" points="179,-.5 179,-17.5 348,-17.5 348,-.5 179,-.5"/>
<text text-anchor="middle" x="263.5" y="-7.1" font-family="DejaVuSansMono" font-size="8.00" fill="#000000">ekf::EKF::integrationOfStates</text>
</a>
</g>
</g>
<!-- Node17&#45;&gt;Node23 -->
<g id="edge6" class="edge">
<title>Node17&#45;&gt;Node23</title>
<path fill="none" stroke="#191970" d="M153.4437,-19.3178C161.8615,-18.5286 170.4268,-17.7256 178.8729,-16.9338"/>
<polygon fill="#191970" stroke="#191970" points="152.8964,-15.8537 143.2667,-20.2719 153.5498,-22.8231 152.8964,-15.8537"/>
</g>
<!-- Node19 -->
<g id="node3" class="node">
<title>Node19</title>
<g id="a_node3"><a xlink:href="classekf_1_1EKF.html#a651814ff64d234394572e2e7c5703a43" target="_top" xlink:title="ekf::EKF::loopEKF">
<polygon fill="#ffffff" stroke="#000000" points="584,-18.5 584,-35.5 690,-35.5 690,-18.5 584,-18.5"/>
<text text-anchor="middle" x="637" y="-25.1" font-family="DejaVuSansMono" font-size="8.00" fill="#000000">ekf::EKF::loopEKF</text>
</a>
</g>
</g>
<!-- Node18&#45;&gt;Node19 -->
<g id="edge2" class="edge">
<title>Node18&#45;&gt;Node19</title>
<path fill="none" stroke="#191970" d="M542.2387,-36.9749C556.2561,-35.4994 570.6095,-33.9885 583.7679,-32.6034"/>
<polygon fill="#191970" stroke="#191970" points="541.6917,-33.513 532.1131,-38.0407 542.4245,-40.4746 541.6917,-33.513"/>
</g>
<!-- Node20 -->
<g id="node4" class="node">
<title>Node20</title>
<g id="a_node4"><a xlink:href="main_8cpp.html#aa561fc46a0358a47fa9151f211523ba0" target="_top" xlink:title="core_1">
<polygon fill="#ffffff" stroke="#000000" points="736.5,-36.5 736.5,-53.5 784.5,-53.5 784.5,-36.5 736.5,-36.5"/>
<text text-anchor="middle" x="760.5" y="-43.1" font-family="DejaVuSansMono" font-size="8.00" fill="#000000">core_1</text>
</a>
</g>
</g>
<!-- Node19&#45;&gt;Node20 -->
<g id="edge3" class="edge">
<title>Node19&#45;&gt;Node20</title>
<path fill="none" stroke="#191970" d="M700.3338,-36.2308C713.1327,-38.0963 725.8409,-39.9485 736.2569,-41.4666"/>
<polygon fill="#191970" stroke="#191970" points="700.4921,-32.717 690.0918,-34.7381 699.4825,-39.6438 700.4921,-32.717"/>
</g>
<!-- Node22 -->
<g id="node6" class="node">
<title>Node22</title>
<g id="a_node6"><a xlink:href="main_8cpp.html#a50d45340b3399db75c34c3b9f67c1b11" target="_top" xlink:title="telemetria">
<polygon fill="#ffffff" stroke="#000000" points="726,-.5 726,-17.5 795,-17.5 795,-.5 726,-.5"/>
<text text-anchor="middle" x="760.5" y="-7.1" font-family="DejaVuSansMono" font-size="8.00" fill="#000000">telemetria</text>
</a>
</g>
</g>
<!-- Node19&#45;&gt;Node22 -->
<g id="edge5" class="edge">
<title>Node19&#45;&gt;Node22</title>
<path fill="none" stroke="#191970" d="M700.0216,-17.8147C708.8374,-16.5298 717.6187,-15.2499 725.6462,-14.0799"/>
<polygon fill="#191970" stroke="#191970" points="699.4825,-14.3562 690.0918,-19.2619 700.4921,-21.283 699.4825,-14.3562"/>
</g>
<!-- Node21 -->
<g id="node5" class="node">
<title>Node21</title>
<g id="a_node5"><a xlink:href="main_8cpp.html#a4fc01d736fe50cf5b977f755b675f11d" target="_top" xlink:title="setup">
<polygon fill="#ffffff" stroke="#000000" points="831,-36.5 831,-53.5 874,-53.5 874,-36.5 831,-36.5"/>
<text text-anchor="middle" x="852.5" y="-43.1" font-family="DejaVuSansMono" font-size="8.00" fill="#000000">setup</text>
</a>
</g>
</g>
<!-- Node20&#45;&gt;Node21 -->
<g id="edge4" class="edge">
<title>Node20&#45;&gt;Node21</title>
<path fill="none" stroke="#191970" d="M794.9202,-45C807.0215,-45 820.2665,-45 830.9991,-45"/>
<polygon fill="#191970" stroke="#191970" points="794.672,-41.5001 784.6719,-45 794.6719,-48.5001 794.672,-41.5001"/>
</g>
<!-- Node24 -->
<g id="node8" class="node">
<title>Node24</title>
<g id="a_node8"><a xlink:href="classekf_1_1EKF.html#a548f56f22a519f1f66b1bf59b9ed56d6" target="_top" xlink:title="ekf::EKF::temporalPrediction">
<polygon fill="#ffffff" stroke="#000000" points="384,-.5 384,-17.5 548,-17.5 548,-.5 384,-.5"/>
<text text-anchor="middle" x="466" y="-7.1" font-family="DejaVuSansMono" font-size="8.00" fill="#000000">ekf::EKF::temporalPrediction</text>
</a>
</g>
</g>
<!-- Node23&#45;&gt;Node24 -->
<g id="edge7" class="edge">
<title>Node23&#45;&gt;Node24</title>
<path fill="none" stroke="#191970" d="M358.2309,-9C366.8087,-9 375.4491,-9 383.9046,-9"/>
<polygon fill="#191970" stroke="#191970" points="358.2049,-5.5001 348.2049,-9 358.2049,-12.5001 358.2049,-5.5001"/>
</g>
<!-- Node24&#45;&gt;Node19 -->
<g id="edge8" class="edge">
<title>Node24&#45;&gt;Node19</title>
<path fill="none" stroke="#191970" d="M557.1972,-18.5997C566.2222,-19.5497 575.1622,-20.4908 583.6126,-21.3803"/>
<polygon fill="#191970" stroke="#191970" points="557.3046,-15.0918 546.9931,-17.5256 556.5717,-22.0533 557.3046,-15.0918"/>
</g>
</g>
</svg>
