<?xml version="1.0" encoding="UTF-8" standalone="no"?>
<!DOCTYPE svg PUBLIC "-//W3C//DTD SVG 1.1//EN"
 "http://www.w3.org/Graphics/SVG/1.1/DTD/svg11.dtd">
<!-- Generated by graphviz version 2.40.1 (20161225.0304)
 -->
<!-- Title: ekf::computeVectorProjection Pages: 1 -->
<svg width="698pt" height="62pt"
 viewBox="0.00 0.00 698.00 62.00" xmlns="http://www.w3.org/2000/svg" xmlns:xlink="http://www.w3.org/1999/xlink">
<g id="graph0" class="graph" transform="scale(1 1) rotate(0) translate(4 58)">
<title>ekf::computeVectorProjection</title>
<polygon fill="#ffffff" stroke="transparent" points="-4,4 -4,-58 694,-58 694,4 -4,4"/>
<!-- Node10 -->
<g id="node1" class="node">
<title>Node10</title>
<polygon fill="#bfbfbf" stroke="#000000" points="0,-18.5 0,-35.5 164,-35.5 164,-18.5 0,-18.5"/>
<text text-anchor="middle" x="82" y="-25.1" font-family="DejaVuSansMono" font-size="8.00" fill="#000000">ekf::computeVectorProjection</text>
</g>
<!-- Node11 -->
<g id="node2" class="node">
<title>Node11</title>
<g id="a_node2"><a xlink:href="classekf_1_1EKF.html#a548f56f22a519f1f66b1bf59b9ed56d6" target="_top" xlink:title="ekf::EKF::temporalPrediction">
<polygon fill="#ffffff" stroke="#000000" points="200,-18.5 200,-35.5 364,-35.5 364,-18.5 200,-18.5"/>
<text text-anchor="middle" x="282" y="-25.1" font-family="DejaVuSansMono" font-size="8.00" fill="#000000">ekf::EKF::temporalPrediction</text>
</a>
</g>
</g>
<!-- Node10&#45;&gt;Node11 -->
<g id="edge1" class="edge">
<title>Node10&#45;&gt;Node11</title>
<path fill="none" stroke="#191970" d="M174.4658,-27C182.9136,-27 191.4335,-27 199.7826,-27"/>
<polygon fill="#191970" stroke="#191970" points="174.2135,-23.5001 164.2135,-27 174.2134,-30.5001 174.2135,-23.5001"/>
</g>
<!-- Node12 -->
<g id="node3" class="node">
<title>Node12</title>
<g id="a_node3"><a xlink:href="classekf_1_1EKF.html#a651814ff64d234394572e2e7c5703a43" target="_top" xlink:title="ekf::EKF::loopEKF">
<polygon fill="#ffffff" stroke="#000000" points="400,-18.5 400,-35.5 506,-35.5 506,-18.5 400,-18.5"/>
<text text-anchor="middle" x="453" y="-25.1" font-family="DejaVuSansMono" font-size="8.00" fill="#000000">ekf::EKF::loopEKF</text>
</a>
</g>
</g>
<!-- Node11&#45;&gt;Node12 -->
<g id="edge2" class="edge">
<title>Node11&#45;&gt;Node12</title>
<path fill="none" stroke="#191970" d="M374.4946,-27C383.2067,-27 391.8214,-27 399.9734,-27"/>
<polygon fill="#191970" stroke="#191970" points="374.2444,-23.5001 364.2444,-27 374.2443,-30.5001 374.2444,-23.5001"/>
</g>
<!-- Node13 -->
<g id="node4" class="node">
<title>Node13</title>
<g id="a_node4"><a xlink:href="main_8cpp.html#aa561fc46a0358a47fa9151f211523ba0" target="_top" xlink:title="core_1">
<polygon fill="#ffffff" stroke="#000000" points="552.5,-36.5 552.5,-53.5 600.5,-53.5 600.5,-36.5 552.5,-36.5"/>
<text text-anchor="middle" x="576.5" y="-43.1" font-family="DejaVuSansMono" font-size="8.00" fill="#000000">core_1</text>
</a>
</g>
</g>
<!-- Node12&#45;&gt;Node13 -->
<g id="edge3" class="edge">
<title>Node12&#45;&gt;Node13</title>
<path fill="none" stroke="#191970" d="M516.3338,-36.2308C529.1327,-38.0963 541.8409,-39.9485 552.2569,-41.4666"/>
<polygon fill="#191970" stroke="#191970" points="516.4921,-32.717 506.0918,-34.7381 515.4825,-39.6438 516.4921,-32.717"/>
</g>
<!-- Node15 -->
<g id="node6" class="node">
<title>Node15</title>
<g id="a_node6"><a xlink:href="main_8cpp.html#a50d45340b3399db75c34c3b9f67c1b11" target="_top" xlink:title="telemetria">
<polygon fill="#ffffff" stroke="#000000" points="542,-.5 542,-17.5 611,-17.5 611,-.5 542,-.5"/>
<text text-anchor="middle" x="576.5" y="-7.1" font-family="DejaVuSansMono" font-size="8.00" fill="#000000">telemetria</text>
</a>
</g>
</g>
<!-- Node12&#45;&gt;Node15 -->
<g id="edge5" class="edge">
<title>Node12&#45;&gt;Node15</title>
<path fill="none" stroke="#191970" d="M516.0216,-17.8147C524.8374,-16.5298 533.6187,-15.2499 541.6462,-14.0799"/>
<polygon fill="#191970" stroke="#191970" points="515.4825,-14.3562 506.0918,-19.2619 516.4921,-21.283 515.4825,-14.3562"/>
</g>
<!-- Node14 -->
<g id="node5" class="node">
<title>Node14</title>
<g id="a_node5"><a xlink:href="main_8cpp.html#a4fc01d736fe50cf5b977f755b675f11d" target="_top" xlink:title="setup">
<polygon fill="#ffffff" stroke="#000000" points="647,-36.5 647,-53.5 690,-53.5 690,-36.5 647,-36.5"/>
<text text-anchor="middle" x="668.5" y="-43.1" font-family="DejaVuSansMono" font-size="8.00" fill="#000000">setup</text>
</a>
</g>
</g>
<!-- Node13&#45;&gt;Node14 -->
<g id="edge4" class="edge">
<title>Node13&#45;&gt;Node14</title>
<path fill="none" stroke="#191970" d="M610.9202,-45C623.0215,-45 636.2665,-45 646.9991,-45"/>
<polygon fill="#191970" stroke="#191970" points="610.672,-41.5001 600.6719,-45 610.6719,-48.5001 610.672,-41.5001"/>
</g>
</g>
</svg>
