<?xml version="1.0" encoding="UTF-8" standalone="no"?>
<!DOCTYPE svg PUBLIC "-//W3C//DTD SVG 1.1//EN"
 "http://www.w3.org/Graphics/SVG/1.1/DTD/svg11.dtd">
<!-- Generated by graphviz version 2.40.1 (20161225.0304)
 -->
<!-- Title: lib/TELEMETRIA/TELEMETRIA.h Pages: 1 -->
<svg width="376pt" height="80pt"
 viewBox="0.00 0.00 375.50 80.00" xmlns="http://www.w3.org/2000/svg" xmlns:xlink="http://www.w3.org/1999/xlink">
<g id="graph0" class="graph" transform="scale(1 1) rotate(0) translate(4 76)">
<title>lib/TELEMETRIA/TELEMETRIA.h</title>
<polygon fill="#ffffff" stroke="transparent" points="-4,4 -4,-76 371.5,-76 371.5,4 -4,4"/>
<!-- Node0 -->
<g id="node1" class="node">
<title>Node0</title>
<polygon fill="#bfbfbf" stroke="#000000" points="145.5,-54.5 145.5,-71.5 303.5,-71.5 303.5,-54.5 145.5,-54.5"/>
<text text-anchor="middle" x="224.5" y="-61.1" font-family="DejaVuSansMono" font-size="8.00" fill="#000000">lib/TELEMETRIA/TELEMETRIA.h</text>
</g>
<!-- Node1 -->
<g id="node2" class="node">
<title>Node1</title>
<polygon fill="#ffffff" stroke="#bfbfbf" points="0,-.5 0,-17.5 137,-17.5 137,-.5 0,-.5"/>
<text text-anchor="middle" x="68.5" y="-7.1" font-family="DejaVuSansMono" font-size="8.00" fill="#000000">../../eigen/Eigen/Dense</text>
</g>
<!-- Node0&#45;&gt;Node1 -->
<g id="edge1" class="edge">
<title>Node0&#45;&gt;Node1</title>
<path fill="none" stroke="#191970" d="M199.7813,-54.4435C173.6515,-45.3986 132.2406,-31.064 102.9236,-20.9158"/>
<polygon fill="#191970" stroke="#191970" points="103.6978,-17.4801 93.103,-17.5164 101.408,-24.0951 103.6978,-17.4801"/>
</g>
<!-- Node2 -->
<g id="node3" class="node">
<title>Node2</title>
<polygon fill="#ffffff" stroke="#bfbfbf" points="155.5,-.5 155.5,-17.5 219.5,-17.5 219.5,-.5 155.5,-.5"/>
<text text-anchor="middle" x="187.5" y="-7.1" font-family="DejaVuSansMono" font-size="8.00" fill="#000000">Arduino.h</text>
</g>
<!-- Node0&#45;&gt;Node2 -->
<g id="edge2" class="edge">
<title>Node0&#45;&gt;Node2</title>
<path fill="none" stroke="#191970" d="M218.3902,-54.083C213.2178,-46.5341 205.6539,-35.4948 199.3056,-26.2298"/>
<polygon fill="#191970" stroke="#191970" points="202.0357,-24.0221 193.4961,-17.7511 196.2612,-27.9787 202.0357,-24.0221"/>
</g>
<!-- Node3 -->
<g id="node4" class="node">
<title>Node3</title>
<polygon fill="#ffffff" stroke="#bfbfbf" points="237.5,-.5 237.5,-17.5 285.5,-17.5 285.5,-.5 237.5,-.5"/>
<text text-anchor="middle" x="261.5" y="-7.1" font-family="DejaVuSansMono" font-size="8.00" fill="#000000">WiFi.h</text>
</g>
<!-- Node0&#45;&gt;Node3 -->
<g id="edge3" class="edge">
<title>Node0&#45;&gt;Node3</title>
<path fill="none" stroke="#191970" d="M230.6098,-54.083C235.7822,-46.5341 243.3461,-35.4948 249.6944,-26.2298"/>
<polygon fill="#191970" stroke="#191970" points="252.7388,-27.9787 255.5039,-17.7511 246.9643,-24.0221 252.7388,-27.9787"/>
</g>
<!-- Node4 -->
<g id="node5" class="node">
<title>Node4</title>
<polygon fill="#ffffff" stroke="#bfbfbf" points="303.5,-.5 303.5,-17.5 367.5,-17.5 367.5,-.5 303.5,-.5"/>
<text text-anchor="middle" x="335.5" y="-7.1" font-family="DejaVuSansMono" font-size="8.00" fill="#000000">esp_now.h</text>
</g>
<!-- Node0&#45;&gt;Node4 -->
<g id="edge4" class="edge">
<title>Node0&#45;&gt;Node4</title>
<path fill="none" stroke="#191970" d="M242.3341,-54.324C260.2159,-45.6247 287.9751,-32.1202 308.5456,-22.113"/>
<polygon fill="#191970" stroke="#191970" points="310.249,-25.1765 317.7102,-17.6545 307.1867,-18.8819 310.249,-25.1765"/>
</g>
</g>
</svg>
