<?xml version="1.0" encoding="UTF-8" standalone="no"?>
<!DOCTYPE svg PUBLIC "-//W3C//DTD SVG 1.1//EN"
 "http://www.w3.org/Graphics/SVG/1.1/DTD/svg11.dtd">
<!-- Generated by graphviz version 2.40.1 (20161225.0304)
 -->
<!-- Title: lib/TELEMETRIA/TELEMETRIA.cpp Pages: 1 -->
<svg width="376pt" height="134pt"
 viewBox="0.00 0.00 376.00 134.00" xmlns="http://www.w3.org/2000/svg" xmlns:xlink="http://www.w3.org/1999/xlink">
<g id="graph0" class="graph" transform="scale(1 1) rotate(0) translate(4 130)">
<title>lib/TELEMETRIA/TELEMETRIA.cpp</title>
<polygon fill="#ffffff" stroke="transparent" points="-4,4 -4,-130 372,-130 372,4 -4,4"/>
<!-- Node0 -->
<g id="node1" class="node">
<title>Node0</title>
<polygon fill="#bfbfbf" stroke="#000000" points="7.5,-108.5 7.5,-125.5 176.5,-125.5 176.5,-108.5 7.5,-108.5"/>
<text text-anchor="middle" x="92" y="-115.1" font-family="DejaVuSansMono" font-size="8.00" fill="#000000">lib/TELEMETRIA/TELEMETRIA.cpp</text>
</g>
<!-- Node1 -->
<g id="node2" class="node">
<title>Node1</title>
<g id="a_node2"><a xlink:href="TELEMETRIA_8h.html" target="_top" xlink:title="TELEMETRIA.h">
<polygon fill="#ffffff" stroke="#000000" points="111,-54.5 111,-71.5 191,-71.5 191,-54.5 111,-54.5"/>
<text text-anchor="middle" x="151" y="-61.1" font-family="DejaVuSansMono" font-size="8.00" fill="#000000">TELEMETRIA.h</text>
</a>
</g>
</g>
<!-- Node0&#45;&gt;Node1 -->
<g id="edge1" class="edge">
<title>Node0&#45;&gt;Node1</title>
<path fill="none" stroke="#191970" d="M101.4794,-108.324C110.2011,-100.3414 123.3435,-88.3128 133.8978,-78.6529"/>
<polygon fill="#191970" stroke="#191970" points="136.3345,-81.1674 141.3481,-71.8339 131.6083,-76.0036 136.3345,-81.1674"/>
</g>
<!-- Node3 -->
<g id="node4" class="node">
<title>Node3</title>
<polygon fill="#ffffff" stroke="#bfbfbf" points="0,-.5 0,-17.5 64,-17.5 64,-.5 0,-.5"/>
<text text-anchor="middle" x="32" y="-7.1" font-family="DejaVuSansMono" font-size="8.00" fill="#000000">Arduino.h</text>
</g>
<!-- Node0&#45;&gt;Node3 -->
<g id="edge6" class="edge">
<title>Node0&#45;&gt;Node3</title>
<path fill="none" stroke="#191970" d="M87.0899,-108.1619C77.1963,-90.3533 54.7034,-49.8661 41.7252,-26.5054"/>
<polygon fill="#191970" stroke="#191970" points="44.7262,-24.7002 36.8102,-17.6584 38.6071,-28.0997 44.7262,-24.7002"/>
</g>
<!-- Node2 -->
<g id="node3" class="node">
<title>Node2</title>
<polygon fill="#ffffff" stroke="#bfbfbf" points="82.5,-.5 82.5,-17.5 219.5,-17.5 219.5,-.5 82.5,-.5"/>
<text text-anchor="middle" x="151" y="-7.1" font-family="DejaVuSansMono" font-size="8.00" fill="#000000">../../eigen/Eigen/Dense</text>
</g>
<!-- Node1&#45;&gt;Node2 -->
<g id="edge2" class="edge">
<title>Node1&#45;&gt;Node2</title>
<path fill="none" stroke="#191970" d="M151,-54.083C151,-47.0059 151,-36.8611 151,-27.9865"/>
<polygon fill="#191970" stroke="#191970" points="154.5001,-27.751 151,-17.7511 147.5001,-27.7511 154.5001,-27.751"/>
</g>
<!-- Node1&#45;&gt;Node3 -->
<g id="edge3" class="edge">
<title>Node1&#45;&gt;Node3</title>
<path fill="none" stroke="#191970" d="M132.1441,-54.4435C112.734,-45.6356 82.2699,-31.8116 60.0355,-21.722"/>
<polygon fill="#191970" stroke="#191970" points="61.3203,-18.4615 50.7677,-17.5164 58.4277,-24.836 61.3203,-18.4615"/>
</g>
<!-- Node4 -->
<g id="node5" class="node">
<title>Node4</title>
<polygon fill="#ffffff" stroke="#bfbfbf" points="238,-.5 238,-17.5 286,-17.5 286,-.5 238,-.5"/>
<text text-anchor="middle" x="262" y="-7.1" font-family="DejaVuSansMono" font-size="8.00" fill="#000000">WiFi.h</text>
</g>
<!-- Node1&#45;&gt;Node4 -->
<g id="edge4" class="edge">
<title>Node1&#45;&gt;Node4</title>
<path fill="none" stroke="#191970" d="M168.8341,-54.324C186.7159,-45.6247 214.4751,-32.1202 235.0456,-22.113"/>
<polygon fill="#191970" stroke="#191970" points="236.749,-25.1765 244.2102,-17.6545 233.6867,-18.8819 236.749,-25.1765"/>
</g>
<!-- Node5 -->
<g id="node6" class="node">
<title>Node5</title>
<polygon fill="#ffffff" stroke="#bfbfbf" points="304,-.5 304,-17.5 368,-17.5 368,-.5 304,-.5"/>
<text text-anchor="middle" x="336" y="-7.1" font-family="DejaVuSansMono" font-size="8.00" fill="#000000">esp_now.h</text>
</g>
<!-- Node1&#45;&gt;Node5 -->
<g id="edge5" class="edge">
<title>Node1&#45;&gt;Node5</title>
<path fill="none" stroke="#191970" d="M180.3138,-54.4435C211.8424,-45.2406 262.1313,-30.5617 296.9857,-20.3879"/>
<polygon fill="#191970" stroke="#191970" points="298.2046,-23.6783 306.8233,-17.5164 296.2432,-16.9587 298.2046,-23.6783"/>
</g>
</g>
</svg>
