<?xml version="1.0" encoding="UTF-8" standalone="no"?>
<!DOCTYPE svg PUBLIC "-//W3C//DTD SVG 1.1//EN"
 "http://www.w3.org/Graphics/SVG/1.1/DTD/svg11.dtd">
<!-- Generated by graphviz version 2.40.1 (20161225.0304)
 -->
<!-- Title: lib/TIME/TIME.cpp Pages: 1 -->
<svg width="114pt" height="134pt"
 viewBox="0.00 0.00 114.00 134.00" xmlns="http://www.w3.org/2000/svg" xmlns:xlink="http://www.w3.org/1999/xlink">
<g id="graph0" class="graph" transform="scale(1 1) rotate(0) translate(4 130)">
<title>lib/TIME/TIME.cpp</title>
<polygon fill="#ffffff" stroke="transparent" points="-4,4 -4,-130 110,-130 110,4 -4,4"/>
<!-- Node0 -->
<g id="node1" class="node">
<title>Node0</title>
<polygon fill="#bfbfbf" stroke="#000000" points="0,-108.5 0,-125.5 106,-125.5 106,-108.5 0,-108.5"/>
<text text-anchor="middle" x="53" y="-115.1" font-family="DejaVuSansMono" font-size="8.00" fill="#000000">lib/TIME/TIME.cpp</text>
</g>
<!-- Node1 -->
<g id="node2" class="node">
<title>Node1</title>
<g id="a_node2"><a xlink:href="TIME_8h.html" target="_top" xlink:title="Classe para medir Intervalo de tempo entre duas chamadas. ">
<polygon fill="#ffffff" stroke="#000000" points="3,-54.5 3,-71.5 51,-71.5 51,-54.5 3,-54.5"/>
<text text-anchor="middle" x="27" y="-61.1" font-family="DejaVuSansMono" font-size="8.00" fill="#000000">TIME.h</text>
</a>
</g>
</g>
<!-- Node0&#45;&gt;Node1 -->
<g id="edge1" class="edge">
<title>Node0&#45;&gt;Node1</title>
<path fill="none" stroke="#191970" d="M48.7066,-108.083C45.1477,-100.6913 39.9775,-89.9533 35.5757,-80.8111"/>
<polygon fill="#191970" stroke="#191970" points="38.7052,-79.2427 31.2135,-71.7511 32.3982,-82.2795 38.7052,-79.2427"/>
</g>
<!-- Node2 -->
<g id="node3" class="node">
<title>Node2</title>
<polygon fill="#ffffff" stroke="#bfbfbf" points="21,-.5 21,-17.5 85,-17.5 85,-.5 21,-.5"/>
<text text-anchor="middle" x="53" y="-7.1" font-family="DejaVuSansMono" font-size="8.00" fill="#000000">Arduino.h</text>
</g>
<!-- Node0&#45;&gt;Node2 -->
<g id="edge3" class="edge">
<title>Node0&#45;&gt;Node2</title>
<path fill="none" stroke="#191970" d="M54.7389,-108.4194C56.4718,-99.3986 59.0127,-84.7704 60,-72 61.156,-57.0471 59.0975,-40.1607 56.9193,-27.6368"/>
<polygon fill="#191970" stroke="#191970" points="60.3031,-26.6995 54.9741,-17.5425 53.4296,-28.0241 60.3031,-26.6995"/>
</g>
<!-- Node1&#45;&gt;Node2 -->
<g id="edge2" class="edge">
<title>Node1&#45;&gt;Node2</title>
<path fill="none" stroke="#191970" d="M31.2934,-54.083C34.8523,-46.6913 40.0225,-35.9533 44.4243,-26.8111"/>
<polygon fill="#191970" stroke="#191970" points="47.6018,-28.2795 48.7865,-17.7511 41.2948,-25.2427 47.6018,-28.2795"/>
</g>
</g>
</svg>
