<?xml version="1.0" encoding="UTF-8" standalone="no"?>
<!DOCTYPE svg PUBLIC "-//W3C//DTD SVG 1.1//EN"
 "http://www.w3.org/Graphics/SVG/1.1/DTD/svg11.dtd">
<!-- Generated by graphviz version 2.40.1 (20161225.0304)
 -->
<!-- Title: lib/TIME/TIME.h Pages: 1 -->
<svg width="228pt" height="80pt"
 viewBox="0.00 0.00 227.50 80.00" xmlns="http://www.w3.org/2000/svg" xmlns:xlink="http://www.w3.org/1999/xlink">
<g id="graph0" class="graph" transform="scale(1 1) rotate(0) translate(4 76)">
<title>lib/TIME/TIME.h</title>
<polygon fill="#ffffff" stroke="transparent" points="-4,4 -4,-76 223.5,-76 223.5,4 -4,4"/>
<!-- Node2 -->
<g id="node1" class="node">
<title>Node2</title>
<polygon fill="#bfbfbf" stroke="#000000" points="59,-54.5 59,-71.5 154,-71.5 154,-54.5 59,-54.5"/>
<text text-anchor="middle" x="106.5" y="-61.1" font-family="DejaVuSansMono" font-size="8.00" fill="#000000">lib/TIME/TIME.h</text>
</g>
<!-- Node3 -->
<g id="node2" class="node">
<title>Node3</title>
<g id="a_node2"><a xlink:href="EKF_8cpp.html" target="_top" xlink:title="Classe que implementa o filtro de Kalman estendido. ">
<polygon fill="#ffffff" stroke="#000000" points="0,-.5 0,-17.5 95,-17.5 95,-.5 0,-.5"/>
<text text-anchor="middle" x="47.5" y="-7.1" font-family="DejaVuSansMono" font-size="8.00" fill="#000000">lib/EKF/EKF.cpp</text>
</a>
</g>
</g>
<!-- Node2&#45;&gt;Node3 -->
<g id="edge1" class="edge">
<title>Node2&#45;&gt;Node3</title>
<path fill="none" stroke="#191970" d="M89.6055,-47.5372C79.0855,-37.9087 65.9313,-25.8694 57.1519,-17.8339"/>
<polygon fill="#191970" stroke="#191970" points="87.2808,-50.1542 97.0206,-54.324 92.0069,-44.9905 87.2808,-50.1542"/>
</g>
<!-- Node4 -->
<g id="node3" class="node">
<title>Node4</title>
<g id="a_node3"><a xlink:href="TIME_8cpp.html" target="_top" xlink:title="Classe para medir Intervalo de tempo entre duas chamadas. ">
<polygon fill="#ffffff" stroke="#000000" points="113.5,-.5 113.5,-17.5 219.5,-17.5 219.5,-.5 113.5,-.5"/>
<text text-anchor="middle" x="166.5" y="-7.1" font-family="DejaVuSansMono" font-size="8.00" fill="#000000">lib/TIME/TIME.cpp</text>
</a>
</g>
</g>
<!-- Node2&#45;&gt;Node4 -->
<g id="edge2" class="edge">
<title>Node2&#45;&gt;Node4</title>
<path fill="none" stroke="#191970" d="M123.6809,-47.5372C134.3792,-37.9087 147.7563,-25.8694 156.6846,-17.8339"/>
<polygon fill="#191970" stroke="#191970" points="121.2316,-45.0327 116.14,-54.324 125.9144,-50.2358 121.2316,-45.0327"/>
</g>
</g>
</svg>
