<?xml version="1.0" encoding="UTF-8" standalone="no"?>
<!DOCTYPE svg PUBLIC "-//W3C//DTD SVG 1.1//EN"
 "http://www.w3.org/Graphics/SVG/1.1/DTD/svg11.dtd">
<!-- Generated by graphviz version 2.40.1 (20161225.0304)
 -->
<!-- Title: UBXMessage Pages: 1 -->
<svg width="119pt" height="256pt"
 viewBox="0.00 0.00 119.00 256.00" xmlns="http://www.w3.org/2000/svg" xmlns:xlink="http://www.w3.org/1999/xlink">
<g id="graph0" class="graph" transform="scale(1 1) rotate(0) translate(4 252)">
<title>UBXMessage</title>
<polygon fill="#ffffff" stroke="transparent" points="-4,4 -4,-252 115,-252 115,4 -4,4"/>
<!-- Node1 -->
<g id="node1" class="node">
<title>Node1</title>
<polygon fill="#bfbfbf" stroke="#000000" points="18.5,-.5 18.5,-51.5 87.5,-51.5 87.5,-.5 18.5,-.5"/>
<text text-anchor="middle" x="53" y="-41.1" font-family="DejaVuSansMono" font-size="8.00" fill="#000000">UBXMessage</text>
<polyline fill="none" stroke="#000000" points="18.5,-34.5 87.5,-34.5 "/>
<text text-anchor="middle" x="53" y="-24.1" font-family="DejaVuSansMono" font-size="8.00" fill="#000000"> </text>
<polyline fill="none" stroke="#000000" points="18.5,-17.5 87.5,-17.5 "/>
<text text-anchor="middle" x="53" y="-7.1" font-family="DejaVuSansMono" font-size="8.00" fill="#000000"> </text>
</g>
<!-- Node2 -->
<g id="node2" class="node">
<title>Node2</title>
<g id="a_node2"><a xlink:href="structNAV__VELNED__STRUCT.html" target="_top" xlink:title="{NAV_VELNED_STRUCT\n|+ cls\l+ id\l+ len\l+ iTOW\l+ velN\l+ velE\l+ velD\l+ speed\l+ gSpeed\l+ heading\l+ sAcc\l+ cAcc\l|}">
<polygon fill="#ffffff" stroke="#000000" points="0,-97.5 0,-247.5 106,-247.5 106,-97.5 0,-97.5"/>
<text text-anchor="middle" x="53" y="-237.1" font-family="DejaVuSansMono" font-size="8.00" fill="#000000">NAV_VELNED_STRUCT</text>
<polyline fill="none" stroke="#000000" points="0,-230.5 106,-230.5 "/>
<text text-anchor="start" x="8" y="-220.1" font-family="DejaVuSansMono" font-size="8.00" fill="#000000">+ cls</text>
<text text-anchor="start" x="8" y="-211.1" font-family="DejaVuSansMono" font-size="8.00" fill="#000000">+ id</text>
<text text-anchor="start" x="8" y="-202.1" font-family="DejaVuSansMono" font-size="8.00" fill="#000000">+ len</text>
<text text-anchor="start" x="8" y="-193.1" font-family="DejaVuSansMono" font-size="8.00" fill="#000000">+ iTOW</text>
<text text-anchor="start" x="8" y="-184.1" font-family="DejaVuSansMono" font-size="8.00" fill="#000000">+ velN</text>
<text text-anchor="start" x="8" y="-175.1" font-family="DejaVuSansMono" font-size="8.00" fill="#000000">+ velE</text>
<text text-anchor="start" x="8" y="-166.1" font-family="DejaVuSansMono" font-size="8.00" fill="#000000">+ velD</text>
<text text-anchor="start" x="8" y="-157.1" font-family="DejaVuSansMono" font-size="8.00" fill="#000000">+ speed</text>
<text text-anchor="start" x="8" y="-148.1" font-family="DejaVuSansMono" font-size="8.00" fill="#000000">+ gSpeed</text>
<text text-anchor="start" x="8" y="-139.1" font-family="DejaVuSansMono" font-size="8.00" fill="#000000">+ heading</text>
<text text-anchor="start" x="8" y="-130.1" font-family="DejaVuSansMono" font-size="8.00" fill="#000000">+ sAcc</text>
<text text-anchor="start" x="8" y="-121.1" font-family="DejaVuSansMono" font-size="8.00" fill="#000000">+ cAcc</text>
<polyline fill="none" stroke="#000000" points="0,-114.5 106,-114.5 "/>
<text text-anchor="middle" x="53" y="-104.1" font-family="DejaVuSansMono" font-size="8.00" fill="#000000"> </text>
</a>
</g>
</g>
<!-- Node2&#45;&gt;Node1 -->
<g id="edge1" class="edge">
<title>Node2&#45;&gt;Node1</title>
<path fill="none" stroke="#404040" d="M53,-97.1043C53,-85.5691 53,-74.1049 53,-63.8573"/>
<polygon fill="none" stroke="#404040" points="53.0001,-63.6139 49,-57.6139 53,-51.6139 57,-57.6139 53.0001,-63.6139"/>
<text text-anchor="middle" x="82" y="-72.6" font-family="DejaVuSansMono" font-size="8.00" fill="#000000"> +navVelned</text>
</g>
</g>
</svg>
